# Blender v3.4.1 OBJ File: 'Tiny_Treats_Fun_Playground_ASSETS_EXPORT.blend'
# www.blender.org
mtllib cart_handle.mtl
o cart_handle
v -0.069994 0.400000 0.940000
v 0.070006 0.400000 0.940000
v -0.069994 0.505000 0.896508
v -0.049994 0.525000 0.888223
v -0.049994 0.451777 0.815000
v -0.069994 0.443492 0.835000
v 0.070006 0.443492 0.835000
v 0.050006 0.451777 0.815000
v 0.050006 0.525000 0.888223
v 0.070006 0.505000 0.896508
v -0.049994 0.348223 0.815000
v -0.069994 0.356508 0.835000
v 0.070006 0.356508 0.835000
v 0.050006 0.348223 0.815000
v -0.049994 0.275000 0.888223
v -0.069994 0.295000 0.896508
v 0.070006 0.295000 0.896508
v 0.050006 0.275000 0.888223
v -0.049994 0.275000 0.991777
v -0.069994 0.295000 0.983492
v 0.070006 0.295000 0.983492
v 0.050006 0.275000 0.991777
v -0.049994 0.348223 1.065000
v -0.069994 0.356508 1.045000
v 0.070006 0.356508 1.045000
v 0.050006 0.348223 1.065000
v -0.049994 0.451777 1.065000
v -0.069994 0.443492 1.045000
v 0.070006 0.443492 1.045000
v 0.050006 0.451777 1.065000
v -0.049994 0.525000 0.991777
v -0.069994 0.505000 0.983492
v 0.070006 0.505000 0.983492
v 0.050006 0.525000 0.991777
v -0.046875 0.434787 1.058308
v -0.026095 0.448788 1.058308
v 0.026092 0.448788 1.058308
v 0.046871 0.434787 1.058308
v -0.046875 0.368021 1.058308
v -0.026100 0.354015 1.058308
v 0.046871 0.368021 1.058308
v 0.026097 0.354015 1.058308
v 0.025792 0.445769 1.459716
v 0.046871 0.431768 1.459716
v -0.046875 0.431768 1.459716
v -0.025795 0.445769 1.459716
v 0.046871 0.368019 1.459716
v 0.025796 0.354015 1.459716
v -0.025800 0.354015 1.459716
v -0.046875 0.368019 1.459716
v -0.207374 0.357682 1.493046
v -0.192491 0.339138 1.504985
v -0.209437 0.339138 1.541716
v -0.226329 0.357681 1.528117
v -0.220777 0.357681 1.507067
v -0.204855 0.339138 1.519871
v 0.226325 0.357681 1.528117
v 0.209434 0.339138 1.541716
v 0.192487 0.339138 1.504985
v 0.207371 0.357682 1.493046
v 0.220774 0.357681 1.507067
v 0.204851 0.339138 1.519871
v -0.226329 0.442105 1.528117
v -0.209436 0.460645 1.541717
v -0.192489 0.460645 1.504987
v -0.207374 0.442105 1.493046
v -0.204853 0.460645 1.519872
v -0.220777 0.442105 1.507067
v 0.207371 0.442105 1.493046
v 0.192485 0.460645 1.504986
v 0.209432 0.460645 1.541717
v 0.226325 0.442105 1.528117
v 0.204850 0.460645 1.519872
v 0.220774 0.442105 1.507067
v -0.226329 0.357680 1.741088
v -0.208538 0.339138 1.726766
v -0.180377 0.339138 1.752209
v -0.198884 0.357680 1.767107
v -0.218290 0.357680 1.759486
v -0.200110 0.339138 1.744850
v 0.198880 0.357680 1.767107
v 0.180374 0.339138 1.752209
v 0.208535 0.339138 1.726765
v 0.226325 0.357680 1.741088
v 0.218287 0.357680 1.759486
v 0.200107 0.339138 1.744850
v -0.198884 0.442105 1.767107
v -0.180377 0.460645 1.752208
v -0.208537 0.460645 1.726765
v -0.226329 0.442105 1.741088
v -0.200109 0.460645 1.744850
v -0.218290 0.442105 1.759486
v 0.226325 0.442105 1.741088
v 0.208534 0.460645 1.726764
v 0.180373 0.460645 1.752208
v 0.198880 0.442105 1.767107
v 0.200106 0.460645 1.744849
v 0.218287 0.442105 1.759486
v -0.143314 0.339138 1.544432
v -0.121844 0.357678 1.561654
v -0.152350 0.357678 1.587674
v -0.173562 0.339138 1.570598
v -0.164675 0.339138 1.552180
v -0.143415 0.357678 1.569275
v -0.173562 0.460645 1.570597
v -0.152350 0.442105 1.587674
v -0.121844 0.442105 1.561654
v -0.143314 0.460645 1.544432
v -0.143415 0.442105 1.569275
v -0.164675 0.460645 1.552180
v 0.173558 0.339138 1.570597
v 0.152346 0.357678 1.587674
v 0.121840 0.357678 1.561654
v 0.143310 0.339138 1.544432
v 0.143411 0.357678 1.569275
v 0.164671 0.339138 1.552180
v 0.143310 0.460645 1.544432
v 0.121840 0.442105 1.561654
v 0.152346 0.442105 1.587674
v 0.173558 0.460645 1.570597
v 0.164671 0.460645 1.552180
v 0.143411 0.442105 1.569275
v -0.173557 0.339138 1.675103
v -0.152350 0.357678 1.658030
v -0.124904 0.357678 1.684049
v -0.146289 0.339138 1.701265
v -0.144311 0.357678 1.676428
v -0.165545 0.339138 1.693523
v -0.146289 0.460645 1.701265
v -0.124904 0.442105 1.684049
v -0.152350 0.442105 1.658030
v -0.173557 0.460645 1.675103
v -0.165545 0.460645 1.693523
v -0.144311 0.442105 1.676428
v 0.146285 0.339138 1.701265
v 0.124901 0.357678 1.684049
v 0.152346 0.357678 1.658030
v 0.173553 0.339138 1.675102
v 0.165541 0.339138 1.693522
v 0.144308 0.357678 1.676428
v 0.173553 0.460645 1.675102
v 0.152346 0.442105 1.658030
v 0.124901 0.442105 1.684049
v 0.146285 0.460645 1.701265
v 0.144308 0.442105 1.676428
v 0.165541 0.460645 1.693522
vt 0.304270 0.914757
vt 0.320732 0.914757
vt 0.320732 0.914757
vt 0.304270 0.914757
vt 0.300979 0.894182
vt 0.300979 0.901341
vt 0.300979 0.887023
vt 0.300979 0.876899
vt 0.300979 0.876899
vt 0.300979 0.887023
vt 0.300979 0.901341
vt 0.300979 0.911465
vt 0.300979 0.911465
vt 0.320732 0.902704
vt 0.304270 0.902704
vt 0.324023 0.894182
vt 0.324023 0.887023
vt 0.324023 0.901341
vt 0.324023 0.911465
vt 0.324023 0.911465
vt 0.324023 0.876899
vt 0.304270 0.873607
vt 0.320732 0.873607
vt 0.320732 0.873607
vt 0.304270 0.873607
vt 0.324023 0.876899
vt 0.320732 0.885660
vt 0.304270 0.885660
vt 0.324023 0.887023
vt 0.320732 0.902704
vt 0.304270 0.902704
vt 0.324023 0.901341
vt 0.320732 0.885659
vt 0.304270 0.885659
vt 0.304270 0.930382
vt 0.304270 0.918329
vt 0.300979 0.916966
vt 0.300979 0.927090
vt 0.320732 0.918329
vt 0.320732 0.930382
vt 0.324023 0.927090
vt 0.324023 0.916966
vt 0.304270 0.901284
vt 0.300979 0.902648
vt 0.320732 0.901284
vt 0.324023 0.902648
vt 0.304270 0.889232
vt 0.300979 0.892524
vt 0.320732 0.889232
vt 0.324023 0.892524
vt 0.304270 0.889232
vt 0.300979 0.892524
vt 0.320732 0.889232
vt 0.324023 0.892524
vt 0.304270 0.901285
vt 0.300979 0.902648
vt 0.320732 0.901285
vt 0.324023 0.902648
vt 0.304270 0.918329
vt 0.300979 0.916966
vt 0.320732 0.918329
vt 0.324023 0.916966
vt 0.304270 0.930382
vt 0.300979 0.927090
vt 0.320732 0.930382
vt 0.324023 0.927090
vt 0.307627 0.870609
vt 0.307627 0.870609
vt 0.307627 0.916502
vt 0.307627 0.916502
vt 0.317374 0.870609
vt 0.317374 0.870609
vt 0.317374 0.916502
vt 0.317374 0.916502
vt 0.299657 0.920788
vt 0.299657 0.920788
vt 0.309788 0.870609
vt 0.315213 0.870609
vt 0.315182 0.916502
vt 0.309819 0.916502
vt 0.315214 0.835416
vt 0.309787 0.835416
vt 0.309818 0.881310
vt 0.315183 0.881310
vt 0.303563 0.897933
vt 0.303563 0.897933
vt 0.304765 0.898464
vt 0.304765 0.898464
vt 0.302302 0.924912
vt 0.299814 0.922659
vt 0.300579 0.921621
vt 0.303625 0.924372
vt 0.323249 0.891005
vt 0.323249 0.897840
vt 0.325415 0.899804
vt 0.325471 0.888990
vt 0.303065 0.896649
vt 0.303065 0.896649
vt 0.303619 0.890912
vt 0.303619 0.890912
vt 0.303065 0.892196
vt 0.303065 0.892196
vt 0.325343 0.920788
vt 0.325343 0.920788
vt 0.322699 0.889720
vt 0.325188 0.887467
vt 0.324421 0.886429
vt 0.321376 0.889180
vt 0.321560 0.899665
vt 0.303441 0.899665
vt 0.301330 0.901579
vt 0.323671 0.901579
vt 0.304955 0.890381
vt 0.304955 0.890381
vt 0.301752 0.897840
vt 0.301752 0.891005
vt 0.299530 0.888990
vt 0.299586 0.899804
vt 0.324817 0.937810
vt 0.324817 0.937810
vt 0.300184 0.937810
vt 0.300184 0.937810
vt 0.320235 0.898464
vt 0.320235 0.898464
vt 0.321438 0.897933
vt 0.321438 0.897933
vt 0.321382 0.890912
vt 0.321382 0.890912
vt 0.321936 0.892196
vt 0.321936 0.892196
vt 0.298827 0.921766
vt 0.298827 0.921766
vt 0.298483 0.923234
vt 0.298483 0.923234
vt 0.326517 0.923234
vt 0.326517 0.923234
vt 0.326517 0.935995
vt 0.326517 0.935995
vt 0.321376 0.924372
vt 0.324421 0.921621
vt 0.325471 0.924183
vt 0.323249 0.926197
vt 0.322699 0.924912
vt 0.325187 0.922659
vt 0.323249 0.933032
vt 0.325415 0.934996
vt 0.298483 0.935995
vt 0.298483 0.935995
vt 0.324893 0.901065
vt 0.322753 0.899125
vt 0.322753 0.934317
vt 0.324893 0.936257
vt 0.323671 0.936771
vt 0.321560 0.934857
vt 0.303441 0.934857
vt 0.301330 0.936771
vt 0.299586 0.934996
vt 0.301752 0.933032
vt 0.302248 0.934317
vt 0.300108 0.936257
vt 0.302302 0.889720
vt 0.299813 0.887467
vt 0.326173 0.921766
vt 0.326173 0.921766
vt 0.301752 0.926197
vt 0.299530 0.924183
vt 0.321936 0.896649
vt 0.321936 0.896649
vt 0.326019 0.937278
vt 0.326019 0.937278
vt 0.298982 0.937278
vt 0.298982 0.937278
vt 0.320046 0.890381
vt 0.320046 0.890381
vt 0.300108 0.901065
vt 0.302248 0.899125
vt 0.303625 0.889180
vt 0.300579 0.886429
vt 0.317374 0.898906
vt 0.317374 0.853013
vt 0.315214 0.853013
vt 0.315183 0.898906
vt 0.307627 0.853013
vt 0.307627 0.898906
vt 0.309818 0.898906
vt 0.309787 0.853013
vt 0.307627 0.934098
vt 0.307627 0.888205
vt 0.309788 0.888205
vt 0.309819 0.934098
vt 0.315182 0.934098
vt 0.315213 0.888205
vt 0.317374 0.888205
vt 0.317374 0.934098
vt 0.325188 0.905063
vt 0.325471 0.906586
vt 0.326517 0.905638
vt 0.326173 0.904170
vt 0.325471 0.941779
vt 0.325187 0.940255
vt 0.326173 0.939362
vt 0.326517 0.940830
vt 0.324421 0.904025
vt 0.325343 0.903192
vt 0.324421 0.939217
vt 0.325343 0.938384
vt 0.299813 0.905063
vt 0.300579 0.904025
vt 0.299657 0.903192
vt 0.298827 0.904170
vt 0.300579 0.939217
vt 0.299814 0.940255
vt 0.298827 0.939362
vt 0.299657 0.938384
vt 0.299530 0.906586
vt 0.298483 0.905638
vt 0.299530 0.941779
vt 0.298483 0.940830
vt 0.324893 0.918661
vt 0.323671 0.919175
vt 0.324817 0.920214
vt 0.326019 0.919682
vt 0.323671 0.954367
vt 0.324893 0.953854
vt 0.326019 0.954874
vt 0.324817 0.955406
vt 0.325415 0.917400
vt 0.326517 0.918399
vt 0.325415 0.952592
vt 0.326517 0.953591
vt 0.300108 0.918661
vt 0.299586 0.917400
vt 0.298483 0.918399
vt 0.298982 0.919682
vt 0.299586 0.952592
vt 0.300108 0.953854
vt 0.298982 0.954874
vt 0.298483 0.953591
vt 0.301330 0.919175
vt 0.300184 0.920214
vt 0.301330 0.954367
vt 0.300184 0.955406
vt 0.303065 0.909792
vt 0.303619 0.908508
vt 0.302302 0.907316
vt 0.301752 0.908601
vt 0.304955 0.907977
vt 0.303625 0.906776
vt 0.321382 0.908508
vt 0.321936 0.909792
vt 0.323249 0.908601
vt 0.322699 0.907316
vt 0.320046 0.907977
vt 0.321376 0.906776
vt 0.321936 0.909792
vt 0.321382 0.908508
vt 0.322699 0.907316
vt 0.323249 0.908601
vt 0.320046 0.907977
vt 0.321376 0.906776
vt 0.303619 0.908508
vt 0.303065 0.909792
vt 0.301752 0.908601
vt 0.302302 0.907316
vt 0.304955 0.907977
vt 0.303625 0.906776
vt 0.321936 0.914245
vt 0.321438 0.915529
vt 0.322753 0.916721
vt 0.323249 0.915436
vt 0.320235 0.916060
vt 0.321560 0.917261
vt 0.303563 0.915529
vt 0.303065 0.914245
vt 0.301752 0.915436
vt 0.302248 0.916721
vt 0.304765 0.916060
vt 0.303441 0.917261
vt 0.303065 0.914245
vt 0.303563 0.915529
vt 0.302248 0.916721
vt 0.301752 0.915436
vt 0.304765 0.916060
vt 0.303441 0.917261
vt 0.321438 0.915529
vt 0.321936 0.914245
vt 0.323249 0.915436
vt 0.322753 0.916721
vt 0.320235 0.916060
vt 0.321560 0.917261
vn -0.3689 0.8587 0.3557
vn 0.3689 0.8587 0.3557
vn 0.3689 0.8587 -0.3557
vn -0.3689 0.8587 -0.3557
vn -1.0000 0.0000 0.0000
vn -0.8991 0.1675 -0.4044
vn -0.8991 -0.1675 -0.4044
vn -0.8991 -0.4044 -0.1675
vn -0.8991 -0.4044 0.1675
vn -0.8991 -0.1675 0.4044
vn -0.8991 0.1675 0.4044
vn -0.8991 0.4044 0.1675
vn -0.8991 0.4044 -0.1675
vn 0.3689 0.3557 -0.8587
vn -0.3689 0.3557 -0.8587
vn 1.0000 0.0000 -0.0000
vn 0.8991 -0.1675 -0.4044
vn 0.8991 0.1675 -0.4044
vn 0.8991 0.4044 -0.1675
vn 0.8991 0.4044 0.1675
vn 0.8991 -0.4044 -0.1675
vn -0.3689 -0.8587 -0.3557
vn 0.3689 -0.8587 -0.3557
vn 0.3689 -0.8587 0.3557
vn -0.3689 -0.8587 0.3557
vn 0.8991 -0.4044 0.1675
vn 0.3689 -0.3557 0.8587
vn -0.3689 -0.3557 0.8587
vn 0.8991 -0.1675 0.4044
vn 0.3689 0.3557 0.8587
vn -0.3689 0.3557 0.8587
vn 0.8991 0.1675 0.4044
vn 0.3689 -0.3557 -0.8587
vn -0.3689 -0.3557 -0.8587
vn 0.8821 -0.4710 0.0001
vn 0.8811 0.4729 0.0037
vn 0.5810 0.4598 -0.6716
vn 0.5796 -0.4599 -0.6727
vn -0.8811 0.4729 0.0037
vn -0.8821 -0.4710 0.0001
vn -0.5796 -0.4599 -0.6727
vn -0.5810 0.4598 -0.6716
vn 0.4703 0.3353 -0.8163
vn 0.4704 -0.3353 -0.8163
vn 0.2903 0.9569 0.0073
vn -0.2903 0.9569 0.0073
vn -0.1596 0.9744 -0.1585
vn 0.1596 0.9744 -0.1585
vn -0.2908 -0.9568 0.0001
vn 0.2908 -0.9568 0.0001
vn 0.1593 -0.9738 -0.1620
vn -0.1593 -0.9738 -0.1620
vn -0.5841 0.5197 -0.6235
vn -0.5841 -0.5197 -0.6235
vn -0.1403 -0.4123 -0.9002
vn -0.1403 0.4123 -0.9002
vn -0.1558 0.9739 0.1650
vn 0.3710 0.9108 -0.1809
vn 0.2085 0.8607 -0.4645
vn -0.0724 0.9650 0.2522
vn 0.2621 -0.9623 0.0727
vn 0.2692 -0.9607 -0.0685
vn -0.4073 -0.9110 0.0644
vn -0.4091 -0.9118 -0.0336
vn -0.8731 0.4603 -0.1605
vn -0.8731 -0.4603 -0.1605
vn -0.5587 0.5173 0.6483
vn -0.5587 -0.5173 0.6483
vn -0.8676 -0.4651 0.1758
vn -0.8676 0.4651 0.1758
vn -0.4704 -0.3353 -0.8163
vn -0.4703 0.3353 -0.8163
vn 0.1558 -0.9739 0.1650
vn -0.3711 -0.9108 -0.1809
vn -0.2085 -0.8606 -0.4646
vn 0.0724 -0.9650 0.2522
vn 0.0755 -0.9520 -0.2968
vn -0.0755 -0.9520 -0.2968
vn 0.0496 -0.8970 0.4393
vn -0.0496 -0.8970 0.4393
vn -0.1275 0.4079 0.9041
vn -0.1275 -0.4079 0.9041
vn -0.2692 -0.9607 -0.0685
vn -0.2621 -0.9623 0.0727
vn 0.4091 -0.9118 -0.0336
vn 0.4073 -0.9110 0.0644
vn -0.1914 0.3700 0.9091
vn -0.1914 -0.3700 0.9091
vn 0.1914 -0.3700 0.9091
vn 0.1914 0.3700 0.9091
vn 0.1403 0.4123 -0.9002
vn 0.1403 -0.4123 -0.9002
vn 0.5841 -0.5197 -0.6235
vn 0.5841 0.5197 -0.6235
vn 0.5587 -0.5173 0.6483
vn 0.5587 0.5173 0.6483
vn 0.8676 0.4651 0.1758
vn 0.8676 -0.4651 0.1758
vn 0.8095 -0.3785 -0.4489
vn 0.8094 0.3786 -0.4489
vn 0.9199 0.3718 -0.1252
vn 0.9199 -0.3717 -0.1252
vn -0.9199 0.3718 -0.1252
vn -0.9199 -0.3717 -0.1252
vn -0.8979 -0.3899 0.2044
vn -0.8979 0.3899 0.2044
vn 0.0724 0.9650 0.2522
vn -0.2085 0.8607 -0.4645
vn -0.4091 0.9119 -0.0336
vn 0.2621 0.9623 0.0727
vn 0.1558 0.9739 0.1650
vn -0.3710 0.9108 -0.1809
vn 0.2692 0.9607 -0.0685
vn -0.4072 0.9111 0.0644
vn 0.8979 0.3899 0.2044
vn 0.8979 -0.3899 0.2044
vn -0.2652 -0.9157 0.3019
vn 0.1601 -0.9742 -0.1593
vn 0.1601 0.9742 -0.1593
vn -0.2652 0.9157 0.3019
vn -0.0496 0.8970 0.4393
vn 0.0755 0.9520 -0.2968
vn -0.0755 0.9520 -0.2968
vn 0.0496 0.8970 0.4393
vn 0.4072 0.9111 0.0644
vn -0.2692 0.9607 -0.0685
vn -0.1601 0.9742 -0.1593
vn 0.2652 0.9157 0.3019
vn -0.1558 -0.9739 0.1650
vn 0.3711 -0.9108 -0.1809
vn -0.8094 0.3786 -0.4489
vn -0.8095 -0.3785 -0.4489
vn -0.2621 0.9623 0.0727
vn 0.4091 0.9119 -0.0336
vn 0.8731 -0.4603 -0.1605
vn 0.8731 0.4603 -0.1605
vn -0.6391 -0.3963 0.6592
vn -0.6391 0.3963 0.6592
vn 0.6391 0.3963 0.6592
vn 0.6391 -0.3963 0.6592
vn 0.1275 0.4079 0.9041
vn 0.1275 -0.4079 0.9041
vn 0.2652 -0.9157 0.3019
vn -0.1601 -0.9742 -0.1593
vn -0.0724 -0.9650 0.2522
vn 0.2085 -0.8606 -0.4646
usemtl tiny_treats_1
s 1
f 31/1/1 34/2/2 9/3/3 4/4/4
f 1/5/5 6/6/6 12/7/7
f 1/5/5 12/7/7 16/8/8
f 1/5/5 16/8/8 20/9/9
f 1/5/5 20/9/9 24/10/10
f 1/5/5 24/10/10 28/11/11
f 1/5/5 28/11/11 32/12/12
f 1/5/5 32/12/12 3/13/13
f 4/4/4 9/3/3 8/14/14 5/15/15
f 2/16/16 13/17/17 7/18/18
f 2/16/16 7/18/18 10/19/19
f 2/16/16 10/19/19 33/20/20
f 2/16/16 17/21/21 13/17/17
f 15/22/22 18/23/23 22/24/24 19/25/25
f 2/16/16 21/26/26 17/21/21
f 19/25/25 22/24/24 26/27/27 23/28/28
f 2/16/16 25/29/29 21/26/26
f 23/28/28 26/27/27 30/30/30 27/31/31
f 2/16/16 29/32/32 25/29/29
f 27/31/31 30/30/30 34/2/2 31/1/1
f 2/16/16 33/20/20 29/32/32
f 5/15/15 8/14/14 14/33/33 11/34/34
f 11/34/34 14/33/33 18/23/23 15/22/22
f 4/35/4 5/36/15 6/37/6 3/38/13
f 8/39/14 9/40/3 10/41/19 7/42/18
f 5/36/15 11/43/34 12/44/7 6/37/6
f 14/45/33 8/39/14 7/42/18 13/46/17
f 11/43/34 15/47/22 16/48/8 12/44/7
f 18/49/23 14/45/33 13/46/17 17/50/21
f 15/47/22 19/51/25 20/52/9 16/48/8
f 22/53/24 18/49/23 17/50/21 21/54/26
f 19/51/25 23/55/28 24/56/10 20/52/9
f 26/57/27 22/53/24 21/54/26 25/58/29
f 23/55/28 27/59/31 28/60/11 24/56/10
f 30/61/30 26/57/27 25/58/29 29/62/32
f 27/59/31 31/63/1 32/64/12 28/60/11
f 34/65/2 30/61/30 29/62/32 33/66/20
f 31/63/1 4/35/4 3/38/13 32/64/12
f 9/40/3 34/65/2 33/66/20 10/41/19
f 1/5/5 3/13/13 6/6/6
f 41/67/35 38/68/36 44/69/37 47/70/38
f 35/71/39 39/72/40 50/73/41 45/74/42
f 47/70/38 44/69/37 69/75/43 60/76/44
f 37/77/45 36/78/46 46/79/47 43/80/48
f 40/81/49 42/82/50 48/83/51 49/84/52
f 145/85/53 140/86/54 136/87/55 143/88/56
f 121/89/57 73/90/58 70/91/59 117/92/60
f 102/93/61 123/94/62 76/95/63 53/96/64
f 142/97/65 137/98/66 140/86/54 145/85/53
f 122/99/67 115/100/68 112/101/69 119/102/70
f 45/74/42 50/73/41 51/103/71 66/104/72
f 103/105/73 56/106/74 52/107/75 99/108/76
f 126/109/77 135/110/78 82/111/79 77/112/80
f 118/113/81 113/114/82 115/100/68 122/99/67
f 138/115/83 111/116/84 58/117/85 83/118/86
f 87/119/87 78/120/88 81/121/89 96/122/90
f 130/123/91 125/124/92 127/125/93 134/126/94
f 104/127/95 109/128/96 106/129/97 101/130/98
f 61/131/99 74/132/100 72/133/101 57/134/102
f 63/135/103 54/136/104 75/137/105 90/138/106
f 108/139/107 117/92/60 70/91/59 43/80/48 46/79/47 65/140/108
f 102/93/61 53/96/64 56/106/74 103/105/73
f 64/141/109 105/142/110 110/143/111 67/144/112
f 132/145/113 105/142/110 64/141/109 89/146/114
f 57/134/102 72/133/101 93/147/115 84/148/116
f 80/149/117 128/150/118 126/109/77 77/112/80
f 133/151/119 91/152/120 88/153/121 129/154/122
f 144/155/123 129/154/122 88/153/121 95/156/124
f 94/157/125 141/158/126 146/159/127 97/160/128
f 58/117/85 111/116/84 116/161/129 62/162/130
f 60/76/44 69/75/43 74/132/100 61/131/99
f 54/136/104 63/135/103 68/163/131 55/164/132
f 55/164/132 68/163/131 66/104/72 51/103/71
f 67/144/112 110/143/111 108/139/107 65/140/108
f 120/165/133 71/166/134 73/90/58 121/89/57
f 134/126/94 127/125/93 124/167/135 131/168/136
f 120/165/133 141/158/126 94/157/125 71/166/134
f 79/169/137 92/170/138 90/138/106 75/137/105
f 78/120/88 87/119/87 92/170/138 79/169/137
f 84/148/116 93/147/115 98/171/139 85/172/140
f 85/172/140 98/171/139 96/122/90 81/121/89
f 97/160/128 146/159/127 144/155/123 95/156/124
f 132/145/113 89/146/114 91/152/120 133/151/119
f 118/113/81 107/173/141 100/174/142 113/114/82
f 106/129/97 131/168/136 124/167/135 101/130/98
f 130/123/91 143/88/56 136/87/55 125/124/92
f 76/95/63 123/94/62 128/150/118 80/149/117
f 138/115/83 83/118/86 86/175/143 139/176/144
f 139/176/144 86/175/143 82/111/79 135/110/78
f 62/162/130 116/161/129 114/177/145 59/178/146
f 142/97/65 119/102/70 112/101/69 137/98/66
f 114/177/145 99/108/76 52/107/75 49/84/52 48/83/51 59/178/146
f 50/179/41 39/180/40 40/181/49 49/182/52
f 41/183/35 47/184/38 48/185/51 42/186/50
f 44/187/37 38/188/36 37/189/45 43/190/48
f 46/191/47 36/192/46 35/193/39 45/194/42
f 56/195/74 53/196/64 54/197/104 55/198/132
f 64/199/109 67/200/112 68/201/131 63/202/103
f 52/203/75 56/195/74 55/198/132 51/204/71
f 67/200/112 65/205/108 66/206/72 68/201/131
f 62/207/130 59/208/146 60/209/44 61/210/99
f 70/211/59 73/212/58 74/213/100 69/214/43
f 58/215/85 62/207/130 61/210/99 57/216/102
f 73/212/58 71/217/134 72/218/101 74/213/100
f 80/219/117 77/220/80 78/221/88 79/222/137
f 88/223/121 91/224/120 92/225/138 87/226/87
f 76/227/63 80/219/117 79/222/137 75/228/105
f 91/224/120 89/229/114 90/230/106 92/225/138
f 86/231/143 83/232/86 84/233/116 85/234/140
f 94/235/125 97/236/128 98/237/139 93/238/115
f 82/239/79 86/231/143 85/234/140 81/240/89
f 97/236/128 95/241/124 96/242/90 98/237/139
f 75/228/105 54/197/104 53/196/64 76/227/63
f 51/204/71 50/179/41 49/182/52 52/203/75
f 47/184/38 60/209/44 59/208/146 48/185/51
f 69/214/43 44/187/37 43/190/48 70/211/59
f 45/194/42 66/206/72 65/205/108 46/191/47
f 63/202/103 90/230/106 89/229/114 64/199/109
f 57/216/102 84/233/116 83/232/86 58/215/85
f 93/238/115 72/218/101 71/217/134 94/235/125
f 81/240/89 78/221/88 77/220/80 82/239/79
f 87/226/87 96/242/90 95/241/124 88/223/121
f 112/243/69 115/244/68 116/245/129 111/246/84
f 115/244/68 113/247/82 114/248/145 116/245/129
f 104/249/95 101/250/98 102/251/61 103/252/73
f 100/253/142 104/249/95 103/252/73 99/254/76
f 106/255/97 109/256/96 110/257/111 105/258/110
f 109/256/96 107/259/141 108/260/107 110/257/111
f 122/261/67 119/262/70 120/263/133 121/264/57
f 118/265/81 122/261/67 121/264/57 117/266/60
f 124/267/135 127/268/93 128/269/118 123/270/62
f 127/268/93 125/271/92 126/272/77 128/269/118
f 140/273/54 137/274/66 138/275/83 139/276/144
f 136/277/55 140/273/54 139/276/144 135/278/78
f 142/279/65 145/280/53 146/281/127 141/282/126
f 145/280/53 143/283/56 144/284/123 146/281/127
f 134/285/94 131/286/136 132/287/113 133/288/119
f 130/289/91 134/285/94 133/288/119 129/290/122
f 117/266/60 108/260/107 107/259/141 118/265/81
f 99/254/76 114/248/145 113/247/82 100/253/142
f 101/250/98 124/267/135 123/270/62 102/251/61
f 105/258/110 132/287/113 131/286/136 106/255/97
f 141/282/126 120/263/133 119/262/70 142/279/65
f 111/246/84 138/275/83 137/274/66 112/243/69
f 125/271/92 136/277/55 135/278/78 126/272/77
f 129/290/122 144/284/123 143/283/56 130/289/91
f 100/174/142 107/173/141 109/128/96 104/127/95
