# Blender v3.4.1 OBJ File: 'Tiny_Treats_Fun_Playground_ASSETS_EXPORT.blend'
# www.blender.org
mtllib fence_straight.mtl
o fence_straight
v 0.799999 1.950000 -0.150000
v 0.849999 1.950000 -0.200000
v 0.849999 2.000000 -0.150000
v 0.849999 0.050000 -0.200000
v 0.799999 0.050000 -0.150000
v 0.849999 0.000000 -0.150000
v 1.150000 1.950000 -0.200000
v 1.200000 1.950000 -0.150000
v 1.150000 2.000000 -0.150000
v 1.200000 0.050000 -0.150000
v 1.150000 0.050000 -0.200000
v 1.150000 0.000000 -0.150000
v 0.849999 1.950000 0.200000
v 0.799999 1.950000 0.150000
v 0.849999 2.000000 0.150000
v 0.799999 0.050000 0.150000
v 0.849999 0.050000 0.200000
v 0.849999 -0.000000 0.150000
v 1.150000 1.950000 0.200000
v 1.150000 2.000000 0.150000
v 1.200000 1.950000 0.150000
v 1.150000 0.050000 0.200000
v 1.200000 0.050000 0.150000
v 1.150000 -0.000000 0.150000
v 0.150000 0.250000 0.150001
v 0.150000 0.200000 0.100001
v 0.850000 0.200000 0.100000
v 0.850000 0.250000 0.150000
v 0.150000 0.200000 -0.099999
v 0.150000 0.250000 -0.149999
v 0.850000 0.250000 -0.150000
v 0.850000 0.200000 -0.100000
v 0.150000 0.500000 0.100001
v 0.150000 0.450000 0.150001
v 0.850000 0.449999 0.150000
v 0.850000 0.500000 0.100000
v 0.150000 0.500000 -0.099999
v 0.150000 0.450000 -0.149999
v 0.850000 0.500000 -0.100000
v 0.850000 0.450000 -0.150000
v 0.400000 1.400001 -0.100000
v 0.350000 1.400001 -0.050000
v 0.400000 0.500001 -0.099999
v 0.350000 0.500001 -0.049999
v 0.350000 1.400001 0.050000
v 0.400000 1.400001 0.100000
v 0.400000 0.500001 0.100001
v 0.350000 0.500001 0.050001
v 0.650000 1.400001 -0.050000
v 0.600000 1.400001 -0.100000
v 0.600000 0.500001 -0.099999
v 0.650000 0.500001 -0.049999
v 0.600000 1.400001 0.100000
v 0.650000 1.400001 0.050000
v 0.650000 0.500001 0.050001
v 0.600000 0.500001 0.100001
v 0.850000 1.650000 -0.150000
v 0.850000 1.700000 -0.100000
v 0.150000 1.650001 -0.149999
v 0.150000 1.700001 -0.099999
v 0.850000 1.700000 0.100000
v 0.850000 1.650000 0.150000
v 0.150000 1.650001 0.150001
v 0.150000 1.700001 0.100001
v 0.850000 1.400000 -0.100000
v 0.850000 1.450000 -0.150000
v 0.150000 1.450001 -0.149999
v 0.150000 1.400001 -0.099999
v 0.850000 1.450000 0.150000
v 0.850000 1.400000 0.100000
v 0.150000 1.400001 0.100001
v 0.150000 1.450001 0.150001
v -0.200000 1.950000 -0.150000
v -0.150000 1.950000 -0.200000
v -0.150000 2.000000 -0.150000
v -0.150000 0.050000 -0.200000
v -0.200000 0.050000 -0.150000
v -0.150000 0.000000 -0.150000
v 0.150000 1.950000 -0.200000
v 0.200000 1.950000 -0.150000
v 0.150000 2.000000 -0.150000
v 0.200000 0.050000 -0.150000
v 0.150000 0.050000 -0.200000
v 0.150000 0.000000 -0.150000
v -0.150000 1.950000 0.200000
v -0.200000 1.950000 0.150000
v -0.150000 2.000000 0.150000
v -0.200000 0.050000 0.150000
v -0.150000 0.050000 0.200000
v -0.150000 -0.000000 0.150000
v 0.150000 1.950000 0.200000
v 0.150000 2.000000 0.150000
v 0.200000 1.950000 0.150000
v 0.150000 0.050000 0.200000
v 0.200000 0.050000 0.150000
v 0.150000 -0.000000 0.150000
vt 0.232248 0.577997
vt 0.221061 0.577997
vt 0.221061 0.579306
vt 0.232248 0.579306
vt 0.232248 0.577997
vt 0.234113 0.579306
vt 0.232248 0.579306
vt 0.232248 0.685194
vt 0.221061 0.685194
vt 0.221061 0.683886
vt 0.232248 0.683886
vt 0.221061 0.650980
vt 0.221061 0.601243
vt 0.219197 0.601243
vt 0.219197 0.650980
vt 0.219197 0.579306
vt 0.232248 0.685194
vt 0.234113 0.683886
vt 0.234113 0.683886
vt 0.221061 0.685194
vt 0.219197 0.683886
vt 0.219197 0.683886
vt 0.221061 0.577997
vt 0.221061 0.579306
vt 0.232248 0.683886
vt 0.232248 0.590274
vt 0.232248 0.640011
vt 0.221061 0.640011
vt 0.221061 0.590274
vt 0.221061 0.663257
vt 0.221061 0.663257
vt 0.232248 0.663257
vt 0.232248 0.663257
vt 0.234113 0.590274
vt 0.234113 0.640011
vt 0.234113 0.640011
vt 0.234113 0.590274
vt 0.221061 0.683886
vt 0.219197 0.650980
vt 0.219197 0.601243
vt 0.221061 0.601243
vt 0.221061 0.650980
vt 0.234113 0.601243
vt 0.234113 0.650980
vt 0.232248 0.650980
vt 0.232248 0.601243
vt 0.234113 0.579306
vt 0.221061 0.590274
vt 0.221061 0.640011
vt 0.232248 0.640011
vt 0.232248 0.590274
vt 0.219197 0.579306
vt 0.219197 0.590274
vt 0.219197 0.640011
vt 0.219197 0.640011
vt 0.219197 0.590274
vt 0.234113 0.650980
vt 0.234113 0.601243
vt 0.232248 0.601243
vt 0.232248 0.650980
vt 0.155803 0.573573
vt 0.219197 0.573573
vt 0.219197 0.572264
vt 0.155803 0.572264
vt 0.155803 0.572264
vt 0.219197 0.572264
vt 0.219197 0.573573
vt 0.155803 0.573573
vt 0.155803 0.633651
vt 0.219197 0.633651
vt 0.219197 0.634960
vt 0.155803 0.634960
vt 0.219197 0.633651
vt 0.155803 0.633651
vt 0.155803 0.634960
vt 0.219197 0.634960
vt 0.219197 0.600745
vt 0.155803 0.600745
vt 0.155803 0.595510
vt 0.219197 0.595510
vt 0.219197 0.623991
vt 0.155803 0.623991
vt 0.155803 0.623991
vt 0.219197 0.623991
vt 0.219197 0.583232
vt 0.155803 0.583232
vt 0.155803 0.583232
vt 0.219197 0.583232
vt 0.219197 0.595510
vt 0.155803 0.595510
vt 0.155803 0.600745
vt 0.219197 0.600745
vt 0.172211 0.614645
vt 0.172211 0.591085
vt 0.164753 0.591085
vt 0.164753 0.614645
vt 0.174075 0.614645
vt 0.174075 0.591085
vt 0.174075 0.591085
vt 0.174075 0.614645
vt 0.162888 0.614645
vt 0.162888 0.591085
vt 0.162888 0.591085
vt 0.162888 0.614645
vt 0.164753 0.614645
vt 0.164753 0.591085
vt 0.172211 0.591085
vt 0.172211 0.614645
vt 0.164753 0.625614
vt 0.164753 0.602054
vt 0.162888 0.602054
vt 0.162888 0.625614
vt 0.164753 0.602054
vt 0.164753 0.625614
vt 0.162888 0.625614
vt 0.162888 0.602054
vt 0.174075 0.602054
vt 0.174075 0.625614
vt 0.172211 0.625614
vt 0.172211 0.602054
vt 0.172211 0.602054
vt 0.172211 0.625614
vt 0.174075 0.625614
vt 0.174075 0.602054
vt 0.219197 0.626922
vt 0.155803 0.626923
vt 0.155803 0.632158
vt 0.219197 0.632158
vt 0.219197 0.603676
vt 0.155803 0.603676
vt 0.155803 0.603676
vt 0.219197 0.603676
vt 0.219197 0.655404
vt 0.155803 0.655404
vt 0.155803 0.655404
vt 0.219197 0.655404
vt 0.219197 0.632158
vt 0.155803 0.632158
vt 0.155803 0.626923
vt 0.219197 0.626922
vt 0.219197 0.665064
vt 0.155803 0.665064
vt 0.155803 0.666373
vt 0.219197 0.666373
vt 0.155803 0.665064
vt 0.219197 0.665064
vt 0.219197 0.666373
vt 0.155803 0.666373
vt 0.219197 0.604985
vt 0.155803 0.604985
vt 0.155803 0.604985
vt 0.219197 0.604985
vt 0.232248 0.577997
vt 0.221061 0.577997
vt 0.221061 0.579306
vt 0.232248 0.579306
vt 0.232248 0.577997
vt 0.234113 0.579306
vt 0.232248 0.579306
vt 0.232248 0.685194
vt 0.221061 0.685194
vt 0.221061 0.683886
vt 0.232248 0.683886
vt 0.221061 0.650980
vt 0.221061 0.601243
vt 0.219197 0.601243
vt 0.219197 0.650980
vt 0.219197 0.579306
vt 0.232248 0.685194
vt 0.234113 0.683886
vt 0.234113 0.683886
vt 0.221061 0.685194
vt 0.219197 0.683886
vt 0.219197 0.683886
vt 0.221061 0.577997
vt 0.221061 0.579306
vt 0.232248 0.683886
vt 0.232248 0.590274
vt 0.232248 0.640011
vt 0.221061 0.640011
vt 0.221061 0.590274
vt 0.221061 0.663257
vt 0.221061 0.663257
vt 0.232248 0.663257
vt 0.232248 0.663257
vt 0.234113 0.590274
vt 0.234113 0.640011
vt 0.234113 0.640011
vt 0.234113 0.590274
vt 0.221061 0.683886
vt 0.219197 0.650980
vt 0.219197 0.601243
vt 0.221061 0.601243
vt 0.221061 0.650980
vt 0.234113 0.601243
vt 0.234113 0.650980
vt 0.232248 0.650980
vt 0.232248 0.601243
vt 0.234113 0.579306
vt 0.221061 0.590274
vt 0.221061 0.640011
vt 0.232248 0.640011
vt 0.232248 0.590274
vt 0.219197 0.579306
vt 0.219197 0.590274
vt 0.219197 0.640011
vt 0.219197 0.640011
vt 0.219197 0.590274
vt 0.234113 0.650980
vt 0.234113 0.601243
vt 0.232248 0.601243
vt 0.232248 0.650980
vn 0.3416 -0.8756 -0.3416
vn -0.3416 -0.8756 -0.3416
vn -0.3416 -0.3416 -0.8756
vn 0.3416 -0.3416 -0.8756
vn 0.3416 -0.8756 0.3416
vn 0.8756 -0.3416 0.3416
vn 0.3416 -0.3416 0.8756
vn 0.3416 0.8756 0.3416
vn -0.3416 0.8756 0.3416
vn -0.3416 0.3416 0.8756
vn 0.3416 0.3416 0.8756
vn -0.3416 0.3416 -0.8756
vn -0.8756 -0.3416 -0.3416
vn -0.8756 0.3416 -0.3416
vn 0.3416 0.8756 -0.3416
vn 0.8756 0.3416 0.3416
vn 0.8756 0.3416 -0.3416
vn -0.3416 0.8756 -0.3416
vn -0.8756 0.3416 0.3416
vn -0.3416 -0.8756 0.3416
vn -0.3416 -0.3416 0.8756
vn 0.3416 0.3416 -0.8756
vn 0.8756 -0.3416 -0.3416
vn -0.8756 -0.3416 0.3416
vn -0.0000 -0.3827 -0.9239
vn -0.0000 -0.9239 -0.3827
vn -0.0000 -0.9239 0.3827
vn 0.0000 -0.3827 0.9239
vn 0.0000 0.3827 0.9239
vn 0.0000 0.9239 0.3827
vn -0.0000 0.3827 -0.9239
vn 0.0000 0.9239 -0.3827
vn 0.3827 -0.0000 -0.9239
vn -0.3827 -0.0000 -0.9239
vn 0.9239 -0.0000 0.3827
vn 0.9239 -0.0000 -0.3827
vn -0.9239 0.0000 -0.3827
vn -0.9239 0.0000 0.3827
vn -0.3827 0.0000 0.9239
vn 0.3827 0.0000 0.9239
usemtl tiny_treats_1
s 1
f 12/1/1 6/2/2 4/3/3 11/4/4
f 24/5/5 23/6/6 22/7/7
f 20/8/8 15/9/9 13/10/10 19/11/11
f 2/12/12 4/13/3 5/14/13 1/15/14
f 6/2/2 5/16/13 4/3/3
f 9/17/15 20/8/8 21/18/16 8/19/17
f 15/9/9 3/20/18 1/21/14 14/22/19
f 18/23/20 24/5/5 22/7/7 17/24/21
f 9/17/15 8/19/17 7/25/22
f 15/9/9 14/22/19 13/10/10
f 22/26/7 19/27/11 13/28/10 17/29/21
f 3/30/18 15/31/9 20/32/8 9/33/15
f 10/34/23 8/35/17 21/36/16 23/37/6
f 18/23/20 6/2/2 12/1/1 24/5/5
f 3/20/18 9/17/15 7/25/22 2/38/12
f 14/39/19 16/40/24 17/41/21 13/42/10
f 3/20/18 2/38/12 1/21/14
f 23/43/6 21/44/16 19/45/11 22/46/7
f 12/1/1 11/4/4 10/47/23
f 4/48/3 2/49/12 7/50/22 11/51/4
f 18/23/20 17/24/21 16/52/24
f 16/53/24 14/54/19 1/55/14 5/56/13
f 21/18/16 20/8/8 19/11/11
f 24/5/5 12/1/1 10/47/23 23/6/6
f 6/2/2 18/23/20 16/52/24 5/16/13
f 8/57/17 10/58/23 11/59/4 7/60/22
f 30/61/25 31/62/25 32/63/26 29/64/26
f 26/65/27 27/66/27 28/67/28 25/68/28
f 34/69/29 35/70/29 36/71/30 33/72/30
f 40/73/31 38/74/31 37/75/32 39/76/32
f 35/77/29 34/78/29 25/79/28 28/80/28
f 39/81/32 37/82/32 33/83/30 36/84/30
f 27/85/27 26/86/27 29/87/26 32/88/26
f 31/89/25 30/90/25 38/91/31 40/92/31
f 50/93/33 51/94/33 43/95/34 41/96/34
f 54/97/35 55/98/35 52/99/36 49/100/36
f 42/101/37 44/102/37 48/103/38 45/104/38
f 46/105/39 47/106/39 56/107/40 53/108/40
f 41/109/34 43/110/34 44/111/37 42/112/37
f 47/113/39 46/114/39 45/115/38 48/116/38
f 55/117/35 54/118/35 53/119/40 56/120/40
f 51/121/33 50/122/33 49/123/36 52/124/36
f 66/125/25 67/126/25 59/127/31 57/128/31
f 70/129/27 71/130/27 68/131/26 65/132/26
f 58/133/32 60/134/32 64/135/30 61/136/30
f 62/137/29 63/138/29 72/139/28 69/140/28
f 57/141/31 59/142/31 60/143/32 58/144/32
f 63/145/29 62/146/29 61/147/30 64/148/30
f 71/130/27 70/129/27 69/149/28 72/150/28
f 67/151/25 66/152/25 65/132/26 68/131/26
f 84/153/1 78/154/2 76/155/3 83/156/4
f 96/157/5 95/158/6 94/159/7
f 92/160/8 87/161/9 85/162/10 91/163/11
f 74/164/12 76/165/3 77/166/13 73/167/14
f 78/154/2 77/168/13 76/155/3
f 81/169/15 92/160/8 93/170/16 80/171/17
f 87/161/9 75/172/18 73/173/14 86/174/19
f 90/175/20 96/157/5 94/159/7 89/176/21
f 81/169/15 80/171/17 79/177/22
f 87/161/9 86/174/19 85/162/10
f 94/178/7 91/179/11 85/180/10 89/181/21
f 75/182/18 87/183/9 92/184/8 81/185/15
f 82/186/23 80/187/17 93/188/16 95/189/6
f 90/175/20 78/154/2 84/153/1 96/157/5
f 75/172/18 81/169/15 79/177/22 74/190/12
f 86/191/19 88/192/24 89/193/21 85/194/10
f 75/172/18 74/190/12 73/173/14
f 95/195/6 93/196/16 91/197/11 94/198/7
f 84/153/1 83/156/4 82/199/23
f 76/200/3 74/201/12 79/202/22 83/203/4
f 90/175/20 89/176/21 88/204/24
f 88/205/24 86/206/19 73/207/14 77/208/13
f 93/170/16 92/160/8 91/163/11
f 96/157/5 84/153/1 82/199/23 95/158/6
f 78/154/2 90/175/20 88/204/24 77/168/13
f 80/209/17 82/210/23 83/211/4 79/212/22
