# Blender v3.4.1 OBJ File: 'Tiny_Treats_Fun_Playground_ASSETS_EXPORT.blend'
# www.blender.org
mtllib fence_rails_long.mtl
o fence_rails_long
v 12.150000 0.250000 17.150000
v 12.150000 0.200000 17.100000
v 13.850000 0.200000 17.100000
v 13.850000 0.250000 17.150000
v 12.150000 0.200000 16.900000
v 12.150000 0.250000 16.850000
v 13.850000 0.250000 16.850000
v 13.850000 0.200000 16.900000
v 12.150000 0.500000 17.100000
v 12.150000 0.450000 17.150000
v 13.850000 0.450000 17.150000
v 13.850000 0.500000 17.100000
v 12.150000 0.500000 16.900000
v 12.150000 0.450000 16.850000
v 13.850000 0.500000 16.900000
v 13.850000 0.450000 16.850000
v 12.890000 1.400001 16.900000
v 12.840000 1.400001 16.949999
v 12.889999 0.500001 16.900000
v 12.840000 0.500001 16.950001
v 12.840000 1.400001 17.049999
v 12.890000 1.400001 17.100000
v 12.889999 0.500001 17.100000
v 12.840000 0.500001 17.050001
v 13.140000 1.400001 16.949999
v 13.090000 1.400001 16.900000
v 13.090000 0.500001 16.900000
v 13.139999 0.500001 16.950001
v 13.090000 1.400001 17.100000
v 13.140000 1.400001 17.049999
v 13.139999 0.500001 17.050001
v 13.090000 0.500001 17.100000
v 13.390000 1.400001 16.900000
v 13.340000 1.400001 16.949999
v 13.389999 0.500001 16.900000
v 13.340000 0.500001 16.950001
v 13.340000 1.400001 17.049999
v 13.390000 1.400001 17.100000
v 13.389999 0.500001 17.100000
v 13.340000 0.500001 17.050001
v 13.640000 1.400001 16.949999
v 13.590000 1.400001 16.900000
v 13.590000 0.500001 16.900000
v 13.639999 0.500001 16.950001
v 13.590000 1.400001 17.100000
v 13.640000 1.400001 17.049999
v 13.639999 0.500001 17.050001
v 13.590000 0.500001 17.100000
v 12.390000 1.400001 16.900000
v 12.340000 1.400001 16.949999
v 12.389999 0.500001 16.900000
v 12.340000 0.500001 16.950001
v 12.340000 1.400001 17.049999
v 12.390000 1.400001 17.100000
v 12.389999 0.500001 17.100000
v 12.340000 0.500001 17.050001
v 12.640000 1.400001 16.949999
v 12.590000 1.400001 16.900000
v 12.590000 0.500001 16.900000
v 12.639999 0.500001 16.950001
v 12.590000 1.400001 17.100000
v 12.640000 1.400001 17.049999
v 12.639999 0.500001 17.050001
v 12.590000 0.500001 17.100000
v 13.850000 1.650000 16.850000
v 13.850000 1.700000 16.900000
v 12.150000 1.650001 16.850000
v 12.150000 1.700001 16.900000
v 13.850000 1.700000 17.100000
v 13.850000 1.650000 17.150000
v 12.150000 1.650001 17.150000
v 12.150000 1.700001 17.100000
v 13.850000 1.400000 16.900000
v 13.850000 1.450000 16.850000
v 12.150000 1.450001 16.850000
v 12.150000 1.400001 16.900000
v 13.850000 1.450000 17.150000
v 13.850000 1.400000 17.100000
v 12.150000 1.400001 17.100000
v 12.150000 1.450001 17.150000
vt 0.155803 0.573573
vt 0.219197 0.573573
vt 0.219197 0.572264
vt 0.155803 0.572264
vt 0.155803 0.572264
vt 0.219197 0.572264
vt 0.219197 0.573573
vt 0.155803 0.573573
vt 0.155803 0.633651
vt 0.219197 0.633651
vt 0.219197 0.634960
vt 0.155803 0.634960
vt 0.219197 0.633651
vt 0.155803 0.633651
vt 0.155803 0.634960
vt 0.219197 0.634960
vt 0.219197 0.600745
vt 0.155803 0.600745
vt 0.155803 0.595510
vt 0.219197 0.595510
vt 0.219197 0.623991
vt 0.155803 0.623991
vt 0.155803 0.623991
vt 0.219197 0.623991
vt 0.219197 0.583232
vt 0.155803 0.583232
vt 0.155803 0.583232
vt 0.219197 0.583232
vt 0.219197 0.595510
vt 0.155803 0.595510
vt 0.155803 0.600745
vt 0.219197 0.600745
vt 0.190856 0.614645
vt 0.190856 0.591085
vt 0.183398 0.591085
vt 0.183398 0.614645
vt 0.192721 0.614645
vt 0.192721 0.591085
vt 0.192721 0.591085
vt 0.192721 0.614645
vt 0.181533 0.614645
vt 0.181533 0.591085
vt 0.181533 0.591085
vt 0.181533 0.614645
vt 0.183398 0.614645
vt 0.183398 0.591085
vt 0.190856 0.591085
vt 0.190856 0.614645
vt 0.183398 0.625614
vt 0.183398 0.602054
vt 0.181533 0.602054
vt 0.181533 0.625614
vt 0.183398 0.602054
vt 0.183398 0.625614
vt 0.181533 0.625614
vt 0.181533 0.602054
vt 0.192721 0.602054
vt 0.192721 0.625614
vt 0.190856 0.625614
vt 0.190856 0.602054
vt 0.190856 0.602054
vt 0.190856 0.625614
vt 0.192721 0.625614
vt 0.192721 0.602054
vt 0.209501 0.614645
vt 0.209501 0.591085
vt 0.202043 0.591085
vt 0.202043 0.614645
vt 0.211366 0.614645
vt 0.211366 0.591085
vt 0.211366 0.591085
vt 0.211366 0.614645
vt 0.200179 0.614645
vt 0.200179 0.591085
vt 0.200179 0.591085
vt 0.200179 0.614645
vt 0.202043 0.614645
vt 0.202043 0.591085
vt 0.209501 0.591085
vt 0.209501 0.614645
vt 0.202043 0.625614
vt 0.202043 0.602054
vt 0.200179 0.602054
vt 0.200179 0.625614
vt 0.202043 0.602054
vt 0.202043 0.625614
vt 0.200179 0.625614
vt 0.200179 0.602054
vt 0.211366 0.602054
vt 0.211366 0.625614
vt 0.209501 0.625614
vt 0.209501 0.602054
vt 0.209501 0.602054
vt 0.209501 0.625614
vt 0.211366 0.625614
vt 0.211366 0.602054
vt 0.172211 0.614645
vt 0.172211 0.591085
vt 0.164753 0.591085
vt 0.164753 0.614645
vt 0.174075 0.614645
vt 0.174075 0.591085
vt 0.174075 0.591085
vt 0.174075 0.614645
vt 0.162888 0.614645
vt 0.162888 0.591085
vt 0.162888 0.591085
vt 0.162888 0.614645
vt 0.164753 0.614645
vt 0.164753 0.591085
vt 0.172211 0.591085
vt 0.172211 0.614645
vt 0.164753 0.625614
vt 0.164753 0.602054
vt 0.162888 0.602054
vt 0.162888 0.625614
vt 0.164753 0.602054
vt 0.164753 0.625614
vt 0.162888 0.625614
vt 0.162888 0.602054
vt 0.174075 0.602054
vt 0.174075 0.625614
vt 0.172211 0.625614
vt 0.172211 0.602054
vt 0.172211 0.602054
vt 0.172211 0.625614
vt 0.174075 0.625614
vt 0.174075 0.602054
vt 0.219197 0.626922
vt 0.155803 0.626923
vt 0.155803 0.632158
vt 0.219197 0.632158
vt 0.219197 0.603676
vt 0.155803 0.603676
vt 0.155803 0.603676
vt 0.219197 0.603676
vt 0.219197 0.655404
vt 0.155803 0.655404
vt 0.155803 0.655404
vt 0.219197 0.655404
vt 0.219197 0.632158
vt 0.155803 0.632158
vt 0.155803 0.626923
vt 0.219197 0.626922
vt 0.219197 0.665064
vt 0.155803 0.665064
vt 0.155803 0.666373
vt 0.219197 0.666373
vt 0.155803 0.665064
vt 0.219197 0.665064
vt 0.219197 0.666373
vt 0.155803 0.666373
vt 0.219197 0.604985
vt 0.155803 0.604985
vt 0.155803 0.604985
vt 0.219197 0.604985
vn 0.0000 -0.3827 -0.9239
vn -0.0000 -0.9239 -0.3827
vn -0.0000 -0.9239 0.3827
vn -0.0000 -0.3827 0.9239
vn -0.0000 0.3827 0.9239
vn 0.0000 0.9239 0.3827
vn 0.0000 0.3827 -0.9239
vn 0.0000 0.9239 -0.3827
vn 0.3827 -0.0000 -0.9239
vn -0.3827 -0.0000 -0.9239
vn 0.9239 -0.0000 0.3827
vn 0.9239 -0.0000 -0.3827
vn -0.9239 -0.0000 -0.3827
vn -0.9239 0.0000 0.3827
vn -0.3827 0.0000 0.9239
vn 0.3827 0.0000 0.9239
vn -1.0000 -0.0000 0.0000
vn 1.0000 0.0000 0.0000
usemtl tiny_treats_1
s 1
f 6/1/1 7/2/1 8/3/2 5/4/2
f 2/5/3 3/6/3 4/7/4 1/8/4
f 10/9/5 11/10/5 12/11/6 9/12/6
f 16/13/7 14/14/7 13/15/8 15/16/8
f 11/17/5 10/18/5 1/19/4 4/20/4
f 15/21/8 13/22/8 9/23/6 12/24/6
f 3/25/3 2/26/3 5/27/2 8/28/2
f 7/29/1 6/30/1 14/31/7 16/32/7
f 26/33/9 27/34/9 19/35/10 17/36/10
f 30/37/11 31/38/11 28/39/12 25/40/12
f 18/41/13 20/42/13 24/43/14 21/44/14
f 22/45/15 23/46/15 32/47/16 29/48/16
f 17/49/10 19/50/10 20/51/13 18/52/13
f 23/53/15 22/54/15 21/55/14 24/56/14
f 31/57/11 30/58/11 29/59/16 32/60/16
f 27/61/9 26/62/9 25/63/12 28/64/12
f 42/65/9 43/66/9 35/67/10 33/68/10
f 46/69/11 47/70/11 44/71/12 41/72/12
f 34/73/13 36/74/13 40/75/14 37/76/14
f 38/77/15 39/78/15 48/79/16 45/80/16
f 33/81/10 35/82/10 36/83/13 34/84/13
f 39/85/15 38/86/15 37/87/14 40/88/14
f 47/89/11 46/90/11 45/91/16 48/92/16
f 43/93/9 42/94/9 41/95/12 44/96/12
f 58/97/9 59/98/9 51/99/10 49/100/10
f 62/101/11 63/102/11 60/103/12 57/104/12
f 50/105/13 52/106/13 56/107/14 53/108/14
f 54/109/15 55/110/15 64/111/16 61/112/16
f 49/113/10 51/114/10 52/115/13 50/116/13
f 55/117/15 54/118/15 53/119/14 56/120/14
f 63/121/11 62/122/11 61/123/16 64/124/16
f 59/125/9 58/126/9 57/127/12 60/128/12
f 74/129/1 75/130/1 67/131/7 65/132/7
f 78/133/3 79/134/3 76/135/2 73/136/2
f 66/137/8 68/138/8 72/139/6 69/140/6
f 70/141/5 71/142/5 80/143/4 77/144/4
f 65/145/7 67/146/7 68/147/8 66/148/8
f 71/149/5 70/150/5 69/151/6 72/152/6
f 79/134/3 78/133/3 77/153/4 80/154/4
f 75/155/1 74/156/1 73/136/2 76/135/2
f 68/138/17 67/146/17 71/149/17 72/139/17
f 80/143/17 71/149/17 67/131/17 75/130/17
f 75/130/17 76/135/17 79/134/17 80/143/17
f 13/15/17 14/14/17 10/9/17 9/12/17
f 14/14/17 6/30/17 1/19/17 10/9/17
f 2/5/17 1/8/17 6/30/17 5/4/17
f 65/145/18 66/137/18 69/151/18 70/150/18
f 70/150/18 77/144/18 74/129/18 65/145/18
f 73/136/18 74/129/18 77/153/18 78/133/18
f 15/16/18 12/11/18 11/10/18 16/13/18
f 7/29/18 16/13/18 11/17/18 4/20/18
f 3/6/18 8/3/18 7/29/18 4/7/18
