# Blender v3.4.1 OBJ File: 'Tiny_Treats_Fun_Playground_ASSETS_EXPORT.blend'
# www.blender.org
mtllib picnic_table.mtl
o picnic_table
v -0.700000 0.800000 0.950000
v -0.700000 0.850000 1.000000
v -0.750000 0.850000 0.950000
v -0.700000 0.950000 1.000000
v -0.700000 1.000000 0.950000
v -0.750000 0.950000 0.950000
v -0.700000 0.800000 -0.950000
v -0.750000 0.850000 -0.950000
v -0.700000 0.850000 -1.000000
v -0.700000 1.000000 -0.950000
v -0.700000 0.950000 -1.000000
v -0.750000 0.950000 -0.950000
v 0.700000 0.800000 0.950000
v 0.750000 0.850000 0.950000
v 0.700000 0.850000 1.000000
v 0.700000 1.000000 0.950000
v 0.700000 0.950000 1.000000
v 0.750000 0.950000 0.950000
v 0.700000 0.800000 -0.950000
v 0.700000 0.850000 -1.000000
v 0.750000 0.850000 -0.950000
v 0.700000 1.000000 -0.950000
v 0.750000 0.950000 -0.950000
v 0.700000 0.950000 -1.000000
v 0.250000 0.800000 -0.950000
v -0.250000 0.800000 -0.950000
v -0.250000 0.850000 -1.000000
v 0.250000 0.850000 -1.000000
v -0.250000 1.000000 -0.950000
v 0.250000 1.000000 -0.950000
v 0.250000 0.950000 -1.000000
v -0.250000 0.950000 -1.000000
v -0.250000 0.800000 0.950000
v 0.250000 0.800000 0.950000
v 0.250000 0.850000 1.000000
v -0.250000 0.850000 1.000000
v 0.250000 1.000000 0.950000
v -0.250000 1.000000 0.950000
v -0.250000 0.950000 1.000000
v 0.250000 0.950000 1.000000
v -0.585792 0.000000 -0.500000
v -0.627996 0.000000 -0.530000
v -0.235990 0.800400 -0.530000
v -0.193785 0.800400 -0.500000
v -0.363996 0.000000 -0.530000
v -0.406201 0.000000 -0.500000
v -0.014194 0.800400 -0.500000
v 0.028010 0.800400 -0.530000
v -0.627997 0.000000 -0.670000
v -0.585792 0.000000 -0.700000
v -0.193785 0.800400 -0.700000
v -0.235990 0.800400 -0.670000
v -0.406201 0.000000 -0.700000
v -0.363996 0.000000 -0.670000
v 0.028010 0.800400 -0.670000
v -0.014194 0.800400 -0.700000
v 0.406208 0.000000 -0.500009
v 0.364004 0.000000 -0.530009
v -0.027992 0.800400 -0.530009
v 0.014212 0.800400 -0.500009
v 0.628003 0.000000 -0.530009
v 0.585799 0.000000 -0.500009
v 0.193804 0.800400 -0.500009
v 0.236008 0.800400 -0.530009
v 0.364003 0.000000 -0.670009
v 0.406208 0.000000 -0.700009
v 0.014212 0.800400 -0.700009
v -0.027992 0.800400 -0.670009
v 0.585799 0.000000 -0.700009
v 0.628003 0.000000 -0.670009
v 0.236008 0.800400 -0.670009
v 0.193804 0.800400 -0.700009
v 0.406208 -0.000000 0.699991
v 0.364004 -0.000000 0.669991
v -0.027992 0.800400 0.669992
v 0.014212 0.800400 0.699991
v 0.585799 -0.000000 0.699991
v 0.236008 0.800400 0.669991
v 0.014212 0.800400 0.499991
v 0.585799 -0.000000 0.499991
v 0.193804 0.800400 0.499991
v 0.236008 0.800400 0.529991
v 0.628004 -0.000000 0.529991
v -0.027992 0.800400 0.529991
v 0.406208 -0.000000 0.499991
v 0.364004 -0.000000 0.529991
v 0.193804 0.800400 0.699991
v 0.628003 -0.000000 0.669991
v -0.193817 0.800400 0.700000
v -0.236021 0.800400 0.670000
v -0.628017 -0.000000 0.670000
v -0.585813 -0.000000 0.700000
v 0.027979 0.800400 0.670000
v -0.014226 0.800400 0.700000
v -0.406221 -0.000000 0.700000
v -0.364017 -0.000000 0.670000
v -0.236021 0.800400 0.530000
v -0.193817 0.800400 0.500000
v -0.585813 -0.000000 0.500000
v -0.628017 -0.000000 0.530000
v -0.014226 0.800400 0.500000
v 0.027979 0.800400 0.530000
v -0.364017 -0.000000 0.530000
v -0.406221 -0.000000 0.500000
v -0.900000 0.382000 -0.670000
v -0.900000 0.402000 -0.650000
v -0.900000 0.268000 -0.670000
v -0.920000 0.268000 -0.650000
v -0.900000 0.248000 -0.650000
v -0.920000 0.382000 -0.550000
v -0.900000 0.402000 -0.550000
v -0.900000 0.382000 -0.530000
v -0.900000 0.382000 0.670000
v -0.900000 0.402000 0.650000
v -0.920000 0.382000 0.650000
v -0.900000 0.248000 0.550000
v -0.920000 0.268000 0.550000
v -0.900000 0.268000 0.530000
v -0.900000 0.402000 0.550000
v -0.900000 0.382000 0.530000
v -0.920000 0.382000 0.550000
v -0.900000 0.248000 0.650000
v -0.900000 0.268000 0.670000
v -0.920000 0.268000 0.650000
v 0.900000 0.382000 0.670000
v 0.920000 0.382000 0.650000
v 0.900000 0.402000 0.650000
v 0.900000 0.248000 0.550000
v 0.900000 0.268000 0.530000
v 0.920000 0.268000 0.550000
v 0.900000 0.402000 0.550000
v 0.920000 0.382000 0.550000
v 0.900000 0.382000 0.530000
v 0.900000 0.248000 0.650000
v 0.920000 0.268000 0.650000
v 0.900000 0.268000 0.670000
v -0.920000 0.382000 -0.650000
v -0.900000 0.248000 -0.550000
v -0.900000 0.268000 -0.530000
v -0.920000 0.268000 -0.550000
v 0.900000 0.382000 -0.530000
v 0.920000 0.382000 -0.550000
v 0.900000 0.402000 -0.550000
v 0.900000 0.248000 -0.650000
v 0.900000 0.268000 -0.670000
v 0.920000 0.268000 -0.650000
v 0.900000 0.402000 -0.650000
v 0.920000 0.382000 -0.650000
v 0.900000 0.382000 -0.670000
v 0.900000 0.248000 -0.550000
v 0.920000 0.268000 -0.550000
v 0.900000 0.268000 -0.530000
v -0.950000 0.400000 0.950000
v -0.950000 0.450000 1.000000
v -1.000000 0.450000 0.950000
v -0.950000 0.550000 1.000000
v -0.950000 0.600000 0.950000
v -1.000000 0.550000 0.950000
v -0.950000 0.400000 -0.950000
v -1.000000 0.450000 -0.950000
v -0.950000 0.450000 -1.000000
v -0.950000 0.600000 -0.950000
v -0.950000 0.550000 -1.000000
v -1.000000 0.550000 -0.950000
v -0.450000 0.400000 0.950000
v -0.400000 0.450000 0.950000
v -0.450000 0.450000 1.000000
v -0.450000 0.600000 0.950000
v -0.450000 0.550000 1.000000
v -0.400000 0.550000 0.950000
v -0.450000 0.400000 -0.950000
v -0.450000 0.450000 -1.000000
v -0.400000 0.450000 -0.950000
v -0.450000 0.600000 -0.950000
v -0.400000 0.550000 -0.950000
v -0.450000 0.550000 -1.000000
v -0.600000 0.400000 -0.950000
v -0.800000 0.400000 -0.950000
v -0.800000 0.450000 -1.000000
v -0.600000 0.450000 -1.000000
v -0.800000 0.600000 -0.950000
v -0.600000 0.600000 -0.950000
v -0.600000 0.550000 -1.000000
v -0.800000 0.550000 -1.000000
v -0.800000 0.400000 0.950000
v -0.600000 0.400000 0.950000
v -0.600000 0.450000 1.000000
v -0.800000 0.450000 1.000000
v -0.600000 0.600000 0.950000
v -0.800000 0.600000 0.950000
v -0.800000 0.550000 1.000000
v -0.600000 0.550000 1.000000
v 0.800000 0.550000 1.000000
v 0.600000 0.550000 1.000000
v 0.600000 0.600000 0.950000
v 0.800000 0.600000 0.950000
v 0.600000 0.450000 1.000000
v 0.800000 0.450000 1.000000
v 0.800000 0.400000 0.950000
v 0.600000 0.400000 0.950000
v 0.600000 0.550000 -1.000000
v 0.800000 0.550000 -1.000000
v 0.800000 0.600000 -0.950000
v 0.600000 0.600000 -0.950000
v 0.800000 0.450000 -1.000000
v 0.600000 0.450000 -1.000000
v 0.600000 0.400000 -0.950000
v 0.800000 0.400000 -0.950000
v 0.950000 0.550000 -1.000000
v 1.000000 0.550000 -0.950000
v 0.950000 0.600000 -0.950000
v 1.000000 0.450000 -0.950000
v 0.950000 0.450000 -1.000000
v 0.950000 0.400000 -0.950000
v 1.000000 0.550000 0.950000
v 0.950000 0.550000 1.000000
v 0.950000 0.600000 0.950000
v 0.950000 0.450000 1.000000
v 1.000000 0.450000 0.950000
v 0.950000 0.400000 0.950000
v 0.400000 0.550000 -0.950000
v 0.450000 0.550000 -1.000000
v 0.450000 0.600000 -0.950000
v 0.450000 0.450000 -1.000000
v 0.400000 0.450000 -0.950000
v 0.450000 0.400000 -0.950000
v 0.400000 0.550000 0.950000
v 0.450000 0.600000 0.950000
v 0.450000 0.550000 1.000000
v 0.400000 0.450000 0.950000
v 0.450000 0.450000 1.000000
v 0.450000 0.400000 0.950000
vt 0.674289 0.858946
vt 0.674289 0.930252
vt 0.647872 0.961502
vt 0.647872 0.890196
vt 0.731523 0.858946
vt 0.731523 0.930252
vt 0.731523 0.930252
vt 0.731523 0.858946
vt 0.674289 0.934655
vt 0.647872 0.965905
vt 0.647872 0.965905
vt 0.674289 0.934655
vt 0.643470 0.890196
vt 0.643470 0.961502
vt 0.643470 0.961502
vt 0.643470 0.890196
vt 0.700704 0.890196
vt 0.700704 0.961502
vt 0.727121 0.930252
vt 0.727121 0.858946
vt 0.647872 0.870169
vt 0.647872 0.874571
vt 0.643470 0.874571
vt 0.647872 0.870169
vt 0.643470 0.874571
vt 0.647872 0.874571
vt 0.647872 0.961502
vt 0.727121 0.838919
vt 0.731523 0.843321
vt 0.727121 0.843321
vt 0.727121 0.934655
vt 0.727121 0.930252
vt 0.727121 0.838919
vt 0.727121 0.843321
vt 0.731523 0.843321
vt 0.727121 0.934655
vt 0.647872 0.890196
vt 0.674289 0.838919
vt 0.674289 0.843321
vt 0.700704 0.965905
vt 0.727121 0.858946
vt 0.700704 0.870169
vt 0.700704 0.874571
vt 0.700704 0.870169
vt 0.674289 0.838919
vt 0.674289 0.870169
vt 0.700704 0.838919
vt 0.700704 0.838919
vt 0.674289 0.870169
vt 0.700704 0.965905
vt 0.700704 0.961502
vt 0.700704 0.934655
vt 0.674289 0.965905
vt 0.674289 0.961502
vt 0.700704 0.930252
vt 0.674289 0.843321
vt 0.700704 0.843321
vt 0.674289 0.874571
vt 0.674289 0.930252
vt 0.674289 0.965905
vt 0.700704 0.934655
vt 0.700704 0.930252
vt 0.674289 0.961502
vt 0.700704 0.874571
vt 0.674289 0.874571
vt 0.700704 0.843321
vt 0.674289 0.858946
vt 0.674289 0.890196
vt 0.700704 0.858946
vt 0.700704 0.890196
vt 0.700704 0.858946
vt 0.674289 0.890196
vt 0.709598 0.864867
vt 0.718229 0.864867
vt 0.709422 0.923863
vt 0.700794 0.923863
vt 0.711271 0.923863
vt 0.720078 0.864867
vt 0.720078 0.864867
vt 0.711271 0.923863
vt 0.718229 0.864867
vt 0.709598 0.864867
vt 0.700794 0.923863
vt 0.709422 0.923863
vt 0.660774 0.891828
vt 0.665395 0.864867
vt 0.674199 0.923863
vt 0.665571 0.923863
vt 0.707749 0.864867
vt 0.707749 0.864867
vt 0.698945 0.923863
vt 0.698945 0.923863
vt 0.709598 0.864867
vt 0.718229 0.864867
vt 0.709422 0.923863
vt 0.700794 0.923863
vt 0.711271 0.923863
vt 0.720078 0.864867
vt 0.720078 0.864867
vt 0.711271 0.923863
vt 0.718229 0.864867
vt 0.709598 0.864867
vt 0.700794 0.923863
vt 0.709422 0.923863
vt 0.665570 0.923863
vt 0.674199 0.923863
vt 0.665395 0.864867
vt 0.656765 0.864867
vt 0.707749 0.864867
vt 0.698945 0.923863
vt 0.698945 0.923863
vt 0.707749 0.864867
vt 0.676048 0.923863
vt 0.667244 0.864867
vt 0.665395 0.864867
vt 0.674199 0.923863
vt 0.654915 0.864867
vt 0.663722 0.923863
vt 0.660774 0.891828
vt 0.665395 0.864867
vt 0.674199 0.923863
vt 0.665571 0.923863
vt 0.663722 0.923863
vt 0.654915 0.864867
vt 0.667244 0.864867
vt 0.676048 0.923863
vt 0.665570 0.923863
vt 0.656765 0.864867
vt 0.676048 0.923863
vt 0.676048 0.923863
vt 0.667244 0.864867
vt 0.667244 0.864867
vt 0.663722 0.923863
vt 0.663722 0.923863
vt 0.654915 0.864867
vt 0.654915 0.864867
vt 0.661434 0.887976
vt 0.664735 0.868718
vt 0.664735 0.868718
vt 0.661434 0.887976
vt 0.657535 0.870051
vt 0.660003 0.886643
vt 0.660003 0.886643
vt 0.657535 0.870052
vt 0.658609 0.868982
vt 0.660822 0.883861
vt 0.664576 0.867649
vt 0.664321 0.865936
vt 0.665395 0.864867
vt 0.665395 0.864867
vt 0.665395 0.864867
vt 0.665395 0.864867
vt 0.658609 0.868982
vt 0.660822 0.883861
vt 0.664576 0.867649
vt 0.664321 0.865936
vt 0.665395 0.864867
vt 0.665395 0.864867
vt 0.665395 0.864867
vt 0.665395 0.864867
vt 0.657535 0.870051
vt 0.660003 0.886643
vt 0.660003 0.886643
vt 0.657535 0.870052
vt 0.664162 0.864867
vt 0.657997 0.864867
vt 0.657997 0.864867
vt 0.664162 0.864867
vt 0.664162 0.864867
vt 0.657997 0.864867
vt 0.657997 0.864867
vt 0.664162 0.864867
vt 0.661434 0.887976
vt 0.664735 0.868718
vt 0.664735 0.868718
vt 0.661434 0.887976
vt 0.658609 0.868982
vt 0.658609 0.868982
vt 0.664576 0.867649
vt 0.664321 0.865936
vt 0.660822 0.883861
vt 0.664576 0.867649
vt 0.664321 0.865936
vt 0.660822 0.883861
vt 0.674289 0.858946
vt 0.674289 0.930252
vt 0.647872 0.961502
vt 0.647872 0.890196
vt 0.731523 0.858946
vt 0.731523 0.930252
vt 0.731523 0.930252
vt 0.731523 0.858946
vt 0.674289 0.934655
vt 0.647872 0.965905
vt 0.647872 0.965905
vt 0.674289 0.934655
vt 0.643470 0.890196
vt 0.643470 0.961502
vt 0.643470 0.961502
vt 0.643470 0.890196
vt 0.700704 0.890196
vt 0.700704 0.961502
vt 0.727121 0.930252
vt 0.727121 0.858946
vt 0.647872 0.870169
vt 0.647872 0.874571
vt 0.643470 0.874571
vt 0.647872 0.870169
vt 0.643470 0.874571
vt 0.647872 0.874571
vt 0.647872 0.961502
vt 0.727121 0.838919
vt 0.731523 0.843321
vt 0.727121 0.843321
vt 0.727121 0.934655
vt 0.727121 0.930252
vt 0.727121 0.838919
vt 0.727121 0.843321
vt 0.731523 0.843321
vt 0.727121 0.934655
vt 0.647872 0.890196
vt 0.674289 0.838919
vt 0.674289 0.843321
vt 0.700704 0.965905
vt 0.727121 0.858946
vt 0.700704 0.870169
vt 0.700704 0.874571
vt 0.700704 0.870169
vt 0.674289 0.838919
vt 0.674289 0.870169
vt 0.700704 0.838919
vt 0.700704 0.838919
vt 0.674289 0.870169
vt 0.700704 0.965905
vt 0.700704 0.961502
vt 0.700704 0.934655
vt 0.674289 0.965905
vt 0.674289 0.961502
vt 0.700704 0.930252
vt 0.674289 0.843321
vt 0.700704 0.843321
vt 0.674289 0.874571
vt 0.674289 0.930252
vt 0.674289 0.965905
vt 0.700704 0.934655
vt 0.700704 0.930252
vt 0.674289 0.961502
vt 0.700704 0.874571
vt 0.674289 0.874571
vt 0.700704 0.843321
vt 0.674289 0.858946
vt 0.674289 0.890196
vt 0.700704 0.858946
vt 0.700704 0.890196
vt 0.700704 0.858946
vt 0.674289 0.890196
vt 0.647872 0.890196
vt 0.647872 0.961502
vt 0.674289 0.930252
vt 0.674289 0.858946
vt 0.731523 0.930252
vt 0.731523 0.858946
vt 0.727121 0.858946
vt 0.727121 0.930252
vt 0.674289 0.870169
vt 0.700704 0.838919
vt 0.700704 0.843321
vt 0.674289 0.874571
vt 0.700704 0.838919
vt 0.674289 0.870169
vt 0.674289 0.874571
vt 0.700704 0.843321
vt 0.727121 0.934655
vt 0.727121 0.930252
vt 0.731523 0.930252
vt 0.727121 0.858946
vt 0.700704 0.961502
vt 0.700704 0.890196
vt 0.727121 0.838919
vt 0.700704 0.870169
vt 0.700704 0.874571
vt 0.727121 0.843321
vt 0.700704 0.934655
vt 0.674289 0.965905
vt 0.674289 0.961502
vt 0.700704 0.930252
vt 0.647872 0.870169
vt 0.674289 0.838919
vt 0.674289 0.838919
vt 0.647872 0.870169
vt 0.700704 0.870169
vt 0.727121 0.838919
vt 0.727121 0.843321
vt 0.700704 0.874571
vt 0.643470 0.890196
vt 0.643470 0.961502
vt 0.643470 0.874571
vt 0.643470 0.874571
vt 0.647872 0.965905
vt 0.700704 0.858946
vt 0.674289 0.890196
vt 0.674289 0.890196
vt 0.674289 0.961502
vt 0.700704 0.930252
vt 0.700704 0.858946
vt 0.674289 0.934655
vt 0.700704 0.965905
vt 0.674289 0.843321
vt 0.647872 0.874571
vt 0.731523 0.843321
vt 0.731523 0.843321
vt 0.731523 0.858946
vt 0.647872 0.874571
vt 0.674289 0.843321
vt 0.674289 0.934655
vt 0.647872 0.965905
vt 0.647872 0.961502
vt 0.674289 0.930252
vt 0.674289 0.965905
vt 0.700704 0.934655
vt 0.727121 0.934655
vt 0.700704 0.965905
vt 0.643470 0.961502
vt 0.674289 0.858946
vt 0.647872 0.890196
vt 0.643470 0.890196
vt 0.700704 0.890196
vt 0.700704 0.961502
vn 0.0000 -0.3827 0.9239
vn 0.0000 0.3827 0.9239
vn -0.3416 0.3416 0.8756
vn -0.3416 -0.3416 0.8756
vn 0.8756 -0.3416 -0.3416
vn 0.8756 0.3416 -0.3416
vn 0.8756 0.3416 0.3416
vn 0.8756 -0.3416 0.3416
vn 0.0000 0.9239 -0.3827
vn -0.3416 0.8756 -0.3416
vn -0.3416 0.8756 0.3416
vn 0.0000 0.9239 0.3827
vn -0.8756 -0.3416 0.3416
vn -0.8756 0.3416 0.3416
vn -0.8756 0.3416 -0.3416
vn -0.8756 -0.3416 -0.3416
vn 0.0000 -0.3827 -0.9239
vn 0.0000 0.3827 -0.9239
vn 0.3416 0.3416 -0.8756
vn 0.3416 -0.3416 -0.8756
vn -0.3416 -0.8756 0.3416
vn -0.3416 -0.8756 -0.3416
vn -0.3416 -0.3416 -0.8756
vn -0.3416 0.3416 -0.8756
vn 0.3416 -0.8756 0.3416
vn 0.3416 -0.3416 0.8756
vn 0.3416 0.8756 0.3416
vn 0.3416 0.3416 0.8756
vn 0.3416 -0.8756 -0.3416
vn 0.3416 0.8756 -0.3416
vn 0.0000 -0.9239 -0.3827
vn 0.0000 -0.9239 0.3827
vn 0.8981 -0.4398 0.0000
vn 0.3729 -0.1826 -0.9097
vn 0.2191 -0.1073 -0.9698
vn -0.3729 0.1826 -0.9097
vn -0.2191 0.1073 -0.9698
vn -0.8981 0.4398 0.0000
vn 0.8981 0.4398 -0.0000
vn -0.2191 -0.1073 0.9698
vn 0.3729 0.1826 0.9097
vn 0.2191 0.1073 0.9698
vn -0.3729 -0.1826 0.9097
vn 0.2191 0.1073 -0.9698
vn 0.3729 0.1826 -0.9097
vn -0.2191 -0.1073 -0.9698
vn -0.3729 -0.1826 -0.9097
vn -0.8981 -0.4398 -0.0000
vn -0.3729 0.1826 0.9097
vn -0.2191 0.1073 0.9698
vn -0.5574 0.2730 0.7841
vn 0.3729 -0.1826 0.9097
vn 0.2191 -0.1073 0.9698
vn 0.5574 -0.2730 0.7841
vn 0.5574 -0.2730 -0.7841
vn -0.5574 0.2730 -0.7841
vn -0.5574 -0.2730 -0.7841
vn 0.5574 0.2730 0.7841
vn -0.5574 -0.2730 0.7841
vn 0.5574 0.2730 -0.7841
vn 0.0000 -1.0000 -0.0000
usemtl tiny_treats_1
s 1
f 36/1/1 39/2/2 4/3/3 2/4/4
f 21/5/5 23/6/6 18/7/7 14/8/8
f 29/9/9 10/10/10 5/11/11 38/12/12
f 3/13/13 6/14/14 12/15/15 8/16/16
f 28/17/17 31/18/18 24/19/19 20/20/20
f 1/21/21 2/22/4 3/23/13
f 4/3/3 5/11/11 6/14/14
f 7/24/22 8/25/16 9/26/23
f 10/10/10 11/27/24 12/15/15
f 13/28/25 14/29/8 15/30/26
f 16/31/27 17/32/28 18/7/7
f 19/33/29 20/34/20 21/35/5
f 22/36/30 23/6/6 24/19/19
f 7/24/22 1/21/21 3/23/13 8/25/16
f 2/4/4 4/3/3 6/14/14 3/13/13
f 5/11/11 10/10/10 12/15/15 6/14/14
f 11/27/24 9/37/23 8/16/16 12/15/15
f 26/38/31 7/24/22 9/26/23 27/39/17
f 30/40/9 22/36/30 24/19/19 31/18/18
f 23/6/6 21/5/5 20/20/20 24/19/19
f 13/28/25 19/33/29 21/35/5 14/29/8
f 22/36/30 16/31/27 18/7/7 23/6/6
f 17/32/28 15/41/26 14/8/8 18/7/7
f 34/42/32 13/28/25 15/30/26 35/43/1
f 38/12/12 5/11/11 4/3/3 39/2/2
f 25/44/31 19/33/29 13/28/25 34/42/32
f 7/24/22 26/38/31 33/45/32 1/21/21
f 26/46/31 25/47/31 34/48/32 33/49/32
f 16/31/27 37/50/12 40/51/2 17/32/28
f 37/52/12 38/53/12 39/54/2 40/55/2
f 1/21/21 33/45/32 36/56/1 2/22/4
f 33/49/32 34/48/32 35/57/1 36/58/1
f 10/10/10 29/9/9 32/59/18 11/27/24
f 29/60/9 30/61/9 31/62/18 32/63/18
f 19/33/29 25/44/31 28/64/17 20/34/20
f 25/47/31 26/46/31 27/65/17 28/66/17
f 9/37/23 11/27/24 32/59/18 27/67/17
f 27/68/17 32/63/18 31/62/18 28/69/17
f 22/36/30 30/40/9 37/50/12 16/31/27
f 30/61/9 29/60/9 38/53/12 37/52/12
f 15/41/26 17/32/28 40/51/2 35/70/1
f 35/71/1 40/55/2 39/54/2 36/72/1
f 45/73/33 54/74/33 55/75/33 48/76/33
f 56/77/34 53/78/35 50/79/36 51/80/37
f 49/81/38 42/82/38 43/83/38 52/84/38
f 88/85/39 83/86/39 82/87/39 78/88/39
f 57/89/40 62/90/41 63/91/42 60/92/43
f 61/93/39 70/94/39 71/95/39 64/96/39
f 72/97/44 69/98/45 66/99/46 67/100/47
f 65/101/48 58/102/48 59/103/48 68/104/48
f 102/105/33 93/106/33 96/107/33 103/108/33
f 41/109/49 44/110/50 43/83/51 42/82/51
f 47/111/52 46/112/53 45/73/54 48/76/54
f 53/78/35 56/77/34 55/75/55 54/74/55
f 51/80/37 50/79/36 49/81/56 52/84/56
f 79/113/47 85/114/46 86/115/57 84/116/57
f 77/117/41 88/85/58 78/88/58 87/118/42
f 57/89/40 60/92/43 59/103/59 58/102/59
f 63/91/42 62/90/41 61/93/58 64/96/58
f 69/98/45 72/97/44 71/95/60 70/94/60
f 67/100/47 66/99/46 65/101/57 68/104/57
f 100/119/38 91/120/38 90/121/38 97/122/38
f 41/109/49 46/112/53 47/111/52 44/110/50
f 77/117/41 87/118/42 76/123/43 73/124/40
f 80/125/45 81/126/44 82/87/60 83/86/60
f 75/127/48 84/116/48 86/115/48 74/128/48
f 75/127/59 74/128/59 73/124/40 76/123/43
f 85/114/46 79/113/47 81/126/44 80/125/45
f 94/129/52 89/130/50 92/131/49 95/132/53
f 94/129/52 95/132/53 96/107/54 93/106/54
f 98/133/37 101/134/34 104/135/35 99/136/36
f 92/131/49 89/130/50 90/121/51 91/120/51
f 99/136/36 100/119/56 97/122/56 98/133/37
f 74/128/61 86/115/61 85/114/61 73/124/61
f 73/124/61 85/114/61 80/125/61 77/117/61
f 102/105/55 103/108/55 104/135/35 101/134/34
f 46/112/61 53/78/61 54/74/61 45/73/61
f 62/90/61 69/98/61 70/94/61 61/93/61
f 77/117/61 80/125/61 83/86/61 88/85/61
f 95/132/61 104/135/61 103/108/61 96/107/61
f 91/120/61 100/119/61 99/136/61 92/131/61
f 92/131/61 99/136/61 104/135/61 95/132/61
f 42/82/61 49/81/61 50/79/61 41/109/61
f 41/109/61 50/79/61 53/78/61 46/112/61
f 58/102/61 65/101/61 66/99/61 57/89/61
f 57/89/61 66/99/61 69/98/61 62/90/61
f 122/137/21 116/138/22 128/139/29 134/140/25
f 113/141/3 123/142/4 136/143/26 125/144/28
f 126/145/7 135/146/8 130/147/5 132/148/6
f 118/149/23 120/150/24 133/151/19 129/152/20
f 142/153/7 151/154/8 146/155/5 148/156/6
f 107/157/23 105/158/24 149/159/19 145/160/20
f 112/161/3 139/162/4 152/163/26 141/164/28
f 106/165/10 111/166/11 143/167/27 147/168/30
f 119/169/10 114/170/11 127/171/27 131/172/30
f 138/173/21 109/174/22 144/175/29 150/176/25
f 112/161/3 111/166/11 110/177/14
f 113/141/3 114/170/11 115/178/14
f 116/138/22 117/179/16 118/149/23
f 119/169/10 120/150/24 121/180/15
f 122/137/21 123/142/4 124/181/13
f 125/144/28 126/145/7 127/171/27
f 128/139/29 129/152/20 130/147/5
f 131/172/30 132/148/6 133/151/19
f 134/140/25 135/146/8 136/143/26
f 116/138/22 122/137/21 124/181/13 117/179/16
f 115/178/14 124/181/13 123/142/4 113/141/3
f 121/180/15 115/178/14 114/170/11 119/169/10
f 117/179/16 121/180/15 120/150/24 118/149/23
f 130/147/5 135/146/8 134/140/25 128/139/29
f 125/144/28 136/143/26 135/146/8 126/145/7
f 131/172/30 127/171/27 126/145/7 132/148/6
f 129/152/20 133/151/19 132/148/6 130/147/5
f 119/169/10 131/172/30 133/151/19 120/150/24
f 113/141/3 125/144/28 127/171/27 114/170/11
f 122/137/21 134/140/25 136/143/26 123/142/4
f 118/149/23 129/152/20 128/139/29 116/138/22
f 121/180/15 117/179/16 124/181/13 115/178/14
f 109/174/22 108/182/16 107/157/23
f 106/165/10 105/158/24 137/183/15
f 138/173/21 139/162/4 140/184/13
f 141/164/28 142/153/7 143/167/27
f 144/175/29 145/160/20 146/155/5
f 147/168/30 148/156/6 149/159/19
f 150/176/25 151/154/8 152/163/26
f 109/174/22 138/173/21 140/184/13 108/182/16
f 110/177/14 140/184/13 139/162/4 112/161/3
f 137/183/15 110/177/14 111/166/11 106/165/10
f 108/182/16 137/183/15 105/158/24 107/157/23
f 146/155/5 151/154/8 150/176/25 144/175/29
f 141/164/28 152/163/26 151/154/8 142/153/7
f 147/168/30 143/167/27 142/153/7 148/156/6
f 145/160/20 149/159/19 148/156/6 146/155/5
f 106/165/10 147/168/30 149/159/19 105/158/24
f 112/161/3 141/164/28 143/167/27 111/166/11
f 138/173/21 150/176/25 152/163/26 139/162/4
f 107/157/23 145/160/20 144/175/29 109/174/22
f 137/183/15 108/182/16 140/184/13 110/177/14
f 188/185/1 191/186/2 156/187/3 154/188/4
f 173/189/5 175/190/6 170/191/7 166/192/8
f 181/193/9 162/194/10 157/195/11 190/196/12
f 155/197/13 158/198/14 164/199/15 160/200/16
f 180/201/17 183/202/18 176/203/19 172/204/20
f 153/205/21 154/206/4 155/207/13
f 156/187/3 157/195/11 158/198/14
f 159/208/22 160/209/16 161/210/23
f 162/194/10 163/211/24 164/199/15
f 165/212/25 166/213/8 167/214/26
f 168/215/27 169/216/28 170/191/7
f 171/217/29 172/218/20 173/219/5
f 174/220/30 175/190/6 176/203/19
f 159/208/22 153/205/21 155/207/13 160/209/16
f 154/188/4 156/187/3 158/198/14 155/197/13
f 157/195/11 162/194/10 164/199/15 158/198/14
f 163/211/24 161/221/23 160/200/16 164/199/15
f 178/222/31 159/208/22 161/210/23 179/223/17
f 182/224/9 174/220/30 176/203/19 183/202/18
f 175/190/6 173/189/5 172/204/20 176/203/19
f 165/212/25 171/217/29 173/219/5 166/213/8
f 174/220/30 168/215/27 170/191/7 175/190/6
f 169/216/28 167/225/26 166/192/8 170/191/7
f 186/226/32 165/212/25 167/214/26 187/227/1
f 190/196/12 157/195/11 156/187/3 191/186/2
f 177/228/31 171/217/29 165/212/25 186/226/32
f 159/208/22 178/222/31 185/229/32 153/205/21
f 178/230/31 177/231/31 186/232/32 185/233/32
f 168/215/27 189/234/12 192/235/2 169/216/28
f 189/236/12 190/237/12 191/238/2 192/239/2
f 153/205/21 185/229/32 188/240/1 154/206/4
f 185/233/32 186/232/32 187/241/1 188/242/1
f 162/194/10 181/193/9 184/243/18 163/211/24
f 181/244/9 182/245/9 183/246/18 184/247/18
f 171/217/29 177/228/31 180/248/17 172/218/20
f 177/231/31 178/230/31 179/249/17 180/250/17
f 161/221/23 163/211/24 184/243/18 179/251/17
f 179/252/17 184/247/18 183/246/18 180/253/17
f 174/220/30 182/224/9 189/234/12 168/215/27
f 182/245/9 181/244/9 190/237/12 189/236/12
f 167/225/26 169/216/28 192/235/2 187/254/1
f 187/255/1 192/239/2 191/238/2 188/256/1
f 224/257/23 222/258/24 201/259/18 206/260/17
f 210/261/6 212/262/5 213/263/20 209/264/19
f 200/265/32 199/266/32 198/267/1 197/268/1
f 208/269/31 207/270/31 206/271/17 205/272/17
f 217/273/27 216/274/28 215/275/7
f 218/276/26 216/274/28 193/277/2 198/278/1
f 214/279/29 208/280/31 205/281/17 213/282/20
f 196/283/12 195/284/12 194/285/2 193/286/2
f 226/287/22 207/288/31 200/289/32 232/290/21
f 199/291/32 220/292/25 218/293/26 198/294/1
f 222/258/24 224/257/23 225/295/16 221/296/15
f 226/287/22 232/290/21 230/297/13 225/298/16
f 223/299/10 222/258/24 221/296/15
f 198/300/1 193/286/2 194/285/2 197/301/1
f 206/302/17 201/303/18 202/304/18 205/305/17
f 223/299/10 204/306/9 201/259/18 222/258/24
f 217/273/27 196/307/12 193/277/2 216/274/28
f 232/290/21 200/289/32 197/308/1 231/309/4
f 220/292/25 219/310/8 218/293/26
f 214/279/29 213/282/20 212/311/5
f 216/274/28 218/276/26 219/312/8 215/275/7
f 207/288/31 226/287/22 224/313/23 206/314/17
f 220/292/25 214/279/29 212/311/5 219/310/8
f 195/315/12 228/316/11 229/317/3 194/318/2
f 204/319/9 203/320/9 202/304/18 201/303/18
f 211/321/30 217/273/27 215/275/7 210/261/6
f 211/321/30 203/322/9 196/307/12 217/273/27
f 229/317/3 228/316/11 227/323/14
f 228/316/11 223/299/10 221/296/15 227/323/14
f 197/324/1 194/318/2 229/317/3 231/325/4
f 203/320/9 204/319/9 195/284/12 196/283/12
f 204/306/9 223/299/10 228/316/11 195/315/12
f 208/280/31 214/279/29 220/292/25 199/291/32
f 230/326/13 227/323/14 221/296/15 225/295/16
f 211/321/30 210/261/6 209/264/19
f 226/287/22 225/298/16 224/313/23
f 207/270/31 208/269/31 199/266/32 200/265/32
f 232/290/21 231/309/4 230/297/13
f 231/325/4 229/317/3 227/323/14 230/326/13
f 205/327/17 202/328/18 209/264/19 213/263/20
f 203/322/9 211/321/30 209/264/19 202/328/18
f 212/262/5 210/261/6 215/275/7 219/312/8
