# Blender v3.4.1 OBJ File: 'Tiny_Treats_Fun_Playground_ASSETS_EXPORT.blend'
# www.blender.org
mtllib seesaw_small_seat.mtl
o seesaw_small_seat
v -0.350000 0.350000 1.950000
v -0.350000 0.400000 2.000000
v -0.400000 0.400000 1.950000
v -0.350000 0.600000 2.000000
v -0.350000 0.650000 1.950000
v -0.400000 0.600000 1.950000
v -0.350000 0.350000 -1.950000
v -0.400000 0.400000 -1.950000
v -0.350000 0.400000 -2.000000
v -0.350000 0.650000 -1.950000
v -0.350000 0.600000 -2.000000
v -0.400000 0.600000 -1.950000
v 0.350000 0.350000 1.950000
v 0.400000 0.400000 1.950000
v 0.350000 0.400000 2.000000
v 0.350000 0.650000 1.950000
v 0.350000 0.600000 2.000000
v 0.400000 0.600000 1.950000
v 0.350000 0.350000 -1.950000
v 0.350000 0.400000 -2.000000
v 0.400000 0.400000 -1.950000
v 0.350000 0.650000 -1.950000
v 0.400000 0.600000 -1.950000
v 0.350000 0.600000 -2.000000
v -0.237325 0.650000 1.250001
v -0.250000 0.650000 1.235001
v -0.250000 0.650000 1.165001
v -0.237325 0.650000 1.150001
v -0.150000 0.650000 1.235001
v -0.162676 0.650000 1.250001
v -0.162676 0.650000 1.150001
v -0.150000 0.650000 1.165001
v 0.162675 0.650000 1.250001
v 0.150000 0.650000 1.235001
v 0.150000 0.650000 1.165001
v 0.162675 0.650000 1.150001
v 0.250000 0.650000 1.235001
v 0.237324 0.650000 1.250001
v 0.237324 0.650000 1.150001
v 0.250000 0.650000 1.165001
v -0.250000 0.893096 1.235001
v -0.237418 0.880514 1.250001
v -0.180565 0.937468 1.250001
v -0.193097 0.950000 1.235001
v -0.233334 0.933333 1.235001
v -0.220818 0.920817 1.250001
v -0.193097 0.950000 1.165001
v -0.180565 0.937468 1.150001
v -0.237418 0.880514 1.150001
v -0.250000 0.893096 1.165001
v -0.220818 0.920817 1.150001
v -0.233334 0.933333 1.165001
v 0.193096 0.950000 1.235001
v 0.180565 0.937468 1.250001
v 0.237417 0.880514 1.250001
v 0.250000 0.893096 1.235001
v 0.220817 0.920817 1.250001
v 0.233333 0.933333 1.235001
v 0.250000 0.893096 1.165001
v 0.237417 0.880514 1.150001
v 0.180565 0.937468 1.150001
v 0.193096 0.950000 1.165001
v 0.233333 0.933333 1.165001
v 0.220817 0.920817 1.150001
v 0.150000 0.793096 1.235001
v 0.162582 0.805679 1.250001
v 0.105628 0.862531 1.250001
v 0.093096 0.850000 1.235001
v 0.133333 0.833333 1.235001
v 0.145849 0.845849 1.250001
v 0.093096 0.850000 1.165001
v 0.105628 0.862531 1.150001
v 0.162582 0.805679 1.150001
v 0.150000 0.793096 1.165001
v 0.145849 0.845849 1.150001
v 0.133333 0.833333 1.165001
v -0.150000 0.793096 1.165001
v -0.162583 0.805679 1.150001
v -0.105628 0.862531 1.150001
v -0.093097 0.850000 1.165001
v -0.133334 0.833333 1.165001
v -0.145849 0.845849 1.150001
v -0.093097 0.850000 1.235001
v -0.105628 0.862531 1.250001
v -0.162583 0.805679 1.250001
v -0.150000 0.793096 1.235001
v -0.145849 0.845849 1.250001
v -0.133334 0.833333 1.235001
v -0.237325 0.650000 -1.150000
v -0.250000 0.650000 -1.165000
v -0.250000 0.650000 -1.235000
v -0.237325 0.650000 -1.250000
v -0.150000 0.650000 -1.165000
v -0.162676 0.650000 -1.150000
v -0.162676 0.650000 -1.250000
v -0.150000 0.650000 -1.235000
v 0.162675 0.650000 -1.150000
v 0.150000 0.650000 -1.165000
v 0.150000 0.650000 -1.235000
v 0.162675 0.650000 -1.250000
v 0.250000 0.650000 -1.165000
v 0.237324 0.650000 -1.150000
v 0.237324 0.650000 -1.250000
v 0.250000 0.650000 -1.235000
v -0.250000 0.893097 -1.165000
v -0.237418 0.880514 -1.150000
v -0.180565 0.937469 -1.150000
v -0.193097 0.950000 -1.165000
v -0.233334 0.933334 -1.165000
v -0.220818 0.920818 -1.150000
v -0.193097 0.950000 -1.235000
v -0.180565 0.937469 -1.250000
v -0.237418 0.880514 -1.250000
v -0.250000 0.893097 -1.235000
v -0.220818 0.920818 -1.250000
v -0.233334 0.933333 -1.235000
v 0.193096 0.950000 -1.165000
v 0.180565 0.937469 -1.150000
v 0.237417 0.880514 -1.150000
v 0.250000 0.893097 -1.165000
v 0.220817 0.920818 -1.150000
v 0.233333 0.933334 -1.165000
v 0.250000 0.893097 -1.235000
v 0.237417 0.880514 -1.250000
v 0.180565 0.937469 -1.250000
v 0.193096 0.950000 -1.235000
v 0.233333 0.933334 -1.235000
v 0.220817 0.920818 -1.250000
v 0.150000 0.793097 -1.165000
v 0.162582 0.805679 -1.150000
v 0.105628 0.862532 -1.150000
v 0.093096 0.850000 -1.165000
v 0.133333 0.833333 -1.165000
v 0.145849 0.845849 -1.150000
v 0.093096 0.850000 -1.235000
v 0.105628 0.862532 -1.250000
v 0.162582 0.805679 -1.250000
v 0.150000 0.793097 -1.235000
v 0.145849 0.845849 -1.250000
v 0.133333 0.833333 -1.235000
v -0.150000 0.793097 -1.235000
v -0.162583 0.805679 -1.250000
v -0.105628 0.862532 -1.250000
v -0.093097 0.850000 -1.235000
v -0.133334 0.833333 -1.235000
v -0.145849 0.845849 -1.250000
v -0.093097 0.850000 -1.165000
v -0.105628 0.862532 -1.150000
v -0.162583 0.805679 -1.150000
v -0.150000 0.793097 -1.165000
v -0.145849 0.845849 -1.150000
v -0.133334 0.833333 -1.165000
vt 0.213436 0.369305
vt 0.213436 0.402927
vt 0.161562 0.402927
vt 0.161562 0.369305
vt 0.217141 0.369305
vt 0.217141 0.402927
vt 0.217141 0.402927
vt 0.217141 0.369305
vt 0.213436 0.442582
vt 0.161562 0.442582
vt 0.161562 0.442582
vt 0.213436 0.442582
vt 0.157856 0.369305
vt 0.157856 0.402927
vt 0.157856 0.402927
vt 0.157856 0.369305
vt 0.161562 0.369305
vt 0.161562 0.402927
vt 0.213436 0.402927
vt 0.213436 0.369305
vt 0.161562 0.345274
vt 0.161562 0.353680
vt 0.157856 0.353680
vt 0.161562 0.449802
vt 0.161562 0.458207
vt 0.157856 0.449802
vt 0.161562 0.345274
vt 0.157856 0.353680
vt 0.161562 0.353680
vt 0.161562 0.458207
vt 0.161562 0.449802
vt 0.157856 0.449802
vt 0.213436 0.345274
vt 0.217141 0.353680
vt 0.213436 0.353680
vt 0.213436 0.458207
vt 0.213436 0.449802
vt 0.217141 0.449802
vt 0.213436 0.345274
vt 0.213436 0.353680
vt 0.217141 0.353680
vt 0.213436 0.458207
vt 0.217141 0.449802
vt 0.213436 0.449802
vt 0.161562 0.384930
vt 0.161562 0.418552
vt 0.157856 0.418552
vt 0.157856 0.384930
vt 0.161562 0.418552
vt 0.161562 0.384930
vt 0.157856 0.384930
vt 0.157856 0.418552
vt 0.217141 0.418552
vt 0.217141 0.384930
vt 0.213436 0.384930
vt 0.213436 0.418552
vt 0.213436 0.418552
vt 0.213436 0.384930
vt 0.217141 0.384930
vt 0.217141 0.418552
vt 0.161562 0.329649
vt 0.213436 0.329649
vt 0.213436 0.329649
vt 0.161562 0.329649
vt 0.301383 0.834732
vt 0.301383 0.845336
vt 0.301383 0.845336
vt 0.301383 0.834732
vt 0.323615 0.834732
vt 0.323615 0.845336
vt 0.323615 0.845336
vt 0.323615 0.834732
vt 0.299118 0.887285
vt 0.304671 0.881732
vt 0.301690 0.880495
vt 0.296135 0.886051
vt 0.331025 0.897232
vt 0.331025 0.915247
vt 0.331025 0.915247
vt 0.331025 0.897232
vt 0.330086 0.865982
vt 0.330093 0.883064
vt 0.324547 0.877518
vt 0.324554 0.865982
vt 0.326808 0.919463
vt 0.298189 0.919463
vt 0.298189 0.919463
vt 0.326808 0.919463
vt 0.302618 0.848318
vt 0.302618 0.848318
vt 0.300450 0.877518
vt 0.294905 0.883064
vt 0.294911 0.865982
vt 0.300444 0.865982
vt 0.301690 0.880495
vt 0.296135 0.886051
vt 0.294905 0.883064
vt 0.300450 0.877518
vt 0.324554 0.865982
vt 0.324547 0.877518
vt 0.330093 0.883064
vt 0.330086 0.865982
vt 0.325880 0.887285
vt 0.299118 0.887285
vt 0.304671 0.881732
vt 0.320326 0.881732
vt 0.323307 0.880495
vt 0.328863 0.886051
vt 0.323307 0.880495
vt 0.328863 0.886051
vt 0.319397 0.849553
vt 0.319397 0.849553
vt 0.305600 0.849553
vt 0.305600 0.849553
vt 0.322379 0.848318
vt 0.322379 0.848318
vt 0.295207 0.918228
vt 0.295207 0.918228
vt 0.293972 0.915247
vt 0.293972 0.915247
vt 0.320326 0.881732
vt 0.325880 0.887285
vt 0.329790 0.918228
vt 0.329790 0.918228
vt 0.300444 0.865982
vt 0.294911 0.865982
vt 0.296135 0.917301
vt 0.299118 0.918535
vt 0.299118 0.918535
vt 0.296135 0.917301
vt 0.294905 0.914314
vt 0.294905 0.914314
vt 0.328863 0.917301
vt 0.325880 0.918535
vt 0.325880 0.918535
vt 0.328863 0.917301
vt 0.330093 0.914314
vt 0.330093 0.914314
vt 0.323307 0.849245
vt 0.320326 0.850482
vt 0.320326 0.850482
vt 0.323307 0.849245
vt 0.324547 0.846268
vt 0.324547 0.846268
vt 0.301690 0.849245
vt 0.304671 0.850482
vt 0.304671 0.850482
vt 0.301690 0.849245
vt 0.300450 0.846268
vt 0.300450 0.846268
vt 0.294911 0.897232
vt 0.293972 0.897232
vt 0.294911 0.897232
vt 0.293972 0.897232
vt 0.300444 0.834732
vt 0.300444 0.834732
vt 0.330086 0.897232
vt 0.330086 0.897232
vt 0.324554 0.834732
vt 0.324554 0.834732
vt 0.301383 0.834732
vt 0.301383 0.845336
vt 0.301383 0.845336
vt 0.301383 0.834732
vt 0.323615 0.834732
vt 0.323615 0.845336
vt 0.323615 0.845336
vt 0.323615 0.834732
vt 0.299118 0.887285
vt 0.304671 0.881732
vt 0.301690 0.880495
vt 0.296135 0.886051
vt 0.331025 0.897232
vt 0.331025 0.915246
vt 0.331025 0.915246
vt 0.331025 0.897232
vt 0.330086 0.865982
vt 0.330093 0.883064
vt 0.324547 0.877518
vt 0.324554 0.865982
vt 0.326808 0.919463
vt 0.298189 0.919463
vt 0.298189 0.919463
vt 0.326808 0.919463
vt 0.302618 0.848318
vt 0.302618 0.848318
vt 0.300450 0.877518
vt 0.294905 0.883064
vt 0.294911 0.865982
vt 0.300444 0.865982
vt 0.301690 0.880495
vt 0.296135 0.886051
vt 0.294905 0.883064
vt 0.300450 0.877518
vt 0.324554 0.865982
vt 0.324547 0.877518
vt 0.330093 0.883064
vt 0.330086 0.865982
vt 0.325880 0.887285
vt 0.299118 0.887285
vt 0.304671 0.881732
vt 0.320326 0.881732
vt 0.323307 0.880495
vt 0.328863 0.886051
vt 0.323307 0.880495
vt 0.328863 0.886051
vt 0.319397 0.849553
vt 0.319397 0.849553
vt 0.305600 0.849553
vt 0.305600 0.849553
vt 0.322379 0.848318
vt 0.322379 0.848318
vt 0.295207 0.918228
vt 0.295207 0.918228
vt 0.293972 0.915246
vt 0.293972 0.915246
vt 0.320326 0.881732
vt 0.325880 0.887285
vt 0.329790 0.918228
vt 0.329790 0.918228
vt 0.300444 0.865982
vt 0.294911 0.865982
vt 0.296135 0.917301
vt 0.299118 0.918535
vt 0.299118 0.918535
vt 0.296135 0.917301
vt 0.294905 0.914314
vt 0.294905 0.914314
vt 0.328863 0.917301
vt 0.325880 0.918535
vt 0.325880 0.918535
vt 0.328863 0.917301
vt 0.330093 0.914314
vt 0.330093 0.914314
vt 0.323307 0.849245
vt 0.320326 0.850482
vt 0.320326 0.850482
vt 0.323307 0.849245
vt 0.324547 0.846268
vt 0.324547 0.846268
vt 0.301690 0.849245
vt 0.304671 0.850482
vt 0.304671 0.850482
vt 0.301690 0.849245
vt 0.300450 0.846268
vt 0.300450 0.846268
vt 0.294911 0.897232
vt 0.293972 0.897232
vt 0.294911 0.897232
vt 0.293972 0.897232
vt 0.300444 0.834732
vt 0.300444 0.834732
vt 0.330086 0.897232
vt 0.330086 0.897232
vt 0.324554 0.834732
vt 0.324554 0.834732
vn 0.3416 -0.3416 0.8756
vn 0.3416 0.3416 0.8756
vn -0.3416 0.3416 0.8756
vn -0.3416 -0.3416 0.8756
vn 0.8756 -0.3416 -0.3416
vn 0.8756 0.3416 -0.3416
vn 0.8756 0.3416 0.3416
vn 0.8756 -0.3416 0.3416
vn 0.3416 0.8756 -0.3416
vn -0.3416 0.8756 -0.3416
vn -0.3416 0.8756 0.3416
vn 0.3416 0.8756 0.3416
vn -0.8756 -0.3416 0.3416
vn -0.8756 0.3416 0.3416
vn -0.8756 0.3416 -0.3416
vn -0.8756 -0.3416 -0.3416
vn -0.3416 -0.3416 -0.8756
vn -0.3416 0.3416 -0.8756
vn 0.3416 0.3416 -0.8756
vn 0.3416 -0.3416 -0.8756
vn -0.3416 -0.8756 0.3416
vn -0.3416 -0.8756 -0.3416
vn 0.3416 -0.8756 0.3416
vn 0.3416 -0.8756 -0.3416
vn 0.9394 -0.0001 -0.3428
vn 0.9091 -0.1552 -0.3866
vn 0.9091 -0.1552 0.3866
vn 0.9394 -0.0001 0.3428
vn -0.9394 -0.0001 0.3428
vn -0.9091 -0.1552 0.3866
vn -0.9091 -0.1552 -0.3866
vn -0.9394 -0.0001 -0.3428
vn -0.0585 0.4333 -0.8993
vn 0.0819 -0.3277 -0.9412
vn 0.1869 -0.1871 -0.9644
vn -0.2936 0.2934 -0.9098
vn 0.9074 0.1983 -0.3704
vn 0.9074 0.1983 0.3704
vn 0.4218 -0.0001 0.9067
vn 0.4320 0.0582 0.9000
vn -0.3267 -0.0819 0.9416
vn -0.4217 -0.0001 0.9067
vn 0.1985 0.9077 -0.3696
vn -0.1985 0.9077 -0.3696
vn -0.1985 0.9077 0.3696
vn 0.1985 0.9077 0.3696
vn 0.6255 -0.6259 -0.4658
vn 0.6255 -0.6259 0.4658
vn 0.3267 -0.0819 -0.9416
vn -0.4320 0.0582 -0.9000
vn -0.4218 -0.0001 -0.9067
vn 0.4217 -0.0001 -0.9067
vn 0.1869 -0.1871 0.9644
vn -0.2936 0.2934 0.9098
vn -0.4320 0.0582 0.9000
vn 0.3267 -0.0819 0.9416
vn -0.4217 -0.0001 -0.9067
vn -0.3267 -0.0819 -0.9416
vn 0.4320 0.0582 -0.9000
vn 0.4218 -0.0001 -0.9067
vn 0.0585 0.4333 0.8993
vn -0.0585 0.4333 0.8993
vn 0.0819 -0.3277 0.9412
vn -0.0819 -0.3277 0.9412
vn -0.1869 -0.1871 0.9644
vn 0.2936 0.2934 0.9098
vn -0.1869 -0.1871 -0.9644
vn 0.2936 0.2934 -0.9098
vn -0.1551 -0.9097 -0.3852
vn -0.1551 -0.9097 0.3852
vn 0.1551 -0.9097 0.3852
vn 0.1551 -0.9097 -0.3852
vn -0.6255 -0.6259 -0.4658
vn -0.6255 -0.6259 0.4658
vn -0.6524 0.6523 -0.3860
vn -0.6524 0.6523 0.3860
vn -0.9074 0.1983 -0.3704
vn -0.9074 0.1983 0.3704
vn -0.0819 -0.3277 -0.9412
vn 0.0585 0.4333 -0.8993
vn 0.6524 0.6523 0.3860
vn 0.6524 0.6523 -0.3860
vn 0.4217 -0.0001 0.9067
vn -0.4218 -0.0001 0.9067
usemtl tiny_treats_1
s 1
f 15/1/1 17/2/2 4/3/3 2/4/4
f 21/5/5 23/6/6 18/7/7 14/8/8
f 22/9/9 10/10/10 5/11/11 16/12/12
f 3/13/13 6/14/14 12/15/15 8/16/16
f 9/17/17 11/18/18 24/19/19 20/20/20
f 1/21/21 2/22/4 3/23/13
f 4/24/3 5/25/11 6/26/14
f 7/27/22 8/28/16 9/29/17
f 10/30/10 11/31/18 12/32/15
f 13/33/23 14/34/8 15/35/1
f 16/36/12 17/37/2 18/38/7
f 19/39/24 20/40/20 21/41/5
f 22/42/9 23/43/6 24/44/19
f 7/27/22 1/21/21 3/23/13 8/28/16
f 2/45/4 4/46/3 6/47/14 3/48/13
f 5/25/11 10/30/10 12/32/15 6/26/14
f 11/49/18 9/50/17 8/51/16 12/52/15
f 19/39/24 7/27/22 9/29/17 20/40/20
f 10/30/10 22/42/9 24/44/19 11/31/18
f 23/53/6 21/54/5 20/55/20 24/56/19
f 13/33/23 19/39/24 21/41/5 14/34/8
f 22/42/9 16/36/12 18/38/7 23/43/6
f 17/57/2 15/58/1 14/59/8 18/60/7
f 1/21/21 13/33/23 15/35/1 2/22/4
f 16/36/12 5/25/11 4/24/3 17/37/2
f 7/61/22 19/62/24 13/63/23 1/64/21
f 32/65/25 77/66/26 86/67/27 29/68/28
f 34/69/29 65/70/30 74/71/31 35/72/32
f 48/73/33 79/74/34 82/75/35 51/76/36
f 40/77/25 59/78/37 56/79/38 37/80/28
f 38/81/39 55/82/40 66/83/41 33/84/42
f 62/85/43 47/86/44 44/87/45 53/88/46
f 81/89/47 88/90/48 86/67/27 77/66/26
f 51/76/36 82/75/35 78/91/49 49/92/50
f 28/93/51 49/92/50 78/91/49 31/94/52
f 87/95/53 46/96/54 42/97/55 85/98/56
f 36/99/57 73/100/58 60/101/59 39/102/60
f 54/103/61 43/104/62 84/105/63 67/106/64
f 84/105/63 43/104/62 46/96/54 87/95/53
f 54/103/61 67/106/64 70/107/65 57/108/66
f 75/109/67 64/110/68 60/101/59 73/100/58
f 71/111/69 68/112/70 83/113/71 80/114/72
f 68/112/70 71/111/69 76/115/73 69/116/74
f 80/114/72 83/113/71 88/90/48 81/89/47
f 44/87/45 47/86/44 52/117/75 45/118/76
f 45/118/76 52/117/75 50/119/77 41/120/78
f 72/121/79 79/74/34 48/73/33 61/122/80
f 62/85/43 53/88/46 58/123/81 63/124/82
f 69/116/74 76/115/73 74/71/31 65/70/30
f 72/121/79 61/122/80 64/110/68 75/109/67
f 57/108/66 70/107/65 66/83/41 55/82/40
f 63/124/82 58/123/81 56/79/38 59/78/37
f 30/125/83 85/98/56 42/97/55 25/126/84
f 46/127/54 43/128/62 44/87/45 45/118/76
f 48/129/33 51/130/36 52/117/75 47/86/44
f 42/131/55 46/127/54 45/118/76 41/120/78
f 51/130/36 49/132/50 50/119/77 52/117/75
f 64/133/68 61/134/80 62/85/43 63/124/82
f 54/135/61 57/136/66 58/123/81 53/88/46
f 60/137/59 64/133/68 63/124/82 59/78/37
f 57/136/66 55/138/40 56/79/38 58/123/81
f 70/139/65 67/140/64 68/112/70 69/116/74
f 72/141/79 75/142/67 76/115/73 71/111/69
f 66/143/41 70/139/65 69/116/74 65/70/30
f 75/142/67 73/144/58 74/71/31 76/115/73
f 82/145/35 79/146/34 80/114/72 81/89/47
f 84/147/63 87/148/53 88/90/48 83/113/71
f 78/149/49 82/145/35 81/89/47 77/66/26
f 87/148/53 85/150/56 86/67/27 88/90/48
f 25/151/84 42/131/55 41/120/78 26/152/29
f 49/132/50 28/153/51 27/154/32 50/119/77
f 29/68/28 86/67/27 85/150/56 30/155/83
f 61/134/80 48/129/33 47/86/44 62/85/43
f 43/128/62 54/135/61 53/88/46 44/87/45
f 83/113/71 68/112/70 67/140/64 84/147/63
f 77/66/26 32/65/25 31/156/52 78/149/49
f 71/111/69 80/114/72 79/146/34 72/141/79
f 39/157/60 60/137/59 59/78/37 40/77/25
f 55/138/40 38/158/39 37/80/28 56/79/38
f 65/70/30 34/69/29 33/159/42 66/143/41
f 35/72/32 74/71/31 73/144/58 36/160/57
f 26/152/29 41/120/78 50/119/77 27/154/32
f 96/161/25 141/162/26 150/163/27 93/164/28
f 98/165/29 129/166/30 138/167/31 99/168/32
f 112/169/33 143/170/34 146/171/35 115/172/36
f 104/173/25 123/174/37 120/175/38 101/176/28
f 102/177/39 119/178/40 130/179/41 97/180/42
f 126/181/43 111/182/44 108/183/45 117/184/46
f 145/185/47 152/186/48 150/163/27 141/162/26
f 115/172/36 146/171/35 142/187/49 113/188/50
f 92/189/51 113/188/50 142/187/49 95/190/52
f 151/191/53 110/192/54 106/193/55 149/194/56
f 100/195/57 137/196/58 124/197/59 103/198/60
f 118/199/61 107/200/62 148/201/63 131/202/64
f 148/201/63 107/200/62 110/192/54 151/191/53
f 118/199/61 131/202/64 134/203/65 121/204/66
f 139/205/67 128/206/68 124/197/59 137/196/58
f 135/207/69 132/208/70 147/209/71 144/210/72
f 132/208/70 135/207/69 140/211/73 133/212/74
f 144/210/72 147/209/71 152/186/48 145/185/47
f 108/183/45 111/182/44 116/213/75 109/214/76
f 109/214/76 116/213/75 114/215/77 105/216/78
f 136/217/79 143/170/34 112/169/33 125/218/80
f 126/181/43 117/184/46 122/219/81 127/220/82
f 133/212/74 140/211/73 138/167/31 129/166/30
f 136/217/79 125/218/80 128/206/68 139/205/67
f 121/204/66 134/203/65 130/179/41 119/178/40
f 127/220/82 122/219/81 120/175/38 123/174/37
f 94/221/83 149/194/56 106/193/55 89/222/84
f 110/223/54 107/224/62 108/183/45 109/214/76
f 112/225/33 115/226/36 116/213/75 111/182/44
f 106/227/55 110/223/54 109/214/76 105/216/78
f 115/226/36 113/228/50 114/215/77 116/213/75
f 128/229/68 125/230/80 126/181/43 127/220/82
f 118/231/61 121/232/66 122/219/81 117/184/46
f 124/233/59 128/229/68 127/220/82 123/174/37
f 121/232/66 119/234/40 120/175/38 122/219/81
f 134/235/65 131/236/64 132/208/70 133/212/74
f 136/237/79 139/238/67 140/211/73 135/207/69
f 130/239/41 134/235/65 133/212/74 129/166/30
f 139/238/67 137/240/58 138/167/31 140/211/73
f 146/241/35 143/242/34 144/210/72 145/185/47
f 148/243/63 151/244/53 152/186/48 147/209/71
f 142/245/49 146/241/35 145/185/47 141/162/26
f 151/244/53 149/246/56 150/163/27 152/186/48
f 89/247/84 106/227/55 105/216/78 90/248/29
f 113/228/50 92/249/51 91/250/32 114/215/77
f 93/164/28 150/163/27 149/246/56 94/251/83
f 125/230/80 112/225/33 111/182/44 126/181/43
f 107/224/62 118/231/61 117/184/46 108/183/45
f 147/209/71 132/208/70 131/236/64 148/243/63
f 141/162/26 96/161/25 95/252/52 142/245/49
f 135/207/69 144/210/72 143/242/34 136/237/79
f 103/253/60 124/233/59 123/174/37 104/173/25
f 119/234/40 102/254/39 101/176/28 120/175/38
f 129/166/30 98/165/29 97/255/42 130/239/41
f 99/168/32 138/167/31 137/240/58 100/256/57
f 90/248/29 105/216/78 114/215/77 91/250/32
