# Blender v3.4.1 OBJ File: 'Tiny_Treats_Fun_Playground_ASSETS_EXPORT.blend'
# www.blender.org
mtllib spring_horse_A.mtl
o spring_horse_A
v -0.000000 0.000000 -0.000000
v -0.000000 0.200000 0.000000
v 0.207107 0.150000 -0.500000
v 0.500000 0.150000 -0.207107
v 0.500000 0.150000 0.207107
v 0.207107 0.150000 0.500000
v -0.207107 0.150000 0.500000
v -0.500000 0.150000 0.207107
v -0.500000 0.150000 -0.207107
v -0.207107 0.150000 -0.500000
v 0.186396 0.200000 -0.450000
v 0.450000 0.200000 -0.186396
v 0.450000 0.200000 0.186396
v 0.186396 0.200000 0.450000
v -0.186396 0.200000 0.450000
v -0.450000 0.200000 0.186396
v -0.450000 0.200000 -0.186396
v -0.186396 0.200000 -0.450000
v 0.207107 0.000000 -0.500000
v 0.500000 0.000000 -0.207107
v 0.500000 -0.000000 0.207107
v 0.207107 -0.000000 0.500000
v -0.207107 -0.000000 0.500000
v -0.500000 -0.000000 0.207107
v -0.500000 0.000000 -0.207107
v -0.207107 0.000000 -0.500000
vt 0.425603 0.339201
vt 0.425603 0.344619
vt 0.440563 0.344619
vt 0.440563 0.339201
vt 0.451142 0.339201
vt 0.451142 0.344619
vt 0.440563 0.344619
vt 0.440563 0.339201
vt 0.425603 0.344619
vt 0.425603 0.339201
vt 0.415024 0.344619
vt 0.415024 0.339201
vt 0.415024 0.344619
vt 0.415024 0.339201
vt 0.451142 0.344619
vt 0.451142 0.339201
vt 0.451142 0.375869
vt 0.440563 0.375869
vt 0.439815 0.377674
vt 0.449336 0.377674
vt 0.451142 0.375869
vt 0.449336 0.377674
vt 0.440563 0.375869
vt 0.439815 0.377674
vt 0.425603 0.375869
vt 0.426351 0.377674
vt 0.415024 0.375869
vt 0.416830 0.377674
vt 0.415024 0.375869
vt 0.416830 0.377674
vt 0.425603 0.375869
vt 0.426351 0.377674
vt 0.433083 0.362049
vt 0.449336 0.362049
vt 0.439815 0.362049
vt 0.449336 0.362049
vt 0.439815 0.362049
vt 0.426351 0.362049
vt 0.416830 0.362049
vt 0.416830 0.362049
vt 0.426351 0.362049
vt 0.433083 0.339201
vn -0.3827 0.0000 -0.9239
vn -0.3557 0.3689 -0.8587
vn 0.3557 0.3689 -0.8587
vn 0.3827 0.0000 -0.9239
vn 0.9239 -0.0000 0.3827
vn 0.8587 0.3689 0.3557
vn 0.3557 0.3689 0.8587
vn 0.3827 -0.0000 0.9239
vn -0.3557 0.3689 0.8587
vn -0.3827 -0.0000 0.9239
vn -0.8587 0.3689 0.3557
vn -0.9239 -0.0000 0.3827
vn -0.8587 0.3689 -0.3557
vn -0.9239 0.0000 -0.3827
vn 0.8587 0.3689 -0.3557
vn 0.9239 0.0000 -0.3827
vn 0.1675 0.8991 -0.4044
vn 0.4044 0.8991 -0.1675
vn 0.4044 0.8991 0.1675
vn 0.1675 0.8991 0.4044
vn -0.1675 0.8991 0.4044
vn -0.4044 0.8991 0.1675
vn -0.4044 0.8991 -0.1675
vn -0.1675 0.8991 -0.4044
vn -0.0000 1.0000 0.0000
vn -0.0000 -1.0000 -0.0000
usemtl tiny_treats_1
s 1
f 26/1/1 10/2/2 3/3/3 19/4/4
f 21/5/5 5/6/6 6/7/7 22/8/8
f 22/8/8 6/7/7 7/9/9 23/10/10
f 23/10/10 7/9/9 8/11/11 24/12/12
f 24/12/12 8/11/11 9/13/13 25/14/14
f 25/14/14 9/13/13 10/2/2 26/1/1
f 19/4/4 3/3/3 4/15/15 20/16/16
f 20/16/16 4/15/15 5/6/6 21/5/5
f 4/17/15 3/18/3 11/19/17 12/20/18
f 5/21/6 4/17/15 12/20/18 13/22/19
f 6/23/7 5/21/6 13/22/19 14/24/20
f 7/25/9 6/23/7 14/24/20 15/26/21
f 8/27/11 7/25/9 15/26/21 16/28/22
f 9/29/13 8/27/11 16/28/22 17/30/23
f 10/31/2 9/29/13 17/30/23 18/32/24
f 3/18/3 10/31/2 18/32/24 11/19/17
f 2/33/25 12/34/18 11/35/17
f 2/33/25 13/36/19 12/34/18
f 2/33/25 14/37/20 13/36/19
f 2/33/25 15/38/21 14/37/20
f 2/33/25 16/39/22 15/38/21
f 2/33/25 17/40/23 16/39/22
f 2/33/25 18/41/24 17/40/23
f 2/33/25 11/35/17 18/41/24
f 1/42/26 19/4/26 20/16/26
f 1/42/26 20/16/26 21/5/26
f 1/42/26 21/5/26 22/8/26
f 1/42/26 22/8/26 23/10/26
f 1/42/26 23/10/26 24/12/26
f 1/42/26 24/12/26 25/14/26
f 1/42/26 25/14/26 26/1/26
f 1/42/26 26/1/26 19/4/26
