# Blender v3.4.1 OBJ File: 'Tiny_Treats_Fun_Playground_ASSETS_EXPORT.blend'
# www.blender.org
mtllib stepping_stumps_A_blue.mtl
o stepping_stumps_A_blue
v -0.000006 -0.000000 -0.000000
v -0.000006 0.300000 0.000000
v 0.041415 0.270000 -0.100000
v 0.028989 0.300000 -0.070000
v 0.069994 0.300000 -0.028995
v 0.099994 0.270000 -0.041421
v 0.069994 0.300000 0.028995
v 0.099994 0.270000 0.041421
v 0.028989 0.300000 0.070000
v 0.041415 0.270000 0.100000
v -0.029001 0.300000 0.070000
v -0.041427 0.270000 0.100000
v -0.070006 0.300000 0.028995
v -0.100006 0.270000 0.041421
v -0.070006 0.300000 -0.028995
v -0.100006 0.270000 -0.041421
v -0.029001 0.300000 -0.070000
v -0.041427 0.270000 -0.100000
v 0.033131 0.000000 -0.080000
v 0.041415 0.020000 -0.100000
v 0.099994 0.020000 -0.041421
v 0.079994 -0.000000 -0.033137
v 0.099994 0.020000 0.041421
v 0.079994 -0.000000 0.033137
v 0.041415 0.020000 0.100000
v 0.033131 -0.000000 0.080000
v -0.041427 0.020000 0.100000
v -0.033143 -0.000000 0.080000
v -0.100006 0.020000 0.041421
v -0.080006 -0.000000 0.033137
v -0.100006 0.020000 -0.041421
v -0.080006 -0.000000 -0.033137
v -0.041427 0.020000 -0.100000
v -0.033143 0.000000 -0.080000
vt 0.469446 0.643910
vt 0.474045 0.642990
vt 0.474045 0.642990
vt 0.467541 0.642990
vt 0.471351 0.642990
vt 0.464846 0.642990
vt 0.464846 0.642990
vt 0.467541 0.642990
vt 0.471351 0.642990
vt 0.466724 0.609800
vt 0.466724 0.625131
vt 0.472168 0.625131
vt 0.472168 0.609800
vt 0.476017 0.609800
vt 0.476017 0.625131
vt 0.472168 0.625131
vt 0.472168 0.609800
vt 0.466724 0.625131
vt 0.466724 0.609800
vt 0.462875 0.625131
vt 0.462875 0.609800
vt 0.462875 0.625131
vt 0.462875 0.609800
vt 0.476017 0.609800
vt 0.476017 0.625131
vt 0.469446 0.577323
vt 0.474702 0.577323
vt 0.474702 0.577323
vt 0.471623 0.577323
vt 0.467269 0.577323
vt 0.464189 0.577323
vt 0.464189 0.577323
vt 0.467269 0.577323
vt 0.471623 0.577323
vt 0.476017 0.656381
vt 0.472168 0.656381
vt 0.471351 0.658615
vt 0.474045 0.658615
vt 0.476017 0.656381
vt 0.474045 0.658615
vt 0.472168 0.656381
vt 0.471351 0.658615
vt 0.466724 0.656381
vt 0.467541 0.658615
vt 0.462875 0.656381
vt 0.464846 0.658615
vt 0.462875 0.656381
vt 0.464846 0.658615
vt 0.466724 0.656381
vt 0.467541 0.658615
vt 0.472168 0.592948
vt 0.476017 0.592948
vt 0.474702 0.592948
vt 0.471623 0.592948
vt 0.476017 0.592948
vt 0.474702 0.592948
vt 0.472168 0.592948
vt 0.471623 0.592948
vt 0.466724 0.592948
vt 0.467269 0.592948
vt 0.462875 0.592948
vt 0.464189 0.592948
vt 0.462875 0.592948
vt 0.464189 0.592948
vt 0.466724 0.592948
vt 0.467269 0.592948
vn 0.0000 1.0000 0.0000
vn 0.4044 0.8991 0.1675
vn 0.4044 0.8991 -0.1675
vn -0.1675 0.8991 0.4044
vn 0.1675 0.8991 0.4044
vn -0.4044 0.8991 0.1675
vn -0.4044 0.8991 -0.1675
vn -0.1675 0.8991 -0.4044
vn 0.1675 0.8991 -0.4044
vn -0.3557 -0.3689 -0.8587
vn -0.3557 0.3689 -0.8587
vn 0.3557 0.3689 -0.8587
vn 0.3557 -0.3689 -0.8587
vn 0.8587 -0.3689 0.3557
vn 0.8587 0.3689 0.3557
vn 0.3557 0.3689 0.8587
vn 0.3557 -0.3689 0.8587
vn -0.3557 0.3689 0.8587
vn -0.3557 -0.3689 0.8587
vn -0.8587 0.3689 0.3557
vn -0.8587 -0.3689 0.3557
vn -0.8587 0.3689 -0.3557
vn -0.8587 -0.3689 -0.3557
vn 0.8587 -0.3689 -0.3557
vn 0.8587 0.3689 -0.3557
vn -0.0000 -1.0000 -0.0000
vn 0.4044 -0.8991 -0.1675
vn 0.4044 -0.8991 0.1675
vn 0.1675 -0.8991 0.4044
vn -0.1675 -0.8991 0.4044
vn -0.4044 -0.8991 0.1675
vn -0.4044 -0.8991 -0.1675
vn -0.1675 -0.8991 -0.4044
vn 0.1675 -0.8991 -0.4044
usemtl tiny_treats_1
s 1
f 2/1/1 7/2/2 5/3/3
f 2/1/1 11/4/4 9/5/5
f 2/1/1 13/6/6 11/4/4
f 2/1/1 15/7/7 13/6/6
f 2/1/1 17/8/8 15/7/7
f 2/1/1 4/9/9 17/8/8
f 2/1/1 9/5/5 7/2/2
f 33/10/10 18/11/11 3/12/12 20/13/13
f 23/14/14 8/15/15 10/16/16 25/17/17
f 25/17/17 10/16/16 12/18/18 27/19/19
f 27/19/19 12/18/18 14/20/20 29/21/21
f 29/21/21 14/20/20 16/22/22 31/23/23
f 31/23/23 16/22/22 18/11/11 33/10/10
f 21/24/24 6/25/25 8/15/15 23/14/14
f 1/26/26 22/27/27 24/28/28
f 1/26/26 24/28/28 26/29/29
f 1/26/26 26/29/29 28/30/30
f 1/26/26 28/30/30 30/31/31
f 1/26/26 30/31/31 32/32/32
f 1/26/26 32/32/32 34/33/33
f 1/26/26 34/33/33 19/34/34
f 1/26/26 19/34/34 22/27/27
f 6/35/25 3/36/12 4/37/9 5/38/3
f 8/39/15 6/35/25 5/38/3 7/40/2
f 10/41/16 8/39/15 7/40/2 9/42/5
f 12/43/18 10/41/16 9/42/5 11/44/4
f 14/45/20 12/43/18 11/44/4 13/46/6
f 16/47/22 14/45/20 13/46/6 15/48/7
f 18/49/11 16/47/22 15/48/7 17/50/8
f 3/36/12 18/49/11 17/50/8 4/37/9
f 2/1/1 5/3/3 4/9/9
f 20/51/13 21/52/24 22/53/27 19/54/34
f 21/52/24 23/55/14 24/56/28 22/53/27
f 23/55/14 25/57/17 26/58/29 24/56/28
f 25/57/17 27/59/19 28/60/30 26/58/29
f 27/59/19 29/61/21 30/62/31 28/60/30
f 29/61/21 31/63/23 32/64/32 30/62/31
f 31/63/23 33/65/10 34/66/33 32/64/32
f 33/65/10 20/51/13 19/54/34 34/66/33
f 20/13/13 3/12/12 6/25/25 21/24/24
