# Blender v3.4.1 OBJ File: 'Tiny_Treats_Fun_Playground_ASSETS_EXPORT.blend'
# www.blender.org
mtllib stepping_stumps_A_yellow.mtl
o stepping_stumps_A_yellow
v 0.000011 0.000000 -0.000000
v 0.000011 0.400000 0.000000
v 0.109819 0.350000 -0.109808
v 0.150011 0.350000 -0.040192
v 0.150011 0.350000 0.040192
v 0.109819 0.350000 0.109808
v 0.040204 0.350000 0.150000
v -0.040181 0.350000 0.150000
v -0.109796 0.350000 0.109808
v -0.149989 0.350000 0.040192
v -0.149989 0.350000 -0.040192
v -0.109796 0.350000 -0.109808
v -0.040181 0.350000 -0.150000
v 0.040204 0.350000 -0.150000
v 0.073217 0.400000 -0.073205
v 0.100011 0.400000 -0.026795
v 0.100011 0.400000 0.026795
v 0.073217 0.400000 0.073205
v 0.026806 0.400000 0.100000
v -0.026783 0.400000 0.100000
v -0.073194 0.400000 0.073205
v -0.099989 0.400000 0.026795
v -0.099989 0.400000 -0.026795
v -0.073194 0.400000 -0.073205
v -0.026783 0.400000 -0.100000
v 0.026806 0.400000 -0.100000
v 0.095178 0.000000 -0.095167
v 0.109819 0.020000 -0.109808
v 0.150011 0.020000 -0.040192
v 0.130011 0.000000 -0.034833
v 0.150011 0.020000 0.040192
v 0.130011 -0.000000 0.034833
v 0.109819 0.020000 0.109808
v 0.095178 -0.000000 0.095167
v 0.040204 0.020000 0.150000
v 0.034845 -0.000000 0.130000
v -0.040181 0.020000 0.150000
v -0.034822 -0.000000 0.130000
v -0.109796 0.020000 0.109808
v -0.095155 -0.000000 0.095167
v -0.149989 0.020000 0.040192
v -0.129989 -0.000000 0.034833
v -0.149989 0.020000 -0.040192
v -0.129989 0.000000 -0.034833
v -0.109796 0.020000 -0.109808
v -0.095155 0.000000 -0.095167
v -0.040181 0.020000 -0.150000
v -0.034822 0.000000 -0.130000
v 0.040204 0.020000 -0.150000
v 0.034845 0.000000 -0.130000
vt 0.203020 0.327323
vt 0.205309 0.327323
vt 0.209273 0.327323
vt 0.209273 0.327323
vt 0.205309 0.327323
vt 0.200731 0.327323
vt 0.196767 0.327323
vt 0.194479 0.327323
vt 0.194479 0.327323
vt 0.196767 0.327323
vt 0.200731 0.327323
vt 0.211562 0.327323
vt 0.211562 0.327323
vt 0.205662 0.359887
vt 0.205662 0.381571
vt 0.210235 0.381571
vt 0.210235 0.359887
vt 0.212876 0.359887
vt 0.212876 0.381571
vt 0.212876 0.381571
vt 0.212876 0.359887
vt 0.210235 0.381571
vt 0.210235 0.359887
vt 0.205662 0.381571
vt 0.205662 0.359887
vt 0.200379 0.381571
vt 0.200379 0.359887
vt 0.195805 0.381571
vt 0.195805 0.359887
vt 0.193165 0.381571
vt 0.193165 0.359887
vt 0.193165 0.381571
vt 0.193165 0.359887
vt 0.195805 0.381571
vt 0.195805 0.359887
vt 0.200379 0.381571
vt 0.200379 0.359887
vt 0.212876 0.412821
vt 0.210235 0.412821
vt 0.207831 0.416106
vt 0.209591 0.416106
vt 0.212876 0.412821
vt 0.209591 0.416106
vt 0.210235 0.412821
vt 0.207831 0.416106
vt 0.205662 0.412821
vt 0.204781 0.416106
vt 0.200379 0.412821
vt 0.201260 0.416106
vt 0.195805 0.412821
vt 0.198210 0.416106
vt 0.193165 0.412821
vt 0.196450 0.416106
vt 0.193165 0.412821
vt 0.196450 0.416106
vt 0.195805 0.412821
vt 0.198210 0.416106
vt 0.200379 0.412821
vt 0.201260 0.416106
vt 0.205662 0.412821
vt 0.204781 0.416106
vt 0.203021 0.400481
vt 0.209591 0.400481
vt 0.207831 0.400481
vt 0.209591 0.400481
vt 0.207831 0.400481
vt 0.204781 0.400481
vt 0.201260 0.400481
vt 0.198210 0.400481
vt 0.196450 0.400481
vt 0.196450 0.400481
vt 0.198210 0.400481
vt 0.201260 0.400481
vt 0.204781 0.400481
vt 0.210235 0.344262
vt 0.212876 0.344262
vt 0.212700 0.342948
vt 0.210411 0.342948
vt 0.212876 0.344262
vt 0.212876 0.342948
vt 0.212876 0.342948
vt 0.210235 0.344262
vt 0.210411 0.342948
vt 0.212700 0.342948
vt 0.205662 0.344262
vt 0.205967 0.342948
vt 0.209930 0.342948
vt 0.200379 0.344262
vt 0.200732 0.342948
vt 0.205309 0.342948
vt 0.195805 0.344262
vt 0.196110 0.342948
vt 0.200074 0.342948
vt 0.193165 0.344262
vt 0.193341 0.342948
vt 0.195629 0.342948
vt 0.193165 0.344262
vt 0.193165 0.342948
vt 0.193165 0.342948
vt 0.195805 0.344262
vt 0.195629 0.342948
vt 0.193341 0.342948
vt 0.200379 0.344262
vt 0.200074 0.342948
vt 0.196110 0.342948
vt 0.205662 0.344262
vt 0.205309 0.342948
vt 0.200732 0.342948
vt 0.209930 0.342948
vt 0.205967 0.342948
vn 0.0000 -1.0000 -0.0000
vn 0.1102 -0.9049 -0.4112
vn 0.3010 -0.9049 -0.3010
vn 0.3010 -0.9049 0.3010
vn 0.1102 -0.9049 0.4112
vn -0.1102 -0.9049 0.4112
vn -0.3010 -0.9049 0.3010
vn -0.4112 -0.9049 0.1102
vn -0.4112 -0.9049 -0.1102
vn -0.3010 -0.9049 -0.3010
vn -0.1102 -0.9049 -0.4112
vn 0.4112 -0.9049 -0.1102
vn 0.4112 -0.9049 0.1102
vn 0.2405 -0.3692 -0.8977
vn 0.2405 0.3692 -0.8977
vn 0.6571 0.3692 -0.6571
vn 0.6571 -0.3692 -0.6571
vn 0.8977 -0.3692 -0.2405
vn 0.8977 0.3692 -0.2405
vn 0.8977 0.3692 0.2405
vn 0.8977 -0.3692 0.2405
vn 0.6571 0.3692 0.6571
vn 0.6571 -0.3692 0.6571
vn 0.2405 0.3692 0.8977
vn 0.2405 -0.3692 0.8977
vn -0.2405 0.3692 0.8977
vn -0.2405 -0.3692 0.8977
vn -0.6571 0.3692 0.6571
vn -0.6571 -0.3692 0.6571
vn -0.8977 0.3692 0.2405
vn -0.8977 -0.3692 0.2405
vn -0.8977 0.3692 -0.2405
vn -0.8977 -0.3692 -0.2405
vn -0.6571 0.3692 -0.6571
vn -0.6571 -0.3692 -0.6571
vn -0.2405 0.3692 -0.8977
vn -0.2405 -0.3692 -0.8977
vn 0.3010 0.9049 -0.3010
vn 0.4112 0.9049 -0.1102
vn 0.4112 0.9049 0.1102
vn 0.3010 0.9049 0.3010
vn 0.1102 0.9049 0.4112
vn -0.1102 0.9049 0.4112
vn -0.3010 0.9049 0.3010
vn -0.4112 0.9049 0.1102
vn -0.4112 0.9049 -0.1102
vn -0.3010 0.9049 -0.3010
vn -0.1102 0.9049 -0.4112
vn 0.1102 0.9049 -0.4112
vn 0.0000 1.0000 -0.0000
usemtl tiny_treats_1
s 1
f 1/1/1 50/2/2 27/3/3
f 1/1/1 34/4/4 36/5/5
f 1/1/1 36/5/5 38/6/6
f 1/1/1 38/6/6 40/7/7
f 1/1/1 40/7/7 42/8/8
f 1/1/1 42/8/8 44/9/9
f 1/1/1 44/9/9 46/10/10
f 1/1/1 46/10/10 48/11/11
f 1/1/1 48/11/11 50/2/2
f 1/1/1 30/12/12 32/13/13
f 1/1/1 32/13/13 34/4/4
f 49/14/14 14/15/15 3/16/16 28/17/17
f 29/18/18 4/19/19 5/20/20 31/21/21
f 31/21/21 5/20/20 6/22/22 33/23/23
f 33/23/23 6/22/22 7/24/24 35/25/25
f 35/25/25 7/24/24 8/26/26 37/27/27
f 37/27/27 8/26/26 9/28/28 39/29/29
f 39/29/29 9/28/28 10/30/30 41/31/31
f 41/31/31 10/30/30 11/32/32 43/33/33
f 43/33/33 11/32/32 12/34/34 45/35/35
f 45/35/35 12/34/34 13/36/36 47/37/37
f 47/37/37 13/36/36 14/15/15 49/14/14
f 28/17/17 3/16/16 4/19/19 29/18/18
f 4/38/19 3/39/16 15/40/38 16/41/39
f 5/42/20 4/38/19 16/41/39 17/43/40
f 6/44/22 5/42/20 17/43/40 18/45/41
f 7/46/24 6/44/22 18/45/41 19/47/42
f 8/48/26 7/46/24 19/47/42 20/49/43
f 9/50/28 8/48/26 20/49/43 21/51/44
f 10/52/30 9/50/28 21/51/44 22/53/45
f 11/54/32 10/52/30 22/53/45 23/55/46
f 12/56/34 11/54/32 23/55/46 24/57/47
f 13/58/36 12/56/34 24/57/47 25/59/48
f 14/60/15 13/58/36 25/59/48 26/61/49
f 3/39/16 14/60/15 26/61/49 15/40/38
f 2/62/50 16/63/39 15/64/38
f 2/62/50 17/65/40 16/63/39
f 2/62/50 18/66/41 17/65/40
f 2/62/50 19/67/42 18/66/41
f 2/62/50 20/68/43 19/67/42
f 2/62/50 21/69/44 20/68/43
f 2/62/50 22/70/45 21/69/44
f 2/62/50 23/71/46 22/70/45
f 2/62/50 24/72/47 23/71/46
f 2/62/50 25/73/48 24/72/47
f 2/62/50 26/74/49 25/73/48
f 2/62/50 15/64/38 26/74/49
f 28/75/17 29/76/18 30/77/12 27/78/3
f 29/76/18 31/79/21 32/80/13 30/81/12
f 31/79/21 33/82/23 34/83/4 32/84/13
f 33/82/23 35/85/25 36/86/5 34/87/4
f 35/85/25 37/88/27 38/89/6 36/90/5
f 37/88/27 39/91/29 40/92/7 38/93/6
f 39/91/29 41/94/31 42/95/8 40/96/7
f 41/94/31 43/97/33 44/98/9 42/99/8
f 43/97/33 45/100/35 46/101/10 44/102/9
f 45/100/35 47/103/37 48/104/11 46/105/10
f 47/103/37 49/106/14 50/107/2 48/108/11
f 49/106/14 28/75/17 27/109/3 50/110/2
f 1/1/1 27/3/3 30/12/12
