# Blender v3.4.1 OBJ File: 'Tiny_Treats_Fun_Playground_ASSETS_EXPORT.blend'
# www.blender.org
mtllib swing_B_large_seat_A.mtl
o swing_B_large_seat_A
v -1.750000 0.218776 -0.350000
v -1.800000 0.268776 -0.350000
v -1.750000 0.268776 -0.400000
v -1.800000 0.418777 -0.350000
v -1.750000 0.468776 -0.350000
v -1.750000 0.418777 -0.400000
v -0.250000 0.218776 -0.350000
v -0.250000 0.268776 -0.400000
v -0.200000 0.268776 -0.350000
v -0.250000 0.468776 -0.350000
v -0.200000 0.418777 -0.350000
v -0.250000 0.418777 -0.400000
v -1.750000 0.218776 0.350000
v -1.750000 0.268776 0.400000
v -1.800000 0.268776 0.350000
v -1.750000 0.468776 0.350000
v -1.800000 0.418777 0.350000
v -1.750000 0.418777 0.400000
v -0.250000 0.218776 0.350000
v -0.200000 0.268776 0.350000
v -0.250000 0.268776 0.400000
v -0.250000 0.468776 0.350000
v -0.250000 0.418777 0.400000
v -0.200000 0.418777 0.350000
v -0.250000 0.218776 0.146667
v -0.250000 0.218776 -0.146667
v -0.200000 0.268776 -0.146667
v -0.200000 0.268776 0.146667
v -0.250000 0.468776 -0.146667
v -0.250000 0.468776 0.146667
v -0.200000 0.418777 0.146667
v -0.200000 0.418777 -0.146667
v -1.750000 0.218776 -0.146667
v -1.750000 0.218776 0.146667
v -1.800000 0.268776 0.146667
v -1.800000 0.268776 -0.146667
v -1.750000 0.468776 0.146667
v -1.750000 0.468776 -0.146667
v -1.800000 0.418777 -0.146667
v -1.800000 0.418777 0.146667
v -1.599998 0.118776 0.000000
v -1.568933 3.278776 -0.075000
v -1.524999 3.278776 -0.031066
v -1.524999 3.278776 0.031066
v -1.568933 3.278776 0.075000
v -1.631065 3.278776 0.075000
v -1.674999 3.278776 0.031066
v -1.674999 3.278776 -0.031066
v -1.631065 3.278776 -0.075000
v -1.568933 0.820026 -0.075000
v -1.568933 1.171276 -0.075000
v -1.568933 1.522526 -0.075000
v -1.568933 1.873776 -0.075000
v -1.568933 2.225026 -0.075000
v -1.568933 2.576276 -0.075000
v -1.568933 2.927526 -0.075000
v -1.524999 2.927526 -0.031066
v -1.524999 2.576276 -0.031066
v -1.524999 2.225026 -0.031066
v -1.524999 1.873776 -0.031066
v -1.524999 1.522526 -0.031066
v -1.524999 1.171276 -0.031066
v -1.524999 0.820026 -0.031066
v -1.524999 2.927526 0.031066
v -1.524999 2.576276 0.031066
v -1.524999 2.225026 0.031066
v -1.524999 1.873776 0.031066
v -1.524999 1.522526 0.031066
v -1.524999 1.171276 0.031066
v -1.524999 0.820026 0.031066
v -1.568933 2.927526 0.075000
v -1.568933 2.576276 0.075000
v -1.568933 2.225026 0.075000
v -1.568933 1.873776 0.075000
v -1.568933 1.522526 0.075000
v -1.568933 1.171276 0.075000
v -1.568933 0.820026 0.075000
v -1.631065 2.927526 0.075000
v -1.631065 2.576276 0.075000
v -1.631065 2.225026 0.075000
v -1.631065 1.873776 0.075000
v -1.631065 1.522526 0.075000
v -1.631065 1.171276 0.075000
v -1.631065 0.820026 0.075000
v -1.674999 2.927526 0.031066
v -1.674999 2.576276 0.031066
v -1.674999 2.225026 0.031066
v -1.674999 1.873776 0.031066
v -1.674999 1.522526 0.031066
v -1.674999 1.171276 0.031066
v -1.674999 0.820026 0.031066
v -1.674999 2.927526 -0.031066
v -1.674999 2.576276 -0.031066
v -1.674999 2.225026 -0.031066
v -1.674999 1.873776 -0.031066
v -1.674999 1.522526 -0.031066
v -1.674999 1.171276 -0.031066
v -1.674999 0.820026 -0.031066
v -1.631065 2.927526 -0.075000
v -1.631065 2.576276 -0.075000
v -1.631065 2.225026 -0.075000
v -1.631065 1.873776 -0.075000
v -1.631065 1.522526 -0.075000
v -1.631065 1.171276 -0.075000
v -1.631065 0.820026 -0.075000
v -1.577217 0.118776 -0.055000
v -1.568933 0.138776 -0.075000
v -1.524999 0.138776 -0.031066
v -1.544999 0.118776 -0.022782
v -1.524999 0.138776 0.031066
v -1.544999 0.118776 0.022782
v -1.568933 0.138776 0.075000
v -1.577217 0.118776 0.055000
v -1.631065 0.138776 0.075000
v -1.622780 0.118776 0.055000
v -1.674999 0.138776 0.031066
v -1.654999 0.118776 0.022782
v -1.674999 0.138776 -0.031066
v -1.654999 0.118776 -0.022782
v -1.631065 0.138776 -0.075000
v -1.622780 0.118776 -0.055000
v -0.400001 0.118776 0.000000
v -0.368935 3.278776 -0.075000
v -0.325001 3.278776 -0.031066
v -0.325001 3.278776 0.031066
v -0.368935 3.278776 0.075000
v -0.431067 3.278776 0.075000
v -0.475001 3.278776 0.031066
v -0.475001 3.278776 -0.031066
v -0.431067 3.278776 -0.075000
v -0.368935 0.820026 -0.075000
v -0.368935 1.171276 -0.075000
v -0.368935 1.522526 -0.075000
v -0.368935 1.873776 -0.075000
v -0.368935 2.225026 -0.075000
v -0.368935 2.576276 -0.075000
v -0.368935 2.927526 -0.075000
v -0.325001 2.927526 -0.031066
v -0.325001 2.576276 -0.031066
v -0.325001 2.225026 -0.031066
v -0.325001 1.873776 -0.031066
v -0.325001 1.522526 -0.031066
v -0.325001 1.171276 -0.031066
v -0.325001 0.820026 -0.031066
v -0.325001 2.927526 0.031066
v -0.325001 2.576276 0.031066
v -0.325001 2.225026 0.031066
v -0.325001 1.873776 0.031066
v -0.325001 1.522526 0.031066
v -0.325001 1.171276 0.031066
v -0.325001 0.820026 0.031066
v -0.368935 2.927526 0.075000
v -0.368935 2.576276 0.075000
v -0.368935 2.225026 0.075000
v -0.368935 1.873776 0.075000
v -0.368935 1.522526 0.075000
v -0.368935 1.171276 0.075000
v -0.368935 0.820026 0.075000
v -0.431067 2.927526 0.075000
v -0.431067 2.576276 0.075000
v -0.431067 2.225026 0.075000
v -0.431067 1.873776 0.075000
v -0.431067 1.522526 0.075000
v -0.431067 1.171276 0.075000
v -0.431067 0.820026 0.075000
v -0.475001 2.927526 0.031066
v -0.475001 2.576276 0.031066
v -0.475001 2.225026 0.031066
v -0.475001 1.873776 0.031066
v -0.475001 1.522526 0.031066
v -0.475001 1.171276 0.031066
v -0.475001 0.820026 0.031066
v -0.475001 2.927526 -0.031066
v -0.475001 2.576276 -0.031066
v -0.475001 2.225026 -0.031066
v -0.475001 1.873776 -0.031066
v -0.475001 1.522526 -0.031066
v -0.475001 1.171276 -0.031066
v -0.475001 0.820026 -0.031066
v -0.431067 2.927526 -0.075000
v -0.431067 2.576276 -0.075000
v -0.431067 2.225026 -0.075000
v -0.431067 1.873776 -0.075000
v -0.431067 1.522526 -0.075000
v -0.431067 1.171276 -0.075000
v -0.431067 0.820026 -0.075000
v -0.377220 0.118776 -0.055000
v -0.368935 0.138776 -0.075000
v -0.325001 0.138776 -0.031066
v -0.345001 0.118776 -0.022782
v -0.325001 0.138776 0.031066
v -0.345001 0.118776 0.022782
v -0.368935 0.138776 0.075000
v -0.377220 0.118776 0.055000
v -0.431067 0.138776 0.075000
v -0.422783 0.118776 0.055000
v -0.475001 0.138776 0.031066
v -0.455001 0.118776 0.022782
v -0.475001 0.138776 -0.031066
v -0.455001 0.118776 -0.022782
v -0.431067 0.138776 -0.075000
v -0.422783 0.118776 -0.055000
vt 0.338591 0.619719
vt 0.338591 0.659425
vt 0.279394 0.659425
vt 0.279394 0.619719
vt 0.279394 0.650969
vt 0.279394 0.690675
vt 0.338591 0.690675
vt 0.338591 0.650969
vt 0.279394 0.631115
vt 0.275167 0.635344
vt 0.279394 0.635344
vt 0.275167 0.706300
vt 0.279394 0.710529
vt 0.279394 0.706300
vt 0.338591 0.631115
vt 0.338591 0.635344
vt 0.342819 0.635344
vt 0.338591 0.710529
vt 0.342819 0.706300
vt 0.338591 0.706300
vt 0.279394 0.599865
vt 0.279394 0.604094
vt 0.275167 0.604094
vt 0.279394 0.679279
vt 0.275167 0.675050
vt 0.279394 0.675050
vt 0.338591 0.599865
vt 0.342819 0.604094
vt 0.338591 0.604094
vt 0.338591 0.679279
vt 0.338591 0.675050
vt 0.342819 0.675050
vt 0.275167 0.650969
vt 0.275167 0.690675
vt 0.342819 0.690675
vt 0.342819 0.650969
vt 0.342819 0.619719
vt 0.342819 0.659425
vt 0.275167 0.659425
vt 0.275167 0.619719
vt 0.338591 0.631115
vt 0.279394 0.631115
vt 0.279394 0.679279
vt 0.275167 0.675050
vt 0.275167 0.635344
vt 0.338591 0.710529
vt 0.342819 0.706300
vt 0.338591 0.599865
vt 0.342819 0.604094
vt 0.342819 0.690675
vt 0.342819 0.650969
vt 0.338591 0.679279
vt 0.275167 0.659425
vt 0.275167 0.619719
vt 0.275167 0.690675
vt 0.275167 0.650969
vt 0.275167 0.659425
vt 0.275167 0.690675
vt 0.275167 0.650969
vt 0.275167 0.619719
vt 0.279394 0.710529
vt 0.338591 0.679279
vt 0.338591 0.710529
vt 0.279394 0.710529
vt 0.279394 0.679279
vt 0.342819 0.659425
vt 0.342819 0.619719
vt 0.342819 0.690675
vt 0.342819 0.659425
vt 0.342819 0.619719
vt 0.342819 0.650969
vt 0.342819 0.635344
vt 0.338591 0.599865
vt 0.338591 0.631115
vt 0.342819 0.635344
vt 0.342819 0.604094
vt 0.342819 0.675050
vt 0.342819 0.675050
vt 0.342819 0.706300
vt 0.279394 0.599865
vt 0.275167 0.604094
vt 0.279394 0.631115
vt 0.279394 0.599865
vt 0.275167 0.604094
vt 0.275167 0.635344
vt 0.275167 0.706300
vt 0.275167 0.706300
vt 0.275167 0.675050
vt 0.444079 0.967517
vt 0.444079 0.985125
vt 0.446459 0.985125
vt 0.446459 0.967517
vt 0.446459 0.985125
vt 0.446459 0.967517
vt 0.444079 0.985125
vt 0.444079 0.967517
vt 0.440713 0.985125
vt 0.440713 0.967517
vt 0.438333 0.985125
vt 0.438333 0.967517
vt 0.438333 0.985125
vt 0.438333 0.967517
vt 0.440713 0.861870
vt 0.440713 0.879478
vt 0.444079 0.879478
vt 0.444079 0.861870
vt 0.440713 0.985125
vt 0.440713 0.967517
vt 0.444079 0.269887
vt 0.444079 0.304037
vt 0.446459 0.304037
vt 0.446459 0.269887
vt 0.440713 0.321645
vt 0.440713 0.339252
vt 0.444079 0.339252
vt 0.444079 0.321645
vt 0.440713 0.897086
vt 0.440713 0.914694
vt 0.444079 0.914694
vt 0.444079 0.897086
vt 0.440713 0.356860
vt 0.440713 0.374468
vt 0.444079 0.374468
vt 0.444079 0.356860
vt 0.440713 0.932302
vt 0.440713 0.949909
vt 0.444079 0.949909
vt 0.444079 0.932302
vt 0.440713 0.392076
vt 0.440713 0.409683
vt 0.444079 0.409683
vt 0.444079 0.392076
vt 0.442396 0.268884
vt 0.439416 0.268884
vt 0.441162 0.268884
vt 0.438333 0.861870
vt 0.438333 0.879478
vt 0.438333 0.321645
vt 0.438333 0.339252
vt 0.438333 0.897086
vt 0.438333 0.914694
vt 0.438333 0.356860
vt 0.438333 0.374468
vt 0.438333 0.932302
vt 0.438333 0.949909
vt 0.438333 0.392076
vt 0.438333 0.409683
vt 0.439416 0.268884
vt 0.438333 0.861870
vt 0.438333 0.879478
vt 0.438333 0.321645
vt 0.438333 0.339252
vt 0.438333 0.897086
vt 0.438333 0.914694
vt 0.438333 0.356860
vt 0.438333 0.374468
vt 0.438333 0.932302
vt 0.438333 0.949909
vt 0.438333 0.392076
vt 0.438333 0.409683
vt 0.441162 0.268884
vt 0.440713 0.861870
vt 0.440713 0.879478
vt 0.440713 0.321645
vt 0.440713 0.339252
vt 0.440713 0.897086
vt 0.440713 0.914694
vt 0.440713 0.356860
vt 0.440713 0.374468
vt 0.440713 0.932302
vt 0.440713 0.949909
vt 0.440713 0.392076
vt 0.440713 0.409683
vt 0.443631 0.268884
vt 0.444079 0.861870
vt 0.444079 0.879478
vt 0.444079 0.321645
vt 0.444079 0.339252
vt 0.444079 0.897086
vt 0.444079 0.914694
vt 0.444079 0.356860
vt 0.444079 0.374468
vt 0.444079 0.932302
vt 0.444079 0.949909
vt 0.444079 0.392076
vt 0.444079 0.409683
vt 0.445376 0.268884
vt 0.446459 0.861870
vt 0.446459 0.879478
vt 0.446459 0.321645
vt 0.446459 0.339252
vt 0.446459 0.897086
vt 0.446459 0.914694
vt 0.446459 0.356860
vt 0.446459 0.374468
vt 0.446459 0.932302
vt 0.446459 0.949909
vt 0.446459 0.392076
vt 0.446459 0.409683
vt 0.445376 0.268884
vt 0.446459 0.861870
vt 0.446459 0.879478
vt 0.446459 0.321645
vt 0.446459 0.339252
vt 0.446459 0.897086
vt 0.446459 0.914694
vt 0.446459 0.356860
vt 0.446459 0.374468
vt 0.446459 0.932302
vt 0.446459 0.949909
vt 0.446459 0.392076
vt 0.446459 0.409683
vt 0.443631 0.268884
vt 0.440713 0.269887
vt 0.440713 0.304037
vt 0.446459 0.269887
vt 0.446459 0.304037
vt 0.444079 0.304037
vt 0.444079 0.269887
vt 0.440713 0.304037
vt 0.440713 0.269887
vt 0.438333 0.304037
vt 0.438333 0.269887
vt 0.438333 0.304037
vt 0.438333 0.269887
vt 0.444079 0.967517
vt 0.444079 0.985125
vt 0.446459 0.985125
vt 0.446459 0.967517
vt 0.446459 0.985125
vt 0.446459 0.967517
vt 0.444079 0.985125
vt 0.444079 0.967517
vt 0.440713 0.985125
vt 0.440713 0.967517
vt 0.438333 0.985125
vt 0.438333 0.967517
vt 0.438333 0.985125
vt 0.438333 0.967517
vt 0.440713 0.861870
vt 0.440713 0.879478
vt 0.444079 0.879478
vt 0.444079 0.861870
vt 0.440713 0.985125
vt 0.440713 0.967517
vt 0.444079 0.269887
vt 0.444079 0.304037
vt 0.446459 0.304037
vt 0.446459 0.269887
vt 0.440713 0.321645
vt 0.440713 0.339252
vt 0.444079 0.339252
vt 0.444079 0.321645
vt 0.440713 0.897086
vt 0.440713 0.914694
vt 0.444079 0.914694
vt 0.444079 0.897086
vt 0.440713 0.356860
vt 0.440713 0.374468
vt 0.444079 0.374468
vt 0.444079 0.356860
vt 0.440713 0.932302
vt 0.440713 0.949909
vt 0.444079 0.949909
vt 0.444079 0.932302
vt 0.440713 0.392076
vt 0.440713 0.409683
vt 0.444079 0.409683
vt 0.444079 0.392076
vt 0.442396 0.268884
vt 0.439416 0.268884
vt 0.441162 0.268884
vt 0.438333 0.861870
vt 0.438333 0.879478
vt 0.438333 0.321645
vt 0.438333 0.339252
vt 0.438333 0.897086
vt 0.438333 0.914694
vt 0.438333 0.356860
vt 0.438333 0.374468
vt 0.438333 0.932302
vt 0.438333 0.949909
vt 0.438333 0.392076
vt 0.438333 0.409683
vt 0.439416 0.268884
vt 0.438333 0.861870
vt 0.438333 0.879478
vt 0.438333 0.321645
vt 0.438333 0.339252
vt 0.438333 0.897086
vt 0.438333 0.914694
vt 0.438333 0.356860
vt 0.438333 0.374468
vt 0.438333 0.932302
vt 0.438333 0.949909
vt 0.438333 0.392076
vt 0.438333 0.409683
vt 0.441162 0.268884
vt 0.440713 0.861870
vt 0.440713 0.879478
vt 0.440713 0.321645
vt 0.440713 0.339252
vt 0.440713 0.897086
vt 0.440713 0.914694
vt 0.440713 0.356860
vt 0.440713 0.374468
vt 0.440713 0.932302
vt 0.440713 0.949909
vt 0.440713 0.392076
vt 0.440713 0.409683
vt 0.443631 0.268884
vt 0.444079 0.861870
vt 0.444079 0.879478
vt 0.444079 0.321645
vt 0.444079 0.339252
vt 0.444079 0.897086
vt 0.444079 0.914694
vt 0.444079 0.356860
vt 0.444079 0.374468
vt 0.444079 0.932302
vt 0.444079 0.949909
vt 0.444079 0.392076
vt 0.444079 0.409683
vt 0.445376 0.268884
vt 0.446459 0.861870
vt 0.446459 0.879478
vt 0.446459 0.321645
vt 0.446459 0.339252
vt 0.446459 0.897086
vt 0.446459 0.914694
vt 0.446459 0.356860
vt 0.446459 0.374468
vt 0.446459 0.932302
vt 0.446459 0.949909
vt 0.446459 0.392076
vt 0.446459 0.409683
vt 0.445376 0.268884
vt 0.446459 0.861870
vt 0.446459 0.879478
vt 0.446459 0.321645
vt 0.446459 0.339252
vt 0.446459 0.897086
vt 0.446459 0.914694
vt 0.446459 0.356860
vt 0.446459 0.374468
vt 0.446459 0.932302
vt 0.446459 0.949909
vt 0.446459 0.392076
vt 0.446459 0.409683
vt 0.443631 0.268884
vt 0.440713 0.269887
vt 0.440713 0.304037
vt 0.446459 0.269887
vt 0.446459 0.304037
vt 0.444079 0.304037
vt 0.444079 0.269887
vt 0.440713 0.304037
vt 0.440713 0.269887
vt 0.438333 0.304037
vt 0.438333 0.269887
vt 0.438333 0.304037
vt 0.438333 0.269887
vn 0.3416 -0.3416 0.8756
vn 0.3416 0.3416 0.8756
vn -0.3416 0.3416 0.8756
vn -0.3416 -0.3416 0.8756
vn -0.3416 -0.3416 -0.8756
vn -0.3416 0.3416 -0.8756
vn 0.3416 0.3416 -0.8756
vn 0.3416 -0.3416 -0.8756
vn -0.3416 -0.8756 -0.3416
vn -0.8756 -0.3416 -0.3416
vn -0.8756 0.3416 -0.3416
vn -0.3416 0.8756 -0.3416
vn 0.3416 -0.8756 -0.3416
vn 0.8756 -0.3416 -0.3416
vn 0.3416 0.8756 -0.3416
vn 0.8756 0.3416 -0.3416
vn -0.3416 -0.8756 0.3416
vn -0.8756 -0.3416 0.3416
vn -0.3416 0.8756 0.3416
vn -0.8756 0.3416 0.3416
vn 0.3416 -0.8756 0.3416
vn 0.8756 -0.3416 0.3416
vn 0.3416 0.8756 0.3416
vn 0.8756 0.3416 0.3416
vn 0.3827 -0.9239 0.0000
vn -0.3827 -0.9239 -0.0000
vn -0.3827 0.9239 -0.0000
vn -0.9239 0.3827 -0.0000
vn -0.9239 -0.3827 0.0000
vn 0.3827 0.9239 0.0000
vn 0.9239 0.3827 0.0000
vn 0.9239 -0.3827 0.0000
vn 0.3827 0.0000 -0.9239
vn 0.9239 0.0000 -0.3827
vn 0.9239 -0.0000 0.3827
vn 0.3827 -0.0000 0.9239
vn -0.3827 0.0000 0.9239
vn -0.9239 0.0000 0.3827
vn -0.9239 0.0000 -0.3827
vn -0.3827 0.0000 -0.9239
vn 0.3557 -0.3689 -0.8587
vn 0.8587 -0.3689 -0.3557
vn 0.0000 -1.0000 0.0000
vn -0.4044 -0.8991 -0.1675
vn -0.1675 -0.8991 -0.4044
vn -0.4044 -0.8991 0.1675
vn -0.1675 -0.8991 0.4044
vn 0.1675 -0.8991 0.4044
vn 0.4044 -0.8991 0.1675
vn 0.4044 -0.8991 -0.1675
vn 0.1675 -0.8991 -0.4044
vn -0.3557 -0.3689 -0.8587
vn 0.8587 -0.3689 0.3557
vn 0.3557 -0.3689 0.8587
vn -0.3557 -0.3689 0.8587
vn -0.8587 -0.3689 0.3557
vn -0.8587 -0.3689 -0.3557
usemtl tiny_treats_1
s 1
f 21/1/1 23/2/2 18/3/3 14/4/4
f 3/5/5 6/6/6 12/7/7 8/8/8
f 1/9/9 2/10/10 3/11/5
f 4/12/11 5/13/12 6/14/6
f 7/15/13 8/16/8 9/17/14
f 10/18/15 11/19/16 12/20/7
f 13/21/17 14/22/4 15/23/18
f 16/24/19 17/25/20 18/26/3
f 19/27/21 20/28/22 21/29/1
f 22/30/23 23/31/2 24/32/24
f 7/15/13 1/9/9 3/11/5 8/16/8
f 2/33/10 4/34/11 6/6/6 3/5/5
f 5/13/12 10/18/15 12/20/7 6/14/6
f 11/35/16 9/36/14 8/8/8 12/7/7
f 23/2/2 21/1/1 20/37/22 24/38/24
f 13/21/17 19/27/21 21/29/1 14/22/4
f 22/30/23 16/24/19 18/26/3 23/31/2
f 17/39/20 15/40/18 14/4/4 18/3/3
f 25/41/25 19/27/21 13/21/17 34/42/26
f 38/43/27 5/13/12 4/12/11 39/44/28
f 34/42/26 13/21/17 15/23/18 35/45/29
f 30/46/30 22/30/23 24/32/24 31/47/31
f 26/48/25 7/15/13 9/17/14 27/49/32
f 31/50/31 24/38/24 20/37/22 28/51/32
f 29/52/30 10/18/15 5/13/12 38/43/27
f 39/53/28 4/34/11 2/33/10 36/54/29
f 17/39/20 40/55/28 35/56/29 15/40/18
f 40/57/28 39/58/28 36/59/29 35/60/29
f 22/30/23 30/46/30 37/61/27 16/24/19
f 30/62/30 29/63/30 38/64/27 37/65/27
f 11/35/16 32/66/31 27/67/32 9/36/14
f 32/68/31 31/69/31 28/70/32 27/71/32
f 19/27/21 25/41/25 28/72/32 20/28/22
f 25/73/25 26/74/25 27/75/32 28/76/32
f 10/18/15 29/52/30 32/77/31 11/19/16
f 29/63/30 30/62/30 31/78/31 32/79/31
f 1/9/9 33/80/26 36/81/29 2/10/10
f 33/82/26 34/83/26 35/84/29 36/85/29
f 16/24/19 37/61/27 40/86/28 17/25/20
f 37/65/27 38/64/27 39/87/28 40/88/28
f 7/15/13 26/48/25 33/80/26 1/9/9
f 26/74/25 25/73/25 34/83/26 33/82/26
f 56/89/33 42/90/33 43/91/34 57/92/34
f 57/92/34 43/91/34 44/93/35 64/94/35
f 64/94/35 44/93/35 45/95/36 71/96/36
f 71/96/36 45/95/36 46/97/37 78/98/37
f 78/98/37 46/97/37 47/99/38 85/100/38
f 85/100/38 47/99/38 48/101/39 92/102/39
f 105/103/40 104/104/40 51/105/33 50/106/33
f 92/102/39 48/101/39 49/107/40 99/108/40
f 99/108/40 49/107/40 42/90/33 56/89/33
f 107/109/41 50/110/33 63/111/34 108/112/42
f 104/113/40 103/114/40 52/115/33 51/116/33
f 103/117/40 102/118/40 53/119/33 52/120/33
f 102/121/40 101/122/40 54/123/33 53/124/33
f 101/125/40 100/126/40 55/127/33 54/128/33
f 100/129/40 99/130/40 56/131/33 55/132/33
f 41/133/43 119/134/44 121/135/45
f 98/136/39 97/137/39 104/104/40 105/103/40
f 97/138/39 96/139/39 103/114/40 104/113/40
f 96/140/39 95/141/39 102/118/40 103/117/40
f 95/142/39 94/143/39 101/122/40 102/121/40
f 94/144/39 93/145/39 100/126/40 101/125/40
f 93/146/39 92/147/39 99/130/40 100/129/40
f 41/133/43 117/148/46 119/134/44
f 91/149/38 90/150/38 97/137/39 98/136/39
f 90/151/38 89/152/38 96/139/39 97/138/39
f 89/153/38 88/154/38 95/141/39 96/140/39
f 88/155/38 87/156/38 94/143/39 95/142/39
f 87/157/38 86/158/38 93/145/39 94/144/39
f 86/159/38 85/160/38 92/147/39 93/146/39
f 41/133/43 115/161/47 117/148/46
f 84/162/37 83/163/37 90/150/38 91/149/38
f 83/164/37 82/165/37 89/152/38 90/151/38
f 82/166/37 81/167/37 88/154/38 89/153/38
f 81/168/37 80/169/37 87/156/38 88/155/38
f 80/170/37 79/171/37 86/158/38 87/157/38
f 79/172/37 78/173/37 85/160/38 86/159/38
f 41/133/43 113/174/48 115/161/47
f 77/175/36 76/176/36 83/163/37 84/162/37
f 76/177/36 75/178/36 82/165/37 83/164/37
f 75/179/36 74/180/36 81/167/37 82/166/37
f 74/181/36 73/182/36 80/169/37 81/168/37
f 73/183/36 72/184/36 79/171/37 80/170/37
f 72/185/36 71/186/36 78/173/37 79/172/37
f 41/133/43 111/187/49 113/174/48
f 70/188/35 69/189/35 76/176/36 77/175/36
f 69/190/35 68/191/35 75/178/36 76/177/36
f 68/192/35 67/193/35 74/180/36 75/179/36
f 67/194/35 66/195/35 73/182/36 74/181/36
f 66/196/35 65/197/35 72/184/36 73/183/36
f 65/198/35 64/199/35 71/186/36 72/185/36
f 41/133/43 109/200/50 111/187/49
f 63/201/34 62/202/34 69/189/35 70/188/35
f 62/203/34 61/204/34 68/191/35 69/190/35
f 61/205/34 60/206/34 67/193/35 68/192/35
f 60/207/34 59/208/34 66/195/35 67/194/35
f 59/209/34 58/210/34 65/197/35 66/196/35
f 58/211/34 57/212/34 64/199/35 65/198/35
f 41/133/43 121/135/45 106/213/51
f 50/106/33 51/105/33 62/202/34 63/201/34
f 51/116/33 52/115/33 61/204/34 62/203/34
f 52/120/33 53/119/33 60/206/34 61/205/34
f 53/124/33 54/123/33 59/208/34 60/207/34
f 54/128/33 55/127/33 58/210/34 59/209/34
f 55/132/33 56/131/33 57/212/34 58/211/34
f 120/214/52 105/215/40 50/110/33 107/109/41
f 110/216/53 70/217/35 77/218/36 112/219/54
f 112/219/54 77/218/36 84/220/37 114/221/55
f 114/221/55 84/220/37 91/222/38 116/223/56
f 116/223/56 91/222/38 98/224/39 118/225/57
f 118/225/57 98/224/39 105/215/40 120/214/52
f 108/112/42 63/111/34 70/217/35 110/216/53
f 107/109/41 108/112/42 109/200/50 106/213/51
f 108/112/42 110/216/53 111/187/49 109/200/50
f 110/216/53 112/219/54 113/174/48 111/187/49
f 112/219/54 114/221/55 115/161/47 113/174/48
f 114/221/55 116/223/56 117/148/46 115/161/47
f 116/223/56 118/225/57 119/134/44 117/148/46
f 118/225/57 120/214/52 121/135/45 119/134/44
f 120/214/52 107/109/41 106/213/51 121/135/45
f 41/133/43 106/213/51 109/200/50
f 137/226/33 123/227/33 124/228/34 138/229/34
f 138/229/34 124/228/34 125/230/35 145/231/35
f 145/231/35 125/230/35 126/232/36 152/233/36
f 152/233/36 126/232/36 127/234/37 159/235/37
f 159/235/37 127/234/37 128/236/38 166/237/38
f 166/237/38 128/236/38 129/238/39 173/239/39
f 186/240/40 185/241/40 132/242/33 131/243/33
f 173/239/39 129/238/39 130/244/40 180/245/40
f 180/245/40 130/244/40 123/227/33 137/226/33
f 188/246/41 131/247/33 144/248/34 189/249/42
f 185/250/40 184/251/40 133/252/33 132/253/33
f 184/254/40 183/255/40 134/256/33 133/257/33
f 183/258/40 182/259/40 135/260/33 134/261/33
f 182/262/40 181/263/40 136/264/33 135/265/33
f 181/266/40 180/267/40 137/268/33 136/269/33
f 122/270/43 200/271/44 202/272/45
f 179/273/39 178/274/39 185/241/40 186/240/40
f 178/275/39 177/276/39 184/251/40 185/250/40
f 177/277/39 176/278/39 183/255/40 184/254/40
f 176/279/39 175/280/39 182/259/40 183/258/40
f 175/281/39 174/282/39 181/263/40 182/262/40
f 174/283/39 173/284/39 180/267/40 181/266/40
f 122/270/43 198/285/46 200/271/44
f 172/286/38 171/287/38 178/274/39 179/273/39
f 171/288/38 170/289/38 177/276/39 178/275/39
f 170/290/38 169/291/38 176/278/39 177/277/39
f 169/292/38 168/293/38 175/280/39 176/279/39
f 168/294/38 167/295/38 174/282/39 175/281/39
f 167/296/38 166/297/38 173/284/39 174/283/39
f 122/270/43 196/298/47 198/285/46
f 165/299/37 164/300/37 171/287/38 172/286/38
f 164/301/37 163/302/37 170/289/38 171/288/38
f 163/303/37 162/304/37 169/291/38 170/290/38
f 162/305/37 161/306/37 168/293/38 169/292/38
f 161/307/37 160/308/37 167/295/38 168/294/38
f 160/309/37 159/310/37 166/297/38 167/296/38
f 122/270/43 194/311/48 196/298/47
f 158/312/36 157/313/36 164/300/37 165/299/37
f 157/314/36 156/315/36 163/302/37 164/301/37
f 156/316/36 155/317/36 162/304/37 163/303/37
f 155/318/36 154/319/36 161/306/37 162/305/37
f 154/320/36 153/321/36 160/308/37 161/307/37
f 153/322/36 152/323/36 159/310/37 160/309/37
f 122/270/43 192/324/49 194/311/48
f 151/325/35 150/326/35 157/313/36 158/312/36
f 150/327/35 149/328/35 156/315/36 157/314/36
f 149/329/35 148/330/35 155/317/36 156/316/36
f 148/331/35 147/332/35 154/319/36 155/318/36
f 147/333/35 146/334/35 153/321/36 154/320/36
f 146/335/35 145/336/35 152/323/36 153/322/36
f 122/270/43 190/337/50 192/324/49
f 144/338/34 143/339/34 150/326/35 151/325/35
f 143/340/34 142/341/34 149/328/35 150/327/35
f 142/342/34 141/343/34 148/330/35 149/329/35
f 141/344/34 140/345/34 147/332/35 148/331/35
f 140/346/34 139/347/34 146/334/35 147/333/35
f 139/348/34 138/349/34 145/336/35 146/335/35
f 122/270/43 202/272/45 187/350/51
f 131/243/33 132/242/33 143/339/34 144/338/34
f 132/253/33 133/252/33 142/341/34 143/340/34
f 133/257/33 134/256/33 141/343/34 142/342/34
f 134/261/33 135/260/33 140/345/34 141/344/34
f 135/265/33 136/264/33 139/347/34 140/346/34
f 136/269/33 137/268/33 138/349/34 139/348/34
f 201/351/52 186/352/40 131/247/33 188/246/41
f 191/353/53 151/354/35 158/355/36 193/356/54
f 193/356/54 158/355/36 165/357/37 195/358/55
f 195/358/55 165/357/37 172/359/38 197/360/56
f 197/360/56 172/359/38 179/361/39 199/362/57
f 199/362/57 179/361/39 186/352/40 201/351/52
f 189/249/42 144/248/34 151/354/35 191/353/53
f 188/246/41 189/249/42 190/337/50 187/350/51
f 189/249/42 191/353/53 192/324/49 190/337/50
f 191/353/53 193/356/54 194/311/48 192/324/49
f 193/356/54 195/358/55 196/298/47 194/311/48
f 195/358/55 197/360/56 198/285/46 196/298/47
f 197/360/56 199/362/57 200/271/44 198/285/46
f 199/362/57 201/351/52 202/272/45 200/271/44
f 201/351/52 188/246/41 187/350/51 202/272/45
f 122/270/43 187/350/51 190/337/50
