# Blender v3.4.1 OBJ File: 'Tiny_Treats_Fun_Playground_ASSETS_EXPORT.blend'
# www.blender.org
mtllib swing_A_small.mtl
o swing_A_small
v -2.000004 3.607468 0.000000
v -1.950004 3.524625 -0.200000
v 1.999997 3.607468 0.000000
v 1.949996 3.524625 -0.200000
v -1.950004 3.407468 -0.082842
v 1.949996 3.407468 -0.082842
v -1.950004 3.407468 0.082843
v 1.949996 3.407468 0.082843
v -1.950004 3.524625 0.200000
v 1.949996 3.524625 0.200000
v -1.950004 3.690310 0.200000
v 1.949996 3.690310 0.200000
v -1.950004 3.807468 0.082843
v 1.949996 3.807468 0.082843
v -1.950004 3.807468 -0.082842
v 1.949996 3.807468 -0.082842
v -1.950004 3.690310 -0.199999
v 1.949996 3.690310 -0.200000
v 1.999996 3.545336 -0.150000
v 1.999996 3.457468 -0.062132
v 1.999996 3.457468 0.062132
v 1.999996 3.545336 0.150000
v 1.999996 3.669600 0.150000
v 1.999996 3.757468 0.062132
v 1.999996 3.757468 -0.062132
v 1.999996 3.669600 -0.150000
v -2.000004 3.457468 -0.062132
v -2.000004 3.545336 -0.150000
v -2.000004 3.457468 0.062132
v -2.000004 3.545336 0.150000
v -2.000004 3.669600 0.150000
v -2.000004 3.757468 0.062132
v -2.000004 3.757468 -0.062132
v -2.000004 3.669600 -0.150000
v -1.750002 0.034202 1.503003
v -1.750002 0.098136 1.532476
v -1.800002 0.081036 1.485489
v -1.750002 3.663240 0.149420
v -1.800002 3.646137 0.102434
v -1.750002 -0.034202 1.315065
v -1.800002 0.012634 1.297554
v -1.750002 -0.004470 1.250569
v -1.750002 3.560634 -0.132488
v -1.800002 3.577734 -0.085501
v -1.550002 0.034202 1.503003
v -1.500002 0.081036 1.485489
v -1.550002 0.098136 1.532476
v -1.550002 3.663240 0.149420
v -1.500002 3.646137 0.102434
v -1.550002 -0.034202 1.315065
v -1.550002 -0.004470 1.250569
v -1.500002 0.012634 1.297554
v -1.500002 3.577734 -0.085501
v -1.550002 3.560634 -0.132488
v 1.549995 0.034201 1.503004
v 1.549995 0.098136 1.532477
v 1.499995 0.081036 1.485489
v 1.549995 3.663240 0.149420
v 1.499995 3.646137 0.102434
v 1.549995 -0.034202 1.315065
v 1.499995 0.012633 1.297555
v 1.549995 -0.004470 1.250569
v 1.549995 3.560634 -0.132488
v 1.499995 3.577734 -0.085501
v 1.749995 0.034201 1.503004
v 1.799995 0.081036 1.485489
v 1.749995 0.098136 1.532477
v 1.749995 3.663240 0.149420
v 1.799995 3.646137 0.102434
v 1.749995 -0.034202 1.315065
v 1.749995 -0.004470 1.250569
v 1.799995 0.012633 1.297555
v 1.799995 3.577734 -0.085501
v 1.749995 3.560634 -0.132488
v 1.749994 0.034202 -1.503004
v 1.749994 0.098136 -1.532477
v 1.799994 0.081037 -1.485490
v 1.749994 3.663240 -0.149420
v 1.799994 3.646137 -0.102434
v 1.749994 -0.034202 -1.315066
v 1.799994 0.012634 -1.297555
v 1.749994 -0.004470 -1.250569
v 1.749995 3.560634 0.132488
v 1.799994 3.577734 0.085501
v 1.549994 0.034202 -1.503004
v 1.499994 0.081037 -1.485490
v 1.549994 0.098136 -1.532477
v 1.549994 3.663240 -0.149420
v 1.499994 3.646137 -0.102434
v 1.549994 -0.034202 -1.315066
v 1.549994 -0.004470 -1.250569
v 1.499994 0.012634 -1.297555
v 1.499995 3.577734 0.085501
v 1.549994 3.560634 0.132488
v -1.550003 0.034202 -1.503003
v -1.550003 0.098136 -1.532476
v -1.500003 0.081036 -1.485489
v -1.550003 3.663240 -0.149419
v -1.500003 3.646137 -0.102433
v -1.550003 -0.034202 -1.315065
v -1.500003 0.012633 -1.297554
v -1.550003 -0.004470 -1.250568
v -1.550003 3.560634 0.132489
v -1.500003 3.577734 0.085502
v -1.750003 0.034202 -1.503003
v -1.800003 0.081036 -1.485489
v -1.750003 0.098136 -1.532476
v -1.750003 3.663240 -0.149419
v -1.800003 3.646137 -0.102433
v -1.750003 -0.034202 -1.315065
v -1.750003 -0.004470 -1.250568
v -1.800003 0.012633 -1.297554
v -1.800003 3.577734 0.085502
v -1.750003 3.560634 0.132489
v -0.799998 3.607468 0.000000
v -0.399998 3.607468 0.000000
v -0.799999 3.503914 -0.249999
v -0.749999 3.483204 -0.300000
v -0.749999 3.307468 -0.124264
v -0.799999 3.357468 -0.103553
v -0.399998 3.357468 -0.103553
v -0.449998 3.307468 -0.124264
v -0.449998 3.483204 -0.300000
v -0.399998 3.503914 -0.250000
v -0.749999 3.307468 0.124264
v -0.799999 3.357468 0.103554
v -0.399998 3.357468 0.103554
v -0.449998 3.307468 0.124264
v -0.749999 3.483204 0.300000
v -0.799999 3.503914 0.250000
v -0.399998 3.503914 0.250000
v -0.449998 3.483204 0.300000
v -0.749999 3.731732 0.300000
v -0.799999 3.711021 0.250000
v -0.399998 3.711021 0.250000
v -0.449998 3.731732 0.300000
v -0.749999 3.907468 0.124265
v -0.799999 3.857468 0.103554
v -0.399998 3.857468 0.103554
v -0.449998 3.907468 0.124264
v -0.749999 3.907468 -0.124264
v -0.799999 3.857468 -0.103553
v -0.399998 3.857468 -0.103553
v -0.449998 3.907468 -0.124264
v -0.749999 3.731732 -0.299999
v -0.799999 3.711021 -0.249999
v -0.399998 3.711021 -0.250000
v -0.449998 3.731732 -0.300000
v 0.399998 3.607468 0.000000
v 0.799999 3.607468 0.000000
v 0.799999 3.357468 -0.103553
v 0.749999 3.307468 -0.124264
v 0.749999 3.483204 -0.300000
v 0.799999 3.503914 -0.250000
v 0.799999 3.357468 0.103554
v 0.749999 3.307468 0.124264
v 0.799999 3.503914 0.250000
v 0.749999 3.483204 0.300000
v 0.799999 3.711021 0.250000
v 0.749999 3.731732 0.300000
v 0.799999 3.857468 0.103554
v 0.749999 3.907468 0.124264
v 0.799999 3.857468 -0.103553
v 0.749999 3.907468 -0.124264
v 0.799999 3.711021 -0.250000
v 0.749999 3.731732 -0.300000
v 0.399998 3.503914 -0.249999
v 0.449998 3.483204 -0.300000
v 0.449998 3.307468 -0.124264
v 0.399998 3.357468 -0.103553
v 0.449998 3.307468 0.124264
v 0.399998 3.357468 0.103554
v 0.449998 3.483204 0.300000
v 0.399998 3.503914 0.250000
v 0.449998 3.731732 0.300000
v 0.399998 3.711021 0.250000
v 0.449998 3.907468 0.124265
v 0.399998 3.857468 0.103554
v 0.449998 3.907468 -0.124264
v 0.399998 3.857468 -0.103553
v 0.449998 3.731732 -0.299999
v 0.399998 3.711021 -0.249999
vt 0.275527 0.409199
vt 0.349473 0.409199
vt 0.349473 0.406057
vt 0.275527 0.406057
vt 0.275527 0.403836
vt 0.349473 0.403836
vt 0.349473 0.406057
vt 0.275527 0.406057
vt 0.349473 0.409199
vt 0.275527 0.409199
vt 0.349473 0.411420
vt 0.275527 0.411420
vt 0.349473 0.411420
vt 0.275527 0.411420
vt 0.275527 0.403836
vt 0.349473 0.403836
vt 0.274579 0.404784
vt 0.274579 0.406450
vt 0.350421 0.406450
vt 0.350421 0.404784
vt 0.274579 0.404784
vt 0.350421 0.404784
vt 0.274579 0.406450
vt 0.350421 0.406450
vt 0.274579 0.408806
vt 0.350421 0.408806
vt 0.274579 0.410472
vt 0.350421 0.410472
vt 0.274579 0.410472
vt 0.350421 0.410472
vt 0.274579 0.408806
vt 0.350421 0.408806
vt 0.350421 0.407628
vt 0.274579 0.407628
vt 0.283111 0.341089
vt 0.283111 0.408685
vt 0.279319 0.408685
vt 0.279319 0.341089
vt 0.284059 0.339468
vt 0.284059 0.407064
vt 0.284059 0.408361
vt 0.284059 0.340765
vt 0.341889 0.338580
vt 0.345681 0.338580
vt 0.345681 0.339877
vt 0.341889 0.339877
vt 0.278371 0.340765
vt 0.278371 0.408361
vt 0.278371 0.407064
vt 0.278371 0.339468
vt 0.279319 0.339144
vt 0.279319 0.406740
vt 0.283111 0.406740
vt 0.283111 0.339144
vt 0.345681 0.341089
vt 0.345681 0.408685
vt 0.341889 0.408685
vt 0.341889 0.341089
vt 0.346629 0.339468
vt 0.346629 0.407064
vt 0.346629 0.408361
vt 0.346629 0.340765
vt 0.340941 0.340765
vt 0.340941 0.408361
vt 0.340941 0.407064
vt 0.340941 0.339468
vt 0.341889 0.339144
vt 0.341889 0.406740
vt 0.345681 0.406740
vt 0.345681 0.339144
vt 0.279319 0.339877
vt 0.279319 0.338580
vt 0.283111 0.339877
vt 0.283111 0.338580
vt 0.341889 0.341089
vt 0.341889 0.408685
vt 0.345681 0.408685
vt 0.345681 0.341089
vt 0.340941 0.339468
vt 0.340941 0.407064
vt 0.340941 0.408361
vt 0.340941 0.340765
vt 0.283111 0.338580
vt 0.279319 0.338580
vt 0.279319 0.339877
vt 0.283111 0.339877
vt 0.346629 0.340765
vt 0.346629 0.408361
vt 0.346629 0.407064
vt 0.346629 0.339468
vt 0.345681 0.339144
vt 0.345681 0.406740
vt 0.341889 0.406740
vt 0.341889 0.339144
vt 0.279319 0.341089
vt 0.279319 0.408685
vt 0.283111 0.408685
vt 0.283111 0.341089
vt 0.278371 0.339468
vt 0.278371 0.407064
vt 0.278371 0.408361
vt 0.278371 0.340765
vt 0.284059 0.340765
vt 0.284059 0.408361
vt 0.284059 0.407064
vt 0.284059 0.339468
vt 0.283111 0.339144
vt 0.283111 0.406740
vt 0.279319 0.406740
vt 0.279319 0.339144
vt 0.345681 0.339877
vt 0.345681 0.338580
vt 0.341889 0.339877
vt 0.341889 0.338580
vt 0.163914 0.414007
vt 0.192381 0.414007
vt 0.192381 0.390424
vt 0.163914 0.390424
vt 0.159170 0.402216
vt 0.159170 0.378493
vt 0.159170 0.378493
vt 0.159170 0.392389
vt 0.159170 0.412042
vt 0.159170 0.425938
vt 0.159170 0.425938
vt 0.159170 0.412042
vt 0.159170 0.392389
vt 0.192381 0.373748
vt 0.163914 0.373748
vt 0.197125 0.402216
vt 0.197125 0.378493
vt 0.197125 0.378493
vt 0.197125 0.392389
vt 0.197125 0.412042
vt 0.197125 0.392389
vt 0.163914 0.390424
vt 0.192381 0.390424
vt 0.192381 0.414007
vt 0.163914 0.414007
vt 0.197125 0.412042
vt 0.192381 0.430683
vt 0.163914 0.430683
vt 0.197125 0.425938
vt 0.192381 0.430683
vt 0.163914 0.430683
vt 0.197125 0.425938
vt 0.192381 0.373748
vt 0.163914 0.373748
vt 0.166993 0.373748
vt 0.195461 0.373748
vt 0.195461 0.373748
vt 0.166993 0.373748
vt 0.200205 0.402216
vt 0.200205 0.378493
vt 0.200205 0.378493
vt 0.200205 0.392389
vt 0.200205 0.412042
vt 0.200205 0.425938
vt 0.200205 0.425938
vt 0.200205 0.412042
vt 0.200205 0.392389
vt 0.166993 0.390424
vt 0.195461 0.390424
vt 0.166993 0.414007
vt 0.195461 0.414007
vt 0.166993 0.390424
vt 0.195461 0.390424
vt 0.195461 0.414007
vt 0.166993 0.414007
vt 0.195461 0.430683
vt 0.166993 0.430683
vt 0.195461 0.430683
vt 0.166993 0.430683
vt 0.162250 0.402216
vt 0.162250 0.392389
vt 0.162250 0.378493
vt 0.162250 0.412042
vt 0.162250 0.378493
vt 0.162250 0.392389
vt 0.162250 0.412042
vt 0.162250 0.425938
vt 0.162250 0.425938
vn -0.3689 0.3557 -0.8587
vn 0.3689 0.3557 -0.8587
vn 0.3689 -0.3557 -0.8587
vn -0.3689 -0.3557 -0.8587
vn -0.3689 -0.8587 0.3557
vn 0.3689 -0.8587 0.3557
vn 0.3689 -0.3557 0.8587
vn -0.3689 -0.3557 0.8587
vn 0.3689 0.3557 0.8587
vn -0.3689 0.3557 0.8587
vn 0.3689 0.8587 0.3557
vn -0.3689 0.8587 0.3557
vn 0.3689 0.8587 -0.3557
vn -0.3689 0.8587 -0.3557
vn -0.3689 -0.8587 -0.3557
vn 0.3689 -0.8587 -0.3557
vn -0.8991 -0.4044 -0.1675
vn -0.8991 -0.1675 -0.4044
vn 0.8991 -0.1675 -0.4044
vn 0.8991 -0.4044 -0.1675
vn -0.8991 -0.4044 0.1675
vn 0.8991 -0.4044 0.1675
vn -0.8991 -0.1675 0.4044
vn 0.8991 -0.1675 0.4044
vn -0.8991 0.1675 0.4044
vn 0.8991 0.1675 0.4044
vn -0.8991 0.4044 0.1675
vn 0.8991 0.4044 0.1675
vn -0.8991 0.4044 -0.1675
vn 0.8991 0.4044 -0.1675
vn -0.8991 0.1675 -0.4044
vn 0.8991 0.1675 -0.4044
vn 1.0000 -0.0000 0.0000
vn -1.0000 0.0000 0.0000
vn 0.3419 -0.0100 0.9397
vn 0.3844 0.3339 0.8607
vn -0.3844 0.3339 0.8607
vn -0.3419 -0.0100 0.9397
vn 0.8750 -0.4408 -0.2002
vn 0.9220 -0.1400 -0.3609
vn 0.9257 0.1368 0.3528
vn 0.8762 -0.1992 0.4388
vn -0.3413 -0.9398 -0.0192
vn 0.3413 -0.9398 -0.0192
vn 0.3419 -0.7043 0.6221
vn -0.3419 -0.7043 0.6221
vn -0.8762 -0.1992 0.4388
vn -0.9257 0.1368 0.3528
vn -0.9220 -0.1400 -0.3609
vn -0.8750 -0.4408 -0.2002
vn -0.3412 -0.6292 -0.6983
vn -0.3808 -0.3344 -0.8621
vn 0.3808 -0.3344 -0.8621
vn 0.3412 -0.6292 -0.6983
vn -0.3419 -0.0100 -0.9397
vn -0.3844 0.3339 -0.8607
vn 0.3844 0.3339 -0.8607
vn 0.3419 -0.0100 -0.9397
vn -0.8750 -0.4408 0.2002
vn -0.9220 -0.1400 0.3609
vn -0.9257 0.1368 -0.3528
vn -0.8762 -0.1992 -0.4388
vn 0.3413 -0.9398 0.0192
vn -0.3413 -0.9398 0.0192
vn -0.3419 -0.7043 -0.6221
vn 0.3419 -0.7043 -0.6221
vn 0.8762 -0.1992 -0.4388
vn 0.9257 0.1368 -0.3528
vn 0.9220 -0.1400 0.3609
vn 0.8750 -0.4408 0.2002
vn 0.3412 -0.6292 0.6983
vn 0.3808 -0.3344 0.8621
vn -0.3808 -0.3344 0.8621
vn -0.3412 -0.6292 0.6983
usemtl tiny_treats_1
s 1
f 17/1/1 18/2/2 4/3/3 2/4/4
f 7/5/5 8/6/6 10/7/7 9/8/8
f 9/8/8 10/7/7 12/9/9 11/10/10
f 11/10/10 12/9/9 14/11/11 13/12/12
f 13/12/12 14/11/11 16/13/13 15/14/14
f 15/14/14 16/13/13 18/2/2 17/1/1
f 5/15/15 6/16/16 8/6/6 7/5/5
f 2/4/4 4/3/3 6/16/16 5/15/15
f 2/4/4 5/15/15 27/17/17 28/18/18
f 6/16/16 4/3/3 19/19/19 20/20/20
f 5/15/15 7/5/5 29/21/21 27/17/17
f 8/6/6 6/16/16 20/20/20 21/22/22
f 7/5/5 9/8/8 30/23/23 29/21/21
f 10/7/7 8/6/6 21/22/22 22/24/24
f 9/8/8 11/10/10 31/25/25 30/23/23
f 12/9/9 10/7/7 22/24/24 23/26/26
f 11/10/10 13/12/12 32/27/27 31/25/25
f 14/11/11 12/9/9 23/26/26 24/28/28
f 13/12/12 15/14/14 33/29/29 32/27/27
f 16/13/13 14/11/11 24/28/28 25/30/30
f 15/14/14 17/1/1 34/31/31 33/29/29
f 18/2/2 16/13/13 25/30/30 26/32/32
f 17/1/1 2/4/4 28/18/18 34/31/31
f 4/3/3 18/2/2 26/32/32 19/19/19
f 3/33/33 20/20/20 19/19/19
f 3/33/33 21/22/22 20/20/20
f 3/33/33 22/24/24 21/22/22
f 3/33/33 23/26/26 22/24/24
f 3/33/33 24/28/28 23/26/26
f 3/33/33 25/30/30 24/28/28
f 3/33/33 26/32/32 25/30/30
f 3/33/33 19/19/19 26/32/32
f 1/34/34 28/18/18 27/17/17
f 1/34/34 27/17/17 29/21/21
f 1/34/34 29/21/21 30/23/23
f 1/34/34 30/23/23 31/25/25
f 1/34/34 31/25/25 32/27/27
f 1/34/34 32/27/27 33/29/29
f 1/34/34 33/29/29 34/31/31
f 1/34/34 34/31/31 28/18/18
f 47/35/35 48/36/36 38/37/37 36/38/38
f 52/39/39 53/40/40 49/41/41 46/42/42
f 60/43/43 70/44/44 65/45/45 55/46/46
f 37/47/47 39/48/48 44/49/49 41/50/50
f 42/51/51 43/52/52 54/53/53 51/54/54
f 67/55/35 68/56/36 58/57/37 56/58/38
f 72/59/39 73/60/40 69/61/41 66/62/42
f 57/63/47 59/64/48 64/65/49 61/66/50
f 62/67/51 63/68/52 74/69/53 71/70/54
f 35/71/46 36/38/38 37/47/47
f 40/72/43 41/50/50 42/51/51
f 45/73/45 46/42/42 47/35/35
f 50/74/44 51/54/54 52/39/39
f 55/46/46 56/58/38 57/63/47
f 60/43/43 61/66/50 62/67/51
f 65/45/45 66/62/42 67/55/35
f 70/44/44 71/70/54 72/59/39
f 40/72/43 35/71/46 37/47/47 41/50/50
f 36/38/38 38/37/37 39/48/48 37/47/47
f 43/52/52 42/51/51 41/50/50 44/49/49
f 50/74/44 40/72/43 42/51/51 51/54/54
f 53/40/40 52/39/39 51/54/54 54/53/53
f 45/73/45 50/74/44 52/39/39 46/42/42
f 48/36/36 47/35/35 46/42/42 49/41/41
f 35/71/46 45/73/45 47/35/35 36/38/38
f 60/43/43 55/46/46 57/63/47 61/66/50
f 56/58/38 58/57/37 59/64/48 57/63/47
f 63/68/52 62/67/51 61/66/50 64/65/49
f 70/44/44 60/43/43 62/67/51 71/70/54
f 73/60/40 72/59/39 71/70/54 74/69/53
f 65/45/45 70/44/44 72/59/39 66/62/42
f 68/56/36 67/55/35 66/62/42 69/61/41
f 55/46/46 65/45/45 67/55/35 56/58/38
f 40/72/43 50/74/44 45/73/45 35/71/46
f 87/75/55 88/76/56 78/77/57 76/78/58
f 92/79/59 93/80/60 89/81/61 86/82/62
f 100/83/63 110/84/64 105/85/65 95/86/66
f 77/87/67 79/88/68 84/89/69 81/90/70
f 82/91/71 83/92/72 94/93/73 91/94/74
f 107/95/55 108/96/56 98/97/57 96/98/58
f 112/99/59 113/100/60 109/101/61 106/102/62
f 97/103/67 99/104/68 104/105/69 101/106/70
f 102/107/71 103/108/72 114/109/73 111/110/74
f 75/111/66 76/78/58 77/87/67
f 80/112/63 81/90/70 82/91/71
f 85/113/65 86/82/62 87/75/55
f 90/114/64 91/94/74 92/79/59
f 95/86/66 96/98/58 97/103/67
f 100/83/63 101/106/70 102/107/71
f 105/85/65 106/102/62 107/95/55
f 110/84/64 111/110/74 112/99/59
f 80/112/63 75/111/66 77/87/67 81/90/70
f 76/78/58 78/77/57 79/88/68 77/87/67
f 83/92/72 82/91/71 81/90/70 84/89/69
f 90/114/64 80/112/63 82/91/71 91/94/74
f 93/80/60 92/79/59 91/94/74 94/93/73
f 85/113/65 90/114/64 92/79/59 86/82/62
f 88/76/56 87/75/55 86/82/62 89/81/61
f 75/111/66 85/113/65 87/75/55 76/78/58
f 100/83/63 95/86/66 97/103/67 101/106/70
f 96/98/58 98/97/57 99/104/68 97/103/67
f 103/108/72 102/107/71 101/106/70 104/105/69
f 110/84/64 100/83/63 102/107/71 111/110/74
f 113/100/60 112/99/59 111/110/74 114/109/73
f 105/85/65 110/84/64 112/99/59 106/102/62
f 108/96/56 107/95/55 106/102/62 109/101/61
f 95/86/66 105/85/65 107/95/55 96/98/58
f 80/112/63 90/114/64 85/113/65 75/111/66
f 145/115/1 148/116/2 123/117/3 118/118/4
f 115/119/34 120/120/17 126/121/21
f 115/119/34 126/121/21 130/122/23
f 115/119/34 130/122/23 134/123/25
f 115/119/34 134/123/25 138/124/27
f 115/119/34 138/124/27 142/125/29
f 115/119/34 142/125/29 146/126/31
f 115/119/34 146/126/31 117/127/18
f 118/118/4 123/117/3 122/128/16 119/129/15
f 116/130/33 127/131/22 121/132/20
f 116/130/33 121/132/20 124/133/19
f 116/130/33 124/133/19 147/134/32
f 116/130/33 131/135/24 127/131/22
f 129/136/8 132/137/7 136/138/9 133/139/10
f 116/130/33 135/140/26 131/135/24
f 133/139/10 136/138/9 140/141/11 137/142/12
f 116/130/33 139/143/28 135/140/26
f 137/142/12 140/141/11 144/144/13 141/145/14
f 116/130/33 143/146/30 139/143/28
f 141/145/14 144/144/13 148/116/2 145/115/1
f 116/130/33 147/134/32 143/146/30
f 119/129/15 122/128/16 128/147/6 125/148/5
f 125/148/5 128/147/6 132/137/7 129/136/8
f 118/118/4 119/129/15 120/120/17 117/127/18
f 122/128/16 123/117/3 124/133/19 121/132/20
f 119/129/15 125/148/5 126/121/21 120/120/17
f 128/147/6 122/128/16 121/132/20 127/131/22
f 125/148/5 129/136/8 130/122/23 126/121/21
f 132/137/7 128/147/6 127/131/22 131/135/24
f 129/136/8 133/139/10 134/123/25 130/122/23
f 136/138/9 132/137/7 131/135/24 135/140/26
f 133/139/10 137/142/12 138/124/27 134/123/25
f 140/141/11 136/138/9 135/140/26 139/143/28
f 137/142/12 141/145/14 142/125/29 138/124/27
f 144/144/13 140/141/11 139/143/28 143/146/30
f 141/145/14 145/115/1 146/126/31 142/125/29
f 148/116/2 144/144/13 143/146/30 147/134/32
f 145/115/1 118/118/4 117/127/18 146/126/31
f 123/117/3 148/116/2 147/134/32 124/133/19
f 115/119/34 117/127/18 120/120/17
f 169/149/15 152/150/16 156/151/6 171/152/5
f 150/153/33 155/154/22 151/155/20
f 150/153/33 157/156/24 155/154/22
f 150/153/33 159/157/26 157/156/24
f 150/153/33 161/158/28 159/157/26
f 150/153/33 163/159/30 161/158/28
f 150/153/33 165/160/32 163/159/30
f 150/153/33 154/161/19 165/160/32
f 168/162/4 153/163/3 152/150/16 169/149/15
f 181/164/1 166/165/2 153/163/3 168/162/4
f 173/166/8 158/167/7 160/168/9 175/169/10
f 175/169/10 160/168/9 162/170/11 177/171/12
f 177/171/12 162/170/11 164/172/13 179/173/14
f 179/173/14 164/172/13 166/165/2 181/164/1
f 149/174/34 167/175/18 170/176/17
f 171/152/5 156/151/6 158/167/7 173/166/8
f 149/174/34 182/177/31 167/175/18
f 149/174/34 172/178/21 174/179/23
f 149/174/34 174/179/23 176/180/25
f 149/174/34 176/180/25 178/181/27
f 149/174/34 178/181/27 180/182/29
f 149/174/34 180/182/29 182/177/31
f 149/174/34 170/176/17 172/178/21
f 168/162/4 169/149/15 170/176/17 167/175/18
f 152/150/16 153/163/3 154/161/19 151/155/20
f 169/149/15 171/152/5 172/178/21 170/176/17
f 156/151/6 152/150/16 151/155/20 155/154/22
f 171/152/5 173/166/8 174/179/23 172/178/21
f 158/167/7 156/151/6 155/154/22 157/156/24
f 173/166/8 175/169/10 176/180/25 174/179/23
f 160/168/9 158/167/7 157/156/24 159/157/26
f 175/169/10 177/171/12 178/181/27 176/180/25
f 162/170/11 160/168/9 159/157/26 161/158/28
f 177/171/12 179/173/14 180/182/29 178/181/27
f 164/172/13 162/170/11 161/158/28 163/159/30
f 179/173/14 181/164/1 182/177/31 180/182/29
f 166/165/2 164/172/13 163/159/30 165/160/32
f 181/164/1 168/162/4 167/175/18 182/177/31
f 153/163/3 166/165/2 165/160/32 154/161/19
f 150/153/33 151/155/20 154/161/19
