# Blender v3.4.1 OBJ File: 'Tiny_Treats_Fun_Playground_ASSETS_EXPORT.blend'
# www.blender.org
mtllib tire_yellow.mtl
o tire_yellow
v -0.000000 0.198274 -0.184000
v -0.000000 0.214467 -0.200000
v -0.000000 0.198274 0.184000
v -0.000000 0.214467 0.200000
v 0.099657 0.171711 -0.184000
v 0.107796 0.185734 -0.200000
v 0.099657 0.171710 0.184000
v 0.107796 0.185734 0.200000
v 0.172612 0.099137 -0.184000
v 0.186709 0.107234 -0.200000
v 0.172612 0.099137 0.184000
v 0.186709 0.107233 0.200000
v 0.213088 0.016000 -0.200000
v 0.215399 0.000000 -0.184000
v 0.196840 0.015809 -0.184000
v 0.213088 0.016000 0.200000
v 0.196840 0.015809 0.184000
v 0.215399 -0.000000 0.184000
v -0.213088 0.016000 -0.200000
v -0.196840 0.015809 -0.184000
v -0.215399 0.000000 -0.184000
v -0.213088 0.016000 0.200000
v -0.215399 -0.000000 0.184000
v -0.196840 0.015809 0.184000
v -0.172612 0.099137 -0.184000
v -0.186709 0.107234 -0.200000
v -0.172612 0.099137 0.184000
v -0.186709 0.107234 0.200000
v -0.099657 0.171711 -0.184000
v -0.107796 0.185734 -0.200000
v -0.099657 0.171710 0.184000
v -0.107796 0.185734 0.200000
v -0.000000 0.383011 -0.200000
v 0.000000 0.400000 -0.183271
v 0.000000 0.400000 0.183271
v -0.000000 0.383010 0.200000
v 0.201050 0.346410 -0.183271
v 0.192510 0.331697 -0.200000
v 0.192510 0.331697 0.200000
v 0.201050 0.346410 0.183271
v 0.348228 0.200000 -0.183271
v 0.333438 0.191505 -0.200000
v 0.333438 0.191505 0.200000
v 0.348228 0.200000 0.183271
v 0.400000 0.015863 -0.183271
v 0.386015 0.000000 -0.184000
v 0.382903 0.016000 -0.200000
v 0.400000 0.015863 0.183271
v 0.382903 0.016000 0.200000
v 0.386015 -0.000000 0.184000
v -0.400000 0.015863 -0.183271
v -0.382903 0.016000 -0.200000
v -0.386015 0.000000 -0.184000
v -0.400000 0.015863 0.183271
v -0.386015 -0.000000 0.184000
v -0.382903 0.016000 0.200000
v -0.348228 0.200000 -0.183271
v -0.333438 0.191505 -0.200000
v -0.333438 0.191505 0.200000
v -0.348228 0.200000 0.183271
v -0.201050 0.346410 -0.183271
v -0.192510 0.331697 -0.200000
v -0.192510 0.331697 0.200000
v -0.201050 0.346410 0.183271
v 0.055165 0.205929 -0.199465
v 0.051267 0.190331 -0.184000
v 0.055731 0.205778 0.199465
v 0.051267 0.190331 0.184000
v 0.151279 0.150901 -0.199465
v 0.140064 0.139332 -0.184000
v 0.151693 0.150489 0.199465
v 0.140064 0.139332 0.184000
v 0.206858 0.055440 -0.199465
v 0.191330 0.050999 -0.184000
v 0.207010 0.054877 0.199465
v 0.191330 0.050999 0.184000
v -0.207010 0.054877 -0.199465
v -0.191330 0.050999 -0.184000
v -0.206858 0.055440 0.199465
v -0.191330 0.050999 0.184000
v -0.151693 0.150489 -0.199465
v -0.140064 0.139332 -0.184000
v -0.151279 0.150901 0.199465
v -0.140064 0.139332 0.184000
v -0.055731 0.205778 -0.199465
v -0.051267 0.190331 -0.184000
v -0.055165 0.205929 0.199465
v -0.051267 0.190331 0.184000
v 0.118994 0.380221 -0.183242
v 0.113313 0.364294 -0.200000
v 0.084971 0.371848 -0.200000
v 0.088056 0.388468 -0.183242
v 0.097282 0.361166 -0.192361
v 0.101507 0.376850 -0.174866
v 0.088056 0.388468 0.183242
v 0.084971 0.371848 0.200000
v 0.113313 0.364293 0.200000
v 0.118994 0.380221 0.183242
v 0.101507 0.376850 0.174866
v 0.097282 0.361165 0.192361
v 0.294160 0.270095 -0.183242
v 0.281235 0.259127 -0.200000
v 0.260487 0.279767 -0.200000
v 0.271512 0.292625 -0.183242
v 0.265779 0.264392 -0.192361
v 0.277321 0.275873 -0.174866
v 0.271512 0.292625 0.183242
v 0.260487 0.279766 0.200000
v 0.281235 0.259126 0.200000
v 0.294160 0.270095 0.183242
v 0.277321 0.275873 0.174866
v 0.265779 0.264391 0.192361
v 0.390507 0.087597 -0.183242
v 0.373800 0.084527 -0.200000
v 0.366205 0.112722 -0.200000
v 0.382217 0.118373 -0.183242
v 0.363061 0.096774 -0.192361
v 0.378828 0.100977 -0.174866
v 0.382217 0.118373 0.183242
v 0.366205 0.112722 0.200000
v 0.373800 0.084527 0.200000
v 0.390507 0.087597 0.183242
v 0.378828 0.100977 0.174866
v 0.363061 0.096774 0.192361
v -0.382217 0.118373 -0.183242
v -0.366205 0.112722 -0.200000
v -0.373800 0.084527 -0.200000
v -0.390507 0.087597 -0.183242
v -0.363061 0.096774 -0.192361
v -0.378828 0.100977 -0.174866
v -0.390507 0.087597 0.183242
v -0.373800 0.084527 0.200000
v -0.366205 0.112722 0.200000
v -0.382217 0.118373 0.183242
v -0.378828 0.100977 0.174866
v -0.363061 0.096774 0.192361
v -0.271512 0.292625 -0.183242
v -0.260487 0.279767 -0.200000
v -0.281235 0.259127 -0.200000
v -0.294160 0.270095 -0.183242
v -0.265779 0.264392 -0.192361
v -0.277321 0.275873 -0.174866
v -0.294160 0.270095 0.183242
v -0.281235 0.259126 0.200000
v -0.260487 0.279766 0.200000
v -0.271512 0.292624 0.183242
v -0.277321 0.275873 0.174866
v -0.265779 0.264391 0.192361
v -0.088056 0.388468 -0.183242
v -0.084970 0.371848 -0.200000
v -0.113313 0.364294 -0.200000
v -0.118994 0.380221 -0.183242
v -0.097282 0.361166 -0.192361
v -0.101507 0.376850 -0.174866
v -0.118994 0.380221 0.183242
v -0.113313 0.364293 0.200000
v -0.084970 0.371848 0.200000
v -0.088056 0.388468 0.183242
v -0.101507 0.376850 0.174866
v -0.097282 0.361166 0.192361
vt 0.218783 0.421875
vt 0.218783 0.421875
vt 0.221837 0.414503
vt 0.221837 0.414503
vt 0.198189 0.438151
vt 0.198189 0.438151
vt 0.205561 0.435098
vt 0.205561 0.435098
vt 0.222582 0.411723
vt 0.222582 0.411723
vt 0.223435 0.405245
vt 0.223435 0.405245
vt 0.213926 0.428205
vt 0.213926 0.428205
vt 0.151561 0.405245
vt 0.151561 0.405245
vt 0.152414 0.411723
vt 0.152414 0.411723
vt 0.156213 0.421875
vt 0.156213 0.421875
vt 0.161070 0.428205
vt 0.161070 0.428205
vt 0.205183 0.342740
vt 0.204687 0.345918
vt 0.204687 0.345918
vt 0.205183 0.342740
vt 0.170309 0.345918
vt 0.169814 0.342740
vt 0.169814 0.342740
vt 0.170309 0.345918
vt 0.169436 0.435098
vt 0.169436 0.435098
vt 0.176808 0.438151
vt 0.176808 0.438151
vt 0.153159 0.414503
vt 0.153159 0.414503
vt 0.197678 0.405463
vt 0.192454 0.359910
vt 0.196238 0.373930
vt 0.163105 0.430240
vt 0.163105 0.430240
vt 0.187498 0.439938
vt 0.187498 0.439938
vt 0.195410 0.438896
vt 0.195410 0.438896
vt 0.211891 0.430240
vt 0.211891 0.430240
vt 0.182542 0.391160
vt 0.187498 0.391932
vt 0.187498 0.407153
vt 0.179864 0.406145
vt 0.200082 0.353896
vt 0.196452 0.356820
vt 0.196452 0.356820
vt 0.200082 0.353896
vt 0.204273 0.382247
vt 0.201089 0.386191
vt 0.212765 0.395965
vt 0.217455 0.389858
vt 0.197183 0.389337
vt 0.192454 0.391160
vt 0.204794 0.402519
vt 0.197183 0.389337
vt 0.201127 0.386153
vt 0.210901 0.397829
vt 0.204794 0.402519
vt 0.203006 0.350266
vt 0.203006 0.350266
vt 0.206642 0.374007
vt 0.206083 0.377569
vt 0.221081 0.380196
vt 0.221898 0.374007
vt 0.192505 0.391147
vt 0.197678 0.405463
vt 0.204273 0.382247
vt 0.206096 0.377518
vt 0.220399 0.382743
vt 0.217455 0.389858
vt 0.206642 0.374007
vt 0.221898 0.374007
vt 0.221081 0.380196
vt 0.168900 0.377518
vt 0.168354 0.374007
vt 0.153098 0.374007
vt 0.153915 0.380196
vt 0.212765 0.395965
vt 0.168354 0.374007
vt 0.168913 0.377569
vt 0.153915 0.380196
vt 0.153098 0.374007
vt 0.174915 0.353896
vt 0.171991 0.350266
vt 0.171991 0.350266
vt 0.174915 0.353896
vt 0.170724 0.382247
vt 0.173907 0.386191
vt 0.162232 0.395965
vt 0.157542 0.389858
vt 0.170724 0.382247
vt 0.154598 0.382743
vt 0.157542 0.389858
vt 0.154598 0.382743
vt 0.182892 0.358502
vt 0.178545 0.356820
vt 0.178545 0.356820
vt 0.182892 0.358502
vt 0.177814 0.389337
vt 0.177318 0.405463
vt 0.170203 0.402519
vt 0.177814 0.389337
vt 0.173870 0.386153
vt 0.164096 0.397829
vt 0.170203 0.402519
vt 0.192104 0.358502
vt 0.187498 0.359219
vt 0.187498 0.359219
vt 0.192104 0.358502
vt 0.195132 0.406145
vt 0.164096 0.397829
vt 0.179587 0.438896
vt 0.179587 0.438896
vt 0.182492 0.391147
vt 0.177318 0.405463
vt 0.162232 0.395965
vt 0.152817 0.341312
vt 0.168146 0.341312
vt 0.168146 0.341312
vt 0.152817 0.341312
vt 0.222179 0.341312
vt 0.222179 0.341312
vt 0.206850 0.341312
vt 0.206850 0.341312
vt 0.220399 0.382743
vt 0.210901 0.397829
vt 0.196618 0.406597
vt 0.196618 0.406597
vt 0.212413 0.397477
vt 0.212413 0.397477
vt 0.221532 0.381682
vt 0.221532 0.381682
vt 0.153464 0.381682
vt 0.153464 0.381682
vt 0.162583 0.397477
vt 0.162583 0.397477
vt 0.178379 0.406597
vt 0.178379 0.406597
vt 0.195132 0.406145
vt 0.192505 0.359897
vt 0.196238 0.373930
vt 0.201089 0.354941
vt 0.211376 0.365190
vt 0.201127 0.354903
vt 0.211376 0.365190
vt 0.206083 0.346319
vt 0.220116 0.350052
vt 0.206096 0.346268
vt 0.220116 0.350052
vt 0.168900 0.346268
vt 0.154881 0.350052
vt 0.168913 0.346319
vt 0.154881 0.350052
vt 0.173870 0.354903
vt 0.163620 0.365190
vt 0.173907 0.354941
vt 0.163620 0.365190
vt 0.179864 0.406145
vt 0.182492 0.359897
vt 0.178758 0.373930
vt 0.182542 0.359910
vt 0.178758 0.373930
vt 0.187498 0.391932
vt 0.187498 0.407153
vt 0.206642 0.358382
vt 0.206850 0.356937
vt 0.205183 0.358365
vt 0.206642 0.358382
vt 0.205183 0.358365
vt 0.206850 0.356937
vt 0.168354 0.358382
vt 0.169814 0.358365
vt 0.168146 0.356937
vt 0.168354 0.358382
vt 0.168146 0.356937
vt 0.169814 0.358365
vt 0.223435 0.420870
vt 0.222179 0.419437
vt 0.221898 0.420882
vt 0.223435 0.420870
vt 0.221898 0.420882
vt 0.222179 0.419437
vt 0.151561 0.420870
vt 0.153098 0.420882
vt 0.152817 0.419437
vt 0.151561 0.420870
vt 0.152817 0.419437
vt 0.153098 0.420882
vt 0.222179 0.403812
vt 0.222179 0.403812
vt 0.152817 0.403812
vt 0.152817 0.403812
vt 0.170724 0.366622
vt 0.168913 0.361944
vt 0.170309 0.361543
vt 0.171991 0.365891
vt 0.222179 0.372562
vt 0.206850 0.372562
vt 0.206850 0.372562
vt 0.222179 0.372562
vt 0.168146 0.372562
vt 0.152817 0.372562
vt 0.152817 0.372562
vt 0.168146 0.372562
vt 0.196238 0.420805
vt 0.197678 0.452338
vt 0.198189 0.453776
vt 0.196618 0.422222
vt 0.197678 0.452338
vt 0.196238 0.420805
vt 0.196618 0.422222
vt 0.198189 0.453776
vt 0.195132 0.453020
vt 0.195410 0.454521
vt 0.195132 0.453020
vt 0.195410 0.454521
vt 0.211376 0.412065
vt 0.212765 0.442840
vt 0.213926 0.443830
vt 0.212413 0.413102
vt 0.212765 0.442840
vt 0.211376 0.412065
vt 0.212413 0.413102
vt 0.213926 0.443830
vt 0.210901 0.444704
vt 0.211891 0.445865
vt 0.210901 0.444704
vt 0.211891 0.445865
vt 0.220116 0.396927
vt 0.221081 0.427071
vt 0.222582 0.427348
vt 0.221532 0.397307
vt 0.221081 0.427071
vt 0.220116 0.396927
vt 0.221532 0.397307
vt 0.222582 0.427348
vt 0.220399 0.429618
vt 0.221837 0.430128
vt 0.220399 0.429618
vt 0.221837 0.430128
vt 0.154881 0.396927
vt 0.154598 0.429618
vt 0.153159 0.430128
vt 0.153464 0.397307
vt 0.154598 0.429618
vt 0.154881 0.396927
vt 0.153464 0.397307
vt 0.153159 0.430128
vt 0.153915 0.427071
vt 0.152414 0.427348
vt 0.153915 0.427071
vt 0.152414 0.427348
vt 0.163620 0.412065
vt 0.164096 0.444704
vt 0.163105 0.445865
vt 0.162583 0.413102
vt 0.164096 0.444704
vt 0.163620 0.412065
vt 0.162583 0.413102
vt 0.163105 0.445865
vt 0.162232 0.442840
vt 0.161070 0.443830
vt 0.162232 0.442840
vt 0.161070 0.443830
vt 0.178758 0.420805
vt 0.179864 0.453020
vt 0.179587 0.454521
vt 0.178379 0.422222
vt 0.179864 0.453020
vt 0.178758 0.420805
vt 0.178379 0.422222
vt 0.179587 0.454521
vt 0.177318 0.452338
vt 0.176808 0.453776
vt 0.177318 0.452338
vt 0.176808 0.453776
vt 0.204273 0.366622
vt 0.201127 0.370528
vt 0.200082 0.369521
vt 0.203006 0.365891
vt 0.206096 0.361893
vt 0.204687 0.361543
vt 0.170724 0.366622
vt 0.173870 0.370528
vt 0.174915 0.369521
vt 0.171991 0.365891
vt 0.187498 0.376307
vt 0.182542 0.375535
vt 0.182892 0.374127
vt 0.187498 0.374844
vt 0.187498 0.376307
vt 0.192454 0.375535
vt 0.192104 0.374127
vt 0.187498 0.374844
vt 0.182892 0.374127
vt 0.178545 0.372445
vt 0.177814 0.373712
vt 0.182492 0.375522
vt 0.177814 0.373712
vt 0.173907 0.370566
vt 0.174915 0.369521
vt 0.178545 0.372445
vt 0.168900 0.361893
vt 0.170309 0.361543
vt 0.204273 0.366622
vt 0.206083 0.361944
vt 0.204687 0.361543
vt 0.203006 0.365891
vt 0.197183 0.373712
vt 0.201089 0.370566
vt 0.200082 0.369521
vt 0.196452 0.372445
vt 0.197183 0.373712
vt 0.192505 0.375522
vt 0.192104 0.374127
vt 0.196452 0.372445
vt 0.187498 0.455563
vt 0.187498 0.454028
vt 0.205561 0.450723
vt 0.204794 0.449394
vt 0.187498 0.455563
vt 0.187498 0.454028
vt 0.205561 0.450723
vt 0.204794 0.449394
vt 0.218783 0.437500
vt 0.217455 0.436733
vt 0.218783 0.437500
vt 0.217455 0.436733
vt 0.156213 0.437500
vt 0.157542 0.436733
vt 0.156213 0.437500
vt 0.157542 0.436733
vt 0.169436 0.450723
vt 0.170203 0.449394
vt 0.169436 0.450723
vt 0.170203 0.449394
vn 0.8014 0.4649 -0.3762
vn 0.8014 0.4649 0.3762
vn 0.9226 0.0337 0.3843
vn 0.9226 0.0337 -0.3843
vn 0.0335 0.9231 -0.3832
vn 0.0335 0.9231 0.3832
vn 0.4617 0.8036 0.3757
vn 0.4617 0.8036 -0.3757
vn 0.8153 0.4334 -0.3840
vn 0.8153 0.4334 0.3840
vn 0.9024 -0.2551 0.3472
vn 0.9024 -0.2551 -0.3472
vn 0.4894 0.7832 -0.3834
vn 0.4894 0.7832 0.3834
vn -0.9024 -0.2551 -0.3472
vn -0.9024 -0.2551 0.3472
vn -0.8153 0.4334 0.3840
vn -0.8153 0.4334 -0.3840
vn -0.8014 0.4649 -0.3762
vn -0.8014 0.4649 0.3762
vn -0.4894 0.7832 0.3834
vn -0.4894 0.7832 -0.3834
vn -0.8317 -0.4377 0.3416
vn -0.8855 -0.2383 0.3989
vn -0.8856 -0.2379 -0.3989
vn -0.8317 -0.4379 -0.3413
vn 0.8856 -0.2379 0.3989
vn 0.8317 -0.4379 0.3413
vn 0.8317 -0.4377 -0.3416
vn 0.8855 -0.2383 -0.3989
vn -0.4617 0.8036 -0.3757
vn -0.4617 0.8036 0.3757
vn -0.0335 0.9231 0.3832
vn -0.0335 0.9231 -0.3832
vn -0.9226 0.0337 -0.3843
vn -0.9226 0.0337 0.3843
vn -0.1382 0.4632 -0.8754
vn -0.0911 -0.3432 -0.9348
vn -0.4547 0.4408 -0.7739
vn -0.7816 0.4916 -0.3840
vn -0.7816 0.4916 0.3840
vn 0.0000 0.9269 -0.3754
vn 0.0000 0.9269 0.3754
vn 0.4313 0.8167 0.3835
vn 0.4313 0.8167 -0.3835
vn 0.7816 0.4916 0.3840
vn 0.7816 0.4916 -0.3840
vn 0.0911 -0.3432 0.9348
vn -0.0001 -0.3441 0.9389
vn -0.0000 0.4046 0.9145
vn -0.3507 0.3318 0.8757
vn -0.6467 -0.6505 0.3983
vn -0.4558 -0.7933 0.4036
vn -0.4555 -0.7935 -0.4036
vn -0.6470 -0.6501 -0.3983
vn -0.2966 -0.1722 -0.9393
vn -0.2498 -0.2515 -0.9351
vn 0.1110 0.4706 -0.8753
vn 0.3493 0.2028 -0.9148
vn -0.1712 -0.2981 -0.9391
vn 0.2013 0.3507 -0.9146
vn -0.1714 -0.2979 0.9391
vn -0.2504 -0.2509 0.9351
vn 0.4694 0.1118 0.8759
vn 0.2013 0.3507 0.9146
vn -0.7911 -0.4590 0.4044
vn -0.7909 -0.4593 -0.4044
vn -0.3187 -0.3728 -0.8715
vn -0.3419 -0.0918 -0.9352
vn 0.3308 0.3524 -0.8754
vn 0.3468 -0.3048 -0.8870
vn -0.0919 -0.3430 0.9348
vn -0.1385 0.4630 0.8755
vn -0.2968 -0.1719 0.9393
vn -0.3421 -0.0909 0.9353
vn 0.4623 -0.1388 0.8758
vn 0.3493 0.2028 0.9148
vn -0.3187 -0.3726 0.8715
vn 0.3468 -0.3048 0.8870
vn 0.3305 0.3525 0.8755
vn 0.3421 -0.0909 -0.9353
vn 0.3187 -0.3726 -0.8715
vn -0.3468 -0.3048 -0.8870
vn -0.3305 0.3525 -0.8755
vn 0.1107 0.4706 0.8754
vn 0.3187 -0.3728 0.8715
vn 0.3419 -0.0918 0.9352
vn -0.3308 0.3524 0.8754
vn -0.3468 -0.3048 0.8870
vn 0.6470 -0.6501 0.3983
vn 0.7909 -0.4593 0.4044
vn 0.7911 -0.4590 -0.4044
vn 0.6467 -0.6505 -0.3983
vn 0.2966 -0.1722 0.9393
vn 0.2498 -0.2515 0.9351
vn -0.1110 0.4706 0.8753
vn -0.3493 0.2028 0.9148
vn 0.2968 -0.1719 -0.9393
vn -0.4623 -0.1388 -0.8758
vn -0.3493 0.2028 -0.9148
vn -0.4621 -0.1391 0.8759
vn 0.2365 -0.8865 0.3977
vn 0.4555 -0.7935 0.4036
vn 0.4558 -0.7933 -0.4036
vn 0.2360 -0.8866 -0.3977
vn 0.1712 -0.2981 0.9391
vn 0.1382 0.4632 0.8754
vn -0.2013 0.3507 0.9146
vn 0.1714 -0.2979 -0.9391
vn 0.2504 -0.2509 -0.9351
vn -0.4694 0.1118 -0.8759
vn -0.2013 0.3507 -0.9146
vn -0.2360 -0.8866 0.3977
vn -0.0002 -0.9151 0.4033
vn 0.0002 -0.9151 -0.4033
vn -0.2365 -0.8865 -0.3977
vn 0.3506 0.3321 0.8757
vn -0.4693 0.1115 0.8759
vn -0.4313 0.8167 -0.3835
vn -0.4313 0.8167 0.3835
vn 0.0919 -0.3430 -0.9348
vn 0.1385 0.4630 -0.8755
vn -0.1107 0.4706 -0.8754
vn -0.3777 -0.8558 -0.3534
vn 0.3034 -0.8908 -0.3383
vn 0.3034 -0.8908 0.3383
vn -0.3777 -0.8558 0.3534
vn 0.3777 -0.8558 -0.3534
vn 0.3777 -0.8558 0.3534
vn -0.3034 -0.8908 0.3383
vn -0.3034 -0.8908 -0.3383
vn 0.4621 -0.1391 -0.8759
vn 0.4693 0.1115 -0.8759
vn 0.7178 0.6487 0.2527
vn 0.7178 0.6487 -0.2527
vn 0.1992 0.9469 -0.2525
vn 0.1992 0.9469 0.2525
vn 0.9463 0.2016 0.2529
vn 0.9463 0.2016 -0.2529
vn 0.6449 0.7212 -0.2527
vn 0.6449 0.7212 0.2527
vn 0.9195 -0.3010 0.2529
vn 0.9195 -0.3010 -0.2529
vn -0.9195 -0.3010 -0.2529
vn -0.9195 -0.3010 0.2529
vn -0.6449 0.7212 0.2527
vn -0.6449 0.7212 -0.2527
vn -0.9463 0.2016 -0.2529
vn -0.9463 0.2016 0.2529
vn -0.1992 0.9469 0.2525
vn -0.1992 0.9469 -0.2525
vn -0.7178 0.6487 -0.2527
vn -0.7178 0.6487 0.2527
vn 0.2985 0.9204 0.2525
vn 0.2985 0.9204 -0.2525
vn 0.6137 0.1535 -0.7745
vn 0.3507 0.3318 -0.8757
vn 0.6140 0.1541 0.7741
vn -0.1747 0.6093 -0.7735
vn -0.4547 0.4401 0.7743
vn 0.6080 -0.1753 -0.7743
vn 0.6086 -0.1750 0.7740
vn 0.1520 0.6155 -0.7733
vn -0.1750 0.6087 0.7738
vn 0.4384 -0.4571 -0.7739
vn 0.4390 -0.4570 0.7736
vn -0.4390 -0.4570 -0.7736
vn 0.1514 0.6152 0.7737
vn -0.1514 0.6152 -0.7737
vn -0.1520 0.6155 0.7733
vn -0.6086 -0.1750 -0.7740
vn -0.4384 -0.4571 0.7739
vn 0.1750 0.6087 -0.7738
vn 0.1747 0.6093 0.7735
vn -0.3506 0.3321 -0.8757
vn -0.6140 0.1541 -0.7741
vn -0.6080 -0.1753 0.7743
vn 0.4547 0.4402 -0.7743
vn 0.4547 0.4408 0.7739
vn -0.2985 0.9204 -0.2525
vn -0.2985 0.9204 0.2525
vn -0.6137 0.1535 0.7745
vn 0.0001 -0.3441 -0.9389
vn 0.0000 0.4046 -0.9145
usemtl tiny_treats_1
s 1
f 41/1/1 44/2/2 119/3/3 116/4/4
f 89/5/5 98/6/6 40/7/7 37/8/8
f 113/9/9 122/10/10 48/11/11 45/12/12
f 101/13/13 110/14/14 44/2/2 41/1/1
f 51/15/15 54/16/16 131/17/17 128/18/18
f 57/19/19 60/20/20 143/21/21 140/22/22
f 17/23/23 76/24/24 74/25/25 15/26/26
f 80/27/27 24/28/28 20/29/29 78/30/30
f 61/31/31 64/32/32 155/33/33 152/34/34
f 125/35/35 134/36/36 60/20/20 57/19/19
f 90/37/37 65/38/38 93/39/39
f 137/40/40 146/41/41 64/32/32 61/31/31
f 34/42/42 35/43/43 95/44/44 92/45/45
f 37/8/8 40/7/7 107/46/46 104/47/47
f 87/48/48 4/49/49 36/50/50 157/51/51
f 72/52/52 7/53/53 5/54/54 70/55/55
f 10/56/56 69/57/57 102/58/58 42/59/59
f 6/60/60 65/61/38 90/37/37 38/62/61
f 8/63/62 71/64/63 108/65/64 39/66/65
f 76/24/24 11/67/66 9/68/67 74/25/25
f 13/69/68 73/70/69 114/71/70 47/72/71
f 67/73/72 8/63/62 39/66/65 97/74/73
f 12/75/74 75/76/75 120/77/76 43/78/77
f 75/76/75 16/79/78 49/80/79 121/81/80
f 77/82/81 19/83/82 52/84/83 127/85/84
f 71/64/63 12/75/74 43/78/77 109/86/85
f 22/87/86 79/88/87 132/89/88 56/90/89
f 84/91/90 27/92/91 25/93/92 82/94/93
f 28/95/94 83/96/95 144/97/96 59/98/97
f 26/99/98 77/82/81 126/100/99 58/101/100
f 79/88/87 28/95/94 59/98/97 133/102/101
f 88/103/102 31/104/103 29/105/104 86/106/105
f 32/107/106 87/48/48 156/108/107 63/109/108
f 30/110/109 81/111/110 138/112/111 62/113/112
f 31/104/103 84/91/90 82/94/93 29/105/104
f 68/114/113 3/115/114 1/116/115 66/117/116
f 4/49/49 67/73/72 96/118/117 36/50/50
f 83/96/95 32/107/106 63/109/108 145/119/118
f 149/120/119 158/121/120 35/43/43 34/42/42
f 85/122/121 30/110/109 62/113/112 151/123/122
f 27/92/91 80/27/27 78/30/30 25/93/92
f 81/111/110 26/99/98 58/101/100 139/124/123
f 53/125/124 21/126/125 23/127/126 55/128/127
f 46/129/128 50/130/129 18/131/130 14/132/131
f 11/67/66 72/52/52 70/55/55 9/68/67
f 73/70/69 10/56/56 42/59/59 115/133/132
f 7/53/53 68/114/113 66/117/116 5/54/54
f 69/57/57 6/60/60 38/62/61 103/134/133
f 3/115/114 88/103/102 86/106/105 1/116/115
f 99/135/134 94/136/135 92/45/45 95/44/44
f 110/14/14 101/13/13 106/137/136 111/138/137
f 111/138/138 106/137/139 104/47/47 107/46/46
f 122/10/10 113/9/9 118/139/140 123/140/141
f 123/140/142 118/139/143 116/4/4 119/3/3
f 134/36/36 125/35/35 130/141/144 135/142/145
f 135/142/146 130/141/147 128/18/18 131/17/17
f 146/41/41 137/40/40 142/143/148 147/144/149
f 147/144/150 142/143/151 140/22/22 143/21/21
f 158/121/120 149/120/119 154/145/152 159/146/153
f 159/146/154 154/145/155 152/34/34 155/33/33
f 93/39/156 65/38/38 91/147/157
f 67/148/72 100/149/158 96/118/117
f 102/58/58 69/150/57 105/151/159
f 67/148/72 97/74/73 100/149/160
f 105/151/161 69/150/57 103/134/133
f 71/152/63 112/153/162 108/65/64
f 114/71/70 73/154/69 117/155/163
f 71/152/63 109/86/85 112/153/164
f 117/155/165 73/154/69 115/133/132
f 75/156/75 124/157/166 120/77/76
f 126/100/99 77/158/81 129/159/167
f 75/156/75 121/81/80 124/157/168
f 129/159/169 77/158/81 127/85/84
f 79/160/87 136/161/170 132/89/88
f 138/112/111 81/162/110 141/163/171
f 79/160/87 133/102/101 136/161/172
f 141/163/173 81/162/110 139/124/123
f 83/164/95 148/165/174 144/97/96
f 150/166/175 85/167/121 153/168/176
f 83/164/95 145/119/118 148/165/177
f 153/168/178 85/167/121 151/123/122
f 87/169/48 160/170/179 156/108/107
f 98/6/6 89/5/5 94/136/180 99/135/181
f 87/169/48 157/51/51 160/170/182
f 2/171/183 85/122/121 150/166/175 33/172/184
f 13/173/68 14/174/131 15/175/26
f 16/176/78 17/177/23 18/178/130
f 19/179/82 20/180/29 21/181/125
f 22/182/86 23/183/126 24/184/28
f 45/185/12 46/186/128 47/187/71
f 48/188/11 49/189/79 50/190/129
f 51/191/15 52/192/83 53/193/124
f 54/194/16 55/195/127 56/196/89
f 50/197/129 46/198/128 45/12/12 48/11/11
f 54/16/16 51/15/15 53/199/124 55/200/127
f 28/201/94 79/202/87 80/203/27 27/204/91
f 46/205/128 14/206/131 13/69/68 47/72/71
f 18/207/130 50/208/129 49/80/79 16/79/78
f 52/84/83 19/83/82 21/209/125 53/210/124
f 22/87/86 56/90/89 55/211/127 23/212/126
f 23/127/126 21/126/125 20/29/29 24/28/28
f 17/23/23 15/26/26 14/132/131 18/131/130
f 100/213/160 97/214/73 98/215/6 99/216/181
f 90/217/37 93/218/39 94/219/180 89/220/5
f 96/221/117 100/213/158 99/216/134 95/222/44
f 93/218/156 91/223/157 92/224/45 94/219/135
f 112/225/164 109/226/85 110/227/14 111/228/137
f 102/229/58 105/230/159 106/231/136 101/232/13
f 108/233/64 112/225/162 111/228/138 107/234/46
f 105/230/161 103/235/133 104/236/47 106/231/139
f 124/237/168 121/238/80 122/239/10 123/240/141
f 114/241/70 117/242/163 118/243/140 113/244/9
f 120/245/76 124/237/166 123/240/142 119/246/3
f 117/242/165 115/247/132 116/248/4 118/243/143
f 136/249/172 133/250/101 134/251/36 135/252/145
f 126/253/99 129/254/167 130/255/144 125/256/35
f 132/257/88 136/249/170 135/252/146 131/258/17
f 129/254/169 127/259/84 128/260/18 130/255/147
f 148/261/177 145/262/118 146/263/41 147/264/149
f 138/265/111 141/266/171 142/267/148 137/268/40
f 144/269/96 148/261/174 147/264/150 143/270/21
f 141/266/173 139/271/123 140/272/22 142/267/151
f 160/273/182 157/274/51 158/275/120 159/276/153
f 150/277/175 153/278/176 154/279/152 149/280/119
f 156/281/107 160/273/179 159/276/154 155/282/33
f 153/278/178 151/283/122 152/284/34 154/279/155
f 12/285/74 71/286/63 72/287/52 11/288/66
f 16/176/78 75/289/75 76/290/24 17/177/23
f 26/291/98 81/292/110 82/293/93 25/294/92
f 4/295/49 87/296/48 88/297/102 3/298/114
f 2/299/183 65/300/38 66/301/116 1/302/115
f 86/303/105 29/304/104 30/305/109 85/306/121
f 32/307/106 83/308/95 84/309/90 31/310/103
f 19/179/82 77/311/81 78/312/30 20/180/29
f 10/313/56 73/314/69 74/315/25 9/316/67
f 6/317/60 69/318/57 70/319/55 5/320/54
f 8/321/62 67/322/72 68/323/113 7/324/53
f 67/322/72 4/295/49 3/298/114 68/323/113
f 34/325/42 92/224/45 91/223/157 33/326/184
f 65/300/38 6/317/60 5/320/54 66/301/116
f 89/220/5 37/327/8 38/328/61 90/217/37
f 95/222/44 35/329/43 36/330/50 96/221/117
f 40/331/7 98/215/6 97/214/73 39/332/65
f 71/286/63 8/321/62 7/324/53 72/287/52
f 37/327/8 104/236/47 103/235/133 38/328/61
f 69/318/57 10/313/56 9/316/67 70/319/55
f 101/232/13 41/333/1 42/334/59 102/229/58
f 107/234/46 40/331/7 39/332/65 108/233/64
f 44/335/2 110/227/14 109/226/85 43/336/77
f 75/289/75 12/285/74 11/288/66 76/290/24
f 41/333/1 116/248/4 115/247/132 42/334/59
f 73/314/69 13/173/68 15/175/26 74/315/25
f 113/244/9 45/185/12 47/187/71 114/241/70
f 119/246/3 44/335/2 43/336/77 120/245/76
f 48/188/11 122/239/10 121/238/80 49/189/79
f 79/202/87 22/182/86 24/184/28 80/203/27
f 51/191/15 128/260/18 127/259/84 52/192/83
f 77/311/81 26/291/98 25/294/92 78/312/30
f 125/256/35 57/337/19 58/338/100 126/253/99
f 131/258/17 54/194/16 56/196/89 132/257/88
f 60/339/20 134/251/36 133/250/101 59/340/97
f 83/308/95 28/201/94 27/204/91 84/309/90
f 57/337/19 140/272/22 139/271/123 58/338/100
f 81/292/110 30/305/109 29/304/104 82/293/93
f 137/268/40 61/341/31 62/342/112 138/265/111
f 143/270/21 60/339/20 59/340/97 144/269/96
f 64/343/32 146/263/41 145/262/118 63/344/108
f 61/341/31 152/284/34 151/283/122 62/342/112
f 85/306/121 2/299/183 1/302/115 86/303/105
f 149/280/119 34/325/42 33/326/184 150/277/175
f 87/296/48 32/307/106 31/310/103 88/297/102
f 155/282/33 64/343/32 63/344/108 156/281/107
f 35/329/43 158/275/120 157/274/51 36/330/50
f 65/61/38 2/171/183 33/172/184 91/147/157
