# Blender v3.4.1 OBJ File: 'Block_Bits_Export.blend'
# www.blender.org
mtllib prototype.mtl
o prototype
v -0.900000 -1.000000 0.900000
v -0.900000 -0.900000 1.000000
v -1.000000 -0.900000 0.900000
v -0.900000 -0.970711 0.970711
v -0.957735 -0.957735 0.957735
v -0.970711 -0.900000 0.970711
v -0.970711 -0.970711 0.900000
v -0.900000 0.900000 1.000000
v -0.900000 1.000000 0.900000
v -1.000000 0.900000 0.900000
v -0.900000 0.970711 0.970711
v -0.957735 0.957735 0.957735
v -0.970711 0.970711 0.900000
v -0.970711 0.900000 0.970711
v -0.900000 -1.000000 -0.900000
v -1.000000 -0.900000 -0.900000
v -0.900000 -0.900000 -1.000000
v -0.970711 -0.970711 -0.900000
v -0.957735 -0.957735 -0.957735
v -0.970711 -0.900000 -0.970711
v -0.900000 -0.970711 -0.970711
v -0.900000 1.000000 -0.900000
v -0.900000 0.900000 -1.000000
v -1.000000 0.900000 -0.900000
v -0.900000 0.970711 -0.970711
v -0.957735 0.957735 -0.957735
v -0.970711 0.900000 -0.970711
v -0.970711 0.970711 -0.900000
v 0.900000 -1.000000 0.900000
v 1.000000 -0.900000 0.900000
v 0.900000 -0.900000 1.000000
v 0.970711 -0.970711 0.900000
v 0.957735 -0.957735 0.957735
v 0.970711 -0.900000 0.970711
v 0.900000 -0.970711 0.970711
v 0.900000 1.000000 0.900000
v 0.900000 0.900000 1.000000
v 1.000000 0.900000 0.900000
v 0.900000 0.970711 0.970711
v 0.957735 0.957735 0.957735
v 0.970711 0.900000 0.970711
v 0.970711 0.970711 0.900000
v 0.900000 -1.000000 -0.900000
v 0.900000 -0.900000 -1.000000
v 1.000000 -0.900000 -0.900000
v 0.900000 -0.970711 -0.970711
v 0.957735 -0.957735 -0.957735
v 0.970711 -0.900000 -0.970711
v 0.970711 -0.970711 -0.900000
v 0.900000 1.000000 -0.900000
v 1.000000 0.900000 -0.900000
v 0.900000 0.900000 -1.000000
v 0.970711 0.970711 -0.900000
v 0.957735 0.957735 -0.957735
v 0.970711 0.900000 -0.970711
v 0.900000 0.970711 -0.970711
v 0.000000 -1.000000 -0.900000
v 0.000000 -0.970711 -0.970711
v 0.000000 -0.900000 -1.000000
v 0.000000 1.000000 -0.900000
v 0.000000 0.970711 -0.970711
v 0.000000 0.900000 -1.000000
v 0.000000 -1.000000 0.900000
v 0.000000 -0.970711 0.970711
v 0.000000 -0.900000 1.000000
v 0.000000 1.000000 0.900000
v 0.000000 0.970711 0.970711
v 0.000000 0.900000 1.000000
v -0.900000 -0.000000 1.000000
v -0.970711 -0.000000 0.970711
v -1.000000 -0.000000 0.900000
v -0.900000 0.000000 -1.000000
v -0.970711 0.000000 -0.970711
v -1.000000 0.000000 -0.900000
v 1.000000 0.000000 -0.900000
v 0.970711 0.000000 -0.970711
v 0.900000 0.000000 -1.000000
v 0.900000 -0.000000 1.000000
v 0.970711 -0.000000 0.970711
v 1.000000 -0.000000 0.900000
v 0.000000 0.000000 -1.000000
v 0.000000 -0.000000 1.000000
v -0.900000 -1.000000 -0.000000
v -0.970711 -0.970711 -0.000000
v -1.000000 -0.900000 -0.000000
v -0.900000 1.000000 0.000000
v -0.970711 0.970711 0.000000
v -1.000000 0.900000 0.000000
v 0.900000 -1.000000 -0.000000
v 0.970711 -0.970711 -0.000000
v 1.000000 -0.900000 -0.000000
v 0.900000 1.000000 0.000000
v 0.970711 0.970711 0.000000
v 1.000000 0.900000 0.000000
v 0.000000 -1.000000 -0.000000
v 0.000000 1.000000 0.000000
v -1.000000 0.000000 0.000000
v 1.000000 0.000000 0.000000
vt 0.437500 0.843750
vt 0.437500 0.867774
vt 0.392757 0.867774
vt 0.392757 0.843750
vt 0.487214 0.906250
vt 0.487214 0.930274
vt 0.487214 0.930274
vt 0.487214 0.906250
vt 0.437500 0.870444
vt 0.392757 0.870444
vt 0.392757 0.870444
vt 0.437500 0.870444
vt 0.387786 0.906250
vt 0.387786 0.930274
vt 0.387786 0.930274
vt 0.387786 0.906250
vt 0.437500 0.843750
vt 0.437500 0.867774
vt 0.482243 0.867774
vt 0.482243 0.843750
vt 0.392757 0.879556
vt 0.392757 0.927213
vt 0.389887 0.927560
vt 0.389242 0.927213
vt 0.392757 0.882226
vt 0.389242 0.929101
vt 0.387786 0.882226
vt 0.392757 0.916537
vt 0.389887 0.916190
vt 0.389242 0.914649
vt 0.389242 0.916537
vt 0.387786 0.867774
vt 0.392757 0.817056
vt 0.389242 0.864713
vt 0.389887 0.865060
vt 0.392757 0.864713
vt 0.387786 0.819726
vt 0.389242 0.866601
vt 0.392757 0.819726
vt 0.392757 0.932944
vt 0.392757 0.979037
vt 0.389887 0.978690
vt 0.389242 0.979037
vt 0.392757 0.930274
vt 0.389242 0.977149
vt 0.482243 0.817056
vt 0.485758 0.864713
vt 0.485113 0.865060
vt 0.482243 0.864713
vt 0.487214 0.819726
vt 0.485758 0.866601
vt 0.482243 0.819726
vt 0.482243 0.932944
vt 0.482243 0.979037
vt 0.485113 0.978690
vt 0.485758 0.979037
vt 0.482243 0.930274
vt 0.485758 0.977149
vt 0.482243 0.879556
vt 0.482243 0.927213
vt 0.485113 0.927560
vt 0.485758 0.927213
vt 0.482243 0.882226
vt 0.485758 0.929101
vt 0.487214 0.882226
vt 0.482243 0.870444
vt 0.485758 0.916537
vt 0.485113 0.916190
vt 0.482243 0.916537
vt 0.487214 0.867774
vt 0.485758 0.914649
vt 0.392757 0.879556
vt 0.389242 0.927213
vt 0.387786 0.882226
vt 0.389242 0.890625
vt 0.387786 0.843750
vt 0.392757 0.932944
vt 0.389242 0.979037
vt 0.392757 0.843750
vt 0.389242 0.890625
vt 0.387786 0.843750
vt 0.437500 0.817056
vt 0.437500 0.864713
vt 0.437500 0.819726
vt 0.437500 0.870444
vt 0.437500 0.916537
vt 0.487214 0.906250
vt 0.485758 0.953125
vt 0.482243 0.906250
vt 0.482243 0.879556
vt 0.485758 0.927213
vt 0.487214 0.882226
vt 0.482243 0.932944
vt 0.485758 0.979037
vt 0.482243 0.843750
vt 0.485758 0.890625
vt 0.487214 0.843750
vt 0.437500 0.817056
vt 0.437500 0.864713
vt 0.437500 0.819726
vt 0.437500 0.916537
vt 0.437500 0.817056
vt 0.482243 0.817056
vt 0.437500 0.879556
vt 0.437500 0.879556
vt 0.437500 0.979037
vt 0.437500 0.930274
vt 0.437500 0.932944
vt 0.437500 0.927213
vt 0.437500 0.882226
vt 0.437500 0.979037
vt 0.437500 0.930274
vt 0.437500 0.932944
vt 0.437500 0.927213
vt 0.437500 0.882226
vt 0.437500 0.879556
vt 0.392757 0.906250
vt 0.437500 0.906250
vt 0.437500 0.932944
vt 0.482243 0.906250
vt 0.437500 0.906250
vt 0.485758 0.953125
vt 0.485758 0.890625
vt 0.487214 0.843750
vt 0.389242 0.953125
vt 0.389242 0.953125
vt 0.387786 0.906250
vt 0.392757 0.906250
vt 0.387786 0.819726
vt 0.387786 0.843750
vt 0.487214 0.819726
vt 0.487214 0.843750
vt 0.482243 0.870444
vt 0.392757 0.817056
vt 0.485758 0.916537
vt 0.487214 0.867774
vt 0.485758 0.864713
vt 0.389242 0.916537
vt 0.387786 0.867774
vt 0.389242 0.864713
vn 0.0000 -0.0000 1.0000
vn 0.0000 0.1951 0.9808
vn -0.1794 0.1794 0.9673
vn -0.1951 -0.0000 0.9808
vn 1.0000 -0.0000 0.0000
vn 0.9808 0.1951 0.0000
vn 0.9673 0.1794 0.1794
vn 0.9808 0.0000 0.1951
vn 0.0000 1.0000 0.0000
vn -0.1951 0.9808 0.0000
vn -0.1794 0.9673 0.1794
vn 0.0000 0.9808 0.1951
vn -1.0000 0.0000 0.0000
vn -0.9808 0.1951 0.0000
vn -0.9673 0.1794 -0.1794
vn -0.9808 0.0000 -0.1951
vn 0.0000 0.0000 -1.0000
vn 0.0000 0.1951 -0.9808
vn 0.1794 0.1794 -0.9673
vn 0.1951 0.0000 -0.9808
vn -0.1794 -0.9673 0.1794
vn -0.1585 -0.9194 0.3600
vn -0.3251 -0.8881 0.3251
vn -0.3600 -0.9194 0.1585
vn -0.1794 -0.1794 0.9673
vn -0.3600 -0.1585 0.9194
vn -0.3251 -0.3251 0.8881
vn -0.1585 -0.3600 0.9194
vn -0.9673 -0.1794 0.1794
vn -0.9194 -0.3600 0.1585
vn -0.8881 -0.3251 0.3251
vn -0.9194 -0.1585 0.3600
vn -0.1585 0.3600 0.9194
vn -0.3251 0.3251 0.8881
vn -0.3600 0.1585 0.9194
vn -0.3600 0.9194 0.1585
vn -0.3251 0.8881 0.3251
vn -0.1585 0.9194 0.3600
vn -0.9673 0.1794 0.1794
vn -0.9194 0.1585 0.3600
vn -0.8881 0.3251 0.3251
vn -0.9194 0.3600 0.1585
vn -0.1794 -0.9673 -0.1794
vn -0.3600 -0.9194 -0.1585
vn -0.3251 -0.8881 -0.3251
vn -0.1585 -0.9194 -0.3600
vn -0.9673 -0.1794 -0.1794
vn -0.9194 -0.1585 -0.3600
vn -0.8881 -0.3251 -0.3251
vn -0.9194 -0.3600 -0.1585
vn -0.1794 -0.1794 -0.9673
vn -0.1585 -0.3600 -0.9194
vn -0.3251 -0.3251 -0.8881
vn -0.3600 -0.1585 -0.9194
vn -0.1794 0.9673 -0.1794
vn -0.1585 0.9194 -0.3600
vn -0.3251 0.8881 -0.3251
vn -0.3600 0.9194 -0.1585
vn -0.1794 0.1794 -0.9673
vn -0.3600 0.1585 -0.9194
vn -0.3251 0.3251 -0.8881
vn -0.1585 0.3600 -0.9194
vn -0.9194 0.3600 -0.1585
vn -0.8881 0.3251 -0.3251
vn -0.9194 0.1585 -0.3600
vn 0.1794 -0.9673 0.1794
vn 0.3600 -0.9194 0.1585
vn 0.3251 -0.8881 0.3251
vn 0.1585 -0.9194 0.3600
vn 0.9673 -0.1794 0.1794
vn 0.9194 -0.1585 0.3600
vn 0.8881 -0.3251 0.3251
vn 0.9194 -0.3600 0.1585
vn 0.1794 -0.1794 0.9673
vn 0.1585 -0.3600 0.9194
vn 0.3251 -0.3251 0.8881
vn 0.3600 -0.1585 0.9194
vn 0.1794 0.9673 0.1794
vn 0.1585 0.9194 0.3600
vn 0.3251 0.8881 0.3251
vn 0.3600 0.9194 0.1585
vn 0.1794 0.1794 0.9673
vn 0.3600 0.1585 0.9194
vn 0.3251 0.3251 0.8881
vn 0.1585 0.3600 0.9194
vn 0.9194 0.3600 0.1585
vn 0.8881 0.3251 0.3251
vn 0.9194 0.1585 0.3600
vn 0.1794 -0.9673 -0.1794
vn 0.1585 -0.9194 -0.3600
vn 0.3251 -0.8881 -0.3251
vn 0.3600 -0.9194 -0.1585
vn 0.1794 -0.1794 -0.9673
vn 0.3600 -0.1585 -0.9194
vn 0.3251 -0.3251 -0.8881
vn 0.1585 -0.3600 -0.9194
vn 0.9673 -0.1794 -0.1794
vn 0.9194 -0.3600 -0.1585
vn 0.8881 -0.3251 -0.3251
vn 0.9194 -0.1585 -0.3600
vn 0.1794 0.9673 -0.1794
vn 0.3600 0.9194 -0.1585
vn 0.3251 0.8881 -0.3251
vn 0.1585 0.9194 -0.3600
vn 0.9673 0.1794 -0.1794
vn 0.9194 0.1585 -0.3600
vn 0.8881 0.3251 -0.3251
vn 0.9194 0.3600 -0.1585
vn 0.1585 0.3600 -0.9194
vn 0.3251 0.3251 -0.8881
vn 0.3600 0.1585 -0.9194
vn -0.1951 -0.9808 -0.0000
vn -0.3827 -0.9239 -0.0000
vn -0.9239 -0.3827 -0.0000
vn -0.9808 -0.1951 -0.0000
vn -0.3827 -0.0000 0.9239
vn -0.9239 0.0000 0.3827
vn -0.9808 0.0000 0.1951
vn -0.3827 0.9239 0.0000
vn -0.9239 0.3827 0.0000
vn -0.1951 0.0000 -0.9808
vn -0.3827 0.0000 -0.9239
vn -0.9239 0.0000 -0.3827
vn 0.0000 -0.9808 -0.1951
vn 0.0000 -0.9239 -0.3827
vn 0.0000 -0.3827 -0.9239
vn 0.0000 -0.1951 -0.9808
vn 0.0000 0.9808 -0.1951
vn 0.0000 0.9239 -0.3827
vn 0.0000 0.3827 -0.9239
vn 0.9808 0.0000 -0.1951
vn 0.9239 0.0000 -0.3827
vn 0.3827 0.0000 -0.9239
vn 0.1951 -0.9808 -0.0000
vn 0.3827 -0.9239 -0.0000
vn 0.9239 -0.3827 -0.0000
vn 0.9808 -0.1951 -0.0000
vn 0.1951 0.9808 0.0000
vn 0.3827 0.9239 0.0000
vn 0.9239 0.3827 0.0000
vn 0.1951 -0.0000 0.9808
vn 0.3827 -0.0000 0.9239
vn 0.9239 0.0000 0.3827
vn 0.0000 -0.9808 0.1951
vn 0.0000 -0.9239 0.3827
vn 0.0000 -0.3827 0.9239
vn 0.0000 -0.1951 0.9808
vn 0.0000 0.9239 0.3827
vn 0.0000 0.3827 0.9239
vn 0.0000 -1.0000 -0.0000
usemtl block
s 1
f 82/1/1 68/2/2 8/3/3 69/4/4
f 98/5/5 94/6/6 38/7/7 80/8/8
f 96/9/9 86/10/10 9/11/11 66/12/12
f 97/13/13 88/14/14 24/15/15 74/16/16
f 81/17/17 62/18/18 52/19/19 77/20/20
f 1/21/21 4/22/22 5/23/23 7/24/24
f 2/25/25 6/26/26 5/23/27 4/22/28
f 3/27/29 7/24/30 5/23/31 6/26/32
f 8/3/3 11/28/33 12/29/34 14/30/35
f 9/11/11 13/31/36 12/29/37 11/28/38
f 10/32/39 14/30/40 12/29/41 13/31/42
f 15/33/43 18/34/44 19/35/45 21/36/46
f 16/37/47 20/38/48 19/35/49 18/34/50
f 17/39/51 21/36/52 19/35/53 20/38/54
f 22/40/55 25/41/56 26/42/57 28/43/58
f 23/44/59 27/45/60 26/42/61 25/41/62
f 24/15/15 28/43/63 26/42/64 27/45/65
f 29/46/66 32/47/67 33/48/68 35/49/69
f 30/50/70 34/51/71 33/48/72 32/47/73
f 31/52/74 35/49/75 33/48/76 34/51/77
f 36/53/78 39/54/79 40/55/80 42/56/81
f 37/57/82 41/58/83 40/55/84 39/54/85
f 38/7/7 42/56/86 40/55/87 41/58/88
f 43/59/89 46/60/90 47/61/91 49/62/92
f 44/63/93 48/64/94 47/61/95 46/60/96
f 45/65/97 49/62/98 47/61/99 48/64/100
f 50/66/101 53/67/102 54/68/103 56/69/104
f 51/70/105 55/71/106 54/68/107 53/67/108
f 52/19/19 56/69/109 54/68/110 55/71/111
f 83/72/112 1/21/21 7/24/24 84/73/113
f 84/73/114 7/24/30 3/27/29 85/74/115
f 69/4/4 8/3/3 14/30/35 70/75/116
f 70/75/117 14/30/40 10/32/39 71/76/118
f 86/77/10 22/40/55 28/43/58 87/78/119
f 87/78/120 28/43/63 24/15/15 88/14/14
f 72/79/121 17/39/51 20/38/54 73/80/122
f 73/80/123 20/38/48 16/37/47 74/81/16
f 57/82/124 15/33/43 21/36/46 58/83/125
f 58/83/126 21/36/52 17/39/51 59/84/127
f 60/85/128 50/66/101 56/69/104 61/86/129
f 61/86/130 56/69/109 52/19/19 62/18/18
f 75/87/131 45/65/97 48/64/100 76/88/132
f 76/88/133 48/64/94 44/63/93 77/89/20
f 89/90/134 43/59/89 49/62/92 90/91/135
f 90/91/136 49/62/98 45/65/97 91/92/137
f 92/93/138 36/53/78 42/56/81 93/94/139
f 93/94/140 42/56/86 38/7/7 94/6/6
f 78/95/141 31/52/74 34/51/77 79/96/142
f 79/96/143 34/51/71 30/50/70 80/97/8
f 63/98/144 29/46/66 35/49/69 64/99/145
f 64/99/146 35/49/75 31/52/74 65/100/147
f 66/12/12 9/11/11 11/28/38 67/101/148
f 67/101/149 11/28/33 8/3/3 68/2/2
f 95/102/150 89/103/134 29/46/66 63/98/144
f 83/72/112 95/104/150 63/105/144 1/21/21
f 39/54/85 67/106/149 68/107/2 37/57/82
f 36/53/78 66/108/12 67/106/148 39/54/79
f 4/22/28 64/109/146 65/110/147 2/25/25
f 1/21/21 63/105/144 64/109/145 4/22/22
f 25/41/62 61/111/130 62/112/18 23/44/59
f 22/40/55 60/113/128 61/111/129 25/41/56
f 46/60/96 58/114/126 59/115/127 44/63/93
f 43/59/89 57/116/124 58/114/125 46/60/90
f 72/117/121 23/44/59 62/112/18 81/118/17
f 92/93/138 96/119/9 66/108/12 36/53/78
f 78/120/141 37/57/82 68/107/2 82/121/1
f 31/52/74 78/95/141 82/1/1 65/100/147
f 17/39/51 72/79/121 81/17/17 59/84/127
f 41/58/88 79/122/143 80/8/8 38/7/7
f 37/57/82 78/120/141 79/122/142 41/58/83
f 55/71/111 76/123/133 77/20/20 52/19/19
f 51/70/105 75/124/131 76/123/132 55/71/106
f 27/45/65 73/125/123 74/16/16 24/15/15
f 23/44/59 72/117/121 73/125/122 27/45/60
f 6/26/32 70/126/117 71/127/118 3/27/29
f 2/25/25 69/128/4 70/126/116 6/26/26
f 59/115/127 81/118/17 77/89/20 44/63/93
f 85/129/115 97/130/13 74/81/16 16/37/47
f 91/131/137 98/132/5 80/97/8 30/50/70
f 65/110/147 82/121/1 69/128/4 2/25/25
f 45/65/97 75/87/131 98/5/5 91/92/137
f 3/27/29 71/127/118 97/13/13 85/74/115
f 50/66/101 60/85/128 96/9/9 92/133/138
f 15/33/43 57/82/124 95/102/150 83/134/112
f 57/116/124 43/59/89 89/90/134 95/104/150
f 53/67/108 93/135/140 94/136/6 51/70/105
f 50/66/101 92/133/138 93/135/139 53/67/102
f 32/47/73 90/137/136 91/131/137 30/50/70
f 29/46/66 89/103/134 90/137/135 32/47/67
f 13/31/42 87/138/120 88/139/14 10/32/39
f 9/11/11 86/10/10 87/138/119 13/31/36
f 18/34/50 84/140/114 85/129/115 16/37/47
f 15/33/43 83/134/112 84/140/113 18/34/44
f 71/76/118 10/32/39 88/139/14 97/130/13
f 60/113/128 22/40/55 86/77/10 96/119/9
f 75/124/131 51/70/105 94/136/6 98/132/5
