# Blender v3.4.1 OBJ File: 'Tiny_Treats_Homely_Home_ASSETS_EXPORT.blend'
# www.blender.org
mtllib fence_rails.mtl
o fence_rails
v -1.000000 0.200000 0.070000
v -1.000000 0.230000 0.100000
v -1.000000 0.370000 0.100000
v -1.000000 0.400000 0.070000
v -1.000000 0.230000 -0.100000
v -1.000000 0.200000 -0.070000
v -1.000000 0.400000 -0.070000
v -1.000000 0.370000 -0.100000
v -0.000000 0.230000 0.100000
v -0.000000 0.200000 0.070000
v -0.000000 0.400000 0.070000
v -0.000000 0.370000 0.100000
v -0.000000 0.200000 -0.070000
v -0.000000 0.230000 -0.100000
v -0.000000 0.370000 -0.100000
v -0.000000 0.400000 -0.070000
v -1.000000 0.600000 0.070000
v -1.000000 0.630000 0.100000
v -1.000000 0.770000 0.100000
v -1.000000 0.800000 0.070000
v -1.000000 0.630000 -0.100000
v -1.000000 0.600000 -0.070000
v -1.000000 0.800000 -0.070000
v -1.000000 0.770000 -0.100000
v -0.000000 0.630000 0.100000
v -0.000000 0.600000 0.070000
v -0.000000 0.800000 0.070000
v -0.000000 0.770000 0.100000
v -0.000000 0.600000 -0.070000
v -0.000000 0.630000 -0.100000
v -0.000000 0.770000 -0.100000
v -0.000000 0.800000 -0.070000
vt 0.933097 0.850897
vt 0.912553 0.850897
vt 0.912553 0.850897
vt 0.933097 0.850897
vt 0.933097 0.807099
vt 0.933097 0.820917
vt 0.912553 0.820917
vt 0.912553 0.807099
vt 0.912553 0.807099
vt 0.912553 0.820917
vt 0.933097 0.820917
vt 0.933097 0.807099
vt 0.933097 0.777118
vt 0.912553 0.777118
vt 0.912553 0.780079
vt 0.933097 0.780079
vt 0.933097 0.847936
vt 0.912553 0.847936
vt 0.912553 0.777118
vt 0.933097 0.777118
vt 0.933097 0.780079
vt 0.912553 0.780079
vt 0.912553 0.847936
vt 0.933097 0.847936
vt 0.933097 0.890377
vt 0.912553 0.890377
vt 0.912553 0.890377
vt 0.933097 0.890377
vt 0.933097 0.846578
vt 0.933097 0.860396
vt 0.912553 0.860396
vt 0.912553 0.846578
vt 0.912553 0.846578
vt 0.912553 0.860396
vt 0.933097 0.860396
vt 0.933097 0.846578
vt 0.933097 0.816598
vt 0.912553 0.816598
vt 0.912553 0.819559
vt 0.933097 0.819559
vt 0.933097 0.887416
vt 0.912553 0.887416
vt 0.912553 0.816598
vt 0.933097 0.816598
vt 0.933097 0.819559
vt 0.912553 0.819559
vt 0.912553 0.887416
vt 0.933097 0.887416
vn 0.0000 0.9239 -0.3827
vn 0.0000 0.9239 0.3827
vn -0.0000 -0.3827 0.9239
vn 0.0000 0.3827 0.9239
vn 0.0000 -0.3827 -0.9239
vn 0.0000 0.3827 -0.9239
vn 0.0000 -0.9239 -0.3827
vn -0.0000 -0.9239 0.3827
usemtl tiny_treats_1
s 1
f 16/1/1 7/2/1 4/3/2 11/4/2
f 9/5/3 12/6/4 3/7/4 2/8/3
f 5/9/5 8/10/6 15/11/6 14/12/5
f 13/13/7 6/14/7 5/15/5 14/16/5
f 7/2/1 16/1/1 15/17/6 8/18/6
f 1/19/8 10/20/8 9/21/3 2/22/3
f 11/4/2 4/3/2 3/23/4 12/24/4
f 6/14/7 13/13/7 10/20/8 1/19/8
f 32/25/1 23/26/1 20/27/2 27/28/2
f 25/29/3 28/30/4 19/31/4 18/32/3
f 21/33/5 24/34/6 31/35/6 30/36/5
f 29/37/7 22/38/7 21/39/5 30/40/5
f 23/26/1 32/25/1 31/41/6 24/42/6
f 17/43/8 26/44/8 25/45/3 18/46/3
f 27/28/2 20/27/2 19/47/4 28/48/4
f 22/38/7 29/37/7 26/44/8 17/43/8
