# Blender v3.4.1 OBJ File: 'Tiny_Treats_Homely_Home_ASSETS_EXPORT.blend'
# www.blender.org
mtllib fence_straight_long.mtl
o fence_straight_long
v -1.000000 0.230000 -0.100000
v -1.000000 0.200000 -0.070000
v -1.000000 0.400000 -0.070000
v -1.000000 0.370000 -0.100000
v -1.000000 0.200000 0.070000
v -1.000000 0.230000 0.100000
v -1.000000 0.370000 0.100000
v -1.000000 0.400000 0.070000
v -1.019206 1.276953 -0.120000
v -1.000000 1.253138 -0.150000
v -0.980794 1.276953 -0.120000
v -0.980794 1.276953 0.120000
v -1.000000 1.253138 0.150000
v -1.019206 1.276953 0.120000
v -1.216850 0.970000 0.150000
v -1.247015 0.970149 0.120000
v -1.230794 1.023047 0.120000
v -1.185949 1.030000 0.150000
v -1.152985 -0.000074 0.120000
v -1.122850 0.000074 0.150000
v -1.247015 0.970149 -0.120000
v -1.216850 0.970000 -0.150000
v -1.185949 1.030000 -0.150000
v -1.230794 1.023047 -0.120000
v -1.122850 0.000074 -0.150000
v -1.152985 -0.000074 -0.120000
v -0.752985 0.970149 0.120000
v -0.783150 0.970000 0.150000
v -0.814051 1.030000 0.150000
v -0.769206 1.023047 0.120000
v -0.877150 0.000074 0.150000
v -0.847015 -0.000074 0.120000
v -0.752985 0.970149 -0.120000
v -0.769206 1.023047 -0.120000
v -0.814051 1.030000 -0.150000
v -0.783150 0.970000 -0.150000
v -0.847015 -0.000074 -0.120000
v -0.877150 0.000074 -0.150000
v -1.000000 0.630000 -0.100000
v -1.000000 0.600000 -0.070000
v -1.000000 0.800000 -0.070000
v -1.000000 0.770000 -0.100000
v -1.000000 0.600000 0.070000
v -1.000000 0.630000 0.100000
v -1.000000 0.770000 0.100000
v -1.000000 0.800000 0.070000
v 1.000000 0.200000 -0.069999
v 1.000000 0.230000 -0.099999
v 1.000000 0.370000 -0.099999
v 1.000000 0.400000 -0.069999
v 1.000000 0.230000 0.100001
v 1.000000 0.200000 0.070001
v 1.000000 0.400000 0.070001
v 1.000000 0.370000 0.100001
v -0.019205 1.276953 -0.120000
v 0.000000 1.253138 -0.150000
v 0.019206 1.276953 -0.120000
v 0.019206 1.276953 0.120000
v -0.000000 1.253138 0.150000
v -0.019206 1.276953 0.120000
v -0.216850 0.970000 0.150000
v -0.247015 0.970149 0.120000
v -0.230794 1.023047 0.120000
v -0.185949 1.030000 0.150000
v -0.152985 -0.000074 0.120000
v -0.122850 0.000074 0.150000
v -0.247015 0.970149 -0.120000
v -0.216850 0.970000 -0.150000
v -0.185949 1.030000 -0.150000
v -0.230794 1.023047 -0.120000
v -0.122850 0.000074 -0.150000
v -0.152985 -0.000074 -0.120000
v 0.247015 0.970149 0.120001
v 0.216850 0.970000 0.150001
v 0.185949 1.030000 0.150001
v 0.230794 1.023047 0.120001
v 0.122850 0.000074 0.150000
v 0.152985 -0.000074 0.120000
v 0.247015 0.970149 -0.119999
v 0.230794 1.023047 -0.119999
v 0.185949 1.030000 -0.149999
v 0.216850 0.970000 -0.149999
v 0.152985 -0.000074 -0.120000
v 0.122850 0.000074 -0.150000
v 1.000000 0.600000 -0.069999
v 1.000000 0.630000 -0.099999
v 1.000000 0.770000 -0.099999
v 1.000000 0.800000 -0.069999
v 1.000000 0.630000 0.100001
v 1.000000 0.600000 0.070001
v 1.000000 0.800000 0.070001
v 1.000000 0.770000 0.100001
v 1.122850 0.000074 -0.149999
v 1.152985 -0.000074 -0.119999
v 1.216850 0.970000 -0.149999
v 1.185949 1.030000 -0.149999
v 1.230794 1.023047 -0.119999
v 1.247015 0.970149 -0.119999
v 1.152985 -0.000074 0.120001
v 1.122850 0.000074 0.150001
v 1.230794 1.023047 0.120001
v 1.185949 1.030000 0.150001
v 1.216850 0.970000 0.150001
v 1.247015 0.970149 0.120001
v 0.847015 -0.000074 -0.119999
v 0.877150 0.000074 -0.149999
v 0.769206 1.023047 -0.119999
v 0.814051 1.030000 -0.149999
v 0.783150 0.970000 -0.149999
v 0.752985 0.970149 -0.119999
v 0.877150 0.000074 0.150001
v 0.847015 -0.000074 0.120001
v 0.814051 1.030000 0.150001
v 0.769206 1.023047 0.120001
v 0.752985 0.970149 0.120001
v 0.783150 0.970000 0.150001
v 0.980794 1.276953 0.120001
v 1.000000 1.253138 0.150001
v 1.019206 1.276953 0.120001
v 1.019206 1.276953 -0.119999
v 1.000000 1.253138 -0.149999
v 0.980794 1.276953 -0.119999
vt 0.913608 0.886058
vt 0.902692 0.886058
vt 0.901785 0.880136
vt 0.914515 0.880136
vt 0.912640 0.784391
vt 0.915400 0.880151
vt 0.915400 0.880151
vt 0.912640 0.784391
vt 0.915400 0.907170
vt 0.912640 0.811410
vt 0.911756 0.811425
vt 0.914515 0.907155
vt 0.914515 0.907155
vt 0.911756 0.811425
vt 0.912640 0.811410
vt 0.915400 0.907170
vt 0.901785 0.907155
vt 0.904544 0.811425
vt 0.903660 0.811410
vt 0.900900 0.907170
vt 0.908714 0.937451
vt 0.908150 0.935101
vt 0.907586 0.937451
vt 0.914924 0.912391
vt 0.913608 0.913077
vt 0.907586 0.964471
vt 0.907586 0.964471
vt 0.908714 0.964471
vt 0.908714 0.964471
vt 0.908714 0.937451
vt 0.908150 0.935101
vt 0.901376 0.912391
vt 0.901376 0.912391
vt 0.900900 0.907170
vt 0.901785 0.907155
vt 0.902692 0.913077
vt 0.914515 0.880136
vt 0.911756 0.784405
vt 0.904544 0.784405
vt 0.901785 0.880136
vt 0.914924 0.912391
vt 0.904544 0.784405
vt 0.911756 0.784405
vt 0.902692 0.886058
vt 0.913608 0.886058
vt 0.913608 0.913077
vt 0.908150 0.908082
vt 0.908150 0.908082
vt 0.902692 0.913077
vt 0.907586 0.937451
vt 0.904544 0.811425
vt 0.903660 0.811410
vt 0.903660 0.784391
vt 0.900900 0.880151
vt 0.900900 0.880151
vt 0.903660 0.784391
vt 0.912553 0.820917
vt 0.933097 0.820917
vt 0.933097 0.807099
vt 0.912553 0.807099
vt 0.933097 0.850897
vt 0.912553 0.850897
vt 0.912553 0.850897
vt 0.933097 0.850897
vt 0.933097 0.816598
vt 0.912553 0.816598
vt 0.912553 0.819559
vt 0.933097 0.819559
vt 0.933097 0.847936
vt 0.912553 0.847936
vt 0.912553 0.777118
vt 0.933097 0.777118
vt 0.933097 0.780079
vt 0.912553 0.780079
vt 0.912553 0.847936
vt 0.933097 0.847936
vt 0.912553 0.777118
vt 0.933097 0.777118
vt 0.933097 0.807099
vt 0.933097 0.820917
vt 0.912553 0.820917
vt 0.912553 0.807099
vt 0.913608 0.886058
vt 0.902692 0.886058
vt 0.901785 0.880136
vt 0.914515 0.880136
vt 0.912640 0.784391
vt 0.915400 0.880151
vt 0.915400 0.880151
vt 0.912640 0.784391
vt 0.915400 0.907170
vt 0.912640 0.811410
vt 0.911756 0.811425
vt 0.914515 0.907155
vt 0.914515 0.907155
vt 0.911756 0.811425
vt 0.912640 0.811410
vt 0.915400 0.907170
vt 0.901785 0.907155
vt 0.904544 0.811425
vt 0.903660 0.811410
vt 0.900900 0.907170
vt 0.908714 0.937451
vt 0.908150 0.935101
vt 0.907586 0.937451
vt 0.914924 0.912391
vt 0.913608 0.913077
vt 0.907586 0.964471
vt 0.907586 0.964471
vt 0.908714 0.964471
vt 0.908714 0.964471
vt 0.908714 0.937451
vt 0.908150 0.935101
vt 0.901376 0.912391
vt 0.901376 0.912391
vt 0.900900 0.907170
vt 0.901785 0.907155
vt 0.902692 0.913077
vt 0.914515 0.880136
vt 0.911756 0.784405
vt 0.904544 0.784405
vt 0.901785 0.880136
vt 0.914924 0.912391
vt 0.904544 0.784405
vt 0.911756 0.784405
vt 0.902692 0.886058
vt 0.913608 0.886058
vt 0.913608 0.913077
vt 0.908150 0.908082
vt 0.908150 0.908082
vt 0.902692 0.913077
vt 0.907586 0.937451
vt 0.904544 0.811425
vt 0.903660 0.811410
vt 0.903660 0.784391
vt 0.900900 0.880151
vt 0.900900 0.880151
vt 0.903660 0.784391
vt 0.912553 0.860396
vt 0.933097 0.860396
vt 0.933097 0.846578
vt 0.912553 0.846578
vt 0.933097 0.890377
vt 0.912553 0.890377
vt 0.912553 0.890377
vt 0.933097 0.890377
vt 0.933097 0.887416
vt 0.912553 0.887416
vt 0.912553 0.816598
vt 0.933097 0.816598
vt 0.933097 0.819559
vt 0.912553 0.819559
vt 0.912553 0.887416
vt 0.933097 0.887416
vt 0.933097 0.846578
vt 0.933097 0.860396
vt 0.912553 0.860396
vt 0.912553 0.846578
vt 0.902692 0.886058
vt 0.913608 0.886058
vt 0.914515 0.880136
vt 0.901785 0.880136
vt 0.901376 0.912391
vt 0.902692 0.913077
vt 0.901785 0.907155
vt 0.900900 0.907170
vt 0.907586 0.937451
vt 0.901376 0.912391
vt 0.902692 0.913077
vt 0.908150 0.935101
vt 0.908150 0.908082
vt 0.902692 0.886058
vt 0.913608 0.886058
vt 0.901785 0.907155
vt 0.900900 0.907170
vt 0.908714 0.937451
vt 0.914924 0.912391
vt 0.913608 0.913077
vt 0.908150 0.935101
vt 0.908714 0.937451
vt 0.914924 0.912391
vt 0.913608 0.913077
vt 0.904544 0.811425
vt 0.903660 0.811410
vt 0.915400 0.907170
vt 0.915400 0.907170
vt 0.903660 0.784391
vt 0.900900 0.880151
vt 0.900900 0.880151
vt 0.903660 0.784391
vt 0.908150 0.908082
vt 0.907586 0.937451
vt 0.911756 0.784405
vt 0.904544 0.784405
vt 0.914515 0.907155
vt 0.914515 0.880136
vt 0.901785 0.880136
vt 0.904544 0.784405
vt 0.911756 0.784405
vt 0.914515 0.907155
vt 0.911756 0.811425
vt 0.912640 0.811410
vt 0.912640 0.784391
vt 0.915400 0.880151
vt 0.915400 0.880151
vt 0.912640 0.784391
vt 0.912640 0.811410
vt 0.911756 0.811425
vt 0.907586 0.964471
vt 0.907586 0.964471
vt 0.908714 0.964471
vt 0.908714 0.964471
vt 0.904544 0.811425
vt 0.903660 0.811410
vt 0.912553 0.780079
vt 0.933097 0.780079
vn -0.3250 0.2237 -0.9189
vn 0.3250 0.2237 -0.9189
vn 0.4116 0.0667 -0.9089
vn -0.4116 0.0667 -0.9089
vn -0.9163 -0.0888 0.3905
vn -0.9177 0.1033 0.3835
vn -0.9177 0.1033 -0.3835
vn -0.9163 -0.0888 -0.3905
vn -0.3614 -0.0350 0.9318
vn -0.4116 0.0667 0.9089
vn -0.3614 -0.0350 -0.9318
vn 0.4116 0.0667 0.9089
vn 0.3614 -0.0350 0.9318
vn 0.9163 -0.0888 0.3905
vn 0.9177 0.1033 0.3835
vn -0.4088 0.8428 0.3501
vn 0.0000 0.4607 0.8876
vn 0.4088 0.8428 0.3501
vn -0.8126 0.4386 -0.3839
vn 0.4088 0.8428 -0.3501
vn -0.4088 0.8428 -0.3501
vn 0.0000 0.4607 -0.8876
vn 0.8126 0.4386 -0.3839
vn 0.8126 0.4386 0.3839
vn 0.9177 0.1033 -0.3835
vn -0.8126 0.4386 0.3839
vn 0.3614 -0.0350 -0.9318
vn 0.3250 0.2237 0.9189
vn -0.3250 0.2237 0.9189
vn 0.9163 -0.0888 -0.3905
vn -0.0000 0.3827 0.9239
vn -0.0000 -0.3827 0.9239
vn -0.0000 0.9239 0.3827
vn 0.0000 0.9239 -0.3827
vn -0.0000 -0.9239 0.3827
vn 0.0000 -0.9239 -0.3827
vn 0.0000 -0.3827 -0.9239
vn 0.0000 0.3827 -0.9239
vn -0.0000 -1.0000 0.0050
vn -0.0000 -1.0000 0.0017
vn 0.0000 -1.0000 -0.0017
vn 0.0000 -1.0000 -0.0050
usemtl tiny_treats_1
s 1
f 23/1/1 35/2/2 36/3/3 22/4/4
f 19/5/5 16/6/6 21/7/7 26/8/8
f 16/9/6 19/10/5 20/11/9 15/12/10
f 22/13/4 25/14/11 26/15/8 21/16/7
f 28/17/12 31/18/13 32/19/14 27/20/15
f 14/21/16 13/22/17 12/23/18
f 24/24/19 23/25/1 22/13/4 21/16/7
f 12/26/18 11/27/20 9/28/21 14/29/16
f 24/24/19 9/30/21 10/31/22 23/25/1
f 34/32/23 30/33/24 27/20/15 33/34/25
f 36/35/3 35/36/2 34/32/23 33/34/25
f 15/37/10 20/38/9 31/39/13 28/40/12
f 17/41/26 14/21/16 9/30/21 24/24/19
f 22/4/4 36/3/3 38/42/27 25/43/11
f 29/44/28 18/45/29 15/37/10 28/40/12
f 17/41/26 24/24/19 21/16/7 16/9/6
f 14/21/16 17/41/26 18/46/29 13/22/17
f 10/47/22 35/2/2 23/1/1
f 13/48/17 18/45/29 29/44/28
f 30/33/24 29/49/28 28/17/12 27/20/15
f 18/46/29 17/41/26 16/9/6 15/12/10
f 11/50/20 34/32/23 35/36/2 10/31/22
f 38/51/27 36/35/3 33/34/25 37/52/30
f 37/53/30 33/54/25 27/55/15 32/56/14
f 12/23/18 30/33/24 34/32/23 11/50/20
f 30/33/24 12/23/18 13/22/17 29/49/28
f 11/50/20 10/31/22 9/30/21
f 54/57/31 7/58/31 6/59/32 51/60/32
f 8/61/33 53/62/33 50/63/34 3/64/34
f 43/65/35 90/66/35 89/67/32 44/68/32
f 53/62/33 8/61/33 7/69/31 54/70/31
f 47/71/36 2/72/36 1/73/37 48/74/37
f 3/64/34 50/63/34 49/75/38 4/76/38
f 52/77/35 5/78/35 2/72/36 47/71/36
f 1/79/37 4/80/38 49/81/38 48/82/37
f 69/83/1 81/84/2 82/85/3 68/86/4
f 65/87/5 62/88/6 67/89/7 72/90/8
f 62/91/6 65/92/5 66/93/9 61/94/10
f 68/95/4 71/96/11 72/97/8 67/98/7
f 74/99/12 77/100/13 78/101/14 73/102/15
f 60/103/16 59/104/17 58/105/18
f 70/106/19 69/107/1 68/95/4 67/98/7
f 58/108/18 57/109/20 55/110/21 60/111/16
f 70/106/19 55/112/21 56/113/22 69/107/1
f 80/114/23 76/115/24 73/102/15 79/116/25
f 82/117/3 81/118/2 80/114/23 79/116/25
f 61/119/10 66/120/9 77/121/13 74/122/12
f 63/123/26 60/103/16 55/112/21 70/106/19
f 68/86/4 82/85/3 84/124/27 71/125/11
f 75/126/28 64/127/29 61/119/10 74/122/12
f 63/123/26 70/106/19 67/98/7 62/91/6
f 60/103/16 63/123/26 64/128/29 59/104/17
f 56/129/22 81/84/2 69/83/1
f 59/130/17 64/127/29 75/126/28
f 76/115/24 75/131/28 74/99/12 73/102/15
f 64/128/29 63/123/26 62/91/6 61/94/10
f 57/132/20 80/114/23 81/118/2 56/113/22
f 84/133/27 82/117/3 79/116/25 83/134/30
f 83/135/30 79/136/25 73/137/15 78/138/14
f 58/105/18 76/115/24 80/114/23 57/132/20
f 76/115/24 58/105/18 59/104/17 75/131/28
f 57/132/20 56/113/22 55/112/21
f 92/139/31 45/140/31 44/141/32 89/142/32
f 46/143/33 91/144/33 88/145/34 41/146/34
f 91/144/33 46/143/33 45/147/31 92/148/31
f 85/149/36 40/150/36 39/151/37 86/152/37
f 41/146/34 88/145/34 87/153/38 42/154/38
f 90/66/35 43/65/35 40/150/36 85/149/36
f 39/155/37 42/156/38 87/157/38 86/158/37
f 102/159/28 113/160/29 116/161/10 103/162/12
f 101/163/24 102/164/28 103/165/12 104/166/15
f 120/167/20 97/168/23 96/169/2 121/170/22
f 121/171/22 96/172/2 108/173/1
f 95/174/3 96/169/2 97/168/23 98/175/25
f 117/176/16 114/177/26 113/178/29 118/179/17
f 114/177/26 117/176/16 122/180/21 107/181/19
f 107/181/19 122/180/21 121/170/22 108/182/1
f 93/183/27 95/174/3 98/175/25 94/184/30
f 114/177/26 107/181/19 110/185/7 115/186/6
f 94/187/30 98/188/25 104/189/15 99/190/14
f 118/191/17 113/160/29 102/159/28
f 119/192/18 101/163/24 97/168/23 120/167/20
f 101/163/24 119/192/18 118/179/17 102/164/28
f 116/161/10 111/193/9 100/194/13 103/162/12
f 113/178/29 114/177/26 115/186/6 116/195/10
f 97/168/23 101/163/24 104/166/15 98/175/25
f 109/196/4 95/197/3 93/198/27 106/199/11
f 120/167/20 121/170/22 122/180/21
f 109/200/4 106/201/11 105/202/8 110/185/7
f 117/176/16 118/179/17 119/192/18
f 112/203/5 115/204/6 110/205/7 105/206/8
f 115/186/6 112/207/5 111/208/9 116/195/10
f 108/173/1 96/172/2 95/197/3 109/196/4
f 119/209/18 120/210/20 122/211/21 117/212/16
f 103/165/12 100/213/13 99/214/14 104/166/15
f 107/181/19 108/182/1 109/200/4 110/185/7
f 5/78/35 52/77/35 51/215/32 6/216/32
f 31/18/39 20/11/39 19/10/40 32/19/40
f 37/53/41 32/19/40 19/5/40 26/8/41
f 25/14/42 38/51/42 37/53/41 26/15/41
f 77/100/39 66/93/39 65/92/40 78/101/40
f 83/135/41 78/101/40 65/87/40 72/90/41
f 71/96/42 84/133/42 83/135/41 72/97/41
f 99/214/40 100/194/39 111/208/39 112/207/40
f 112/207/40 105/206/41 94/187/41 99/214/40
f 93/198/42 94/187/41 105/202/41 106/199/42
