# Blender v3.4.1 OBJ File: 'Tiny_Treats_Homely_Home_ASSETS_EXPORT.blend'
# www.blender.org
mtllib letter.mtl
o letter
v 0.213125 -0.164295 0.032830
v 0.213125 -0.184295 0.013637
v 0.233125 -0.164295 0.013637
v 0.213125 0.145705 0.032830
v 0.233125 0.145705 0.013637
v 0.213125 0.165705 0.013637
v -0.246875 -0.164295 0.032830
v -0.266875 -0.164295 0.013637
v -0.246875 -0.184295 0.013637
v -0.246875 0.145705 0.032830
v -0.246875 0.165705 0.013637
v -0.266875 0.145705 0.013637
v 0.213125 -0.164295 -0.065534
v 0.233125 -0.164295 -0.046341
v 0.213125 -0.184295 -0.046341
v 0.213125 0.145705 -0.065534
v 0.213125 0.165705 -0.046341
v 0.233125 0.145705 -0.046341
v -0.266875 -0.164295 -0.046341
v -0.246875 -0.164295 -0.065534
v -0.246875 -0.184295 -0.046341
v -0.266875 0.145705 -0.046341
v -0.246875 0.165705 -0.046341
v -0.246875 0.145705 -0.065534
v -0.091526 0.007242 -0.065534
v 0.057776 0.007242 -0.065534
v -0.044199 -0.017112 -0.065534
v 0.010449 -0.017112 -0.065534
v 0.057776 0.007242 -0.104425
v -0.091526 0.007242 -0.104425
v 0.010449 -0.017112 -0.111265
v -0.044199 -0.017112 -0.111265
v 0.086550 0.033751 0.038735
v 0.086550 0.007659 0.038735
v -0.110300 0.033751 0.038735
v -0.110300 0.007659 0.038735
v -0.117531 -0.038713 0.029138
v 0.033781 -0.038713 0.029138
v -0.117531 0.000123 0.029138
v 0.033781 0.000123 0.029138
v -0.117531 -0.078713 0.029138
v 0.053781 -0.078713 0.029138
v -0.117531 -0.039877 0.029138
v 0.053781 -0.039877 0.029138
v 0.093781 0.040123 0.029138
v -0.117531 0.040123 0.029138
v 0.093781 0.001287 0.029138
v -0.117531 0.001287 0.029138
v -0.110300 -0.032341 0.038735
v -0.110300 -0.006249 0.038735
v 0.026550 -0.032341 0.038735
v 0.026550 -0.006249 0.038735
v -0.110300 -0.072341 0.038735
v -0.110300 -0.046249 0.038735
v 0.046550 -0.072341 0.038735
v 0.046550 -0.046249 0.038735
v 0.176550 0.113751 0.038735
v 0.176550 0.067659 0.038735
v 0.129700 0.113751 0.038735
v 0.129700 0.067659 0.038735
v 0.183781 0.120123 0.029138
v 0.122469 0.120123 0.029138
v 0.183781 0.061287 0.029138
v 0.122469 0.061287 0.029138
vt 0.394405 0.939008
vt 0.394405 0.939008
vt 0.480595 0.939008
vt 0.480595 0.939008
vt 0.423513 0.878096
vt 0.394405 0.845986
vt 0.394405 0.904014
vt 0.484343 0.845986
vt 0.484343 0.904014
vt 0.484343 0.904014
vt 0.484343 0.845986
vt 0.390657 0.845986
vt 0.390657 0.904014
vt 0.390657 0.904014
vt 0.390657 0.845986
vt 0.480595 0.814736
vt 0.480595 0.810992
vt 0.484343 0.814736
vt 0.480595 0.935264
vt 0.484343 0.935264
vt 0.394405 0.814736
vt 0.390657 0.814736
vt 0.394405 0.810992
vt 0.394405 0.935264
vt 0.390657 0.935264
vt 0.480595 0.814736
vt 0.484343 0.814736
vt 0.480595 0.810992
vt 0.480595 0.935264
vt 0.484343 0.935264
vt 0.390657 0.814736
vt 0.394405 0.814736
vt 0.394405 0.810992
vt 0.390657 0.935264
vt 0.394405 0.935264
vt 0.480595 0.904014
vt 0.451487 0.878096
vt 0.442620 0.873537
vt 0.432380 0.873537
vt 0.423513 0.878096
vt 0.480595 0.845986
vt 0.480595 0.904014
vt 0.394405 0.904014
vt 0.394405 0.845986
vt 0.423513 0.846846
vt 0.394405 0.872764
vt 0.423513 0.846846
vt 0.432380 0.873537
vt 0.442620 0.873537
vt 0.480595 0.845986
vt 0.432380 0.842287
vt 0.432380 0.842287
vt 0.442620 0.842287
vt 0.442620 0.842287
vt 0.451487 0.846846
vt 0.451487 0.846846
vt 0.480595 0.872764
vt 0.451487 0.878096
vt 0.333234 0.915500
vt 0.293640 0.915500
vt 0.294995 0.914308
vt 0.331878 0.914308
vt 0.294995 0.870686
vt 0.320637 0.870686
vt 0.320637 0.875570
vt 0.294995 0.875570
vt 0.294995 0.863199
vt 0.324384 0.863199
vt 0.324384 0.868083
vt 0.294995 0.868083
vt 0.293640 0.869276
vt 0.293640 0.862006
vt 0.293640 0.838243
vt 0.321991 0.838243
vt 0.320637 0.839436
vt 0.294995 0.839436
vt 0.293640 0.845731
vt 0.333234 0.845731
vt 0.331878 0.846924
vt 0.294995 0.846924
vt 0.293640 0.830756
vt 0.325739 0.830756
vt 0.324384 0.831949
vt 0.294995 0.831949
vt 0.321991 0.869493
vt 0.321991 0.876763
vt 0.294995 0.878174
vt 0.331878 0.878174
vt 0.331878 0.883058
vt 0.294995 0.883058
vt 0.325739 0.862006
vt 0.325739 0.869276
vt 0.293640 0.884250
vt 0.293640 0.876981
vt 0.321991 0.908013
vt 0.293640 0.908013
vt 0.294995 0.906820
vt 0.320637 0.906820
vt 0.293640 0.876763
vt 0.293640 0.869493
vt 0.325739 0.900526
vt 0.293640 0.900526
vt 0.294995 0.899333
vt 0.324384 0.899333
vt 0.333234 0.876981
vt 0.333234 0.884250
vt 0.350097 0.430475
vt 0.338608 0.430475
vt 0.339964 0.429283
vt 0.348742 0.429283
vt 0.338608 0.356962
vt 0.350097 0.356962
vt 0.348742 0.358155
vt 0.339964 0.358155
vt 0.339964 0.389405
vt 0.348742 0.389405
vt 0.348742 0.398033
vt 0.339964 0.398033
vt 0.338608 0.399225
vt 0.338608 0.388212
vt 0.350097 0.388212
vt 0.350097 0.399225
vn 0.0000 1.0000 0.0000
vn 0.0000 0.0000 -1.0000
vn -0.3344 -0.3344 -0.8811
vn -0.3302 0.3695 -0.8686
vn 0.8727 -0.3404 -0.3499
vn 0.8727 0.3404 -0.3499
vn 0.8727 0.3404 0.3499
vn 0.8727 -0.3404 0.3499
vn -0.8727 -0.3404 0.3499
vn -0.8727 0.3404 0.3499
vn -0.8727 0.3404 -0.3499
vn -0.8727 -0.3404 -0.3499
vn 0.3344 -0.3344 0.8811
vn 0.4591 -0.7527 0.4719
vn 0.3344 0.3344 0.8811
vn 0.4591 0.7527 0.4719
vn -0.3344 -0.3344 0.8811
vn -0.4591 -0.7527 0.4719
vn -0.3344 0.3344 0.8811
vn -0.4591 0.7527 0.4719
vn 0.3344 -0.3344 -0.8811
vn 0.4591 -0.7527 -0.4719
vn 0.3302 0.3695 -0.8686
vn 0.4591 0.7527 -0.4719
vn -0.4591 -0.7527 -0.4719
vn -0.4591 0.7527 -0.4719
vn -0.0000 0.2704 -0.9627
vn 0.0000 -1.0000 0.0000
vn -0.5660 -0.8244 -0.0000
vn -0.6654 -0.7465 -0.0000
vn -0.5553 -0.8316 -0.0000
vn -0.2254 -0.9743 -0.0000
vn -0.2354 -0.9719 -0.0000
vn 0.2254 -0.9743 -0.0000
vn 0.2354 -0.9719 -0.0000
vn 0.5553 -0.8316 0.0000
vn 0.5660 -0.8244 0.0000
vn 0.6654 -0.7465 0.0000
vn 0.0000 0.8331 0.5532
vn 0.0000 -0.0000 1.0000
vn -0.7987 -0.0000 0.6017
vn 0.0000 -0.8331 0.5532
vn 0.7987 -0.0000 0.6017
usemtl tiny_treats_1
s 1
f 23/1/1 11/2/1 6/3/1 17/4/1
f 25/5/2 20/6/3 24/7/4
f 14/8/5 18/9/6 5/10/7 3/11/8
f 8/12/9 12/13/10 22/14/11 19/15/12
f 1/16/13 2/17/14 3/18/8
f 4/19/15 5/20/7 6/3/16
f 7/21/17 8/22/9 9/23/18
f 10/24/19 11/2/20 12/25/10
f 13/26/21 14/27/5 15/28/22
f 16/29/23 17/4/24 18/30/6
f 19/31/12 20/32/3 21/33/25
f 22/34/11 23/1/26 24/35/4
f 9/23/18 2/17/14 1/16/13 7/21/17
f 6/3/16 11/2/20 10/24/19 4/19/15
f 21/33/25 9/23/18 8/22/9 19/31/12
f 11/2/20 23/1/26 22/34/11 12/25/10
f 15/28/22 21/33/25 20/32/3 13/26/21
f 24/7/4 16/36/23 29/37/27 31/38/27 32/39/27 30/40/27
f 2/17/14 15/28/22 14/27/5 3/18/8
f 17/4/24 6/3/16 5/20/7 18/30/6
f 1/41/13 4/42/15 10/43/19 7/44/17
f 3/11/8 5/10/7 4/42/15 1/41/13
f 12/13/10 8/12/9 7/44/17 10/43/19
f 24/7/4 20/6/3 19/15/12 22/14/11
f 9/23/28 21/33/28 15/28/28 2/17/28
f 25/45/29 24/46/30 30/47/31
f 20/6/3 27/48/2 28/49/2 13/50/21
f 23/1/26 17/4/24 16/29/23 24/35/4
f 25/45/29 30/47/31 32/51/32 27/52/33
f 27/52/33 32/51/32 31/53/34 28/54/35
f 28/54/35 31/53/34 29/55/36 26/56/37
f 16/57/38 26/56/37 29/55/36
f 16/36/23 13/50/21 26/58/2
f 27/48/2 20/6/3 25/5/2
f 13/50/21 28/49/2 26/58/2
f 18/9/6 14/8/5 13/50/21 16/36/23
f 45/59/39 46/60/39 35/61/39 33/62/39
f 49/63/40 51/64/40 52/65/40 50/66/40
f 53/67/40 55/68/40 56/69/40 54/70/40
f 43/71/41 41/72/41 53/67/41 54/70/41
f 37/73/42 38/74/42 51/75/42 49/76/42
f 48/77/42 47/78/42 34/79/42 36/80/42
f 41/81/42 42/82/42 55/83/42 53/84/42
f 38/85/43 40/86/43 52/65/43 51/64/43
f 36/87/40 34/88/40 33/89/40 35/90/40
f 42/91/43 44/92/43 56/69/43 55/68/43
f 46/93/41 48/94/41 36/87/41 35/90/41
f 40/95/39 39/96/39 50/97/39 52/98/39
f 39/99/41 37/100/41 49/63/41 50/66/41
f 44/101/39 43/102/39 54/103/39 56/104/39
f 47/105/43 45/106/43 33/89/43 34/88/43
f 61/107/39 62/108/39 59/109/39 57/110/39
f 64/111/42 63/112/42 58/113/42 60/114/42
f 60/115/40 58/116/40 57/117/40 59/118/40
f 62/119/41 64/120/41 60/115/41 59/118/41
f 63/121/43 61/122/43 57/117/43 58/116/43
