# Blender v3.4.1 OBJ File: 'Tiny_Treats_Homely_Home_ASSETS_EXPORT.blend'
# www.blender.org
mtllib mailbox_flag.mtl
o mailbox_flag
v 0.192902 1.389997 0.620000
v 0.282900 1.389997 0.680000
v 0.192902 1.347571 0.637573
v 0.192902 1.329997 0.680000
v 0.192902 1.347571 0.722426
v 0.192902 1.389997 0.740000
v 0.192902 1.432424 0.722426
v 0.192902 1.449997 0.680000
v 0.192902 1.432424 0.637574
v 0.282900 1.347571 0.637573
v 0.282900 1.389997 0.620000
v 0.282900 1.329997 0.680000
v 0.282900 1.347571 0.722426
v 0.282900 1.389997 0.740000
v 0.282900 1.432424 0.722426
v 0.282900 1.449997 0.680000
v 0.282900 1.432424 0.637574
v 0.222903 1.389997 0.710000
v 0.222903 1.389997 0.650000
v 0.267903 1.389997 0.710000
v 0.267903 1.389997 0.650000
v 0.222903 1.619997 0.710000
v 0.267903 1.619997 0.710000
v 0.222903 1.689997 0.665000
v 0.222903 1.674997 0.650000
v 0.267903 1.674997 0.650000
v 0.267903 1.689997 0.665000
v 0.222903 1.619997 0.785000
v 0.222903 1.634997 0.800000
v 0.222903 1.674997 0.800000
v 0.222903 1.689997 0.785000
v 0.267903 1.689997 0.785000
v 0.267903 1.674997 0.800000
v 0.267903 1.634997 0.800000
v 0.267903 1.619997 0.785000
vt 0.324011 0.366326
vt 0.329121 0.366326
vt 0.329121 0.365328
vt 0.324011 0.365328
vt 0.329121 0.397576
vt 0.329121 0.396578
vt 0.329121 0.399985
vt 0.329121 0.399985
vt 0.329121 0.402394
vt 0.329121 0.403392
vt 0.329121 0.402394
vt 0.329121 0.399985
vt 0.324011 0.399985
vt 0.329121 0.397576
vt 0.324011 0.397576
vt 0.324011 0.402394
vt 0.324011 0.397576
vt 0.324011 0.399985
vt 0.324011 0.402394
vt 0.324011 0.433644
vt 0.329121 0.433644
vt 0.329121 0.434642
vt 0.324011 0.434642
vt 0.329121 0.433644
vt 0.324011 0.433644
vt 0.329121 0.366326
vt 0.324011 0.366326
vt 0.328270 0.399985
vt 0.328270 0.416168
vt 0.328270 0.413045
vt 0.328270 0.399985
vt 0.328270 0.448270
vt 0.325715 0.448270
vt 0.325715 0.448270
vt 0.328270 0.448270
vt 0.325715 0.417020
vt 0.325715 0.413045
vt 0.325715 0.413897
vt 0.325715 0.416168
vt 0.325715 0.399985
vt 0.325715 0.399985
vt 0.325715 0.413045
vt 0.325715 0.416168
vt 0.325715 0.381795
vt 0.328270 0.381795
vt 0.328270 0.381795
vt 0.325715 0.381795
vt 0.328270 0.413045
vt 0.328270 0.417020
vt 0.328270 0.416168
vt 0.328270 0.413897
vt 0.328270 0.417020
vt 0.325715 0.463895
vt 0.328270 0.463895
vt 0.328270 0.463043
vt 0.325715 0.463043
vt 0.328270 0.463895
vt 0.325715 0.463895
vt 0.325715 0.463043
vt 0.328270 0.463043
vt 0.328270 0.398272
vt 0.325715 0.398272
vt 0.325715 0.397420
vt 0.328270 0.397420
vt 0.325715 0.417020
vn 0.0000 -0.7071 -0.7071
vn 0.0000 -1.0000 0.0000
vn 1.0000 0.0000 0.0000
vn 0.0000 0.0000 -1.0000
vn 0.0000 0.7071 -0.7071
vn 0.0000 -0.7071 0.7071
vn 0.0000 0.0000 1.0000
vn 0.0000 0.7071 0.7071
vn 0.0000 1.0000 -0.0000
vn 0.0000 0.9239 -0.3827
vn 0.0000 0.9239 0.3827
vn -1.0000 0.0000 0.0000
vn 0.0000 -0.9239 0.3827
vn 0.0000 -0.3827 0.9239
vn 0.0000 0.3827 0.9239
vn 0.0000 0.3827 -0.9239
usemtl tiny_treats_1
s 1
f 3/1/1 10/2/1 12/3/2 4/4/2
f 13/5/3 12/6/3 2/7/3
f 14/8/3 13/5/3 2/7/3
f 15/9/3 14/8/3 2/7/3
f 16/10/3 15/9/3 2/7/3
f 17/11/3 16/10/3 2/7/3
f 11/12/3 17/11/3 2/7/3
f 1/13/4 11/12/4 10/14/1 3/15/1
f 9/16/5 17/11/5 11/12/4 1/13/4
f 5/17/6 13/5/6 14/8/7 6/18/7
f 6/18/7 14/8/7 15/9/8 7/19/8
f 7/20/8 15/21/8 16/22/9 8/23/9
f 8/23/9 16/22/9 17/24/5 9/25/5
f 4/4/2 12/3/2 13/26/6 5/27/6
f 12/6/3 10/14/3 2/7/3
f 2/7/3 10/14/3 11/12/3
f 21/28/3 26/29/3 23/30/3 20/31/3
f 27/32/10 24/33/10 31/34/11 32/35/11
f 31/36/12 28/37/12 29/38/12 30/39/12
f 19/40/2 21/28/2 20/31/2 18/41/2
f 18/41/12 22/42/12 25/43/12 19/40/12
f 20/31/7 23/30/7 22/42/7 18/41/7
f 22/44/2 23/45/2 35/46/13 28/47/13
f 35/48/3 32/49/3 33/50/3 34/51/3
f 27/52/3 32/49/3 35/48/3 23/30/3
f 34/51/14 33/50/15 30/39/15 29/38/14
f 24/53/10 27/54/10 26/55/16 25/56/16
f 32/57/11 31/58/11 30/59/15 33/60/15
f 34/61/14 29/62/14 28/63/13 35/64/13
f 26/29/3 27/52/3 23/30/3
f 19/40/4 25/43/16 26/29/16 21/28/4
f 25/43/12 22/42/12 24/65/12
f 22/42/12 28/37/12 31/36/12 24/65/12
