# Blender v3.4.1 OBJ File: 'Tiny_Treats_Homely_Home_ASSETS_EXPORT.blend'
# www.blender.org
mtllib package.mtl
o package
v -0.424816 -0.000000 0.324825
v -0.424816 0.050000 0.374798
v -0.474794 0.050000 0.324825
v -0.424816 0.420000 0.374798
v -0.424816 0.470000 0.324825
v -0.474794 0.420000 0.324825
v -0.424816 0.000000 -0.319826
v -0.474794 0.050000 -0.319826
v -0.424816 0.050000 -0.369799
v -0.424816 0.470000 -0.319826
v -0.424816 0.420000 -0.369799
v -0.474794 0.420000 -0.319826
v 0.419818 -0.000000 0.324825
v 0.469797 0.050000 0.324825
v 0.419818 0.050000 0.374798
v 0.419818 0.470000 0.324825
v 0.419818 0.420000 0.374798
v 0.469797 0.420000 0.324825
v 0.419818 0.000000 -0.319826
v 0.419818 0.050000 -0.369799
v 0.469797 0.050000 -0.319826
v 0.419818 0.470000 -0.319826
v 0.469797 0.420000 -0.319826
v 0.419818 0.420000 -0.369799
v -0.049980 0.000000 -0.319826
v 0.049976 0.000000 -0.319826
v -0.049980 0.050000 -0.369799
v 0.049976 0.050000 -0.369799
v -0.049980 0.470000 -0.319826
v 0.049976 0.470000 -0.319826
v 0.049976 0.420000 -0.369799
v -0.049980 0.420000 -0.369799
v 0.049976 -0.000000 0.324825
v -0.049980 -0.000000 0.324825
v 0.049976 0.050000 0.374798
v -0.049980 0.050000 0.374798
v 0.049976 0.470000 0.324825
v -0.049980 0.470000 0.324825
v -0.049980 0.420000 0.374798
v 0.049976 0.420000 0.374798
v 0.469797 0.420000 -0.049972
v 0.469797 0.420000 0.049974
v 0.419818 0.470000 -0.049972
v 0.419818 0.470000 0.049974
v 0.469797 0.050000 0.049974
v 0.469797 0.050000 -0.049972
v 0.419818 0.000000 -0.049972
v 0.419818 -0.000000 0.049974
v -0.474794 0.420000 0.049974
v -0.474794 0.420000 -0.049972
v -0.424816 0.470000 -0.049972
v -0.424816 0.470000 0.049974
v -0.474794 0.050000 -0.049972
v -0.474794 0.050000 0.049974
v -0.424816 -0.000000 0.049974
v -0.424816 0.000000 -0.049972
v 0.049976 -0.000000 0.049974
v 0.049976 0.000000 -0.049972
v -0.049980 0.000000 -0.049972
v -0.049980 -0.000000 0.049974
v -0.049980 0.470000 0.049974
v -0.049980 0.470000 -0.049972
v 0.049976 0.470000 -0.049972
v 0.049976 0.470000 0.049974
v 0.039983 0.497716 0.336300
v -0.039983 0.497716 0.336300
v -0.039983 0.431480 0.402500
v 0.039983 0.431480 0.402500
v 0.039983 0.038519 0.402500
v -0.039983 0.038519 0.402500
v -0.039983 0.497716 -0.331300
v 0.039983 0.497716 -0.331300
v 0.039983 0.431481 -0.397500
v -0.039983 0.431481 -0.397500
v -0.039983 0.038520 -0.397500
v 0.039983 0.038520 -0.397500
v 0.497501 0.431481 -0.039977
v 0.497501 0.431481 0.039979
v 0.497501 0.038519 0.039979
v 0.497501 0.038519 -0.039977
v 0.431294 0.497716 -0.039977
v 0.431294 0.497716 0.039979
v -0.502499 0.431481 0.039979
v -0.502499 0.431481 -0.039977
v -0.502499 0.038519 -0.039977
v -0.502499 0.038519 0.039979
v -0.436292 0.497716 -0.039977
v -0.436292 0.497716 0.039979
v -0.039983 0.500000 0.039979
v -0.039983 0.500000 -0.039977
v 0.039983 0.500000 -0.039977
v 0.039983 0.500000 0.039979
v 0.366137 0.476000 -0.266059
v 0.253577 0.476000 -0.266059
v 0.366137 0.476000 -0.188683
v 0.253577 0.476000 -0.188683
v 0.376133 0.466000 -0.276054
v 0.243581 0.466000 -0.276054
v 0.376133 0.466000 -0.178688
v 0.243581 0.466000 -0.178688
v -0.133625 0.476000 0.103736
v -0.366133 0.476000 0.103736
v -0.133625 0.476000 0.141134
v -0.366133 0.476000 0.141134
v -0.123629 0.466000 0.093741
v -0.376129 0.466000 0.093741
v -0.123629 0.466000 0.151128
v -0.376129 0.466000 0.151128
v -0.193599 0.476000 0.173698
v -0.366133 0.476000 0.173698
v -0.193599 0.476000 0.211096
v -0.366133 0.476000 0.211096
v -0.183603 0.466000 0.163703
v -0.376129 0.466000 0.163703
v -0.183603 0.466000 0.221090
v -0.376129 0.466000 0.221090
v -0.233582 0.476000 0.243660
v -0.366133 0.476000 0.243660
v -0.233582 0.476000 0.281058
v -0.366133 0.476000 0.281058
v -0.223586 0.466000 0.233665
v -0.376129 0.466000 0.233665
v -0.223586 0.466000 0.291052
v -0.376129 0.466000 0.291052
vt 0.972953 0.829493
vt 0.972953 0.858007
vt 0.941905 0.858007
vt 0.941905 0.829493
vt 0.972953 0.893451
vt 0.941905 0.893451
vt 0.941905 0.893451
vt 0.972953 0.893451
vt 0.902047 0.893451
vt 0.933514 0.893451
vt 0.933514 0.889257
vt 0.902047 0.889257
vt 0.902047 0.893451
vt 0.897851 0.889257
vt 0.897851 0.889257
vt 0.902047 0.829493
vt 0.902047 0.858007
vt 0.933514 0.858007
vt 0.933514 0.829493
vt 0.902047 0.794049
vt 0.902047 0.798243
vt 0.897851 0.798243
vt 0.902047 0.889257
vt 0.902047 0.893451
vt 0.897851 0.889257
vt 0.902047 0.794049
vt 0.897851 0.798243
vt 0.902047 0.798243
vt 0.972953 0.794049
vt 0.977148 0.798243
vt 0.972953 0.798243
vt 0.972953 0.889257
vt 0.977148 0.889257
vt 0.972953 0.794049
vt 0.972953 0.798243
vt 0.977148 0.798243
vt 0.972953 0.893451
vt 0.977148 0.889257
vt 0.972953 0.889257
vt 0.902047 0.794049
vt 0.933514 0.794049
vt 0.933514 0.794049
vt 0.902047 0.829493
vt 0.902047 0.858007
vt 0.897851 0.858007
vt 0.897851 0.829493
vt 0.902047 0.893451
vt 0.897851 0.889257
vt 0.897851 0.829493
vt 0.897851 0.858007
vt 0.897851 0.858007
vt 0.897851 0.829493
vt 0.902047 0.794049
vt 0.897851 0.798243
vt 0.977148 0.858007
vt 0.977148 0.829493
vt 0.972953 0.829493
vt 0.972953 0.858007
vt 0.941905 0.794049
vt 0.972953 0.794049
vt 0.941905 0.794049
vt 0.972953 0.893451
vt 0.977148 0.889257
vt 0.977148 0.829493
vt 0.977148 0.858007
vt 0.933514 0.798243
vt 0.941905 0.889257
vt 0.941905 0.829493
vt 0.941905 0.858007
vt 0.941905 0.798243
vt 0.897851 0.967382
vt 0.902047 0.971576
vt 0.901084 0.973900
vt 0.895526 0.968345
vt 0.933514 0.829493
vt 0.933514 0.858007
vt 0.941905 0.794049
vt 0.941905 0.798243
vt 0.933514 0.794049
vt 0.933514 0.798243
vt 0.941905 0.893451
vt 0.941905 0.893451
vt 0.941905 0.889257
vt 0.933514 0.893451
vt 0.933514 0.889257
vt 0.933514 0.872174
vt 0.933514 0.876368
vt 0.934354 0.875405
vt 0.902047 0.971576
vt 0.897851 0.967382
vt 0.895526 0.968345
vt 0.901084 0.973900
vt 0.977148 0.907618
vt 0.977148 0.936132
vt 0.979474 0.937095
vt 0.979474 0.906655
vt 0.933514 0.967382
vt 0.933514 0.971576
vt 0.934354 0.973900
vt 0.934354 0.968345
vt 0.941905 0.971576
vt 0.941905 0.971576
vt 0.941066 0.973900
vt 0.941066 0.974092
vt 0.897851 0.936132
vt 0.897851 0.907618
vt 0.895526 0.906655
vt 0.895526 0.937095
vt 0.941905 0.971576
vt 0.941905 0.971576
vt 0.941066 0.974092
vt 0.941066 0.973900
vt 0.933514 0.794049
vt 0.933514 0.971576
vt 0.933514 0.971576
vt 0.934354 0.973900
vt 0.934354 0.974092
vt 0.977148 0.936132
vt 0.977148 0.907618
vt 0.979474 0.906655
vt 0.979474 0.937095
vt 0.972953 0.794049
vt 0.977148 0.798243
vt 0.977148 0.829493
vt 0.977148 0.858007
vt 0.977148 0.798243
vt 0.933514 0.893451
vt 0.941905 0.794049
vt 0.933514 0.893451
vt 0.897851 0.798243
vt 0.897851 0.829493
vt 0.897851 0.858007
vt 0.977148 0.889257
vt 0.941905 0.967382
vt 0.941066 0.968345
vt 0.933514 0.971576
vt 0.934354 0.974092
vt 0.897851 0.876368
vt 0.901084 0.869850
vt 0.895526 0.875405
vt 0.902047 0.872174
vt 0.897851 0.876368
vt 0.895526 0.875405
vt 0.933514 0.876368
vt 0.934354 0.869850
vt 0.934354 0.875405
vt 0.972953 0.971576
vt 0.973916 0.973900
vt 0.972953 0.971576
vt 0.973916 0.973900
vt 0.941905 0.872174
vt 0.941905 0.876368
vt 0.941066 0.875405
vt 0.977148 0.967382
vt 0.979474 0.968345
vt 0.941905 0.907618
vt 0.941905 0.936132
vt 0.941066 0.937095
vt 0.941066 0.906655
vt 0.977148 0.858007
vt 0.977148 0.829493
vt 0.941066 0.869850
vt 0.941066 0.869658
vt 0.934354 0.869658
vt 0.934354 0.869850
vt 0.934354 0.968345
vt 0.941066 0.968345
vt 0.941066 0.869850
vt 0.941066 0.875405
vt 0.941066 0.937095
vt 0.941066 0.906655
vt 0.934354 0.906655
vt 0.934354 0.937095
vt 0.934354 0.937095
vt 0.934354 0.906655
vt 0.941066 0.869658
vt 0.934354 0.869658
vt 0.973916 0.869850
vt 0.973916 0.869850
vt 0.979474 0.968345
vt 0.901084 0.869850
vt 0.895526 0.906655
vt 0.895526 0.937095
vt 0.979474 0.875405
vt 0.979474 0.875405
vt 0.897851 0.907618
vt 0.897851 0.936132
vt 0.972953 0.872174
vt 0.977148 0.876368
vt 0.941905 0.876368
vt 0.977148 0.876368
vt 0.941905 0.936132
vt 0.941905 0.907618
vt 0.933514 0.967382
vt 0.933514 0.907618
vt 0.933514 0.936132
vt 0.933514 0.936132
vt 0.933514 0.907618
vt 0.977148 0.967382
vt 0.941905 0.967382
vt 0.343447 0.393954
vt 0.333997 0.393954
vt 0.333997 0.393954
vt 0.343447 0.393954
vt 0.343447 0.362704
vt 0.344286 0.361865
vt 0.333158 0.361865
vt 0.333997 0.362704
vt 0.333158 0.361865
vt 0.333997 0.362704
vt 0.344286 0.361865
vt 0.343447 0.362704
vt 0.301492 0.893954
vt 0.281973 0.893954
vt 0.281973 0.893954
vt 0.301492 0.893954
vt 0.301492 0.862704
vt 0.302331 0.861865
vt 0.281134 0.861865
vt 0.281973 0.862704
vt 0.281134 0.861865
vt 0.281973 0.862704
vt 0.302331 0.861865
vt 0.301492 0.862704
vt 0.296458 0.893954
vt 0.281973 0.893954
vt 0.281973 0.893954
vt 0.296458 0.893954
vt 0.296458 0.862704
vt 0.297297 0.861865
vt 0.281134 0.861865
vt 0.281973 0.862704
vt 0.281134 0.861865
vt 0.281973 0.862704
vt 0.297297 0.861865
vt 0.296458 0.862704
vt 0.293101 0.893954
vt 0.281973 0.893954
vt 0.281973 0.893954
vt 0.293101 0.893954
vt 0.293101 0.862704
vt 0.293940 0.861865
vt 0.281134 0.861865
vt 0.281973 0.862704
vt 0.281134 0.861865
vt 0.281973 0.862704
vt 0.293940 0.861865
vt 0.293101 0.862704
vn 0.3416 -0.3415 0.8756
vn 0.3416 0.3415 0.8756
vn 0.0000 0.3826 0.9239
vn 0.0000 -0.3826 0.9239
vn 0.0000 1.0000 0.0000
vn -0.4607 0.7586 -0.4607
vn 0.0000 0.7069 -0.7073
vn 0.0000 0.3826 -0.9239
vn -0.3416 0.3415 -0.8756
vn -0.7073 0.7070 0.0000
vn -0.8756 0.3415 -0.3416
vn -0.9239 0.3826 0.0000
vn -0.3416 -0.3415 -0.8756
vn 0.0000 -0.3826 -0.9239
vn -0.4607 -0.7586 0.4607
vn -0.3416 -0.3415 0.8756
vn -0.8756 -0.3415 0.3416
vn -0.3416 0.3415 0.8756
vn -0.4607 0.7587 0.4607
vn -0.8756 0.3415 0.3416
vn -0.4607 -0.7586 -0.4607
vn -0.8756 -0.3415 -0.3416
vn 0.4607 -0.7586 0.4607
vn 0.8756 -0.3415 0.3416
vn 0.4607 0.7587 0.4607
vn 0.8756 0.3415 0.3416
vn 0.4607 -0.7586 -0.4607
vn 0.3416 -0.3415 -0.8756
vn 0.8756 -0.3415 -0.3416
vn 0.4607 0.7586 -0.4607
vn 0.8756 0.3415 -0.3416
vn 0.3416 0.3415 -0.8756
vn -0.1440 -0.9896 -0.0000
vn 0.0000 -1.0000 -0.0000
vn 0.0000 -0.9896 0.1440
vn -0.9239 -0.3826 -0.0000
vn -0.7073 -0.7070 -0.0000
vn 0.0000 -0.9896 -0.1440
vn 0.1440 -0.9896 -0.0000
vn 0.7073 0.7070 0.0000
vn 0.9239 0.3826 0.0000
vn 0.0000 -0.7069 0.7073
vn 0.0000 0.7069 0.7073
vn 0.0000 -0.7069 -0.7073
vn -0.2921 0.1209 0.9487
vn -0.1215 0.2859 0.9505
vn -0.1212 0.2860 0.9505
vn -0.2921 0.1210 0.9487
vn -0.9406 -0.2399 -0.2401
vn -0.9487 -0.1210 -0.2922
vn -0.9484 -0.1007 -0.3006
vn -0.1215 0.2859 -0.9505
vn -0.2921 0.1209 -0.9487
vn -0.2921 0.1210 -0.9487
vn -0.1212 0.2860 -0.9505
vn 0.2921 -0.1209 -0.9487
vn 0.2921 0.1209 -0.9487
vn 0.2921 0.1210 -0.9487
vn 0.3005 -0.1007 -0.9485
vn -0.9487 0.1210 -0.2922
vn -0.9505 0.2859 -0.1217
vn -0.9505 0.2861 -0.1213
vn 0.9450 0.3272 -0.0013
vn 0.9505 0.2858 -0.1217
vn 0.9505 0.2860 -0.1212
vn -0.2921 -0.1209 -0.9487
vn -0.3005 -0.1007 -0.9485
vn 0.9505 0.2858 0.1216
vn 0.9450 0.3272 0.0013
vn 0.9505 0.2860 0.1212
vn -0.9449 0.3273 0.0013
vn -0.9505 0.2859 0.1217
vn -0.9505 0.2861 0.1213
vn 0.2921 0.1209 0.9487
vn 0.2921 -0.1209 0.9487
vn 0.3004 -0.1007 0.9485
vn 0.2921 0.1210 0.9487
vn 0.7073 -0.7070 -0.0000
vn 0.9239 -0.3826 -0.0000
vn 0.9487 0.1209 -0.2921
vn 0.9487 0.1210 -0.2921
vn -0.9449 0.3273 -0.0013
vn -0.2400 -0.2399 -0.9407
vn -0.2400 -0.2399 0.9407
vn -0.2921 -0.1209 0.9487
vn -0.3004 -0.1007 0.9485
vn -0.9487 -0.1210 0.2922
vn -0.9406 -0.2399 0.2401
vn -0.9484 -0.1007 0.3006
vn 0.1215 0.2859 -0.9505
vn 0.0010 0.3273 -0.9449
vn 0.1212 0.2860 -0.9505
vn 0.0010 0.3272 0.9449
vn 0.1215 0.2859 0.9505
vn 0.1212 0.2860 0.9505
vn 0.9407 -0.2398 0.2400
vn 0.9487 -0.1209 0.2921
vn 0.9485 -0.1007 0.3004
vn 0.9487 0.1209 0.2921
vn 0.9487 0.1210 0.2921
vn 0.0000 0.9223 -0.3864
vn -0.0019 1.0000 -0.0026
vn 0.0019 1.0000 -0.0026
vn 0.0000 0.9223 0.3864
vn 0.0000 -0.8959 0.4443
vn 0.0000 -0.8959 -0.4443
vn 0.0000 0.0000 -1.0000
vn 0.0000 -0.0000 1.0000
vn -0.0019 1.0000 0.0026
vn 0.0019 1.0000 0.0026
vn 1.0000 -0.0000 0.0000
vn 0.3855 0.9227 0.0000
vn -1.0000 -0.0000 0.0000
vn -0.3854 0.9227 0.0000
vn -0.4442 -0.8959 -0.0000
vn 0.4442 -0.8959 -0.0000
vn 0.2400 -0.2399 -0.9407
vn 0.9487 -0.1209 -0.2921
vn 0.9407 -0.2398 -0.2400
vn 0.9485 -0.1007 -0.3004
vn 0.2400 -0.2399 0.9407
vn -0.0010 0.3272 0.9449
vn -0.9487 0.1210 0.2922
vn -0.0010 0.3273 -0.9449
usemtl tiny_treats_1
s 1
f 15/1/1 17/2/2 40/3/3 35/4/4
f 44/5/5 64/6/5 37/7/5 16/8/5
f 10/9/6 29/10/7 32/11/8 11/12/9
f 51/13/10 10/9/6 12/14/11 50/15/12
f 9/16/13 11/17/9 32/18/8 27/19/14
f 1/20/15 2/21/16 3/22/17
f 4/23/18 5/24/19 6/25/20
f 7/26/21 8/27/22 9/28/13
f 10/9/6 11/12/9 12/14/11
f 13/29/23 14/30/24 15/31/1
f 16/8/25 17/32/2 18/33/26
f 19/34/27 20/35/28 21/36/29
f 22/37/30 23/38/31 24/39/32
f 55/40/33 60/41/34 34/42/35 1/20/34
f 2/43/16 4/44/18 6/45/20 3/46/17
f 5/24/19 52/47/10 49/48/12 6/25/20
f 11/17/9 9/16/13 8/49/22 12/50/11
f 3/46/17 6/45/20 49/51/12 54/52/36
f 7/26/21 56/53/37 53/54/36 8/27/22
f 23/55/31 21/56/29 20/57/28 24/58/32
f 26/59/38 19/34/34 47/60/39 58/61/34
f 22/37/30 43/62/40 41/63/41 23/38/31
f 17/2/2 15/1/1 14/64/24 18/65/26
f 1/20/15 34/42/42 36/66/4 2/21/16
f 16/8/25 37/7/43 40/67/3 17/32/2
f 28/68/14 31/69/8 24/58/32 20/57/28
f 19/34/27 26/59/44 28/70/14 20/35/28
f 49/71/45 52/72/46 88/73/47 83/74/48
f 36/75/4 39/76/3 4/44/18 2/43/16
f 33/77/42 13/29/23 15/31/1 35/78/4
f 25/79/44 7/26/21 9/28/13 27/80/14
f 22/37/5 30/81/5 63/82/5 43/62/5
f 30/81/7 22/37/30 24/39/32 31/83/8
f 38/84/43 5/24/19 4/23/18 39/85/3
f 25/86/49 27/87/50 75/88/51
f 51/89/52 50/90/53 84/91/54 87/92/55
f 46/93/56 41/94/57 77/95/58 80/96/59
f 32/97/60 29/98/61 71/99/62 74/100/60
f 63/101/63 30/102/64 72/103/65 91/104/63
f 50/105/53 53/106/66 85/107/67 84/108/54
f 37/109/68 64/110/69 92/111/69 65/112/70
f 7/26/34 25/79/38 59/113/34 56/53/33
f 61/114/71 38/115/72 66/116/73 89/117/71
f 42/118/74 45/119/75 79/120/76 78/121/77
f 13/29/23 48/122/78 45/123/79 14/30/24
f 45/124/79 42/125/41 18/65/26 14/64/24
f 47/60/78 19/34/27 21/36/29 46/126/79
f 61/127/5 52/47/5 5/24/5 38/84/5
f 57/128/34 48/122/39 13/29/34 33/77/35
f 29/10/5 10/9/5 51/13/5 62/129/5
f 55/40/37 1/20/15 3/22/17 54/130/36
f 53/131/36 50/132/12 12/50/11 8/49/22
f 44/5/40 16/8/25 18/33/26 42/133/41
f 30/102/64 31/134/80 73/135/81 72/103/65
f 29/98/61 62/136/82 90/137/82 71/99/62
f 53/138/66 56/139/83 85/140/67
f 55/141/84 54/142/85 86/143/86
f 36/144/87 34/145/88 70/146/89
f 43/147/90 63/101/91 91/104/91 81/148/92
f 64/110/93 44/149/94 82/150/95 92/111/93
f 33/151/96 35/152/97 69/153/98
f 41/154/57 43/147/90 81/148/92 77/155/58
f 35/156/97 40/157/99 68/158/100 69/159/98
f 21/56/29 23/55/31 41/160/41 46/161/79
f 26/162/38 58/163/34 59/164/34 25/165/38
f 71/99/101 90/137/102 91/104/103 72/103/101
f 66/116/104 67/166/3 68/167/3 65/112/104
f 33/168/35 69/153/105 70/146/105 34/145/35
f 72/103/101 73/135/8 74/100/8 71/99/101
f 25/165/38 75/88/106 76/169/106 26/162/38
f 73/170/8 76/171/107 75/172/107 74/173/8
f 67/174/3 70/175/108 69/159/108 68/158/3
f 89/117/109 66/116/104 65/112/104 92/111/110
f 57/176/34 33/168/35 34/145/35 60/177/34
f 78/121/41 79/120/111 80/96/111 77/95/41
f 48/178/39 57/176/34 58/163/34 47/179/39
f 82/150/112 78/180/41 77/155/41 81/148/112
f 60/177/34 55/181/33 56/139/33 59/164/34
f 84/108/12 85/107/113 86/182/113 83/183/12
f 88/73/114 89/117/109 90/137/102 87/92/114
f 92/111/110 82/150/112 81/148/112 91/104/103
f 55/181/33 86/143/115 85/140/115 56/139/33
f 57/176/34 60/177/34 59/164/34 58/163/34
f 87/92/114 84/91/12 83/74/12 88/73/114
f 47/179/39 80/184/116 79/185/116 48/178/39
f 89/117/109 92/111/110 91/104/103 90/137/102
f 54/186/85 49/187/45 83/183/48 86/182/86
f 47/188/117 46/189/56 80/184/59
f 28/190/118 26/162/119 76/169/120
f 45/191/75 48/178/121 79/185/76
f 52/72/46 61/114/122 89/117/122 88/73/47
f 31/192/80 28/193/118 76/171/120 73/170/81
f 38/115/72 39/194/123 67/166/123 66/116/73
f 27/195/50 32/196/60 74/173/60 75/172/51
f 62/136/124 51/89/52 87/92/55 90/137/124
f 39/197/123 36/198/87 70/175/89 67/174/123
f 44/149/94 42/199/74 78/180/77 82/150/95
f 40/200/99 37/109/68 65/112/70 68/167/100
f 93/201/5 94/202/5 96/203/5 95/204/5
f 93/205/7 97/206/7 98/207/7 94/208/7
f 94/208/10 98/207/10 100/209/10 96/210/10
f 96/210/43 100/209/43 99/211/43 95/212/43
f 95/212/40 99/211/40 97/206/40 93/205/40
f 101/213/5 102/214/5 104/215/5 103/216/5
f 101/217/7 105/218/7 106/219/7 102/220/7
f 102/220/10 106/219/10 108/221/10 104/222/10
f 104/222/43 108/221/43 107/223/43 103/224/43
f 103/224/40 107/223/40 105/218/40 101/217/40
f 109/225/5 110/226/5 112/227/5 111/228/5
f 109/229/7 113/230/7 114/231/7 110/232/7
f 110/232/10 114/231/10 116/233/10 112/234/10
f 112/234/43 116/233/43 115/235/43 111/236/43
f 111/236/40 115/235/40 113/230/40 109/229/40
f 117/237/5 118/238/5 120/239/5 119/240/5
f 117/241/7 121/242/7 122/243/7 118/244/7
f 118/244/10 122/243/10 124/245/10 120/246/10
f 120/246/43 124/245/43 123/247/43 119/248/43
f 119/248/40 123/247/40 121/242/40 117/241/40
