# Blender v3.4.1 OBJ File: 'Tiny_Treats_Homely_Home_ASSETS_EXPORT.blend'
# www.blender.org
mtllib tree.mtl
o tree
v 0.226688 0.000000 -0.234256
v 0.150508 0.778455 -0.158891
v 0.312094 0.000000 -0.085744
v 0.208494 0.777452 -0.058158
v 0.311420 -0.000000 0.085744
v 0.208164 0.776319 0.058159
v 0.225339 -0.000000 0.234257
v 0.149835 0.775351 0.158892
v 0.077164 -0.000000 0.320000
v 0.049247 0.774780 0.217050
v -0.093649 -0.000000 0.320000
v -0.066759 0.774740 0.217050
v -0.241825 -0.000000 0.234256
v -0.167329 0.775248 0.158892
v -0.327906 -0.000000 0.085744
v -0.225626 0.776197 0.058159
v -0.328580 0.000000 -0.085744
v -0.225917 0.777351 -0.058158
v -0.243173 0.000000 -0.234256
v -0.167897 0.778395 -0.158891
v -0.094324 0.000000 -0.320000
v -0.066998 0.779019 -0.217050
v 0.077838 0.000000 -0.320000
v 0.049629 0.779038 -0.217050
v -0.007175 2.563952 0.000000
v -0.008721 0.722071 -0.000726
v 0.385516 0.867966 -1.052556
v 0.391226 0.772113 -1.066390
v -0.008503 0.869080 -1.120100
v -0.008534 0.773079 -1.134911
v 0.730241 0.865164 -0.858063
v 0.740811 0.769619 -0.869168
v 0.983166 0.861285 -0.560070
v 0.997100 0.766147 -0.567188
v 1.114099 0.857045 -0.194513
v 1.129660 0.762337 -0.196955
v 1.108669 0.853060 0.194513
v 1.124103 0.758739 0.196955
v 0.969389 0.849726 0.560071
v 0.983005 0.755709 0.567189
v 0.714486 0.847222 0.858064
v 0.724703 0.753410 0.869169
v 0.375036 0.845588 1.052556
v 0.380550 0.751887 1.066391
v -0.008953 0.844845 1.120100
v -0.008896 0.751169 1.134912
v -0.392925 0.845066 1.052556
v -0.398326 0.751329 1.066391
v -0.732320 0.846370 0.858064
v -0.742433 0.752480 0.869169
v -0.987130 0.848849 0.560071
v -1.000663 0.754703 0.567189
v -1.126285 0.852440 0.194513
v -1.141659 0.757941 0.196955
v -1.131561 0.856833 -0.194512
v -1.147092 0.761911 -0.196954
v -1.000461 0.861438 -0.560070
v -1.014401 0.766083 -0.567188
v -0.747389 0.865485 -0.858064
v -0.757991 0.769761 -0.869169
v -0.402562 0.868209 -1.052556
v -0.408326 0.772254 -1.066391
v -0.005567 3.192505 0.000000
v -0.008550 1.574970 -0.000329
v 0.290735 1.731458 -0.799796
v 0.294335 1.632310 -0.808443
v -0.007715 1.733196 -0.851121
v -0.007866 1.633962 -0.860410
v 0.552083 1.727332 -0.652009
v 0.558826 1.628383 -0.658887
v 0.744283 1.721620 -0.425576
v 0.753164 1.622948 -0.429936
v 0.844343 1.715289 -0.147802
v 0.854250 1.616925 -0.149287
v 0.841016 1.709222 0.147803
v 0.850879 1.611146 0.149288
v 0.735775 1.704057 0.425577
v 0.744551 1.606218 0.429937
v 0.542137 1.700163 0.652010
v 0.548783 1.602493 0.658888
v 0.283640 1.697717 0.799797
v 0.287236 1.600143 0.808444
v -0.009085 1.696811 0.851121
v -0.009097 1.599264 0.860411
v -0.301748 1.697534 0.799797
v -0.305374 1.599946 0.808444
v -0.560063 1.699970 0.652010
v -0.566758 1.602268 0.658888
v -0.753402 1.704107 0.425576
v -0.762259 1.606215 0.429937
v -0.858239 1.709715 0.147803
v -0.868227 1.611563 0.149288
v -0.861093 1.716250 -0.147802
v -0.871172 1.617792 -0.149287
v -0.760545 1.722854 -0.425576
v -0.769647 1.624087 -0.429936
v -0.567914 1.728485 -0.652010
v -0.574920 1.629458 -0.658887
v -0.306269 1.732154 -0.799796
v -0.310162 1.632962 -0.808443
v -0.008243 -0.300000 -0.000071
v 0.156208 -0.300000 -0.163979
v 0.215993 -0.300000 -0.060020
v 0.215521 -0.300000 0.060021
v 0.155265 -0.300000 0.163980
v 0.051542 -0.300000 0.224000
v -0.068027 -0.300000 0.224000
v -0.171750 -0.300000 0.163980
v -0.232007 -0.300000 0.060021
v -0.232479 -0.300000 -0.060020
v -0.172694 -0.300000 -0.163979
v -0.068499 -0.300000 -0.224000
v 0.052014 -0.300000 -0.224000
v 0.360631 0.731636 -0.982572
v -0.008557 0.732436 -1.045918
v 0.683262 0.729516 -0.800437
v 0.919612 0.726536 -0.522025
v 1.041940 0.723231 -0.181201
v 1.037222 0.720072 0.181201
v 0.907635 0.717372 0.522026
v 0.669562 0.715294 0.800438
v 0.351544 0.713907 0.982572
v -0.008856 0.713254 1.045919
v -0.369245 0.713405 0.982572
v -0.687225 0.714449 0.800438
v -0.925234 0.716432 0.522026
v -1.054737 0.719283 0.181201
v -1.059351 0.722743 -0.181200
v -0.936915 0.726356 -0.522026
v -0.700469 0.729536 -0.800438
v -0.377770 0.731699 -0.982572
v 0.263027 1.589594 -0.722475
v -0.007990 1.590989 -0.769130
v 0.499979 1.586245 -0.588405
v 0.673848 1.581580 -0.383631
v 0.764305 1.576371 -0.133137
v 0.761602 1.571323 0.133137
v 0.666930 1.566966 0.383632
v 0.491888 1.563636 0.588406
v 0.257277 1.561524 0.722476
v -0.009036 1.560744 0.769130
v -0.275301 1.561383 0.722476
v -0.509768 1.563484 0.588406
v -0.684577 1.566997 0.383632
v -0.778939 1.571686 0.133137
v -0.781281 1.577086 -0.133136
v -0.690456 1.582502 -0.383631
v -0.516262 1.587108 -0.588405
v -0.279088 1.590117 -0.722475
vt 0.829536 0.798149
vt 0.824055 0.866261
vt 0.828285 0.866261
vt 0.835772 0.798149
vt 0.828285 0.866261
vt 0.835772 0.798149
vt 0.824055 0.866261
vt 0.829536 0.798149
vt 0.816730 0.866261
vt 0.818736 0.798149
vt 0.808270 0.866261
vt 0.806264 0.798149
vt 0.800945 0.866261
vt 0.795464 0.798149
vt 0.796715 0.866261
vt 0.789228 0.798149
vt 0.796715 0.866261
vt 0.789228 0.798149
vt 0.800945 0.866261
vt 0.795464 0.798149
vt 0.808270 0.866261
vt 0.806264 0.798149
vt 0.816730 0.866261
vt 0.818736 0.798149
vt 0.187500 0.626392
vt 0.200027 0.571657
vt 0.187500 0.571657
vt 0.223572 0.571655
vt 0.219221 0.571655
vt 0.223572 0.571655
vt 0.219221 0.571655
vt 0.211044 0.571656
vt 0.200027 0.571657
vt 0.187500 0.571657
vt 0.174973 0.571657
vt 0.163956 0.571656
vt 0.155779 0.571655
vt 0.151428 0.571655
vt 0.151428 0.571655
vt 0.155779 0.571655
vt 0.163956 0.571656
vt 0.174973 0.571657
vt 0.211044 0.571656
vt 0.199248 0.536097
vt 0.187500 0.536097
vt 0.187500 0.537359
vt 0.200208 0.537359
vt 0.187500 0.540407
vt 0.200027 0.540407
vt 0.209563 0.536097
vt 0.211378 0.537359
vt 0.211044 0.540406
vt 0.217203 0.536097
vt 0.219664 0.537359
vt 0.219221 0.540405
vt 0.221259 0.536097
vt 0.224071 0.537359
vt 0.223572 0.540405
vt 0.221259 0.536097
vt 0.224071 0.537359
vt 0.223572 0.540405
vt 0.217203 0.536097
vt 0.219664 0.537359
vt 0.219221 0.540405
vt 0.209563 0.536097
vt 0.211378 0.537359
vt 0.211044 0.540406
vt 0.199248 0.536097
vt 0.200208 0.537359
vt 0.200027 0.540407
vt 0.187500 0.536097
vt 0.187500 0.537359
vt 0.187500 0.540407
vt 0.175752 0.536097
vt 0.174792 0.537359
vt 0.174973 0.540407
vt 0.165437 0.536097
vt 0.163622 0.537359
vt 0.163956 0.540406
vt 0.157797 0.536097
vt 0.155336 0.537359
vt 0.155779 0.540405
vt 0.153741 0.536097
vt 0.150929 0.537359
vt 0.151428 0.540405
vt 0.153741 0.536097
vt 0.150929 0.537359
vt 0.151428 0.540405
vt 0.157797 0.536097
vt 0.155336 0.537359
vt 0.155779 0.540405
vt 0.165437 0.536097
vt 0.163622 0.537359
vt 0.163956 0.540406
vt 0.175752 0.536097
vt 0.174792 0.537359
vt 0.174973 0.540407
vt 0.187500 0.646454
vt 0.197019 0.599207
vt 0.187500 0.599207
vt 0.214910 0.599205
vt 0.211604 0.599206
vt 0.214910 0.599205
vt 0.211604 0.599206
vt 0.205390 0.599206
vt 0.197019 0.599207
vt 0.187500 0.599207
vt 0.177981 0.599207
vt 0.169610 0.599206
vt 0.163396 0.599206
vt 0.160090 0.599205
vt 0.160090 0.599205
vt 0.163396 0.599206
vt 0.169610 0.599206
vt 0.177981 0.599207
vt 0.205390 0.599206
vt 0.196152 0.563494
vt 0.187500 0.563494
vt 0.187500 0.564801
vt 0.197138 0.564801
vt 0.187500 0.567957
vt 0.197019 0.567957
vt 0.203745 0.563494
vt 0.205608 0.564801
vt 0.205390 0.567956
vt 0.209364 0.563494
vt 0.211891 0.564801
vt 0.211604 0.567956
vt 0.212345 0.563494
vt 0.215231 0.564801
vt 0.214910 0.567955
vt 0.212345 0.563494
vt 0.215231 0.564801
vt 0.214910 0.567955
vt 0.209364 0.563494
vt 0.211891 0.564801
vt 0.211604 0.567956
vt 0.203745 0.563494
vt 0.205608 0.564801
vt 0.205390 0.567956
vt 0.196152 0.563494
vt 0.197138 0.564801
vt 0.197019 0.567957
vt 0.187500 0.563494
vt 0.187500 0.564801
vt 0.187500 0.567957
vt 0.178848 0.563494
vt 0.177862 0.564801
vt 0.177981 0.567957
vt 0.171255 0.563494
vt 0.169392 0.564801
vt 0.169610 0.567956
vt 0.165636 0.563494
vt 0.163109 0.564801
vt 0.163396 0.567956
vt 0.162654 0.563494
vt 0.159769 0.564801
vt 0.160090 0.567955
vt 0.162654 0.563494
vt 0.159769 0.564801
vt 0.160090 0.567955
vt 0.165636 0.563494
vt 0.163109 0.564801
vt 0.163396 0.567956
vt 0.171255 0.563494
vt 0.169392 0.564801
vt 0.169610 0.567956
vt 0.178848 0.563494
vt 0.177862 0.564801
vt 0.177981 0.567957
vt 0.818736 0.798149
vt 0.829536 0.798149
vt 0.829536 0.798149
vt 0.818736 0.798149
vt 0.835772 0.798149
vt 0.835772 0.798149
vt 0.806264 0.798149
vt 0.795464 0.798149
vt 0.789228 0.798149
vt 0.789228 0.798149
vt 0.795464 0.798149
vt 0.806264 0.798149
vt 0.823589 0.798149
vt 0.827621 0.798149
vt 0.823543 0.798149
vt 0.816532 0.798149
vt 0.808468 0.798149
vt 0.801457 0.798149
vt 0.797389 0.798149
vt 0.801411 0.798149
vt 0.808432 0.798149
vt 0.816568 0.798149
vt 0.187501 0.536097
vt 0.196753 0.536097
vt 0.204802 0.536097
vt 0.210688 0.536097
vt 0.213785 0.536097
vt 0.210598 0.536097
vt 0.204638 0.536097
vt 0.196610 0.536097
vt 0.178388 0.536097
vt 0.170361 0.536097
vt 0.164401 0.536097
vt 0.161236 0.536097
vt 0.164312 0.536097
vt 0.170199 0.536097
vt 0.178249 0.536097
vt 0.187503 0.563494
vt 0.194612 0.563494
vt 0.200811 0.563494
vt 0.205360 0.563494
vt 0.207758 0.563494
vt 0.207748 0.563494
vt 0.205318 0.563494
vt 0.200735 0.563494
vt 0.194543 0.563494
vt 0.180452 0.563494
vt 0.174263 0.563494
vt 0.169681 0.563494
vt 0.167252 0.563494
vt 0.167242 0.563494
vt 0.169640 0.563494
vt 0.174191 0.563494
vt 0.180393 0.563494
vn 0.7048 -0.0884 -0.7039
vn 0.7001 0.1364 -0.7009
vn 0.9573 0.1366 -0.2550
vn 0.9629 -0.0882 -0.2551
vn 0.9565 0.1364 0.2579
vn 0.9614 -0.0881 0.2605
vn 0.7008 0.1363 0.7003
vn 0.7040 -0.0880 0.7047
vn 0.2570 0.1363 0.9567
vn 0.2582 -0.0882 0.9621
vn -0.2572 0.1360 0.9567
vn -0.2581 -0.0883 0.9621
vn -0.7010 0.1354 0.7002
vn -0.7039 -0.0885 0.7047
vn -0.9567 0.1352 0.2578
vn -0.9614 -0.0886 0.2605
vn -0.9574 0.1355 -0.2551
vn -0.9628 -0.0888 -0.2551
vn -0.7002 0.1356 -0.7009
vn -0.7047 -0.0888 -0.7039
vn -0.2558 0.1355 -0.9572
vn -0.2574 -0.0887 -0.9622
vn 0.2556 0.1358 -0.9572
vn 0.2575 -0.0885 -0.9622
vn 0.0006 1.0000 0.0047
vn 0.3148 0.3542 -0.8806
vn 0.0001 0.3531 -0.9356
vn 0.9210 0.3596 -0.1500
vn 0.8097 0.3592 -0.4641
vn 0.9165 0.3580 0.1785
vn 0.8024 0.3554 0.4795
vn 0.5952 0.3531 0.7218
vn 0.3174 0.3517 0.8807
vn -0.0003 0.3513 0.9363
vn -0.3179 0.3516 0.8805
vn -0.5955 0.3530 0.7216
vn -0.8025 0.3553 0.4794
vn -0.9165 0.3580 0.1784
vn -0.9209 0.3598 -0.1499
vn -0.8096 0.3595 -0.4640
vn -0.5967 0.3572 -0.7186
vn -0.3146 0.3544 -0.8806
vn 0.5969 0.3568 -0.7186
vn 0.0755 -0.9715 -0.2248
vn -0.0001 -0.9712 -0.2384
vn -0.0001 -0.9098 -0.4150
vn 0.1349 -0.9108 -0.3903
vn 0.3330 0.1542 -0.9303
vn 0.0000 0.1526 -0.9883
vn 0.1436 -0.9722 -0.1851
vn 0.2549 -0.9128 -0.3192
vn 0.6313 0.1581 -0.7592
vn 0.1956 -0.9730 -0.1229
vn 0.3456 -0.9146 -0.2098
vn 0.8562 0.1620 -0.4905
vn 0.2235 -0.9736 -0.0459
vn 0.3950 -0.9156 -0.0752
vn 0.9735 0.1640 -0.1591
vn 0.2231 -0.9742 0.0348
vn 0.3955 -0.9160 0.0672
vn 0.9686 0.1634 0.1872
vn 0.1955 -0.9747 0.1084
vn 0.3469 -0.9166 0.1988
vn 0.8481 0.1611 0.5047
vn 0.1448 -0.9753 0.1669
vn 0.2563 -0.9178 0.3032
vn 0.6295 0.1586 0.7607
vn 0.0773 -0.9758 0.2045
vn 0.1360 -0.9192 0.3695
vn 0.3359 0.1568 0.9288
vn 0.0007 -0.9761 0.2175
vn 0.0006 -0.9199 0.3921
vn -0.0001 0.1561 0.9877
vn -0.0761 -0.9759 0.2044
vn -0.1348 -0.9195 0.3693
vn -0.3361 0.1564 0.9288
vn -0.1438 -0.9755 0.1666
vn -0.2554 -0.9182 0.3028
vn -0.6297 0.1578 0.7606
vn -0.1948 -0.9749 0.1078
vn -0.3464 -0.9169 0.1982
vn -0.8483 0.1602 0.5047
vn -0.2228 -0.9743 0.0340
vn -0.3954 -0.9161 0.0664
vn -0.9688 0.1625 0.1871
vn -0.2233 -0.9736 -0.0469
vn -0.3952 -0.9154 -0.0762
vn -0.9736 0.1634 -0.1593
vn -0.1956 -0.9728 -0.1238
vn -0.3460 -0.9142 -0.2109
vn -0.8562 0.1617 -0.4906
vn -0.1437 -0.9720 -0.1858
vn -0.2553 -0.9123 -0.3202
vn -0.6313 0.1580 -0.7593
vn -0.0757 -0.9714 -0.2252
vn -0.1352 -0.9105 -0.3909
vn -0.3329 0.1542 -0.9303
vn 0.0016 1.0000 0.0063
vn 0.3229 0.3001 -0.8976
vn 0.0004 0.2997 -0.9540
vn 0.9407 0.3029 -0.1530
vn 0.8275 0.3030 -0.4726
vn 0.9360 0.3012 0.1822
vn 0.8188 0.2987 0.4902
vn 0.6064 0.2964 0.7378
vn 0.3228 0.2949 0.8994
vn -0.0002 0.2946 0.9556
vn -0.3231 0.2955 0.8991
vn -0.6066 0.2974 0.7373
vn -0.8187 0.3003 0.4894
vn -0.9355 0.3032 0.1813
vn -0.9398 0.3051 -0.1539
vn -0.8264 0.3051 -0.4732
vn -0.6099 0.3033 -0.7321
vn -0.3220 0.3010 -0.8976
vn 0.6110 0.3016 -0.7319
vn 0.0748 -0.9689 -0.2359
vn -0.0010 -0.9684 -0.2495
vn -0.0009 -0.9049 -0.4256
vn 0.1343 -0.9061 -0.4011
vn 0.3366 0.0940 -0.9369
vn 0.0001 0.0932 -0.9956
vn 0.1431 -0.9700 -0.1964
vn 0.2548 -0.9087 -0.3306
vn 0.6374 0.0966 -0.7645
vn 0.1955 -0.9715 -0.1342
vn 0.3465 -0.9115 -0.2215
vn 0.8636 0.0996 -0.4943
vn 0.2240 -0.9729 -0.0569
vn 0.3968 -0.9138 -0.0863
vn 0.9817 0.1013 -0.1611
vn 0.2242 -0.9742 0.0249
vn 0.3980 -0.9156 0.0577
vn 0.9769 0.1011 0.1881
vn 0.1965 -0.9754 0.0999
vn 0.3496 -0.9172 0.1913
vn 0.8550 0.0994 0.5091
vn 0.1454 -0.9764 0.1597
vn 0.2584 -0.9190 0.2979
vn 0.6336 0.0972 0.7676
vn 0.0774 -0.9771 0.1980
vn 0.1370 -0.9206 0.3658
vn 0.3375 0.0954 0.9365
vn 0.0003 -0.9775 0.2111
vn 0.0003 -0.9213 0.3889
vn -0.0001 0.0947 0.9955
vn -0.0769 -0.9772 0.1977
vn -0.1366 -0.9208 0.3653
vn -0.3377 0.0955 0.9364
vn -0.1454 -0.9765 0.1590
vn -0.2583 -0.9193 0.2970
vn -0.6339 0.0975 0.7672
vn -0.1969 -0.9754 0.0988
vn -0.3499 -0.9173 0.1900
vn -0.8553 0.1001 0.5084
vn -0.2249 -0.9741 0.0233
vn -0.3988 -0.9153 0.0560
vn -0.9770 0.1023 0.1870
vn -0.2250 -0.9726 -0.0585
vn -0.3979 -0.9132 -0.0881
vn -0.9814 0.1029 -0.1622
vn -0.1968 -0.9710 -0.1356
vn -0.3479 -0.9106 -0.2232
vn -0.8629 0.1013 -0.4951
vn -0.1447 -0.9696 -0.1973
vn -0.2565 -0.9078 -0.3319
vn -0.6368 0.0981 -0.7648
vn -0.0766 -0.9686 -0.2364
vn -0.1361 -0.9056 -0.4018
vn -0.3363 0.0949 -0.9370
vn 0.2462 -0.3144 0.9168
vn 0.6711 -0.3141 0.6715
vn 0.6713 -0.3149 -0.6709
vn 0.2452 -0.3146 -0.9170
vn 0.9176 -0.3148 -0.2429
vn 0.9163 -0.3142 0.2484
vn -0.2452 -0.3146 -0.9170
vn -0.6713 -0.3149 -0.6709
vn -0.9176 -0.3148 -0.2429
vn -0.9163 -0.3142 0.2484
vn -0.6711 -0.3141 0.6715
vn -0.2462 -0.3144 0.9168
vn 0.0000 -1.0000 -0.0000
vn 0.0003 -1.0000 -0.0092
vn -0.0004 -0.9998 -0.0197
usemtl tiny_treats_1
s 1
f 1/1/1 2/2/2 4/3/3 3/4/4
f 3/4/4 4/3/3 6/5/5 5/6/6
f 5/6/6 6/5/5 8/7/7 7/8/8
f 7/8/8 8/7/7 10/9/9 9/10/10
f 9/10/10 10/9/9 12/11/11 11/12/12
f 11/12/12 12/11/11 14/13/13 13/14/14
f 13/14/14 14/13/13 16/15/15 15/16/16
f 15/16/16 16/15/15 18/17/17 17/18/18
f 17/18/18 18/17/17 20/19/19 19/20/20
f 19/20/20 20/19/19 22/21/21 21/22/22
f 21/22/22 22/21/21 24/23/23 23/24/24
f 23/24/24 24/23/23 2/2/2 1/1/1
f 25/25/25 27/26/26 29/27/27
f 25/25/25 35/28/28 33/29/29
f 25/25/25 37/30/30 35/28/28
f 25/25/25 39/31/31 37/30/30
f 25/25/25 41/32/32 39/31/31
f 25/25/25 43/33/33 41/32/32
f 25/25/25 45/34/34 43/33/33
f 25/25/25 47/35/35 45/34/34
f 25/25/25 49/36/36 47/35/35
f 25/25/25 51/37/37 49/36/36
f 25/25/25 53/38/38 51/37/37
f 25/25/25 55/39/39 53/38/38
f 25/25/25 57/40/40 55/39/39
f 25/25/25 59/41/41 57/40/40
f 25/25/25 61/42/42 59/41/41
f 25/25/25 33/29/29 31/43/43
f 25/25/25 29/27/27 61/42/42
f 114/44/44 115/45/45 30/46/46 28/47/47
f 28/47/48 30/46/49 29/48/27 27/49/26
f 116/50/50 114/44/44 28/47/47 32/51/51
f 32/51/52 28/47/48 27/49/26 31/52/43
f 117/53/53 116/50/50 32/51/51 34/54/54
f 34/54/55 32/51/52 31/52/43 33/55/29
f 118/56/56 117/53/53 34/54/54 36/57/57
f 36/57/58 34/54/55 33/55/29 35/58/28
f 119/59/59 118/56/56 36/57/57 38/60/60
f 38/60/61 36/57/58 35/58/28 37/61/30
f 120/62/62 119/59/59 38/60/60 40/63/63
f 40/63/64 38/60/61 37/61/30 39/64/31
f 121/65/65 120/62/62 40/63/63 42/66/66
f 42/66/67 40/63/64 39/64/31 41/67/32
f 122/68/68 121/65/65 42/66/66 44/69/69
f 44/69/70 42/66/67 41/67/32 43/70/33
f 123/71/71 122/68/68 44/69/69 46/72/72
f 46/72/73 44/69/70 43/70/33 45/73/34
f 124/74/74 123/71/71 46/72/72 48/75/75
f 48/75/76 46/72/73 45/73/34 47/76/35
f 125/77/77 124/74/74 48/75/75 50/78/78
f 50/78/79 48/75/76 47/76/35 49/79/36
f 126/80/80 125/77/77 50/78/78 52/81/81
f 52/81/82 50/78/79 49/79/36 51/82/37
f 127/83/83 126/80/80 52/81/81 54/84/84
f 54/84/85 52/81/82 51/82/37 53/85/38
f 128/86/86 127/83/83 54/84/84 56/87/87
f 56/87/88 54/84/85 53/85/38 55/88/39
f 129/89/89 128/86/86 56/87/87 58/90/90
f 58/90/91 56/87/88 55/88/39 57/91/40
f 130/92/92 129/89/89 58/90/90 60/93/93
f 60/93/94 58/90/91 57/91/40 59/94/41
f 131/95/95 130/92/92 60/93/93 62/96/96
f 62/96/97 60/93/94 59/94/41 61/97/42
f 115/45/45 131/95/95 62/96/96 30/46/46
f 30/46/49 62/96/97 61/97/42 29/48/27
f 25/25/25 31/43/43 27/26/26
f 63/98/98 65/99/99 67/100/100
f 63/98/98 73/101/101 71/102/102
f 63/98/98 75/103/103 73/101/101
f 63/98/98 77/104/104 75/103/103
f 63/98/98 79/105/105 77/104/104
f 63/98/98 81/106/106 79/105/105
f 63/98/98 83/107/107 81/106/106
f 63/98/98 85/108/108 83/107/107
f 63/98/98 87/109/109 85/108/108
f 63/98/98 89/110/110 87/109/109
f 63/98/98 91/111/111 89/110/110
f 63/98/98 93/112/112 91/111/111
f 63/98/98 95/113/113 93/112/112
f 63/98/98 97/114/114 95/113/113
f 63/98/98 99/115/115 97/114/114
f 63/98/98 71/102/102 69/116/116
f 63/98/98 67/100/100 99/115/115
f 132/117/117 133/118/118 68/119/119 66/120/120
f 66/120/121 68/119/122 67/121/100 65/122/99
f 134/123/123 132/117/117 66/120/120 70/124/124
f 70/124/125 66/120/121 65/122/99 69/125/116
f 135/126/126 134/123/123 70/124/124 72/127/127
f 72/127/128 70/124/125 69/125/116 71/128/102
f 136/129/129 135/126/126 72/127/127 74/130/130
f 74/130/131 72/127/128 71/128/102 73/131/101
f 137/132/132 136/129/129 74/130/130 76/133/133
f 76/133/134 74/130/131 73/131/101 75/134/103
f 138/135/135 137/132/132 76/133/133 78/136/136
f 78/136/137 76/133/134 75/134/103 77/137/104
f 139/138/138 138/135/135 78/136/136 80/139/139
f 80/139/140 78/136/137 77/137/104 79/140/105
f 140/141/141 139/138/138 80/139/139 82/142/142
f 82/142/143 80/139/140 79/140/105 81/143/106
f 141/144/144 140/141/141 82/142/142 84/145/145
f 84/145/146 82/142/143 81/143/106 83/146/107
f 142/147/147 141/144/144 84/145/145 86/148/148
f 86/148/149 84/145/146 83/146/107 85/149/108
f 143/150/150 142/147/147 86/148/148 88/151/151
f 88/151/152 86/148/149 85/149/108 87/152/109
f 144/153/153 143/150/150 88/151/151 90/154/154
f 90/154/155 88/151/152 87/152/109 89/155/110
f 145/156/156 144/153/153 90/154/154 92/157/157
f 92/157/158 90/154/155 89/155/110 91/158/111
f 146/159/159 145/156/156 92/157/157 94/160/160
f 94/160/161 92/157/158 91/158/111 93/161/112
f 147/162/162 146/159/159 94/160/160 96/163/163
f 96/163/164 94/160/161 93/161/112 95/164/113
f 148/165/165 147/162/162 96/163/163 98/166/166
f 98/166/167 96/163/164 95/164/113 97/167/114
f 149/168/168 148/165/165 98/166/166 100/169/169
f 100/169/170 98/166/167 97/167/114 99/170/115
f 133/118/118 149/168/168 100/169/169 68/119/119
f 68/119/122 100/169/170 99/170/115 67/121/100
f 63/98/98 69/116/116 65/99/99
f 7/8/8 9/10/10 106/171/171 105/172/172
f 23/24/24 1/1/1 102/173/173 113/174/174
f 1/1/1 3/4/4 103/175/175 102/173/173
f 5/6/6 7/8/8 105/172/172 104/176/176
f 21/22/22 23/24/24 113/174/174 112/177/177
f 3/4/4 5/6/6 104/176/176 103/175/175
f 19/20/20 21/22/22 112/177/177 111/178/178
f 17/18/18 19/20/20 111/178/178 110/179/179
f 15/16/16 17/18/18 110/179/179 109/180/180
f 13/14/14 15/16/16 109/180/180 108/181/181
f 11/12/12 13/14/14 108/181/181 107/182/182
f 9/10/10 11/12/12 107/182/182 106/171/171
f 101/183/183 102/173/183 103/175/183
f 101/184/183 103/175/183 104/176/183
f 101/184/183 104/176/183 105/172/183
f 101/185/183 105/172/183 106/171/183
f 101/186/183 106/171/183 107/182/183
f 101/187/183 107/182/183 108/181/183
f 101/188/183 108/181/183 109/180/183
f 101/189/183 109/180/183 110/179/183
f 101/189/183 110/179/183 111/178/183
f 101/190/183 111/178/183 112/177/183
f 101/191/183 112/177/183 113/174/183
f 101/192/183 113/174/183 102/173/183
f 26/193/184 115/45/45 114/44/44
f 26/194/184 114/44/44 116/50/50
f 26/195/184 116/50/50 117/53/53
f 26/196/184 117/53/53 118/56/56
f 26/197/184 118/56/56 119/59/59
f 26/197/184 119/59/59 120/62/62
f 26/198/184 120/62/62 121/65/65
f 26/199/184 121/65/65 122/68/68
f 26/200/184 122/68/68 123/71/71
f 26/193/184 123/71/71 124/74/74
f 26/201/184 124/74/74 125/77/77
f 26/202/184 125/77/77 126/80/80
f 26/203/184 126/80/80 127/83/83
f 26/204/184 127/83/83 128/86/86
f 26/204/184 128/86/86 129/89/89
f 26/205/184 129/89/89 130/92/92
f 26/206/184 130/92/92 131/95/95
f 26/207/184 131/95/95 115/45/45
f 64/208/185 133/118/118 132/117/117
f 64/209/185 132/117/117 134/123/123
f 64/210/185 134/123/123 135/126/126
f 64/211/185 135/126/126 136/129/129
f 64/212/185 136/129/129 137/132/132
f 64/213/185 137/132/132 138/135/135
f 64/214/185 138/135/135 139/138/138
f 64/215/185 139/138/138 140/141/141
f 64/216/185 140/141/141 141/144/144
f 64/208/185 141/144/144 142/147/147
f 64/217/185 142/147/147 143/150/150
f 64/218/185 143/150/150 144/153/153
f 64/219/185 144/153/153 145/156/156
f 64/220/185 145/156/156 146/159/159
f 64/221/185 146/159/159 147/162/162
f 64/222/185 147/162/162 148/165/165
f 64/223/185 148/165/165 149/168/168
f 64/224/185 149/168/168 133/118/118
