# Blender v3.4.1 OBJ File: 'Tiny_treats_Pretty_Park_ASSETS_EXPORT.blend'
# www.blender.org
mtllib bush_large.mtl
o bush_large
v 0.000002 0.000000 -0.502940
v 0.000002 0.676203 -0.335907
v 0.435561 0.000000 -0.251470
v 0.290906 0.676203 -0.167954
v 0.435561 0.000000 0.251470
v 0.290906 0.676203 0.167953
v 0.000002 0.000000 0.502940
v 0.000002 0.676203 0.335907
v -0.435557 0.000000 0.251470
v -0.290902 0.676203 0.167953
v -0.435557 0.000000 -0.251470
v -0.290902 0.676203 -0.167954
v 0.000002 0.343248 -0.578804
v 0.501261 0.343248 -0.289402
v 0.501261 0.343248 0.289402
v 0.000002 0.343248 0.578804
v -0.501257 0.343248 0.289402
v -0.501257 0.343248 -0.289402
v 0.226345 0.000000 -0.669063
v 0.466256 0.000000 -0.530550
v 0.479178 0.238703 -0.542984
v 0.479178 0.238703 0.542984
v 0.466256 0.000000 0.530550
v 0.226345 0.000000 0.669063
v 0.230652 0.238703 0.686471
v -0.709824 0.238703 0.143486
v -0.692595 0.000000 0.138513
v -0.692595 0.000000 -0.138513
v -0.709824 0.238703 -0.143486
v 0.230652 0.238703 -0.686471
v 0.709828 0.238703 -0.143486
v 0.692599 0.000000 -0.138513
v 0.692599 0.000000 0.138513
v 0.709828 0.238703 0.143486
v -0.230648 0.238703 0.686471
v -0.226341 0.000000 0.669063
v -0.466252 0.000000 0.530550
v -0.479174 0.238703 0.542984
v -0.479174 0.238703 -0.542984
v -0.466252 0.000000 -0.530550
v -0.226341 0.000000 -0.669063
v -0.230648 0.238703 -0.686471
v 0.185892 0.000000 -0.321972
v 0.145053 0.700856 -0.251236
v 0.000002 0.552901 -0.444557
v 0.539968 0.142567 -0.311749
v 0.371783 0.000000 -0.000000
v 0.290105 0.700856 -0.000000
v 0.539968 0.142567 0.311749
v 0.185892 0.000000 0.321972
v 0.145053 0.700856 0.251236
v 0.000002 0.142567 0.623499
v -0.185889 0.000000 0.321972
v -0.145050 0.700856 0.251236
v -0.539964 0.142567 0.311749
v -0.371779 0.000000 -0.000000
v -0.290101 0.700856 -0.000000
v -0.539964 0.142567 -0.311749
v -0.185889 0.000000 -0.321972
v -0.145050 0.700856 -0.251237
v 0.000002 0.142567 -0.623499
v 0.385000 0.552900 -0.222279
v 0.385000 0.552900 0.222278
v 0.000002 0.552900 0.444557
v -0.384996 0.552900 0.222278
v -0.384996 0.552900 -0.222278
v -0.270269 0.399042 -0.468123
v -0.540540 0.399042 -0.000000
v -0.270269 0.399042 0.468123
v 0.270273 0.399042 0.468123
v 0.540544 0.399042 -0.000000
v 0.270273 0.399042 -0.468123
v 0.354148 0.000000 -0.613399
v 0.507479 0.138703 -0.534959
v 0.507479 0.138703 0.534959
v 0.354148 0.000000 0.613399
v 0.209552 0.138703 0.706967
v -0.717024 0.138703 0.172008
v -0.708290 0.000000 -0.000000
v -0.717024 0.138703 -0.172008
v 0.209552 0.138703 -0.706967
v -0.725759 0.260616 -0.000000
v 0.362883 0.260616 0.628527
v 0.362883 0.260617 -0.628527
v 0.487276 0.273753 -0.456588
v 0.151782 0.273753 -0.650286
v -0.639052 0.273753 0.193698
v -0.600400 0.000000 0.181485
v 0.143033 0.000000 0.610706
v 0.151782 0.273753 0.650286
v 0.487276 0.273753 0.456588
v 0.457373 0.000000 0.429221
v -0.600400 0.000000 -0.181485
v 0.457373 0.000000 -0.429221
v 0.143033 0.000000 -0.610706
v -0.639052 0.273753 -0.193698
v 0.717029 0.138703 -0.172008
v 0.708294 0.000000 -0.000000
v 0.717029 0.138703 0.172008
v -0.209548 0.138703 0.706967
v -0.354144 0.000000 0.613399
v -0.507475 0.138703 0.534959
v -0.507475 0.138703 -0.534959
v -0.354144 0.000000 -0.613399
v -0.209548 0.138703 -0.706967
v -0.362878 0.260617 -0.628527
v -0.362878 0.260616 0.628527
v 0.725763 0.260616 -0.000000
v -0.457369 0.000000 0.429221
v -0.487272 0.273753 0.456588
v -0.151778 0.273753 0.650286
v -0.143029 0.000000 0.610706
v -0.457369 0.000000 -0.429221
v -0.143029 0.000000 -0.610706
v 0.600404 0.000000 0.181485
v 0.639056 0.273753 0.193698
v 0.639056 0.273753 -0.193698
v 0.600404 0.000000 -0.181485
v -0.151778 0.273753 -0.650286
v -0.487272 0.273753 -0.456588
v 0.218746 0.558302 -0.378876
v 0.437490 0.558302 -0.000000
v 0.218746 0.558302 0.378876
v -0.218742 0.558302 0.378876
v 0.000002 0.759157 -0.000000
v -0.437486 0.558302 -0.000000
v -0.218742 0.558302 -0.378876
v 0.000002 0.000000 -0.000000
v -0.093450 0.139669 0.670101
v 0.093454 0.139669 0.670101
v -0.323548 0.323502 0.560405
v -0.627049 0.139669 0.254119
v -0.533597 0.139669 0.415982
v 0.323552 0.323502 -0.560405
v -0.750214 0.138703 -0.000000
v 0.375110 0.138703 0.649706
v 0.375110 0.138703 -0.649706
v 0.533601 0.139669 0.415982
v -0.588864 0.000000 -0.000000
v 0.533601 0.139669 -0.415983
v 0.323552 0.323502 0.560405
v 0.294435 0.000000 -0.509973
v 0.294435 0.000000 0.509973
v 0.093454 0.139669 -0.670101
v -0.647097 0.323502 -0.000000
v -0.627049 0.139669 -0.254119
v -0.375106 0.138703 -0.649706
v -0.375106 0.138703 0.649706
v 0.750218 0.138703 -0.000000
v -0.294431 0.000000 -0.509973
v 0.627053 0.139669 0.254119
v 0.627053 0.139669 -0.254119
v -0.294431 0.000000 0.509973
v -0.323548 0.323502 -0.560405
v 0.588868 0.000000 -0.000000
v 0.647101 0.323502 -0.000000
v -0.093450 0.139669 -0.670101
v -0.533597 0.139669 -0.415983
vt 0.062500 0.608749
vt 0.062500 0.620197
vt 0.074456 0.620492
vt 0.077272 0.611796
vt 0.062500 0.673804
vt 0.070428 0.675150
vt 0.078400 0.673804
vt 0.083542 0.620197
vt 0.089896 0.608749
vt 0.086411 0.620492
vt 0.092043 0.611796
vt 0.078356 0.675150
vt 0.078400 0.673804
vt 0.083542 0.620197
vt 0.089896 0.608749
vt 0.074456 0.620492
vt 0.077272 0.611796
vt 0.070428 0.675150
vt 0.062500 0.673804
vt 0.062500 0.620197
vt 0.062500 0.608749
vt 0.050545 0.620492
vt 0.047728 0.611796
vt 0.054572 0.675150
vt 0.046601 0.673804
vt 0.041458 0.620197
vt 0.035104 0.608749
vt 0.062500 0.678334
vt 0.054572 0.675150
vt 0.046601 0.673804
vt 0.046644 0.675150
vt 0.038589 0.620492
vt 0.032957 0.611796
vt 0.041458 0.620197
vt 0.035104 0.608749
vt 0.050545 0.620492
vt 0.047728 0.611796
vt 0.062500 0.558031
vt 0.072660 0.555950
vt 0.062500 0.555569
vt 0.052340 0.555950
vt 0.086306 0.558031
vt 0.082820 0.555950
vt 0.086306 0.558031
vt 0.072660 0.555950
vt 0.062500 0.558031
vt 0.052340 0.555950
vt 0.038695 0.558031
vt 0.042180 0.555950
vt 0.038695 0.558031
vt 0.062500 0.597792
vt 0.057392 0.597633
vt 0.054683 0.559253
vt 0.054205 0.604955
vt 0.049894 0.603041
vt 0.051047 0.597581
vt 0.050129 0.560870
vt 0.067608 0.597633
vt 0.070796 0.604955
vt 0.070317 0.559253
vt 0.074871 0.560870
vt 0.073953 0.597581
vt 0.075106 0.603041
vt 0.044816 0.607671
vt 0.035868 0.604955
vt 0.036311 0.603041
vt 0.042667 0.604237
vt 0.032988 0.597792
vt 0.028229 0.597633
vt 0.029685 0.559253
vt 0.027573 0.604955
vt 0.023704 0.603041
vt 0.023311 0.597581
vt 0.024646 0.560870
vt 0.033336 0.597633
vt 0.037502 0.559253
vt 0.037017 0.560870
vt 0.034764 0.597581
vt 0.080184 0.607671
vt 0.070796 0.604955
vt 0.089132 0.604955
vt 0.088690 0.603041
vt 0.082333 0.604237
vt 0.075106 0.603041
vt 0.021497 0.597581
vt 0.023788 0.559674
vt 0.022834 0.604237
vt 0.023704 0.603041
vt 0.023311 0.597581
vt 0.024646 0.560870
vt 0.087983 0.560870
vt 0.090236 0.597581
vt 0.083002 0.597581
vt 0.081856 0.559674
vt 0.088690 0.603041
vt 0.082333 0.604237
vt 0.074871 0.560870
vt 0.073953 0.597581
vt 0.083002 0.597581
vt 0.081856 0.559674
vt 0.090236 0.597581
vt 0.087983 0.560870
vt 0.092012 0.597792
vt 0.091664 0.597633
vt 0.087498 0.559253
vt 0.089132 0.604955
vt 0.030316 0.556687
vt 0.029685 0.559253
vt 0.092012 0.597792
vt 0.091664 0.597633
vt 0.087498 0.559253
vt 0.080184 0.607671
vt 0.078592 0.556687
vt 0.070317 0.559253
vt 0.078592 0.556687
vt 0.062500 0.597792
vt 0.067608 0.597633
vt 0.027133 0.607671
vt 0.027573 0.604955
vt 0.032988 0.597792
vt 0.028229 0.597633
vt 0.037017 0.560870
vt 0.034764 0.597581
vt 0.041999 0.597581
vt 0.043144 0.559674
vt 0.036311 0.603041
vt 0.042667 0.604237
vt 0.049894 0.603041
vt 0.051047 0.597581
vt 0.050129 0.560870
vt 0.041999 0.597581
vt 0.043144 0.559674
vt 0.100354 0.560870
vt 0.101689 0.597581
vt 0.103503 0.597581
vt 0.101212 0.559674
vt 0.101296 0.603041
vt 0.102167 0.604237
vt 0.101296 0.603041
vt 0.101689 0.597581
vt 0.100354 0.560870
vt 0.046408 0.556687
vt 0.054683 0.559253
vt 0.037502 0.559253
vt 0.096772 0.597633
vt 0.097428 0.604955
vt 0.095315 0.559253
vt 0.096772 0.597633
vt 0.095315 0.559253
vt 0.097428 0.604955
vt 0.046408 0.556687
vt 0.044816 0.607671
vt 0.035868 0.604955
vt 0.054205 0.604955
vt 0.094685 0.556687
vt 0.097867 0.607671
vt 0.057392 0.597633
vt 0.033336 0.597633
vn -0.0000 0.5491 -0.8358
vn 0.0000 0.6144 -0.7890
vn 0.3957 0.6113 -0.6854
vn 0.3633 0.6870 -0.6293
vn 0.0000 0.8208 -0.5712
vn 0.2381 0.8793 -0.4124
vn 0.4947 0.8208 -0.2856
vn 0.6833 0.6144 -0.3945
vn 0.7238 0.5491 -0.4179
vn 0.7914 0.6113 0.0000
vn 0.7267 0.6870 0.0000
vn 0.4762 0.8793 0.0000
vn 0.4947 0.8208 0.2856
vn 0.6833 0.6144 0.3945
vn 0.7238 0.5491 0.4179
vn 0.3957 0.6113 0.6854
vn 0.3633 0.6870 0.6293
vn 0.2381 0.8793 0.4124
vn -0.0000 0.8208 0.5712
vn -0.0000 0.6144 0.7890
vn 0.0000 0.5491 0.8358
vn -0.3957 0.6113 0.6854
vn -0.3633 0.6870 0.6293
vn -0.2381 0.8793 0.4124
vn -0.4947 0.8208 0.2856
vn -0.6833 0.6144 0.3945
vn -0.7238 0.5491 0.4179
vn 0.0000 1.0000 0.0000
vn -0.2381 0.8793 -0.4124
vn -0.4947 0.8208 -0.2856
vn -0.4762 0.8793 0.0000
vn -0.7914 0.6113 0.0000
vn -0.7267 0.6870 0.0000
vn -0.6833 0.6144 -0.3945
vn -0.7238 0.5491 -0.4179
vn -0.3957 0.6113 -0.6854
vn -0.3633 0.6870 -0.6293
vn 0.0000 -0.9601 -0.2796
vn -0.0000 -1.0000 -0.0000
vn 0.2422 -0.9601 -0.1398
vn 0.2422 -0.9601 0.1398
vn 0.0000 -0.9601 0.2796
vn -0.2422 -0.9601 0.1398
vn -0.2422 -0.9601 -0.1398
vn 0.0000 -0.2003 0.9797
vn 0.4173 -0.1197 0.9008
vn 0.2559 -0.8526 0.4556
vn 0.1298 0.5601 0.8182
vn -0.0702 0.4555 0.8875
vn 0.0397 -0.0581 0.9975
vn 0.0089 -0.3389 0.9408
vn -0.4173 -0.1197 0.9008
vn -0.1298 0.5601 0.8182
vn -0.2559 -0.8526 0.4556
vn -0.0089 -0.3389 0.9408
vn -0.0397 -0.0581 0.9975
vn 0.0702 0.4555 0.8875
vn -0.2932 0.8101 0.5078
vn -0.7735 0.5601 0.2967
vn -0.7335 0.4555 0.5046
vn -0.4228 0.5337 0.7324
vn -0.8485 -0.2003 0.4899
vn -0.5715 -0.1197 0.8118
vn -0.2666 -0.8526 0.4494
vn -0.6437 0.5601 0.5215
vn -0.8037 0.4555 0.3829
vn -0.8440 -0.0581 0.5332
vn -0.8103 -0.3389 0.4781
vn -0.9888 -0.1197 0.0890
vn -0.5225 -0.8526 0.0062
vn -0.8192 -0.3389 0.4627
vn -0.8837 -0.0581 0.4643
vn 0.2932 0.8101 -0.5078
vn -0.1298 0.5601 -0.8182
vn 0.7735 0.5601 -0.2967
vn 0.7335 0.4555 -0.5046
vn 0.4228 0.5337 -0.7324
vn 0.0702 0.4555 -0.8875
vn -0.9990 -0.0440 -0.0000
vn -0.9682 -0.2500 -0.0000
vn -0.8457 0.5337 0.0000
vn -0.8037 0.4555 -0.3829
vn -0.8440 -0.0581 -0.5332
vn -0.8103 -0.3389 -0.4781
vn 0.8192 -0.3389 0.4627
vn 0.8837 -0.0581 0.4643
vn 0.4995 -0.0440 0.8652
vn 0.4841 -0.2500 0.8385
vn 0.7335 0.4555 0.5046
vn 0.4228 0.5337 0.7324
vn -0.0089 -0.3389 -0.9408
vn -0.0397 -0.0581 -0.9975
vn 0.4995 -0.0440 -0.8652
vn 0.4841 -0.2500 -0.8385
vn 0.8837 -0.0581 -0.4643
vn 0.8192 -0.3389 -0.4627
vn 0.8485 -0.2003 0.4899
vn 0.9888 -0.1197 0.0890
vn 0.5225 -0.8526 0.0062
vn 0.7735 0.5601 0.2967
vn -0.2666 -0.8526 -0.4494
vn 0.8485 -0.2003 -0.4899
vn 0.9888 -0.1197 -0.0890
vn 0.5225 -0.8526 -0.0062
vn 0.2932 0.8101 0.5078
vn -0.2559 -0.8526 -0.4556
vn 0.0000 -0.2003 -0.9797
vn -0.4173 -0.1197 -0.9008
vn -0.5863 0.8101 0.0000
vn -0.6437 0.5601 -0.5215
vn -0.8485 -0.2003 -0.4899
vn -0.5715 -0.1197 -0.8118
vn -0.8192 -0.3389 -0.4627
vn -0.8837 -0.0581 -0.4643
vn -0.4995 -0.0440 -0.8652
vn -0.4841 -0.2500 -0.8385
vn -0.7335 0.4555 -0.5046
vn -0.4228 0.5337 -0.7324
vn -0.0702 0.4555 -0.8875
vn 0.0397 -0.0581 -0.9975
vn 0.0089 -0.3389 -0.9408
vn -0.4995 -0.0440 0.8652
vn -0.4841 -0.2500 0.8385
vn 0.8103 -0.3389 -0.4781
vn 0.8440 -0.0581 -0.5332
vn 0.9990 -0.0440 0.0000
vn 0.9682 -0.2500 0.0000
vn 0.8037 0.4555 -0.3829
vn 0.8457 0.5337 0.0000
vn 0.8037 0.4555 0.3829
vn 0.8440 -0.0581 0.5332
vn 0.8103 -0.3389 0.4781
vn 0.2559 -0.8526 -0.4556
vn -0.5225 -0.8526 -0.0062
vn 0.5715 -0.1197 0.8118
vn 0.6437 0.5601 0.5215
vn 0.2666 -0.8526 0.4494
vn 0.5715 -0.1197 -0.8118
vn 0.2666 -0.8526 -0.4494
vn 0.6437 0.5601 -0.5215
vn -0.2932 0.8101 -0.5078
vn -0.7735 0.5601 -0.2967
vn 0.1298 0.5601 -0.8182
vn 0.5863 0.8101 0.0000
vn 0.4173 -0.1197 -0.9008
vn -0.9888 -0.1197 -0.0890
usemtl tiny_treats_1
s 1
f 13/1/1 45/2/2 121/3/3 72/4/4
f 45/2/2 2/5/5 44/6/6 121/3/3
f 121/3/3 44/6/6 4/7/7 62/8/8
f 72/4/4 121/3/3 62/8/8 14/9/9
f 14/9/9 62/8/8 122/10/10 71/11/11
f 62/8/8 4/7/7 48/12/12 122/10/10
f 122/10/10 48/12/12 6/13/13 63/14/14
f 71/11/11 122/10/10 63/14/14 15/15/15
f 15/15/15 63/14/14 123/16/16 70/17/17
f 63/14/14 6/13/13 51/18/18 123/16/16
f 123/16/16 51/18/18 8/19/19 64/20/20
f 70/17/17 123/16/16 64/20/20 16/21/21
f 16/21/21 64/20/20 124/22/22 69/23/23
f 64/20/20 8/19/19 54/24/24 124/22/22
f 124/22/22 54/24/24 10/25/25 65/26/26
f 69/23/23 124/22/22 65/26/26 17/27/27
f 4/7/7 44/6/6 125/28/28 48/12/12
f 2/5/5 60/29/29 125/28/28 44/6/6
f 12/30/30 57/31/31 125/28/28 60/29/29
f 10/25/25 54/24/24 125/28/28 57/31/31
f 8/19/19 51/18/18 125/28/28 54/24/24
f 6/13/13 48/12/12 125/28/28 51/18/18
f 17/27/27 65/26/26 126/32/32 68/33/33
f 65/26/26 10/25/25 57/31/31 126/32/32
f 126/32/32 57/31/31 12/30/30 66/34/34
f 68/33/33 126/32/32 66/34/34 18/35/35
f 18/35/35 66/34/34 127/36/36 67/37/37
f 66/34/34 12/30/30 60/29/29 127/36/36
f 127/36/36 60/29/29 2/5/5 45/2/2
f 67/37/37 127/36/36 45/2/2 13/1/1
f 1/38/38 43/39/39 128/40/39 59/41/39
f 3/42/40 47/43/39 128/40/39 43/39/39
f 5/44/41 50/45/39 128/40/39 47/43/39
f 7/46/42 53/47/39 128/40/39 50/45/39
f 9/48/43 56/49/39 128/40/39 53/47/39
f 11/50/44 59/41/39 128/40/39 56/49/39
f 7/46/42 52/51/45 129/52/46 112/53/47
f 52/51/45 16/21/21 111/54/48 129/52/46
f 129/52/46 111/54/48 35/55/49 100/56/50
f 112/53/47 129/52/46 100/56/50 36/57/51
f 16/21/21 52/51/45 130/58/52 90/59/53
f 52/51/45 7/46/42 89/60/54 130/58/52
f 130/58/52 89/60/54 24/61/55 77/62/56
f 90/59/53 130/58/52 77/62/56 25/63/57
f 16/21/21 69/23/23 131/64/58 111/54/48
f 69/23/23 17/27/27 110/65/59 131/64/58
f 131/64/58 110/65/59 38/66/60 107/67/61
f 111/54/48 131/64/58 107/67/61 35/55/49
f 9/48/43 55/68/62 132/69/63 88/70/64
f 55/68/62 17/27/27 87/71/65 132/69/63
f 132/69/63 87/71/65 26/72/66 78/73/67
f 88/70/64 132/69/63 78/73/67 27/74/68
f 17/27/27 55/68/62 133/75/69 110/65/59
f 55/68/62 9/48/43 109/76/70 133/75/69
f 133/75/69 109/76/70 37/77/71 102/78/72
f 110/65/59 133/75/69 102/78/72 38/66/60
f 13/1/1 72/4/4 134/79/73 86/80/74
f 72/4/4 14/9/9 85/81/75 134/79/73
f 134/79/73 85/81/75 21/82/76 84/83/77
f 86/80/74 134/79/73 84/83/77 30/84/78
f 27/74/68 78/73/67 135/85/79 79/86/80
f 78/73/67 26/72/66 82/87/81 135/85/79
f 135/85/79 82/87/81 29/88/82 80/89/83
f 79/86/80 135/85/79 80/89/83 28/90/84
f 23/91/85 75/92/86 136/93/87 76/94/88
f 75/92/86 22/95/89 83/96/90 136/93/87
f 136/93/87 83/96/90 25/63/57 77/62/56
f 76/94/88 136/93/87 77/62/56 24/61/55
f 19/97/91 81/98/92 137/99/93 73/100/94
f 81/98/92 30/84/78 84/83/77 137/99/93
f 137/99/93 84/83/77 21/82/76 74/101/95
f 73/100/94 137/99/93 74/101/95 20/102/96
f 5/44/41 49/103/97 138/104/98 92/105/99
f 49/103/97 15/15/15 91/106/100 138/104/98
f 138/104/98 91/106/100 22/95/89 75/92/86
f 92/105/99 138/104/98 75/92/86 23/91/85
f 11/50/44 56/49/39 139/107/39 93/108/101
f 56/49/39 9/48/43 88/70/64 139/107/39
f 139/107/39 88/70/64 27/74/39 79/86/39
f 93/108/101 139/107/39 79/86/39 28/90/39
f 14/9/9 46/109/102 140/110/103 85/81/75
f 46/109/102 3/42/40 94/111/104 140/110/103
f 140/110/103 94/111/104 20/102/96 74/101/95
f 85/81/75 140/110/103 74/101/95 21/82/76
f 15/15/15 70/17/17 141/112/105 91/106/100
f 70/17/17 16/21/21 90/59/53 141/112/105
f 141/112/105 90/59/53 25/63/57 83/96/90
f 91/106/100 141/112/105 83/96/90 22/95/89
f 3/42/40 43/39/39 142/113/39 94/111/104
f 43/39/39 1/38/38 95/114/106 142/113/39
f 142/113/39 95/114/106 19/97/39 73/100/39
f 94/111/104 142/113/39 73/100/39 20/102/39
f 7/46/42 50/45/39 143/115/39 89/60/54
f 50/45/39 5/44/41 92/105/99 143/115/39
f 143/115/39 92/105/99 23/91/39 76/94/39
f 89/60/54 143/115/39 76/94/39 24/61/39
f 1/38/38 61/116/107 144/117/108 95/114/106
f 61/116/107 13/1/1 86/80/74 144/117/108
f 144/117/108 86/80/74 30/84/78 81/98/92
f 95/114/106 144/117/108 81/98/92 19/97/91
f 17/27/27 68/33/33 145/118/109 87/71/65
f 68/33/33 18/35/35 96/119/110 145/118/109
f 145/118/109 96/119/110 29/88/82 82/87/81
f 87/71/65 145/118/109 82/87/81 26/72/66
f 18/35/35 58/120/111 146/121/112 96/119/110
f 58/120/111 11/50/44 93/108/101 146/121/112
f 146/121/112 93/108/101 28/90/84 80/89/83
f 96/119/110 146/121/112 80/89/83 29/88/82
f 40/122/113 103/123/114 147/124/115 104/125/116
f 103/123/114 39/126/117 106/127/118 147/124/115
f 147/124/115 106/127/118 42/128/119 105/129/120
f 104/125/116 147/124/115 105/129/120 41/130/121
f 36/57/51 100/56/50 148/131/122 101/132/123
f 100/56/50 35/55/49 107/67/61 148/131/122
f 148/131/122 107/67/61 38/66/60 102/78/72
f 101/132/123 148/131/122 102/78/72 37/77/71
f 32/133/124 97/134/125 149/135/126 98/136/127
f 97/134/125 31/137/128 108/138/129 149/135/126
f 149/135/126 108/138/129 34/139/130 99/140/131
f 98/136/127 149/135/126 99/140/131 33/141/132
f 1/38/38 59/41/39 150/142/39 114/143/133
f 59/41/39 11/50/44 113/144/134 150/142/39
f 150/142/39 113/144/134 40/122/39 104/125/39
f 114/143/133 150/142/39 104/125/39 41/130/39
f 15/15/15 49/103/97 151/145/135 116/146/136
f 49/103/97 5/44/41 115/147/137 151/145/135
f 151/145/135 115/147/137 33/141/132 99/140/131
f 116/146/136 151/145/135 99/140/131 34/139/130
f 3/42/40 46/109/102 152/148/138 118/149/139
f 46/109/102 14/9/9 117/150/140 152/148/138
f 152/148/138 117/150/140 31/137/128 97/134/125
f 118/149/139 152/148/138 97/134/125 32/133/124
f 9/48/43 53/47/39 153/151/39 109/76/70
f 53/47/39 7/46/42 112/53/47 153/151/39
f 153/151/39 112/53/47 36/57/39 101/132/39
f 109/76/70 153/151/39 101/132/39 37/77/39
f 18/35/35 67/37/37 154/152/141 120/153/142
f 67/37/37 13/1/1 119/154/143 154/152/141
f 154/152/141 119/154/143 42/128/119 106/127/118
f 120/153/142 154/152/141 106/127/118 39/126/117
f 5/44/41 47/43/39 155/155/39 115/147/137
f 47/43/39 3/42/40 118/149/139 155/155/39
f 155/155/39 118/149/139 32/133/39 98/136/39
f 115/147/137 155/155/39 98/136/39 33/141/39
f 14/9/9 71/11/11 156/156/144 117/150/140
f 71/11/11 15/15/15 116/146/136 156/156/144
f 156/156/144 116/146/136 34/139/130 108/138/129
f 117/150/140 156/156/144 108/138/129 31/137/128
f 13/1/1 61/116/107 157/157/145 119/154/143
f 61/116/107 1/38/38 114/143/133 157/157/145
f 157/157/145 114/143/133 41/130/121 105/129/120
f 119/154/143 157/157/145 105/129/120 42/128/119
f 11/50/44 58/120/111 158/158/146 113/144/134
f 58/120/111 18/35/35 120/153/142 158/158/146
f 158/158/146 120/153/142 39/126/117 103/123/114
f 113/144/134 158/158/146 103/123/114 40/122/113
