# Blender v3.4.1 OBJ File: 'Tiny_treats_Pretty_Park_ASSETS_EXPORT.blend'
# www.blender.org
mtllib bush.mtl
o bush
v -0.000000 0.000000 -0.296759
v -0.000000 0.459852 -0.282597
v 0.256999 0.000000 -0.148379
v 0.244735 0.459852 -0.141299
v 0.256999 0.000000 0.148379
v 0.244735 0.459852 0.141297
v -0.000000 -0.000000 0.296758
v -0.000000 0.459852 0.282596
v -0.256999 0.000000 0.148379
v -0.244735 0.459852 0.141297
v -0.256999 0.000000 -0.148379
v -0.244735 0.459852 -0.141299
v -0.000000 0.329351 -0.393296
v 0.340603 0.329351 -0.196648
v 0.340603 0.329351 0.196647
v -0.000000 0.329351 0.393295
v -0.340603 0.329351 0.196647
v -0.340603 0.329351 -0.196648
v 0.115750 0.000000 -0.420674
v 0.306438 0.000000 -0.310580
v 0.331124 0.264860 -0.336602
v 0.331124 0.264860 0.336601
v 0.306438 -0.000000 0.310579
v 0.115750 -0.000000 0.420673
v 0.125943 0.264860 0.455063
v -0.457066 0.264860 0.118461
v -0.422188 0.000000 0.110093
v -0.422188 0.000000 -0.110094
v -0.457066 0.264860 -0.118462
v 0.125943 0.264860 -0.455064
v 0.457066 0.264860 -0.118462
v 0.422188 0.000000 -0.110094
v 0.422188 0.000000 0.110094
v 0.457066 0.264860 0.118461
v -0.125943 0.264860 0.455063
v -0.115750 -0.000000 0.420673
v -0.306438 -0.000000 0.310579
v -0.331124 0.264860 0.336601
v -0.331124 0.264860 -0.336602
v -0.306438 0.000000 -0.310580
v -0.115750 0.000000 -0.420674
v -0.125943 0.264860 -0.455063
v -0.000000 0.000000 -0.000000
v 0.121060 0.484251 -0.209683
v 0.374596 0.149259 -0.216274
v 0.242119 0.484251 -0.000001
v 0.374596 0.149259 0.216274
v 0.121060 0.484251 0.209682
v -0.000000 0.149259 0.432548
v -0.121060 0.484251 0.209682
v -0.374597 0.149259 0.216274
v -0.242120 0.484251 -0.000001
v -0.374597 0.149259 -0.216274
v -0.121060 0.484250 -0.209683
v -0.000000 0.149259 -0.432548
v -0.181025 0.373073 -0.313546
v -0.362050 0.373073 -0.000000
v -0.181025 0.373073 0.313545
v 0.181025 0.373074 0.313545
v 0.362050 0.373073 -0.000000
v 0.181025 0.373073 -0.313546
v 0.219545 0.000000 -0.380264
v 0.361705 0.153821 -0.327055
v 0.361705 0.153821 0.327055
v 0.219544 -0.000000 0.380263
v 0.102385 0.153821 0.476774
v -0.464090 0.153821 0.149719
v -0.439089 0.000000 -0.000000
v -0.464090 0.153821 -0.149720
v 0.102385 0.153821 -0.476775
v -0.470198 0.286036 -0.000000
v 0.235099 0.286036 0.407204
v 0.235099 0.286036 -0.407205
v 0.464090 0.153821 -0.149720
v 0.439089 0.000000 -0.000000
v 0.464090 0.153821 0.149719
v -0.102385 0.153821 0.476774
v -0.219545 -0.000000 0.380263
v -0.361705 0.153821 0.327055
v -0.361705 0.153821 -0.327056
v -0.219545 0.000000 -0.380264
v -0.102385 0.153821 -0.476775
v -0.235099 0.286036 -0.407205
v -0.235099 0.286036 0.407204
v 0.470198 0.286036 -0.000000
v -0.000000 0.538492 -0.000001
v -0.499998 0.159237 -0.000000
v 0.249999 0.159237 0.433012
v 0.249999 0.159237 -0.433013
v -0.249999 0.159237 -0.433013
v -0.249999 0.159237 0.433012
v 0.499998 0.159237 -0.000000
vt 0.077272 0.611796
vt 0.070428 0.675150
vt 0.078400 0.673804
vt 0.089896 0.608749
vt 0.078356 0.675150
vt 0.092043 0.611796
vt 0.078400 0.673804
vt 0.089896 0.608749
vt 0.070428 0.675150
vt 0.077272 0.611796
vt 0.062500 0.673804
vt 0.062500 0.608749
vt 0.054572 0.675150
vt 0.047728 0.611796
vt 0.046601 0.673804
vt 0.035104 0.608749
vt 0.046644 0.675150
vt 0.032957 0.611796
vt 0.062500 0.678334
vt 0.062500 0.673804
vt 0.054572 0.675150
vt 0.046601 0.673804
vt 0.035104 0.608749
vt 0.047728 0.611796
vt 0.062500 0.608749
vt 0.062500 0.558031
vt 0.074871 0.560870
vt 0.073953 0.597581
vt 0.062500 0.597792
vt 0.051047 0.597581
vt 0.050129 0.560870
vt 0.036311 0.603041
vt 0.042667 0.604237
vt 0.075106 0.603041
vt 0.023704 0.603041
vt 0.023311 0.597581
vt 0.032988 0.597792
vt 0.049894 0.603041
vt 0.038695 0.558031
vt 0.037017 0.560870
vt 0.034764 0.597581
vt 0.024646 0.560870
vt 0.088690 0.603041
vt 0.082333 0.604237
vt 0.088690 0.603041
vt 0.090236 0.597581
vt 0.092012 0.597792
vt 0.075106 0.603041
vt 0.021497 0.597581
vt 0.023788 0.559674
vt 0.022834 0.604237
vt 0.023704 0.603041
vt 0.023311 0.597581
vt 0.024646 0.560870
vt 0.087983 0.560870
vt 0.083002 0.597581
vt 0.081856 0.559674
vt 0.082333 0.604237
vt 0.074871 0.560870
vt 0.073953 0.597581
vt 0.083002 0.597581
vt 0.081856 0.559674
vt 0.090236 0.597581
vt 0.087983 0.560870
vt 0.042180 0.555950
vt 0.086306 0.558031
vt 0.086306 0.558031
vt 0.092012 0.597792
vt 0.038695 0.558031
vt 0.062500 0.558031
vt 0.072660 0.555950
vt 0.062500 0.597792
vt 0.032988 0.597792
vt 0.037017 0.560870
vt 0.043144 0.559674
vt 0.052340 0.555950
vt 0.034764 0.597581
vt 0.041999 0.597581
vt 0.036311 0.603041
vt 0.042667 0.604237
vt 0.049894 0.603041
vt 0.051047 0.597581
vt 0.050129 0.560870
vt 0.041999 0.597581
vt 0.043144 0.559674
vt 0.100354 0.560870
vt 0.101689 0.597581
vt 0.103503 0.597581
vt 0.101212 0.559674
vt 0.101296 0.603041
vt 0.102167 0.604237
vt 0.101296 0.603041
vt 0.101689 0.597581
vt 0.100354 0.560870
vt 0.082820 0.555950
vn 0.3367 0.7392 -0.5832
vn 0.2420 0.8751 -0.4191
vn 0.5098 0.8084 -0.2943
vn 0.6927 0.6003 -0.3999
vn 0.4839 0.8751 0.0000
vn 0.6735 0.7392 0.0000
vn 0.5098 0.8084 0.2943
vn 0.6927 0.6003 0.3999
vn 0.2420 0.8751 0.4191
vn 0.3367 0.7392 0.5832
vn -0.0000 0.8084 0.5887
vn -0.0000 0.6003 0.7998
vn -0.2420 0.8751 0.4191
vn -0.3367 0.7392 0.5832
vn -0.5098 0.8084 0.2943
vn -0.6927 0.6003 0.3999
vn -0.4839 0.8751 -0.0000
vn -0.6735 0.7392 0.0000
vn -0.0000 1.0000 0.0000
vn -0.0000 0.8084 -0.5887
vn -0.2420 0.8751 -0.4191
vn -0.5098 0.8084 -0.2943
vn -0.6927 0.6003 -0.3999
vn -0.3367 0.7392 -0.5832
vn -0.0000 0.6003 -0.7998
vn -0.5329 -0.4693 0.7041
vn -0.1251 -0.4426 0.8880
vn -0.1106 -0.1084 0.9879
vn 0.0000 -0.1854 0.9827
vn 0.1106 -0.1084 0.9879
vn 0.1251 -0.4426 0.8880
vn 0.5329 -0.4693 0.7041
vn -0.7633 0.4365 0.4763
vn -0.4222 0.5359 0.7312
vn 0.0308 0.4365 0.8992
vn -0.7941 0.4365 0.4229
vn -0.8003 -0.1084 0.5898
vn -0.8510 -0.1854 0.4913
vn -0.0308 0.4365 0.8992
vn -0.8762 -0.4693 -0.1095
vn -0.8316 -0.4426 0.3356
vn -0.9109 -0.1084 0.3982
vn -0.7064 -0.4426 0.5524
vn -0.3433 -0.4693 0.8136
vn 0.7633 0.4365 -0.4763
vn 0.4222 0.5359 -0.7312
vn 0.7633 0.4365 0.4763
vn 0.9109 -0.1084 0.3982
vn 0.8510 -0.1854 0.4913
vn 0.0308 0.4365 -0.8992
vn -0.9974 -0.0718 -0.0000
vn -0.9429 -0.3330 -0.0000
vn -0.8443 0.5359 0.0000
vn -0.7941 0.4365 -0.4229
vn -0.8003 -0.1084 -0.5898
vn -0.7064 -0.4426 -0.5524
vn 0.8316 -0.4426 0.3356
vn 0.4987 -0.0718 0.8638
vn 0.4715 -0.3330 0.8166
vn 0.4222 0.5359 0.7312
vn -0.1251 -0.4426 -0.8880
vn -0.1106 -0.1084 -0.9879
vn 0.4987 -0.0718 -0.8638
vn 0.4715 -0.3330 -0.8166
vn 0.9109 -0.1084 -0.3982
vn 0.8316 -0.4426 -0.3356
vn -0.0000 -1.0000 -0.0000
vn 0.8762 -0.4693 -0.1095
vn 0.8762 -0.4693 0.1095
vn 0.8510 -0.1854 -0.4913
vn 0.0000 -0.1854 -0.9827
vn -0.5329 -0.4693 -0.7041
vn -0.8510 -0.1854 -0.4913
vn -0.3433 -0.4693 -0.8136
vn -0.8316 -0.4426 -0.3356
vn -0.9109 -0.1084 -0.3982
vn -0.4987 -0.0718 -0.8638
vn -0.4715 -0.3330 -0.8166
vn -0.7633 0.4365 -0.4763
vn -0.4222 0.5359 -0.7312
vn -0.0308 0.4365 -0.8992
vn 0.1106 -0.1084 -0.9879
vn 0.1251 -0.4426 -0.8880
vn -0.4987 -0.0718 0.8638
vn -0.4715 -0.3330 0.8166
vn 0.7064 -0.4426 -0.5524
vn 0.8003 -0.1084 -0.5898
vn 0.9974 -0.0718 0.0000
vn 0.9429 -0.3330 -0.0000
vn 0.7941 0.4365 -0.4229
vn 0.8443 0.5359 0.0000
vn 0.7941 0.4365 0.4229
vn 0.8003 -0.1084 0.5898
vn 0.7064 -0.4426 0.5524
vn 0.3433 -0.4693 0.8136
vn 0.3433 -0.4693 -0.8136
vn 0.5329 -0.4693 -0.7041
vn -0.8762 -0.4693 0.1095
usemtl tiny_treats_1
s 1
f 61/1/1 44/2/2 4/3/3 14/4/4
f 4/3/3 46/5/5 60/6/6 14/4/4
f 60/6/6 46/5/5 6/7/7 15/8/8
f 6/7/7 48/9/9 59/10/10 15/8/8
f 59/10/10 48/9/9 8/11/11 16/12/12
f 8/11/11 50/13/13 58/14/14 16/12/12
f 58/14/14 50/13/13 10/15/15 17/16/16
f 10/15/15 52/17/17 57/18/18 17/16/16
f 4/3/3 44/2/2 86/19/19 46/5/5
f 2/20/20 54/21/21 86/19/19 44/2/2
f 12/22/22 52/17/17 86/19/19 54/21/21
f 10/15/15 50/13/13 86/19/19 52/17/17
f 8/11/11 48/9/9 86/19/19 50/13/13
f 6/7/7 46/5/5 86/19/19 48/9/9
f 57/18/18 52/17/17 12/22/22 18/23/23
f 12/22/22 54/21/21 56/24/24 18/23/23
f 56/24/24 54/21/21 2/20/20 13/25/25
f 7/26/26 24/27/27 66/28/28 49/29/29
f 49/29/29 77/30/30 36/31/31 7/26/32
f 38/32/33 84/33/34 58/14/14 17/16/16
f 49/29/29 66/28/28 25/34/35 16/12/12
f 17/16/16 26/35/36 67/36/37 51/37/38
f 58/14/14 84/33/34 35/38/39 16/12/12
f 9/39/40 37/40/41 79/41/42 51/37/38
f 51/37/38 67/36/37 27/42/43 9/39/44
f 14/4/4 21/43/45 73/44/46 61/1/1
f 51/37/38 79/41/42 38/32/33 17/16/16
f 15/8/8 22/45/47 64/46/48 47/47/49
f 61/1/1 73/44/46 30/48/50 13/25/25
f 27/42/43 67/36/37 87/49/51 68/50/52
f 67/36/37 26/35/36 71/51/53 87/49/51
f 87/49/51 71/51/53 29/52/54 69/53/55
f 68/50/52 87/49/51 69/53/55 28/54/56
f 23/55/57 64/46/48 88/56/58 65/57/59
f 64/46/48 22/45/47 72/58/60 88/56/58
f 88/56/58 72/58/60 25/34/35 66/28/28
f 65/57/59 88/56/58 66/28/28 24/27/27
f 19/59/61 70/60/62 89/61/63 62/62/64
f 70/60/62 30/48/50 73/44/46 89/61/63
f 89/61/63 73/44/46 21/43/45 63/63/65
f 62/62/64 89/61/63 63/63/65 20/64/66
f 27/42/67 68/50/67 43/65/67 9/39/67
f 47/47/49 64/46/48 23/55/57 5/66/68
f 3/67/69 20/64/66 63/63/65 45/68/70
f 43/65/67 68/50/67 28/54/67 11/69/67
f 25/34/35 72/58/60 59/10/10 16/12/12
f 45/68/70 63/63/65 21/43/45 14/4/4
f 1/70/67 19/59/67 62/62/67 43/71/67
f 59/10/10 72/58/60 22/45/47 15/8/8
f 23/55/67 65/57/67 43/71/67 5/66/67
f 43/71/67 62/62/67 20/64/67 3/67/67
f 30/48/50 70/60/62 55/72/71 13/25/25
f 43/71/67 65/57/67 24/27/67 7/26/67
f 18/23/23 29/52/54 71/51/53 57/18/18
f 55/72/71 70/60/62 19/59/61 1/70/72
f 28/54/56 69/53/55 53/73/73 11/69/74
f 57/18/18 71/51/53 26/35/36 17/16/16
f 11/69/67 40/74/67 81/75/67 43/76/67
f 53/73/73 69/53/55 29/52/54 18/23/23
f 40/74/75 80/77/76 90/78/77 81/75/78
f 80/77/76 39/79/79 83/80/80 90/78/77
f 90/78/77 83/80/80 42/81/81 82/82/82
f 81/75/78 90/78/77 82/82/82 41/83/83
f 36/31/31 77/30/30 91/84/84 78/85/85
f 77/30/30 35/38/39 84/33/34 91/84/84
f 91/84/84 84/33/34 38/32/33 79/41/42
f 78/85/85 91/84/84 79/41/42 37/40/41
f 32/86/86 74/87/87 92/88/88 75/89/89
f 74/87/87 31/90/90 85/91/91 92/88/88
f 92/88/88 85/91/91 34/92/92 76/93/93
f 75/89/89 92/88/88 76/93/93 33/94/94
f 5/66/95 33/94/94 76/93/93 47/47/49
f 43/76/67 81/75/67 41/83/67 1/70/67
f 14/4/4 31/90/90 74/87/87 45/68/70
f 47/47/49 76/93/93 34/92/92 15/8/8
f 36/31/67 78/85/67 43/76/67 7/26/67
f 45/68/70 74/87/87 32/86/86 3/67/96
f 13/25/25 42/81/81 83/80/80 56/24/24
f 43/76/67 78/85/67 37/40/67 9/39/67
f 32/86/67 75/89/67 43/95/67 3/67/67
f 56/24/24 83/80/80 39/79/79 18/23/23
f 34/92/92 85/91/91 60/6/6 15/8/8
f 43/95/67 75/89/67 33/94/67 5/66/67
f 41/83/83 82/82/82 55/72/71 1/70/97
f 60/6/6 85/91/91 31/90/90 14/4/4
f 39/79/79 80/77/76 53/73/73 18/23/23
f 55/72/71 82/82/82 42/81/81 13/25/25
f 53/73/73 80/77/76 40/74/75 11/69/98
f 13/25/25 2/20/20 44/2/2 61/1/1
f 35/38/39 77/30/30 49/29/29 16/12/12
