# Blender v3.4.1 OBJ File: 'Tiny_treats_Pretty_Park_ASSETS_EXPORT.blend'
# www.blender.org
mtllib floor_grass_sliced_base.mtl
o floor_grass_sliced_base
v -1.000000 -0.500000 1.000000
v -1.000000 -0.000000 1.000000
v -1.000000 -0.500000 -1.000000
v -1.000000 0.000000 -1.000000
v 1.000000 -0.500000 1.000000
v 1.000000 -0.000000 1.000000
v 1.000000 -0.500000 -1.000000
v 1.000000 0.000000 -1.000000
vt 0.867527 0.039306
vt 0.867527 0.039638
vt 0.867093 0.039638
vt 0.867093 0.039306
vt 0.000000 1.000000
vt 0.000000 0.000000
vt 1.000000 0.000000
vt 1.000000 1.000000
vt 0.867093 0.039306
vt 0.867093 0.039638
vt 0.867527 0.039638
vt 0.867527 0.039306
vn 0.0000 -0.0000 1.0000
vn 0.0000 1.0000 0.0000
vn 0.0000 0.0000 -1.0000
vn 1.0000 0.0000 0.0000
vn -1.0000 0.0000 0.0000
vn 0.0000 -1.0000 -0.0000
usemtl tiny_treats_grass
s 1
f 5/1/1 6/2/1 2/3/1 1/4/1
f 4/5/2 2/6/2 6/7/2 8/8/2
f 3/9/3 4/10/3 8/11/3 7/12/3
f 7/12/4 8/11/4 6/2/4 5/1/4
f 1/4/5 2/3/5 4/10/5 3/9/5
f 7/12/6 5/1/6 1/4/6 3/9/6
