# Blender v3.4.1 OBJ File: 'Tiny_treats_Pretty_Park_ASSETS_EXPORT.blend'
# www.blender.org
mtllib floor_grass_sliced_C.mtl
o floor_grass_sliced_C
v -1.000000 -0.500000 1.000000
v -1.000000 -0.000000 1.000000
v -1.000000 -0.500000 -1.000000
v 1.000000 -0.500000 1.000000
v 0.000000 -0.500000 -1.000000
v 1.000000 -0.500000 -0.000000
v 0.258819 -0.500000 -0.965926
v 0.500000 -0.500000 -0.866025
v 0.707107 -0.500000 -0.707107
v 0.866025 -0.500000 -0.500000
v 0.965926 -0.500000 -0.258819
v -1.000000 0.000000 -0.900000
v -1.000000 -0.100000 -1.000000
v -1.000000 -0.013397 -0.950000
v -1.000000 -0.050000 -0.986603
v 1.000000 -0.100000 1.000000
v 0.900000 -0.000000 1.000000
v 0.986603 -0.050000 1.000000
v 0.950000 -0.013398 1.000000
v 0.900000 -0.000000 0.006554
v 1.000000 -0.100000 -0.000000
v 0.950000 -0.013397 0.003277
v 0.986603 -0.050000 0.000878
v -0.006554 0.000000 -0.900000
v 0.000000 -0.100000 -1.000000
v -0.003277 -0.013397 -0.950000
v -0.000878 -0.050000 -0.986603
v 0.868500 0.000000 -0.232714
v 0.965926 -0.100000 -0.258819
v 0.917213 -0.013397 -0.245766
v 0.952873 -0.050000 -0.255322
v 0.778675 0.000000 -0.449569
v 0.866025 -0.100000 -0.500000
v 0.822350 -0.013397 -0.474784
v 0.854323 -0.050000 -0.493243
v 0.635786 0.000000 -0.635786
v 0.707107 -0.100000 -0.707107
v 0.671446 -0.013397 -0.671446
v 0.697551 -0.050000 -0.697551
v 0.449569 0.000000 -0.778675
v 0.500000 -0.100000 -0.866025
v 0.474784 -0.013397 -0.822350
v 0.493243 -0.050000 -0.854323
v 0.232714 0.000000 -0.868500
v 0.258819 -0.100000 -0.965926
v 0.245766 -0.013397 -0.917213
v 0.255322 -0.050000 -0.952873
vt 0.867962 0.039306
vt 0.867962 0.039571
vt 0.867962 0.039571
vt 0.867962 0.039306
vt 0.867954 0.039306
vt 0.867954 0.039571
vt 0.867959 0.039605
vt 0.867951 0.039629
vt 0.867940 0.039638
vt 0.867527 0.039306
vt 0.867527 0.039571
vt 0.867744 0.039571
vt 0.867744 0.039306
vt 0.867801 0.039571
vt 0.867801 0.039306
vt 0.867932 0.039571
vt 0.867932 0.039306
vt 0.867898 0.039306
vt 0.867898 0.039571
vt 0.867853 0.039306
vt 0.867853 0.039571
vt 0.000000 0.000000
vt 0.950000 0.000000
vt 0.950000 0.496723
vt 0.758995 0.147716
vt 0.759035 0.147716
vt 0.759097 0.147679
vt 0.759056 0.147679
vt 0.759143 0.147578
vt 0.759101 0.147578
vt 0.759160 0.147440
vt 0.759117 0.147440
vt 0.758882 0.147716
vt 0.758937 0.147679
vt 0.758977 0.147578
vt 0.758992 0.147440
vt 0.758703 0.147716
vt 0.758748 0.147679
vt 0.758780 0.147578
vt 0.758792 0.147440
vt 0.758469 0.147716
vt 0.758501 0.147679
vt 0.758524 0.147578
vt 0.758532 0.147440
vt 0.758197 0.147716
vt 0.758213 0.147679
vt 0.758225 0.147578
vt 0.758230 0.147440
vt 0.757897 0.147716
vt 0.757901 0.147679
vt 0.757904 0.147578
vt 0.757905 0.147440
vt 0.756649 0.147716
vt 0.756649 0.147679
vt 0.756649 0.147578
vt 0.756649 0.147440
vt 0.759035 0.147716
vt 0.759097 0.147679
vt 0.759143 0.147578
vt 0.759160 0.147440
vt 0.867527 0.039638
vt 0.867527 0.039629
vt 0.867527 0.039605
vt 0.867527 0.039306
vt 0.867527 0.039638
vt 0.934250 0.616357
vt 0.889338 0.724784
vt 0.817893 0.817893
vt 0.724784 0.889338
vt 0.616357 0.934250
vt 0.496723 0.950000
vt 0.000000 0.950000
vn 0.9979 0.0000 -0.0654
vn 0.9894 0.1301 -0.0648
vn 0.9914 0.1305 0.0000
vn 1.0000 0.0000 0.0000
vn 0.9659 0.0000 -0.2588
vn 0.9577 0.1302 -0.2566
vn 0.0000 -0.0000 1.0000
vn 0.0000 0.0000 -1.0000
vn 0.0000 0.1305 -0.9914
vn 0.0648 0.1301 -0.9894
vn 0.0654 0.0000 -0.9979
vn 0.2566 0.1302 -0.9577
vn 0.2588 0.0000 -0.9659
vn 0.8587 0.1302 -0.4957
vn 0.8660 0.0000 -0.5000
vn 0.7071 0.0000 -0.7071
vn 0.7011 0.1302 -0.7011
vn 0.5000 0.0000 -0.8660
vn 0.4957 0.1302 -0.8587
vn -0.0000 1.0000 0.0000
vn 0.1305 0.9914 0.0000
vn 0.1353 0.9908 -0.0089
vn 0.1353 0.9901 -0.0362
vn 0.5062 0.8618 -0.0332
vn 0.4956 0.8584 -0.1328
vn 0.8664 0.4961 -0.0568
vn 0.8400 0.4936 -0.2251
vn 0.1213 0.9901 -0.0700
vn 0.4443 0.8584 -0.2565
vn 0.7532 0.4936 -0.4348
vn 0.0990 0.9901 -0.0990
vn 0.3628 0.8584 -0.3628
vn 0.6150 0.4936 -0.6150
vn 0.0700 0.9901 -0.1213
vn 0.2565 0.8584 -0.4443
vn 0.4348 0.4936 -0.7532
vn 0.0362 0.9901 -0.1353
vn 0.1328 0.8584 -0.4956
vn 0.2251 0.4936 -0.8400
vn 0.0089 0.9908 -0.1353
vn 0.0332 0.8618 -0.5062
vn 0.0568 0.4961 -0.8664
vn 0.0000 0.9914 -0.1305
vn 0.0000 0.8660 -0.5000
vn 0.0000 0.5000 -0.8660
vn 0.5000 0.8660 0.0000
vn 0.8660 0.5000 0.0000
vn -1.0000 0.0000 0.0000
vn 0.0000 -1.0000 -0.0000
usemtl tiny_treats_grass
s 1
f 6/1/1 21/2/2 16/3/3 4/4/4
f 21/2/2 6/1/1 11/5/5 29/6/6
f 16/3/7 18/7/7 19/8/7 17/9/7
f 3/10/8 13/11/9 25/12/10 5/13/11
f 45/14/12 7/15/13 5/13/11 25/12/10
f 33/16/14 10/17/15 9/18/16 37/19/17
f 37/19/17 9/18/16 8/20/18 41/21/19
f 41/21/19 8/20/18 7/15/13 45/14/12
f 29/6/6 11/5/5 10/17/15 33/16/14
f 2/22/20 17/23/21 20/24/22
f 28/25/23 20/26/22 22/27/24 30/28/25
f 30/28/25 22/27/24 23/29/26 31/30/27
f 31/30/27 23/29/26 21/31/2 29/32/6
f 32/33/28 28/25/23 30/28/25 34/34/29
f 34/34/29 30/28/25 31/30/27 35/35/30
f 35/35/30 31/30/27 29/32/6 33/36/14
f 36/37/31 32/33/28 34/34/29 38/38/32
f 38/38/32 34/34/29 35/35/30 39/39/33
f 39/39/33 35/35/30 33/36/14 37/40/17
f 40/41/34 36/37/31 38/38/32 42/42/35
f 42/42/35 38/38/32 39/39/33 43/43/36
f 43/43/36 39/39/33 37/40/17 41/44/19
f 44/45/37 40/41/34 42/42/35 46/46/38
f 46/46/38 42/42/35 43/43/36 47/47/39
f 47/47/39 43/43/36 41/44/19 45/48/12
f 24/49/40 44/45/37 46/46/38 26/50/41
f 26/50/41 46/46/38 47/47/39 27/51/42
f 27/51/42 47/47/39 45/48/12 25/52/10
f 12/53/43 24/49/40 26/50/41 14/54/44
f 14/54/44 26/50/41 27/51/42 15/55/45
f 15/55/45 27/51/42 25/52/10 13/56/9
f 20/26/22 17/57/21 19/58/46 22/27/24
f 22/27/24 19/58/46 18/59/47 23/29/26
f 23/29/26 18/59/47 16/60/3 21/31/2
f 13/11/48 12/61/48 14/62/48 15/63/48
f 1/64/48 2/65/48 12/61/48 13/11/48
f 3/10/48 1/64/48 13/11/48
f 16/3/7 17/9/7 2/65/7 1/64/7
f 4/4/7 16/3/7 1/64/7
f 2/22/20 20/24/22 28/66/23
f 2/22/20 28/66/23 32/67/28
f 2/22/20 32/67/28 36/68/31
f 2/22/20 36/68/31 40/69/34
f 2/22/20 40/69/34 44/70/37
f 2/22/20 44/70/37 24/71/40
f 12/72/43 2/22/20 24/71/40
f 1/64/49 3/10/49 5/13/49
f 4/4/49 1/64/49 6/1/49
f 6/1/49 1/64/49 11/5/49
f 11/5/49 1/64/49 10/17/49
f 10/17/49 1/64/49 9/18/49
f 9/18/49 1/64/49 8/20/49
f 8/20/49 1/64/49 7/15/49
f 7/15/49 1/64/49 5/13/49
