# Blender v3.4.1 OBJ File: 'Tiny_treats_Pretty_Park_ASSETS_EXPORT.blend'
# www.blender.org
mtllib floor_grass_sliced_H.mtl
o floor_grass_sliced_H
v -1.000000 -0.500000 1.000000
v -1.000000 -0.500000 -1.000000
v -1.000000 0.000000 -1.000000
v 1.000000 -0.500000 1.000000
v 1.000000 -0.500000 -1.000000
v 1.000000 0.000000 -1.000000
v -1.000000 -0.100000 1.000000
v -1.000000 -0.000000 0.900000
v -1.000000 -0.050000 0.986603
v -1.000000 -0.013398 0.950000
v 1.000000 -0.000000 0.900000
v 1.000000 -0.100000 1.000000
v 1.000000 -0.013398 0.950000
v 1.000000 -0.050000 0.986603
vt 0.867527 0.039571
vt 0.867527 0.039638
vt 0.867527 0.039629
vt 0.867527 0.039605
vt 0.867093 0.039571
vt 0.867093 0.039605
vt 0.867093 0.039629
vt 0.867093 0.039638
vt 0.867093 0.039306
vt 0.867093 0.039638
vt 0.867527 0.039638
vt 0.867527 0.039306
vt 0.867527 0.039306
vt 0.867093 0.039306
vt 0.756649 0.147716
vt 0.754138 0.147716
vt 0.754138 0.147679
vt 0.756649 0.147679
vt 0.754138 0.147578
vt 0.756649 0.147578
vt 0.754138 0.147441
vt 0.756649 0.147441
vt 0.000000 1.000000
vt 0.000000 0.050000
vt 1.000000 0.050000
vt 1.000000 1.000000
vn 1.0000 0.0000 0.0000
vn -1.0000 0.0000 0.0000
vn 0.0000 0.0000 -1.0000
vn 0.0000 -0.0000 1.0000
vn 0.0000 0.1305 0.9914
vn 0.0000 0.9914 0.1305
vn 0.0000 0.8660 0.5000
vn 0.0000 0.5000 0.8660
vn 0.0000 1.0000 0.0000
vn 0.0000 -1.0000 -0.0000
usemtl tiny_treats_grass
s 1
f 12/1/1 11/2/1 13/3/1 14/4/1
f 7/5/2 9/6/2 10/7/2 8/8/2
f 2/9/3 3/10/3 6/11/3 5/12/3
f 4/13/4 12/1/5 7/5/5 1/14/4
f 11/15/6 8/16/6 10/17/7 13/18/7
f 13/18/7 10/17/7 9/19/8 14/20/8
f 14/20/8 9/19/8 7/21/5 12/22/5
f 3/23/9 8/24/6 11/25/6 6/26/9
f 5/12/1 6/11/1 11/2/1 12/1/1
f 4/13/1 5/12/1 12/1/1
f 7/5/2 8/8/2 3/10/2 2/9/2
f 1/14/2 7/5/2 2/9/2
f 5/12/10 4/13/10 1/14/10 2/9/10
