# Blender v3.4.1 OBJ File: 'Tiny_treats_Pretty_Park_ASSETS_EXPORT.blend'
# www.blender.org
mtllib flower_A.mtl
o flower_A
v 0.000000 -0.020000 -0.000000
v 0.052425 0.106562 0.154685
v -0.052425 0.106562 0.154685
v 0.000000 0.118326 0.193548
v 0.050004 0.050952 0.050004
v -0.050004 0.050952 0.050004
v -0.000000 0.058975 0.023755
v 0.000000 0.088091 0.224531
v -0.063934 0.071513 0.180936
v -0.070505 0.030957 0.070505
v 0.063934 0.071513 0.180936
v 0.070505 0.030957 0.070505
v -0.037070 0.074957 0.038293
v -0.037070 0.074957 -0.035845
v 0.037069 0.074957 0.038293
v 0.037069 0.074957 -0.035845
v -0.045401 0.047887 0.046624
v -0.045401 0.083288 0.001224
v -0.045401 0.047887 -0.044176
v -0.000001 0.083288 -0.044176
v 0.045400 0.047887 -0.044176
v 0.045400 0.083288 0.001224
v 0.045400 0.047887 0.046624
v -0.000001 0.083288 0.046624
v -0.000001 0.102093 0.001224
v -0.000001 0.047887 0.065430
v 0.064205 0.047887 0.001224
v -0.000001 0.047887 -0.062982
v -0.064206 0.047887 0.001224
v -0.154685 0.106562 0.052424
v -0.154685 0.106562 -0.052425
v -0.193547 0.118326 -0.000000
v -0.050003 0.050952 -0.050004
v -0.023755 0.058975 -0.000000
v -0.224531 0.088091 -0.000000
v -0.180935 0.071513 -0.063935
v -0.070505 0.030957 -0.070505
v -0.180935 0.071513 0.063934
v -0.052424 0.106562 -0.154685
v 0.052425 0.106562 -0.154685
v 0.000001 0.118326 -0.193548
v 0.050004 0.050952 -0.050004
v 0.000001 0.058975 -0.023755
v 0.000001 0.088091 -0.224531
v 0.063935 0.071513 -0.180935
v 0.070506 0.030957 -0.070505
v -0.063934 0.071513 -0.180935
v 0.154685 0.106562 -0.052424
v 0.154685 0.106562 0.052425
v 0.193548 0.118326 0.000001
v 0.023755 0.058975 0.000000
v 0.224532 0.088091 0.000001
v 0.180936 0.071513 0.063935
v 0.180936 0.071513 -0.063934
v 0.001413 0.009887 0.091273
v -0.000410 0.021435 0.117245
v 0.073526 0.099461 0.109997
v 0.073728 0.087445 0.086319
v -0.073462 0.087036 0.085911
v -0.073526 0.099461 0.109997
v 0.000000 0.084852 0.078120
v -0.000026 0.094426 0.104410
v -0.092243 0.064910 0.128803
v -0.092078 0.054849 0.103658
v 0.092243 0.064910 0.128803
v 0.091107 0.053774 0.102167
v -0.091272 0.009887 0.001413
v -0.117244 0.021435 -0.000410
v -0.109997 0.099461 0.073526
v -0.086318 0.087445 0.073728
v -0.085911 0.087036 -0.073462
v -0.109997 0.099461 -0.073526
v -0.078120 0.084852 -0.000000
v -0.104410 0.094426 -0.000027
v -0.128803 0.064910 -0.092243
v -0.103658 0.054849 -0.092078
v -0.128803 0.064910 0.092243
v -0.102166 0.053774 0.091107
v -0.001412 0.009887 -0.091273
v 0.000410 0.021435 -0.117244
v -0.073526 0.099461 -0.109997
v -0.073727 0.087445 -0.086318
v 0.073463 0.087036 -0.085911
v 0.073527 0.099461 -0.109997
v 0.000001 0.084852 -0.078120
v 0.000027 0.094426 -0.104410
v 0.092244 0.064910 -0.128803
v 0.092079 0.054849 -0.103658
v -0.092242 0.064910 -0.128803
v -0.091107 0.053774 -0.102166
v 0.091273 0.009887 -0.001413
v 0.117245 0.021435 0.000410
v 0.109997 0.099461 -0.073526
v 0.086319 0.087445 -0.073728
v 0.085911 0.087036 0.073462
v 0.109997 0.099461 0.073527
v 0.078121 0.084852 0.000001
v 0.104410 0.094426 0.000027
v 0.128803 0.064910 0.092243
v 0.103658 0.054849 0.092078
v 0.128803 0.064910 -0.092242
v 0.102167 0.053774 -0.091107
vt 0.437416 0.869093
vt 0.437500 0.883321
vt 0.423820 0.879777
vt 0.453232 0.885751
vt 0.437510 0.884452
vt 0.448717 0.887269
vt 0.437531 0.866413
vt 0.416204 0.871108
vt 0.435259 0.860216
vt 0.435785 0.866206
vt 0.416191 0.876215
vt 0.451179 0.879777
vt 0.439828 0.866402
vt 0.458796 0.871108
vt 0.458808 0.875986
vt 0.420697 0.883095
vt 0.421882 0.875382
vt 0.437203 0.868615
vt 0.423820 0.879777
vt 0.417764 0.878366
vt 0.417764 0.878366
vt 0.426283 0.887269
vt 0.421768 0.885751
vt 0.437500 0.877097
vt 0.437500 0.889784
vt 0.437494 0.884675
vt 0.437500 0.882629
vt 0.453118 0.875382
vt 0.454317 0.883183
vt 0.457236 0.878366
vt 0.437649 0.868556
vt 0.439741 0.860216
vt 0.438194 0.866605
vt 0.157641 0.351205
vt 0.166386 0.372298
vt 0.170261 0.368427
vt 0.166386 0.351205
vt 0.187499 0.351205
vt 0.187499 0.372298
vt 0.204739 0.368427
vt 0.208613 0.351205
vt 0.217358 0.351205
vt 0.208613 0.372298
vt 0.204739 0.368427
vt 0.208613 0.351205
vt 0.187499 0.351205
vt 0.187499 0.372298
vt 0.170261 0.368427
vt 0.166386 0.351205
vt 0.187499 0.381034
vt 0.439828 0.866402
vt 0.458796 0.871108
vt 0.458808 0.875986
vt 0.438194 0.866605
vt 0.437531 0.866413
vt 0.416204 0.871108
vt 0.435785 0.866205
vt 0.416191 0.876216
vt 0.437412 0.869073
vt 0.451179 0.879777
vt 0.437500 0.883321
vt 0.420697 0.883095
vt 0.421882 0.875382
vt 0.437203 0.868615
vt 0.423820 0.879777
vt 0.417764 0.878366
vt 0.457236 0.878366
vt 0.453232 0.885751
vt 0.448717 0.887269
vt 0.437500 0.877097
vt 0.437500 0.889784
vt 0.437494 0.884675
vt 0.426283 0.887269
vt 0.437479 0.884453
vt 0.421768 0.885751
vt 0.437500 0.882629
vt 0.453118 0.875382
vt 0.454317 0.883183
vt 0.437649 0.868556
vt 0.439828 0.866402
vt 0.458796 0.871108
vt 0.458808 0.875986
vt 0.438194 0.866605
vt 0.437531 0.866413
vt 0.416204 0.871108
vt 0.435785 0.866205
vt 0.416191 0.876216
vt 0.437412 0.869073
vt 0.451179 0.879777
vt 0.437500 0.883321
vt 0.420697 0.883095
vt 0.421882 0.875382
vt 0.437203 0.868615
vt 0.423820 0.879777
vt 0.417764 0.878366
vt 0.457236 0.878366
vt 0.453232 0.885751
vt 0.448717 0.887269
vt 0.437500 0.877097
vt 0.437500 0.889784
vt 0.437494 0.884675
vt 0.426283 0.887269
vt 0.437479 0.884453
vt 0.421768 0.885751
vt 0.437500 0.882629
vt 0.453118 0.875382
vt 0.454317 0.883183
vt 0.437649 0.868556
vt 0.439828 0.866402
vt 0.458796 0.871108
vt 0.458808 0.875986
vt 0.438194 0.866605
vt 0.437412 0.869073
vt 0.451179 0.879777
vt 0.437500 0.883321
vt 0.435785 0.866205
vt 0.416191 0.876216
vt 0.416204 0.871108
vt 0.453232 0.885751
vt 0.437510 0.884452
vt 0.448717 0.887269
vt 0.437500 0.877097
vt 0.421882 0.875382
vt 0.420697 0.883095
vt 0.437500 0.882629
vt 0.457236 0.878366
vt 0.437500 0.889784
vt 0.437494 0.884675
vt 0.426283 0.887269
vt 0.421768 0.885751
vt 0.453118 0.875382
vt 0.454316 0.883183
vt 0.437649 0.868556
vt 0.437531 0.866413
vt 0.437203 0.868615
vn -0.0091 -0.9114 0.4115
vn 0.0002 -0.8494 0.5277
vn -0.2487 -0.8663 0.4331
vn -0.0301 0.9531 -0.3013
vn -0.0005 0.9483 -0.3173
vn -0.0114 0.9747 -0.2234
vn 0.0119 -0.9344 0.3561
vn -0.3491 -0.8654 0.3596
vn -0.0000 -1.0000 -0.0000
vn -0.3643 -0.8593 0.3590
vn 0.2477 -0.8673 0.4317
vn 0.3596 -0.8654 0.3491
vn 0.3655 -0.8530 0.3726
vn -0.7758 0.1288 -0.6177
vn -0.8712 0.2840 -0.4004
vn -0.8671 0.2744 -0.4159
vn -0.4115 -0.9114 -0.0091
vn -0.4331 -0.8663 -0.2487
vn -0.3320 -0.8677 -0.3700
vn -0.8650 0.4945 0.0851
vn -0.6648 0.5841 0.4658
vn -0.6852 0.5787 0.4422
vn -0.8713 0.4871 0.0591
vn -0.4812 0.2525 -0.8395
vn -0.2999 0.6498 -0.6984
vn -0.0002 0.5515 -0.8342
vn 0.0000 0.9659 -0.2590
vn 0.0113 0.9746 -0.2234
vn -0.5541 0.6019 0.5751
vn 0.0292 0.9526 -0.3029
vn 0.5541 0.6019 0.5751
vn 0.6648 0.5841 0.4658
vn 0.6852 0.5787 0.4422
vn -0.0720 0.8753 -0.4781
vn -0.0004 0.8603 -0.5099
vn 0.2993 0.6495 -0.6990
vn 0.0703 0.8765 -0.4762
vn 0.8699 0.4862 0.0827
vn 0.8767 0.4778 0.0562
vn 0.8711 0.2681 -0.4115
vn 0.7755 0.1288 -0.6181
vn 0.8717 0.2693 -0.4094
vn 0.3675 -0.8646 0.3426
vn 0.4812 0.2525 -0.8395
vn -0.8998 0.4362 0.0000
vn -0.6736 0.7391 0.0000
vn -0.5514 0.6261 -0.5514
vn -0.6331 0.4455 -0.6331
vn 0.0000 0.4362 -0.8998
vn 0.0000 0.7391 -0.6736
vn 0.5514 0.6261 -0.5514
vn 0.6331 0.4455 -0.6331
vn 0.8998 0.4362 0.0000
vn 0.6736 0.7391 0.0000
vn 0.5514 0.6261 0.5514
vn 0.6331 0.4455 0.6331
vn 0.0000 0.4362 0.8998
vn 0.0000 0.7391 0.6736
vn -0.5514 0.6261 0.5514
vn -0.6331 0.4455 0.6331
vn 0.0000 1.0000 0.0000
vn -0.3561 -0.9344 0.0119
vn -0.3726 -0.8530 0.3655
vn -0.3596 -0.8654 -0.3491
vn -0.3590 -0.8593 -0.3643
vn -0.4317 -0.8673 0.2477
vn -0.5277 -0.8494 0.0002
vn 0.6177 0.1288 -0.7758
vn 0.4004 0.2840 -0.8712
vn 0.4159 0.2744 -0.8671
vn 0.0091 -0.9114 -0.4115
vn 0.2487 -0.8663 -0.4331
vn 0.3700 -0.8677 -0.3320
vn -0.4658 0.5841 0.6648
vn -0.0827 0.4862 0.8699
vn -0.0562 0.4778 0.8767
vn -0.4422 0.5787 0.6852
vn 0.8395 0.2525 -0.4812
vn 0.6984 0.6498 -0.2999
vn 0.8342 0.5515 -0.0002
vn 0.2590 0.9659 0.0000
vn 0.3173 0.9483 -0.0005
vn 0.2234 0.9746 0.0113
vn -0.4658 0.5841 -0.6648
vn -0.5751 0.6019 -0.5541
vn -0.4422 0.5787 -0.6852
vn 0.3029 0.9526 0.0292
vn -0.5751 0.6019 0.5541
vn 0.4781 0.8753 -0.0720
vn 0.5099 0.8603 -0.0004
vn -0.0851 0.4945 -0.8650
vn -0.0591 0.4871 -0.8713
vn 0.6990 0.6495 0.2993
vn 0.4762 0.8765 0.0703
vn 0.4115 0.2681 0.8711
vn 0.6181 0.1288 0.7755
vn 0.4094 0.2693 0.8717
vn 0.2234 0.9747 -0.0114
vn -0.3426 -0.8646 0.3675
vn 0.3013 0.9531 -0.0301
vn 0.8395 0.2525 0.4812
vn -0.0119 -0.9344 -0.3561
vn -0.3655 -0.8530 -0.3726
vn 0.3491 -0.8654 -0.3596
vn 0.3643 -0.8593 -0.3590
vn -0.2477 -0.8673 -0.4317
vn -0.0002 -0.8494 -0.5277
vn 0.7758 0.1288 0.6177
vn 0.8712 0.2840 0.4004
vn 0.8671 0.2744 0.4159
vn 0.4115 -0.9114 0.0091
vn 0.4331 -0.8663 0.2487
vn 0.3320 -0.8677 0.3700
vn -0.6648 0.5841 -0.4658
vn -0.8699 0.4862 -0.0827
vn -0.8767 0.4778 -0.0562
vn -0.6852 0.5787 -0.4422
vn 0.4812 0.2525 0.8395
vn 0.2999 0.6498 0.6984
vn 0.0002 0.5515 0.8342
vn -0.0000 0.9659 0.2590
vn 0.0005 0.9483 0.3173
vn -0.0113 0.9746 0.2234
vn 0.6648 0.5841 -0.4658
vn 0.5541 0.6019 -0.5751
vn 0.6852 0.5787 -0.4422
vn -0.0292 0.9526 0.3029
vn -0.5541 0.6019 -0.5751
vn 0.0720 0.8753 0.4781
vn 0.0004 0.8603 0.5099
vn 0.8650 0.4945 -0.0851
vn 0.8713 0.4871 -0.0591
vn -0.2993 0.6495 0.6990
vn -0.0703 0.8765 0.4762
vn -0.8711 0.2681 0.4115
vn -0.7755 0.1288 0.6181
vn -0.8717 0.2693 0.4094
vn 0.0114 0.9747 0.2234
vn -0.3675 -0.8646 -0.3426
vn 0.0301 0.9531 0.3013
vn -0.4812 0.2525 0.8395
vn 0.3561 -0.9344 -0.0119
vn 0.3726 -0.8530 -0.3655
vn 0.4317 -0.8673 -0.2477
vn 0.5277 -0.8494 -0.0002
vn 0.3590 -0.8593 0.3643
vn -0.3013 0.9531 0.0301
vn -0.3173 0.9483 0.0005
vn -0.2234 0.9747 0.0114
vn -0.8342 0.5515 0.0002
vn -0.6984 0.6498 0.2999
vn -0.4781 0.8753 0.0720
vn -0.5099 0.8603 0.0004
vn 0.4658 0.5841 -0.6648
vn 0.0827 0.4862 -0.8699
vn 0.0562 0.4778 -0.8767
vn 0.4422 0.5787 -0.6852
vn -0.8395 0.2525 0.4812
vn -0.2590 0.9659 -0.0000
vn -0.2234 0.9746 -0.0113
vn 0.4658 0.5841 0.6648
vn 0.5751 0.6019 0.5541
vn 0.4422 0.5787 0.6852
vn -0.6177 0.1288 0.7758
vn -0.4004 0.2840 0.8712
vn -0.4159 0.2744 0.8671
vn 0.5751 0.6019 -0.5541
vn -0.3029 0.9526 -0.0292
vn 0.0851 0.4945 0.8650
vn 0.0591 0.4871 0.8713
vn -0.6990 0.6495 -0.2993
vn -0.4762 0.8765 -0.0703
vn -0.4115 0.2681 -0.8711
vn -0.6181 0.1288 -0.7755
vn -0.4094 0.2693 -0.8717
vn 0.3426 -0.8646 -0.3675
vn -0.8395 0.2525 -0.4812
vn -0.3700 -0.8677 0.3320
usemtl tiny_treats_1
s 1
f 56/1/1 8/2/2 9/3/3
f 57/4/4 62/5/5 2/6/6
f 55/7/7 10/8/8 1/9/9
f 55/10/7 64/11/10 10/8/8
f 56/1/1 11/12/11 8/2/2
f 55/13/7 12/14/12 66/15/13
f 10/8/14 64/11/15 59/16/16 6/17/14
f 68/18/17 36/19/18 75/20/19
f 63/21/20 9/3/21 3/22/22 60/23/23
f 1/9/24 6/17/25 7/24/26
f 4/25/27 62/26/5 3/22/28
f 9/3/21 8/2/29 4/25/29 3/22/22
f 62/5/5 60/23/30 3/22/28
f 8/2/31 11/12/32 2/6/33 4/25/31
f 7/24/26 6/17/25 59/16/34 61/27/35
f 5/28/36 7/24/26 61/27/35 58/29/37
f 11/12/32 65/30/38 57/4/39 2/6/33
f 66/15/40 12/14/41 5/28/41 58/29/42
f 62/26/5 4/25/27 2/6/6
f 56/31/1 65/30/43 11/12/11
f 1/32/9 12/14/12 55/33/7
f 5/28/36 1/32/44 7/24/26
f 29/34/45 18/35/46 14/36/47 19/37/48
f 28/38/49 20/39/50 16/40/51 21/41/52
f 27/42/53 22/43/54 15/44/55 23/45/56
f 26/46/57 24/47/58 13/48/59 17/49/60
f 25/50/61 18/35/46 13/48/59 24/47/58
f 22/43/54 25/50/61 24/47/58 15/44/55
f 16/40/51 20/39/50 25/50/61 22/43/54
f 20/39/50 14/36/47 18/35/46 25/50/61
f 23/45/56 15/44/55 24/47/58 26/46/57
f 21/41/52 16/40/51 22/43/54 27/42/53
f 19/37/48 14/36/47 20/39/50 28/38/49
f 17/49/60 13/48/59 18/35/46 29/34/45
f 67/51/62 10/52/8 78/53/63
f 1/32/9 10/52/8 67/54/62
f 67/55/62 37/56/64 1/9/9
f 67/57/62 76/58/65 37/56/64
f 68/59/17 38/60/66 35/61/67
f 68/59/17 35/61/67 36/19/18
f 37/56/68 76/58/69 71/62/70 33/63/68
f 80/64/71 45/65/72 87/66/73
f 38/60/74 77/67/75 69/68/76 30/69/77
f 1/9/78 33/63/79 34/70/80
f 32/71/81 74/72/82 31/73/83
f 36/19/84 35/61/85 32/71/85 31/73/86
f 74/74/82 72/75/87 31/73/83
f 35/61/88 38/60/74 30/69/77 32/71/88
f 34/70/80 33/63/79 71/62/89 73/76/90
f 75/20/91 36/19/84 31/73/86 72/75/92
f 6/77/93 34/70/80 73/76/90 70/78/94
f 78/53/95 10/52/96 6/77/96 70/78/97
f 74/72/82 32/71/81 30/69/98
f 68/79/17 77/67/99 38/60/66
f 69/68/100 74/74/82 30/69/98
f 6/77/93 1/32/101 34/70/80
f 79/80/102 37/81/64 90/82/103
f 1/32/9 37/81/64 79/83/102
f 79/84/102 46/85/104 1/9/9
f 79/86/102 88/87/105 46/85/104
f 80/88/71 47/89/106 44/90/107
f 80/88/71 44/90/107 45/65/72
f 46/85/108 88/87/109 83/91/110 42/92/108
f 92/93/111 53/94/112 99/95/113
f 47/89/114 89/96/115 81/97/116 39/98/117
f 1/9/118 42/92/119 43/99/120
f 41/100/121 86/101/122 40/102/123
f 45/65/124 44/90/125 41/100/125 40/102/126
f 86/103/122 84/104/127 40/102/123
f 44/90/128 47/89/114 39/98/117 41/100/128
f 43/99/120 42/92/119 83/91/129 85/105/130
f 87/66/131 45/65/124 40/102/126 84/104/132
f 33/106/133 43/99/120 85/105/130 82/107/134
f 90/82/135 37/81/136 33/106/136 82/107/137
f 86/101/122 41/100/121 39/98/138
f 80/108/71 89/96/139 47/89/106
f 81/97/140 86/103/122 39/98/138
f 33/106/133 1/32/141 43/99/120
f 91/109/142 46/110/104 102/111/143
f 1/32/9 46/110/104 91/112/142
f 92/113/111 54/114/144 52/115/145
f 91/116/142 100/117/146 12/118/12
f 93/119/147 98/120/148 48/121/149
f 92/113/111 52/115/145 53/94/112
f 51/122/150 5/123/151 95/124/152 97/125/153
f 54/114/154 101/126/155 93/119/156 48/121/157
f 1/9/158 5/123/151 51/122/150
f 50/127/159 98/128/148 49/129/160
f 53/94/161 52/115/162 50/127/162 49/129/163
f 12/118/164 100/117/165 95/124/166 5/123/164
f 52/115/167 54/114/154 48/121/157 50/127/167
f 98/120/148 96/130/168 49/129/160
f 99/95/169 53/94/161 49/129/163 96/130/170
f 42/131/171 51/122/150 97/125/153 94/132/172
f 102/111/173 46/110/174 42/131/174 94/132/175
f 98/128/148 50/127/159 48/121/149
f 92/133/111 101/126/176 54/114/144
f 91/134/142 12/118/12 1/9/9
f 42/131/171 1/32/177 51/122/150
f 62/5/5 57/4/4 58/29/37 61/27/35
f 60/23/30 62/5/5 61/27/35 59/16/34
f 64/11/10 55/10/7 56/135/1 63/21/178
f 66/15/40 58/29/42 57/4/39 65/30/38
f 59/16/16 64/11/15 63/21/20 60/23/23
f 55/13/7 66/15/13 65/30/43 56/31/1
f 74/74/82 69/68/100 70/78/94 73/76/90
f 72/75/87 74/74/82 73/76/90 71/62/89
f 76/58/65 67/57/62 68/18/17 75/20/19
f 78/53/95 70/78/97 69/68/76 77/67/75
f 71/62/70 76/58/69 75/20/91 72/75/92
f 67/51/62 78/53/63 77/67/99 68/79/17
f 86/103/122 81/97/140 82/107/134 85/105/130
f 84/104/127 86/103/122 85/105/130 83/91/129
f 88/87/105 79/86/102 80/64/71 87/66/73
f 90/82/135 82/107/137 81/97/116 89/96/115
f 83/91/110 88/87/109 87/66/131 84/104/132
f 79/80/102 90/82/103 89/96/139 80/108/71
f 98/120/148 93/119/147 94/132/172 97/125/153
f 96/130/168 98/120/148 97/125/153 95/124/152
f 100/117/146 91/116/142 92/93/111 99/95/113
f 102/111/173 94/132/175 93/119/156 101/126/155
f 95/124/166 100/117/165 99/95/169 96/130/170
f 91/109/142 102/111/143 101/126/176 92/133/111
f 56/135/1 9/3/3 63/21/178
