# Blender v3.4.1 OBJ File: 'Tiny_treats_Pretty_Park_ASSETS_EXPORT.blend'
# www.blender.org
mtllib grass_A.mtl
o grass_A
v 0.000004 -0.039885 -0.091773
v 0.000004 0.139046 -0.132490
v 0.000004 0.197692 -0.178040
v 0.000004 0.244540 -0.239509
v 0.000004 0.272897 -0.308081
v 0.000004 0.256884 -0.119078
v 0.000004 0.181524 -0.060547
v 0.000004 -0.039853 -0.008226
v 0.000004 0.353523 -0.286182
v 0.000004 0.317085 -0.198067
v -0.080134 -0.040058 -0.071773
v -0.059262 -0.040010 -0.091773
v -0.089290 0.139025 -0.132478
v -0.110194 0.149187 -0.115252
v -0.103529 0.211862 -0.163925
v -0.082544 0.197692 -0.178040
v -0.052847 0.244540 -0.239509
v -0.073959 0.261906 -0.229588
v -0.041563 0.292206 -0.302872
v -0.020338 0.272901 -0.308096
v 0.000004 0.302868 -0.371743
v 0.000004 0.279569 -0.339268
v 0.059269 -0.040010 -0.091773
v 0.080142 -0.040058 -0.071773
v 0.110202 0.149187 -0.115252
v 0.089298 0.139025 -0.132478
v 0.082552 0.197692 -0.178040
v 0.103537 0.211862 -0.163925
v 0.073966 0.261906 -0.229588
v 0.052855 0.244540 -0.239509
v 0.020346 0.272901 -0.308096
v 0.041570 0.292206 -0.302872
v -0.082544 0.256884 -0.119078
v -0.103529 0.242715 -0.133193
v -0.110194 0.171324 -0.077751
v -0.089290 0.181497 -0.060532
v -0.059262 -0.040014 -0.008225
v -0.080134 -0.040067 -0.028225
v -0.020338 0.353528 -0.286202
v -0.041563 0.334233 -0.291462
v -0.073959 0.299719 -0.207987
v -0.052847 0.317085 -0.198067
v 0.000004 0.362098 -0.326258
v 0.000004 0.346377 -0.369911
v 0.103537 0.242715 -0.133193
v 0.082552 0.256884 -0.119078
v 0.089298 0.181497 -0.060532
v 0.110202 0.171324 -0.077751
v 0.080142 -0.040067 -0.028225
v 0.059269 -0.040014 -0.008225
v 0.041570 0.334233 -0.291462
v 0.020346 0.353528 -0.286202
v 0.052855 0.317085 -0.198067
v 0.073966 0.299719 -0.207987
v -0.079476 -0.039885 0.045885
v -0.114738 0.139046 0.066243
v -0.154185 0.197692 0.089018
v -0.207419 0.244540 0.119752
v -0.266804 0.272897 0.154038
v -0.103123 0.256884 0.059537
v -0.052434 0.181524 0.030272
v -0.007122 -0.039853 0.004111
v -0.247839 0.353523 0.143089
v -0.171529 0.317085 0.099032
v -0.022086 -0.040058 0.105286
v -0.049843 -0.040010 0.097210
v -0.070080 0.139025 0.143568
v -0.044710 0.149187 0.153058
v -0.090195 0.211861 0.171623
v -0.112911 0.197692 0.160507
v -0.180993 0.244540 0.165523
v -0.161846 0.261906 0.178846
v -0.241509 0.292206 0.187432
v -0.256646 0.272901 0.171662
v -0.321937 0.302868 0.185870
v -0.293813 0.279569 0.169632
v -0.109109 -0.040010 -0.005441
v -0.102224 -0.040058 -0.033517
v -0.154908 0.149187 -0.037810
v -0.159374 0.139025 -0.011094
v -0.195459 0.197692 0.017529
v -0.193728 0.211862 -0.007701
v -0.235809 0.261906 0.050739
v -0.233844 0.244540 0.073982
v -0.276988 0.272901 0.136430
v -0.283076 0.292206 0.115436
v -0.061849 0.256884 0.131026
v -0.063580 0.242715 0.156257
v -0.012234 0.171324 0.134308
v -0.007773 0.181497 0.107595
v 0.022511 -0.040014 0.055436
v 0.015627 -0.040067 0.083512
v -0.237685 0.353528 0.160715
v -0.231628 0.334233 0.181727
v -0.143139 0.299719 0.168045
v -0.145104 0.317085 0.144802
v -0.282546 0.362098 0.163127
v -0.320351 0.346377 0.184954
v -0.167113 0.242715 -0.023068
v -0.144397 0.256884 -0.011951
v -0.097067 0.181497 -0.047067
v -0.122431 0.171324 -0.056561
v -0.064511 -0.040067 -0.055291
v -0.036754 -0.040014 -0.047214
v -0.273195 0.334233 0.109731
v -0.258027 0.353528 0.125482
v -0.197954 0.317085 0.053261
v -0.217102 0.299719 0.039938
v 0.079482 -0.039885 0.045888
v 0.114744 0.139046 0.066247
v 0.154191 0.197692 0.089022
v 0.207425 0.244540 0.119756
v 0.266810 0.272897 0.154042
v 0.103129 0.256884 0.059541
v 0.052439 0.181524 0.030276
v 0.007127 -0.039853 0.004115
v 0.247845 0.353523 0.143093
v 0.171535 0.317085 0.099035
v 0.102230 -0.040058 -0.033513
v 0.109114 -0.040010 -0.005437
v 0.159380 0.139025 -0.011090
v 0.154914 0.149187 -0.037806
v 0.193734 0.211862 -0.007698
v 0.195465 0.197692 0.017533
v 0.233850 0.244540 0.073986
v 0.235814 0.261906 0.050743
v 0.283082 0.292206 0.115440
v 0.276994 0.272901 0.136433
v 0.321943 0.302868 0.185873
v 0.293819 0.279569 0.169636
v 0.049849 -0.040010 0.097214
v 0.022092 -0.040058 0.105290
v 0.044716 0.149187 0.153062
v 0.070086 0.139025 0.143572
v 0.112917 0.197692 0.160510
v 0.090201 0.211861 0.171627
v 0.161852 0.261906 0.178850
v 0.180999 0.244540 0.165527
v 0.256652 0.272901 0.171666
v 0.241515 0.292206 0.187435
v 0.144403 0.256884 -0.011948
v 0.167119 0.242715 -0.023064
v 0.122437 0.171324 -0.056557
v 0.097073 0.181497 -0.047063
v 0.036760 -0.040014 -0.047211
v 0.064517 -0.040067 -0.055287
v 0.258033 0.353528 0.125486
v 0.273201 0.334233 0.109735
v 0.217108 0.299719 0.039942
v 0.197960 0.317085 0.053265
v 0.282552 0.362098 0.163131
v 0.320356 0.346377 0.184958
v 0.063586 0.242715 0.156260
v 0.061855 0.256884 0.131030
v 0.007779 0.181497 0.107599
v 0.012239 0.171324 0.134311
v -0.015621 -0.040067 0.083516
v -0.022505 -0.040014 0.055440
v 0.231634 0.334233 0.181731
v 0.237691 0.353528 0.160719
v 0.145109 0.317085 0.144806
v 0.143145 0.299719 0.168049
vt 0.187499 0.679286
vt 0.176082 0.632407
vt 0.176945 0.643277
vt 0.187499 0.690152
vt 0.187499 0.716978
vt 0.187499 0.712321
vt 0.184898 0.665448
vt 0.182185 0.665451
vt 0.178042 0.654588
vt 0.178042 0.654588
vt 0.182185 0.665451
vt 0.200737 0.643277
vt 0.196956 0.654588
vt 0.196956 0.654588
vt 0.200737 0.643277
vt 0.197746 0.609585
vt 0.201589 0.632406
vt 0.201589 0.632406
vt 0.197746 0.609585
vt 0.187499 0.701463
vt 0.187499 0.712321
vt 0.184898 0.665448
vt 0.180742 0.654588
vt 0.174262 0.643277
vt 0.174262 0.643277
vt 0.187499 0.679286
vt 0.187499 0.690152
vt 0.176945 0.643277
vt 0.176082 0.632407
vt 0.192814 0.665451
vt 0.192814 0.665451
vt 0.187499 0.656485
vt 0.179922 0.609592
vt 0.198916 0.632407
vt 0.198053 0.643277
vt 0.187499 0.716978
vt 0.194257 0.654588
vt 0.195077 0.609592
vt 0.190100 0.665448
vt 0.190100 0.665448
vt 0.187499 0.721867
vt 0.187499 0.721867
vt 0.179922 0.609592
vt 0.187499 0.656485
vt 0.187499 0.701463
vt 0.180742 0.654588
vt 0.198053 0.643277
vt 0.198916 0.632407
vt 0.195077 0.609592
vt 0.194257 0.654588
vt 0.173409 0.632406
vt 0.173409 0.632406
vt 0.177253 0.609585
vt 0.177253 0.609585
vt 0.187499 0.679286
vt 0.176082 0.632407
vt 0.176945 0.643277
vt 0.187499 0.690152
vt 0.187499 0.716978
vt 0.187499 0.712321
vt 0.184898 0.665448
vt 0.182185 0.665451
vt 0.178042 0.654588
vt 0.178042 0.654588
vt 0.182185 0.665451
vt 0.200737 0.643277
vt 0.196956 0.654588
vt 0.196956 0.654588
vt 0.200737 0.643277
vt 0.197746 0.609585
vt 0.201589 0.632406
vt 0.201589 0.632406
vt 0.197746 0.609585
vt 0.187499 0.701463
vt 0.187499 0.712321
vt 0.184898 0.665448
vt 0.180742 0.654588
vt 0.174262 0.643277
vt 0.174262 0.643277
vt 0.187499 0.679286
vt 0.187499 0.690152
vt 0.176945 0.643277
vt 0.176082 0.632407
vt 0.192814 0.665451
vt 0.192814 0.665451
vt 0.187499 0.656485
vt 0.179922 0.609592
vt 0.198916 0.632407
vt 0.198053 0.643277
vt 0.187499 0.716978
vt 0.194257 0.654588
vt 0.195077 0.609592
vt 0.190100 0.665448
vt 0.190100 0.665448
vt 0.187499 0.721867
vt 0.187499 0.721867
vt 0.179922 0.609592
vt 0.187499 0.656485
vt 0.187499 0.701463
vt 0.180742 0.654588
vt 0.198053 0.643277
vt 0.198916 0.632407
vt 0.195077 0.609592
vt 0.194257 0.654588
vt 0.173409 0.632406
vt 0.173409 0.632406
vt 0.177253 0.609585
vt 0.177253 0.609585
vt 0.187499 0.679286
vt 0.176082 0.632407
vt 0.176945 0.643277
vt 0.187499 0.690152
vt 0.187499 0.716978
vt 0.187499 0.712321
vt 0.184898 0.665448
vt 0.182185 0.665451
vt 0.178042 0.654588
vt 0.178042 0.654588
vt 0.182185 0.665451
vt 0.200737 0.643277
vt 0.196956 0.654588
vt 0.196956 0.654588
vt 0.200737 0.643277
vt 0.197746 0.609585
vt 0.201589 0.632406
vt 0.201589 0.632406
vt 0.197746 0.609585
vt 0.187499 0.701463
vt 0.187499 0.712321
vt 0.184898 0.665448
vt 0.180742 0.654588
vt 0.174262 0.643277
vt 0.174262 0.643277
vt 0.187499 0.679286
vt 0.187499 0.690152
vt 0.176945 0.643277
vt 0.176082 0.632407
vt 0.192814 0.665451
vt 0.192814 0.665451
vt 0.187499 0.656485
vt 0.179922 0.609592
vt 0.198916 0.632407
vt 0.198053 0.643277
vt 0.187499 0.716978
vt 0.194257 0.654588
vt 0.195077 0.609592
vt 0.190100 0.665448
vt 0.190100 0.665448
vt 0.187499 0.721867
vt 0.187499 0.721867
vt 0.179922 0.609592
vt 0.187499 0.656485
vt 0.187499 0.701463
vt 0.180742 0.654588
vt 0.198053 0.643277
vt 0.198916 0.632407
vt 0.195077 0.609592
vt 0.194257 0.654588
vt 0.173409 0.632406
vt 0.173409 0.632406
vt 0.177253 0.609585
vt 0.177253 0.609585
vn -0.0000 -0.4278 -0.9039
vn -0.4120 -0.4027 -0.8173
vn -0.4012 -0.5755 -0.7126
vn -0.0000 -0.7103 -0.7039
vn 0.0000 -0.8443 -0.5359
vn -0.0000 -0.9549 -0.2969
vn -0.3618 -0.8151 -0.4524
vn -0.8431 -0.2236 -0.4890
vn -0.8765 -0.1385 -0.4611
vn -0.9423 0.1645 -0.2916
vn -0.8478 0.4712 -0.2432
vn 0.9123 -0.1216 -0.3910
vn 0.8765 -0.1385 -0.4611
vn 0.9423 0.1645 -0.2916
vn 0.9801 0.1282 -0.1515
vn 0.9895 -0.1396 0.0381
vn 0.9990 -0.0442 -0.0028
vn 0.9994 -0.0327 -0.0077
vn 0.0000 0.8670 0.4983
vn 0.0000 0.9549 0.2969
vn -0.3737 0.9209 0.1108
vn -0.3584 0.8588 0.3659
vn -0.9123 -0.1216 -0.3910
vn -0.9801 0.1282 -0.1515
vn 0.0000 0.4315 0.9021
vn 0.0000 0.7103 0.7039
vn -0.3836 0.7038 0.5980
vn -0.3801 0.3932 0.8372
vn 0.8431 -0.2236 -0.4890
vn 0.8478 0.4712 -0.2432
vn 0.0000 0.2299 0.9732
vn -0.3159 0.1761 0.9323
vn 0.3801 0.3932 0.8372
vn 0.3836 0.7038 0.5980
vn 0.0000 0.9779 0.2092
vn 0.3584 0.8588 0.3659
vn 0.3159 0.1761 0.9323
vn 0.3618 -0.8151 -0.4524
vn 0.3737 0.9209 0.1108
vn 0.8469 -0.1382 -0.5134
vn 0.8569 0.2933 -0.4240
vn -0.3502 -0.2621 -0.8993
vn 0.0000 -0.2218 -0.9751
vn -0.0000 -0.8670 -0.4983
vn 0.0000 -0.8502 -0.5265
vn -0.8469 -0.1382 -0.5134
vn -0.8569 0.2933 -0.4240
vn 0.4012 -0.5755 -0.7126
vn 0.4120 -0.4027 -0.8173
vn 0.3502 -0.2621 -0.8993
vn -0.9990 -0.0442 -0.0028
vn -0.9994 -0.0327 -0.0077
vn -0.6837 -0.3374 -0.6471
vn -0.6763 -0.2673 -0.6864
vn -0.6622 -0.4891 -0.5677
vn 0.6837 -0.3374 -0.6471
vn 0.6763 -0.2673 -0.6864
vn 0.6622 -0.4891 -0.5677
vn -0.6898 0.5873 0.4233
vn -0.6980 0.2844 0.6572
vn -0.6739 0.0793 0.7346
vn -0.6724 0.7183 0.1786
vn -0.6645 0.7134 -0.2224
vn 0.6980 0.2844 0.6572
vn 0.6898 0.5873 0.4233
vn 0.6739 0.0793 0.7346
vn 0.6724 0.7183 0.1786
vn 0.6645 0.7134 -0.2224
vn -0.9895 -0.1396 0.0381
vn -0.7828 -0.4278 0.4519
vn -0.5018 -0.4027 0.7655
vn -0.4165 -0.5755 0.7037
vn -0.6096 -0.7103 0.3519
vn -0.4641 -0.8443 0.2680
vn -0.2572 -0.9549 0.1485
vn -0.2109 -0.8151 0.5396
vn -0.0019 -0.2236 0.9747
vn 0.0389 -0.1385 0.9896
vn 0.2186 0.1645 0.9618
vn 0.2133 0.4712 0.8558
vn -0.7948 -0.1216 -0.5946
vn -0.8375 -0.1385 -0.5285
vn -0.7237 0.1645 -0.6703
vn -0.6212 0.1282 -0.7731
vn -0.4617 -0.1396 -0.8760
vn -0.5020 -0.0442 -0.8638
vn -0.5064 -0.0327 -0.8617
vn 0.4316 0.8670 -0.2492
vn 0.2572 0.9549 -0.1485
vn 0.2827 0.9209 0.2682
vn 0.4961 0.8588 0.1274
vn 0.1175 -0.1216 0.9856
vn 0.3589 0.1282 0.9245
vn 0.7812 0.4315 -0.4510
vn 0.6096 0.7103 -0.3519
vn 0.7096 0.7038 0.0332
vn 0.9151 0.3932 -0.0895
vn -0.8451 -0.2236 -0.4857
vn -0.6346 0.4712 -0.6126
vn 0.8428 0.2299 -0.4866
vn 0.9654 0.1761 -0.1926
vn 0.5350 0.3932 -0.7478
vn 0.3261 0.7038 -0.6312
vn 0.1812 0.9779 -0.1046
vn 0.1377 0.8588 -0.4934
vn 0.6495 0.1761 -0.7397
vn -0.5727 -0.8151 -0.0872
vn -0.0909 0.9209 -0.3790
vn -0.8681 -0.1382 -0.4768
vn -0.7956 0.2933 -0.5301
vn -0.6037 -0.2621 0.7529
vn -0.8445 -0.2218 0.4875
vn -0.4316 -0.8670 0.2492
vn -0.4560 -0.8502 0.2632
vn -0.0212 -0.1382 0.9902
vn 0.0612 0.2933 0.9541
vn -0.8177 -0.5755 0.0089
vn -0.9139 -0.4027 0.0518
vn -0.9539 -0.2621 0.1464
vn -0.4559 -0.8502 0.2633
vn 0.4971 -0.0442 0.8666
vn 0.4930 -0.0327 0.8694
vn -0.2186 -0.3374 0.9156
vn -0.2563 -0.2673 0.9289
vn -0.1605 -0.4891 0.8573
vn -0.9022 -0.3374 -0.2685
vn -0.9326 -0.2673 -0.2425
vn -0.8227 -0.4891 -0.2897
vn 0.7115 0.5873 0.3857
vn 0.9182 0.2844 0.2758
vn 0.9731 0.0793 0.2163
vn 0.4909 0.7183 0.4930
vn 0.1396 0.7134 0.6867
vn 0.2202 0.2844 -0.9331
vn 0.0217 0.5873 -0.8091
vn 0.2992 0.0793 -0.9509
vn -0.1815 0.7183 -0.6716
vn -0.5249 0.7134 -0.4642
vn 0.5278 -0.1396 0.8378
vn 0.7828 -0.4278 0.4519
vn 0.9139 -0.4027 0.0518
vn 0.8177 -0.5755 0.0089
vn 0.6096 -0.7103 0.3519
vn 0.4641 -0.8443 0.2680
vn 0.2572 -0.9549 0.1485
vn 0.5727 -0.8151 -0.0872
vn 0.8451 -0.2236 -0.4857
vn 0.8375 -0.1385 -0.5285
vn 0.7237 0.1645 -0.6703
vn 0.6346 0.4712 -0.6126
vn -0.1175 -0.1216 0.9856
vn -0.0389 -0.1385 0.9896
vn -0.2186 0.1645 0.9618
vn -0.3589 0.1282 0.9245
vn -0.5278 -0.1396 0.8378
vn -0.4971 -0.0442 0.8666
vn -0.4930 -0.0327 0.8694
vn -0.4316 0.8670 -0.2492
vn -0.2572 0.9549 -0.1485
vn 0.0909 0.9209 -0.3790
vn -0.1377 0.8588 -0.4934
vn 0.7948 -0.1216 -0.5946
vn 0.6212 0.1282 -0.7731
vn -0.7812 0.4315 -0.4510
vn -0.6096 0.7103 -0.3519
vn -0.3261 0.7038 -0.6312
vn -0.5350 0.3932 -0.7478
vn 0.0019 -0.2236 0.9747
vn -0.2133 0.4712 0.8558
vn -0.8428 0.2299 -0.4866
vn -0.6495 0.1761 -0.7397
vn -0.9151 0.3932 -0.0895
vn -0.7096 0.7038 0.0332
vn -0.1812 0.9779 -0.1046
vn -0.4961 0.8588 0.1274
vn -0.9654 0.1761 -0.1926
vn 0.2109 -0.8151 0.5396
vn -0.2827 0.9209 0.2682
vn 0.0212 -0.1382 0.9902
vn -0.0612 0.2933 0.9541
vn 0.9539 -0.2621 0.1464
vn 0.8445 -0.2218 0.4875
vn 0.4316 -0.8670 0.2492
vn 0.4559 -0.8502 0.2633
vn 0.8681 -0.1382 -0.4768
vn 0.7956 0.2933 -0.5301
vn 0.4165 -0.5755 0.7037
vn 0.5018 -0.4027 0.7655
vn 0.6037 -0.2621 0.7529
vn 0.4560 -0.8502 0.2632
vn 0.5020 -0.0442 -0.8638
vn 0.5064 -0.0327 -0.8617
vn 0.9022 -0.3374 -0.2685
vn 0.9326 -0.2673 -0.2425
vn 0.8227 -0.4891 -0.2897
vn 0.2186 -0.3374 0.9156
vn 0.2563 -0.2673 0.9289
vn 0.1605 -0.4891 0.8573
vn -0.0217 0.5873 -0.8091
vn -0.2202 0.2844 -0.9331
vn -0.2992 0.0793 -0.9509
vn 0.1815 0.7183 -0.6716
vn 0.5249 0.7134 -0.4642
vn -0.9182 0.2844 0.2758
vn -0.7115 0.5873 0.3857
vn -0.9731 0.0793 0.2163
vn -0.4909 0.7183 0.4930
vn -0.1396 0.7134 0.6867
vn 0.4617 -0.1396 -0.8760
vn 0.0013 -1.0000 -0.0020
vn 0.0011 -1.0000 -0.0021
vn -0.0001 -1.0000 -0.0001
vn -0.0013 -1.0000 0.0021
vn -0.0011 -1.0000 0.0021
vn -0.0011 -1.0000 -0.0021
vn -0.0013 -1.0000 -0.0020
vn 0.0001 -1.0000 -0.0001
vn 0.0013 -1.0000 0.0021
vn 0.0011 -1.0000 0.0021
vn -0.0024 -1.0000 -0.0001
vn -0.0024 -1.0000 0.0001
vn 0.0000 -1.0000 0.0002
vn 0.0024 -1.0000 0.0001
vn 0.0024 -1.0000 -0.0001
usemtl tiny_treats_1
s 1
f 2/1/1 13/2/2 16/3/3 3/4/4
f 22/5/5 5/6/6 20/7/7
f 19/8/8 18/9/9 41/10/10 40/11/11
f 28/12/12 29/13/13 54/14/14 45/15/15
f 24/16/16 25/17/17 48/18/18 49/19/16
f 10/20/19 9/21/20 39/22/21 42/23/22
f 18/9/9 15/24/23 34/25/24 41/10/10
f 25/17/17 28/12/12 45/15/15 48/18/18
f 7/26/25 6/27/26 33/28/27 36/29/28
f 29/13/13 32/30/29 51/31/30 54/14/14
f 6/27/26 10/20/19 42/23/22 33/28/27
f 8/32/31 7/26/25 36/29/28 37/33/32
f 7/26/25 47/34/33 46/35/34 6/27/26
f 43/36/35 39/22/21 9/21/20
f 10/20/19 6/27/26 46/35/34 53/37/36
f 7/26/25 8/32/31 50/38/37 47/34/33
f 22/5/5 31/39/38 5/6/6
f 10/20/19 53/37/36 52/40/39 9/21/20
f 32/30/29 21/41/40 44/42/41 51/31/30
f 12/43/42 13/2/2 2/1/1 1/44/43
f 4/45/44 17/46/45 20/7/7 5/6/6
f 3/4/4 16/3/3 17/46/45 4/45/44
f 21/41/46 19/8/8 40/11/11 44/42/47
f 3/4/4 27/47/48 26/48/49 2/1/1
f 23/49/50 1/44/43 2/1/1 26/48/49
f 5/6/6 31/39/38 30/50/45 4/45/44
f 4/45/44 30/50/45 27/47/48 3/4/4
f 9/21/20 52/40/39 43/36/35
f 15/24/23 14/51/51 35/52/52 34/25/24
f 16/3/3 13/2/2 14/51/53 15/24/23
f 13/2/2 12/43/42 11/53/54 14/51/53
f 20/7/7 17/46/55 18/9/9 19/8/8
f 17/46/55 16/3/3 15/24/23 18/9/9
f 22/5/5 20/7/7 19/8/8 21/41/46
f 26/48/49 27/47/48 28/12/12 25/17/56
f 23/49/50 26/48/49 25/17/56 24/16/57
f 30/50/58 31/39/38 32/30/29 29/13/13
f 27/47/48 30/50/58 29/13/13 28/12/12
f 31/39/38 22/5/5 21/41/40 32/30/29
f 36/29/28 33/28/27 34/25/59 35/52/60
f 37/33/32 36/29/28 35/52/60 38/54/61
f 42/23/22 39/22/21 40/11/11 41/10/62
f 33/28/27 42/23/22 41/10/62 34/25/59
f 39/22/21 43/36/63 44/42/47 40/11/11
f 46/35/34 47/34/33 48/18/64 45/15/65
f 47/34/33 50/38/37 49/19/66 48/18/64
f 52/40/39 53/37/36 54/14/67 51/31/30
f 53/37/36 46/35/34 45/15/65 54/14/67
f 43/36/68 52/40/39 51/31/30 44/42/41
f 11/53/69 38/54/69 35/52/52 14/51/51
f 56/55/70 67/56/71 70/57/72 57/58/73
f 76/59/74 59/60/75 74/61/76
f 73/62/77 72/63/78 95/64/79 94/65/80
f 82/66/81 83/67/82 108/68/83 99/69/84
f 78/70/85 79/71/86 102/72/87 103/73/85
f 64/74/88 63/75/89 93/76/90 96/77/91
f 72/63/78 69/78/92 88/79/93 95/64/79
f 79/71/86 82/66/81 99/69/84 102/72/87
f 61/80/94 60/81/95 87/82/96 90/83/97
f 83/67/82 86/84/98 105/85/99 108/68/83
f 60/81/95 64/74/88 96/77/91 87/82/96
f 62/86/100 61/80/94 90/83/97 91/87/101
f 61/80/94 101/88/102 100/89/103 60/81/95
f 97/90/104 93/76/90 63/75/89
f 64/74/88 60/81/95 100/89/103 107/91/105
f 61/80/94 62/86/100 104/92/106 101/88/102
f 76/59/74 85/93/107 59/60/75
f 64/74/88 107/91/105 106/94/108 63/75/89
f 86/84/98 75/95/109 98/96/110 105/85/99
f 66/97/111 67/56/71 56/55/70 55/98/112
f 58/99/113 71/100/114 74/61/76 59/60/75
f 57/58/73 70/57/72 71/100/114 58/99/113
f 75/95/115 73/62/77 94/65/80 98/96/116
f 57/58/73 81/101/117 80/102/118 56/55/70
f 77/103/119 55/98/112 56/55/70 80/102/118
f 59/60/75 85/93/107 84/104/120 58/99/113
f 58/99/113 84/104/120 81/101/117 57/58/73
f 63/75/89 106/94/108 97/90/104
f 69/78/92 68/105/121 89/106/122 88/79/93
f 70/57/72 67/56/71 68/105/123 69/78/92
f 67/56/71 66/97/111 65/107/124 68/105/123
f 74/61/76 71/100/125 72/63/78 73/62/77
f 71/100/125 70/57/72 69/78/92 72/63/78
f 76/59/74 74/61/76 73/62/77 75/95/115
f 80/102/118 81/101/117 82/66/81 79/71/126
f 77/103/119 80/102/118 79/71/126 78/70/127
f 84/104/128 85/93/107 86/84/98 83/67/82
f 81/101/117 84/104/128 83/67/82 82/66/81
f 85/93/107 76/59/74 75/95/109 86/84/98
f 90/83/97 87/82/96 88/79/129 89/106/130
f 91/87/101 90/83/97 89/106/130 92/108/131
f 96/77/91 93/76/90 94/65/80 95/64/132
f 87/82/96 96/77/91 95/64/132 88/79/129
f 93/76/90 97/90/133 98/96/116 94/65/80
f 100/89/103 101/88/102 102/72/134 99/69/135
f 101/88/102 104/92/106 103/73/136 102/72/134
f 106/94/108 107/91/105 108/68/137 105/85/99
f 107/91/105 100/89/103 99/69/135 108/68/137
f 97/90/138 106/94/108 105/85/99 98/96/110
f 65/107/139 92/108/139 89/106/122 68/105/121
f 110/109/140 121/110/141 124/111/142 111/112/143
f 130/113/144 113/114/145 128/115/146
f 127/116/147 126/117/148 149/118/149 148/119/150
f 136/120/151 137/121/152 162/122/153 153/123/154
f 132/124/155 133/125/156 156/126/157 157/127/155
f 118/128/158 117/129/159 147/130/160 150/131/161
f 126/117/148 123/132/162 142/133/163 149/118/149
f 133/125/156 136/120/151 153/123/154 156/126/157
f 115/134/164 114/135/165 141/136/166 144/137/167
f 137/121/152 140/138/168 159/139/169 162/122/153
f 114/135/165 118/128/158 150/131/161 141/136/166
f 116/140/170 115/134/164 144/137/167 145/141/171
f 115/134/164 155/142/172 154/143/173 114/135/165
f 151/144/174 147/130/160 117/129/159
f 118/128/158 114/135/165 154/143/173 161/145/175
f 115/134/164 116/140/170 158/146/176 155/142/172
f 130/113/144 139/147/177 113/114/145
f 118/128/158 161/145/175 160/148/178 117/129/159
f 140/138/168 129/149/179 152/150/180 159/139/169
f 120/151/181 121/110/141 110/109/140 109/152/182
f 112/153/183 125/154/184 128/115/146 113/114/145
f 111/112/143 124/111/142 125/154/184 112/153/183
f 129/149/185 127/116/147 148/119/150 152/150/186
f 111/112/143 135/155/187 134/156/188 110/109/140
f 131/157/189 109/152/182 110/109/140 134/156/188
f 113/114/145 139/147/177 138/158/190 112/153/183
f 112/153/183 138/158/190 135/155/187 111/112/143
f 117/129/159 160/148/178 151/144/174
f 123/132/162 122/159/191 143/160/192 142/133/163
f 124/111/142 121/110/141 122/159/193 123/132/162
f 121/110/141 120/151/181 119/161/194 122/159/193
f 128/115/146 125/154/195 126/117/148 127/116/147
f 125/154/195 124/111/142 123/132/162 126/117/148
f 130/113/144 128/115/146 127/116/147 129/149/185
f 134/156/188 135/155/187 136/120/151 133/125/196
f 131/157/189 134/156/188 133/125/196 132/124/197
f 138/158/198 139/147/177 140/138/168 137/121/152
f 135/155/187 138/158/198 137/121/152 136/120/151
f 139/147/177 130/113/144 129/149/179 140/138/168
f 144/137/167 141/136/166 142/133/199 143/160/200
f 145/141/171 144/137/167 143/160/200 146/162/201
f 150/131/161 147/130/160 148/119/150 149/118/202
f 141/136/166 150/131/161 149/118/202 142/133/199
f 147/130/160 151/144/203 152/150/186 148/119/150
f 154/143/173 155/142/172 156/126/204 153/123/205
f 155/142/172 158/146/176 157/127/206 156/126/204
f 160/148/178 161/145/175 162/122/207 159/139/169
f 161/145/175 154/143/173 153/123/205 162/122/207
f 151/144/208 160/148/178 159/139/169 152/150/180
f 119/161/209 146/162/209 143/160/192 122/159/191
f 132/124/210 157/127/210 158/146/211 131/157/211
f 131/157/211 158/146/211 116/140/212 109/152/212
f 109/152/212 116/140/212 145/141/213 120/151/213
f 120/151/213 145/141/213 146/162/214 119/161/214
f 66/97/215 91/87/215 92/108/216 65/107/216
f 55/98/217 62/86/217 91/87/215 66/97/215
f 77/103/218 104/92/218 62/86/217 55/98/217
f 78/70/219 103/73/219 104/92/218 77/103/218
f 24/16/220 49/19/220 50/38/221 23/49/221
f 23/49/221 50/38/221 8/32/222 1/44/222
f 1/44/222 8/32/222 37/33/223 12/43/223
f 12/43/223 37/33/223 38/54/224 11/53/224
