# Blender v3.4.1 OBJ File: 'Tiny_treats_Pretty_Park_ASSETS_EXPORT.blend'
# www.blender.org
mtllib hedge_straight_long.mtl
o hedge_straight_long
v 1.772302 0.129613 0.635225
v 1.772302 -0.005908 0.452400
v 1.897980 0.029539 0.441336
v 2.000000 0.130875 0.326269
v 1.903534 0.130197 0.477331
v 1.772302 1.260977 0.529797
v 2.000000 1.259714 0.239524
v 1.965895 1.388738 0.221988
v 1.772302 1.494092 0.217163
v 1.897980 1.458646 0.215319
v 1.903534 1.260392 0.382401
v 1.772302 1.395474 0.396373
v 1.897980 1.389215 0.282667
v -1.772302 0.129613 0.635225
v -1.772302 -0.005908 0.452400
v -1.897980 0.029539 0.441336
v -1.903534 0.130197 0.477331
v -2.000000 0.130875 0.326269
v -1.772302 1.260977 0.529797
v -1.772302 1.494092 0.217164
v -1.897980 1.458646 0.215319
v -2.000000 1.259714 0.239524
v -1.965895 1.388738 0.221988
v -1.772302 1.395474 0.396373
v -1.903534 1.260392 0.382402
v -1.897980 1.389215 0.282668
v 1.772302 0.129613 -0.635225
v 1.772302 -0.005908 -0.452401
v 1.897980 0.029539 -0.441336
v 1.903534 0.130197 -0.477331
v 2.000000 0.130875 -0.326269
v 1.772302 1.260977 -0.529796
v 1.772302 1.494092 -0.217163
v 1.897980 1.458646 -0.215318
v 2.000000 1.259714 -0.239523
v 1.965895 1.388738 -0.221987
v 1.772302 1.395474 -0.396373
v 1.903534 1.260392 -0.382401
v 1.897980 1.389215 -0.282667
v -1.772302 0.129613 -0.635225
v -1.772302 -0.005908 -0.452400
v -1.897980 0.029539 -0.441336
v -2.000000 0.130875 -0.326268
v -1.903534 0.130197 -0.477331
v -1.772302 1.260977 -0.529796
v -1.772302 1.494092 -0.217163
v -1.897980 1.458646 -0.215318
v -1.903534 1.260392 -0.382401
v -1.772302 1.395474 -0.396372
v -1.897980 1.389215 -0.282667
v -2.000000 1.259714 -0.239523
v -1.965895 1.388738 -0.221987
v 1.450065 -0.005908 0.594694
v 1.127829 -0.005908 0.594694
v 0.161118 -0.005908 0.594694
v -0.161118 -0.005908 0.594694
v -1.127829 -0.005908 0.594694
v -1.450065 -0.005908 0.594694
v 1.450065 0.129613 0.714784
v 1.127829 0.129613 0.714784
v 0.161118 0.129613 0.714784
v -0.161118 0.129613 0.714784
v -1.127829 0.129613 0.714784
v -1.450065 0.129613 0.714784
v -1.450065 1.494092 0.287033
v -1.127829 1.494092 0.287033
v -0.161118 1.494092 0.287033
v 0.161118 1.494092 0.287033
v 1.127829 1.494092 0.287033
v 1.450065 1.494092 0.287033
v -1.450065 1.395474 0.490328
v -1.127829 1.395474 0.490328
v -0.161118 1.395474 0.490328
v 0.161118 1.395474 0.490328
v 1.127829 1.395474 0.490328
v 1.450065 1.395474 0.490328
v -1.450065 1.260977 0.601606
v -1.127829 1.260977 0.601606
v -0.161118 1.260977 0.601606
v 0.161118 1.260977 0.601606
v 1.127829 1.260977 0.601606
v 1.450065 1.260977 0.601606
v -1.450065 -0.005908 -0.594694
v -1.127829 -0.005908 -0.594694
v -0.161118 -0.005908 -0.594694
v 0.161118 -0.005908 -0.594694
v 1.127829 -0.005908 -0.594694
v 1.450065 -0.005908 -0.594694
v -1.450065 0.129613 -0.714784
v -1.127829 0.129613 -0.714784
v -0.161118 0.129613 -0.714784
v 0.161118 0.129613 -0.714784
v 1.127829 0.129613 -0.714784
v 1.450065 0.129613 -0.714784
v 1.450065 1.494092 -0.287032
v 1.127829 1.494092 -0.287032
v 0.161118 1.494092 -0.287032
v -0.161118 1.494092 -0.287032
v -1.127829 1.494092 -0.287032
v -1.450065 1.494092 -0.287032
v 1.450065 1.395474 -0.490327
v 1.127829 1.395474 -0.490327
v 0.161118 1.395474 -0.490327
v -0.161118 1.395474 -0.490327
v -1.127829 1.395474 -0.490327
v -1.450065 1.395474 -0.490327
v 1.450065 1.260977 -0.601605
v 1.127829 1.260977 -0.601605
v 0.161118 1.260977 -0.601605
v -0.161118 1.260977 -0.601605
v -1.127829 1.260977 -0.601605
v -1.450065 1.260977 -0.601605
v 2.000000 1.053466 0.260424
v 2.000000 0.337124 0.323124
v 1.903534 1.053872 0.445532
v 1.903534 0.336717 0.519913
v 1.772302 1.054223 0.590400
v 1.772302 0.336366 0.676651
v -2.000000 0.337124 0.323124
v -2.000000 1.053466 0.260424
v -1.903534 0.336717 0.519914
v -1.903534 1.053872 0.445532
v -1.772302 0.336366 0.676651
v -1.772302 1.054223 0.590400
v -1.772302 1.054223 -0.590399
v -1.772302 0.336367 -0.676651
v -1.903534 0.336717 -0.519913
v -1.903534 1.053872 -0.445531
v -2.000000 0.337124 -0.323124
v -2.000000 1.053466 -0.260423
v 2.000000 0.337124 -0.323124
v 2.000000 1.053466 -0.260424
v 1.903534 0.336717 -0.519913
v 1.903534 1.053872 -0.445531
v 1.772302 0.336367 -0.676651
v 1.772302 1.054223 -0.590399
v 1.450065 1.054223 0.656311
v 1.450065 0.336366 0.750000
v 1.127829 1.054223 0.656311
v 1.127829 0.336366 0.750000
v 0.161118 1.054223 0.656312
v 0.161118 0.336366 0.750000
v -0.161118 1.054223 0.656312
v -0.161118 0.336366 0.750000
v -1.127829 1.054223 0.656312
v -1.127829 0.336366 0.750000
v -1.450065 1.054223 0.656312
v -1.450065 0.336366 0.750000
v -1.450065 1.054223 -0.656311
v -1.450065 0.336367 -0.750000
v -1.127829 1.054223 -0.656311
v -1.127829 0.336367 -0.750000
v -0.161118 1.054223 -0.656311
v -0.161118 0.336367 -0.750000
v 0.161118 1.054223 -0.656311
v 0.161118 0.336367 -0.750000
v 1.127829 1.054223 -0.656311
v 1.127829 0.336367 -0.750000
v 1.450065 1.054223 -0.656311
v 1.450065 0.336367 -0.750000
v -0.644474 -0.005908 0.395916
v -0.644474 0.129613 0.555914
v -0.644474 1.450855 0.190050
v -0.644474 1.352237 0.346884
v -0.644474 1.217739 0.463649
v -0.644474 -0.005908 -0.395914
v -0.644474 0.129613 -0.555912
v -0.644474 1.450855 -0.190048
v -0.644474 1.352237 -0.346882
v -0.644474 1.217739 -0.463647
v -0.644474 0.336367 -0.592165
v -0.644474 1.010986 -0.516683
v -0.644474 0.336366 0.592167
v -0.644474 1.010986 0.516685
v 0.644474 -0.005908 0.395915
v 0.644474 0.129613 0.555913
v 0.644474 1.450855 0.190050
v 0.644474 1.352237 0.346883
v 0.644474 1.217739 0.463648
v 0.644474 -0.005908 -0.395914
v 0.644474 0.129613 -0.555911
v 0.644474 1.450855 -0.190048
v 0.644474 1.352237 -0.346881
v 0.644474 1.217739 -0.463646
v 0.644474 0.336367 -0.592165
v 0.644474 1.010986 -0.516683
v 0.644474 0.336366 0.592167
v 0.644474 1.010986 0.516685
vt 0.090874 0.643083
vt 0.088056 0.652665
vt 0.084356 0.652665
vt 0.087478 0.643083
vt 0.023243 0.643083
vt 0.026062 0.652665
vt 0.029762 0.652665
vt 0.026639 0.643083
vt 0.024330 0.536316
vt 0.033750 0.530035
vt 0.034320 0.531678
vt 0.032465 0.536343
vt 0.024330 0.536316
vt 0.032465 0.536343
vt 0.034320 0.531678
vt 0.033750 0.530035
vt 0.045870 0.725968
vt 0.036636 0.690148
vt 0.042495 0.689858
vt 0.045965 0.693076
vt 0.029762 0.652665
vt 0.037356 0.652638
vt 0.044718 0.652606
vt 0.045621 0.689836
vt 0.040248 0.536374
vt 0.089788 0.536316
vt 0.081653 0.536343
vt 0.079798 0.531678
vt 0.080368 0.530035
vt 0.044718 0.652606
vt 0.037356 0.652638
vt 0.042495 0.689858
vt 0.045621 0.689836
vt 0.036636 0.690148
vt 0.045870 0.725968
vt 0.045965 0.693076
vt 0.020231 0.536316
vt 0.026418 0.530035
vt 0.073869 0.536374
vt 0.079798 0.531678
vt 0.073869 0.536374
vt 0.081653 0.536343
vt 0.068248 0.725968
vt 0.068153 0.693076
vt 0.068496 0.689836
vt 0.069400 0.652606
vt 0.080368 0.530035
vt 0.076761 0.652638
vt 0.071623 0.689858
vt 0.077481 0.690148
vt 0.087700 0.530035
vt 0.093887 0.536316
vt 0.068248 0.725968
vt 0.068153 0.693076
vt 0.089788 0.536316
vt 0.026418 0.530035
vt 0.020231 0.536316
vt 0.068496 0.689836
vt 0.069400 0.652606
vt 0.077481 0.690148
vt 0.071623 0.689858
vt 0.084356 0.652665
vt 0.076761 0.652638
vt 0.026418 0.530035
vt 0.020231 0.536316
vt 0.043641 0.643048
vt 0.034103 0.643067
vt 0.026639 0.643083
vt 0.042270 0.725968
vt 0.031796 0.690148
vt 0.040410 0.609850
vt 0.030271 0.609832
vt 0.022195 0.609815
vt 0.091922 0.609815
vt 0.083847 0.609832
vt 0.073707 0.609850
vt 0.043641 0.643048
vt 0.070477 0.643048
vt 0.087700 0.530035
vt 0.087700 0.530035
vt 0.093887 0.536316
vt 0.093887 0.536316
vt 0.071848 0.725968
vt 0.082322 0.690148
vt 0.073707 0.609850
vt 0.083847 0.609832
vt 0.091922 0.609815
vt 0.042270 0.725968
vt 0.082322 0.690148
vt 0.088056 0.652665
vt 0.082322 0.690148
vt 0.088056 0.652665
vt 0.082322 0.690148
vt 0.088056 0.652665
vt 0.084356 0.652665
vt 0.077481 0.690148
vt 0.077481 0.690148
vt 0.084356 0.652665
vt 0.088056 0.652665
vt 0.082322 0.690148
vt 0.082322 0.690148
vt 0.088056 0.652665
vt 0.068248 0.725968
vt 0.071848 0.725968
vt 0.071848 0.725968
vt 0.071848 0.725968
vt 0.068248 0.725968
vt 0.071848 0.725968
vt 0.071848 0.725968
vt 0.080368 0.530035
vt 0.089788 0.536316
vt 0.093887 0.536316
vt 0.087700 0.530035
vt 0.042270 0.725968
vt 0.045870 0.725968
vt 0.042270 0.725968
vt 0.042270 0.725968
vt 0.045870 0.725968
vt 0.042270 0.725968
vt 0.095701 0.609815
vt 0.091922 0.609815
vt 0.089788 0.536316
vt 0.040410 0.609850
vt 0.040248 0.536374
vt 0.087700 0.530035
vt 0.093887 0.536316
vt 0.080368 0.530035
vt 0.093887 0.536316
vt 0.087700 0.530035
vt 0.036636 0.690148
vt 0.029762 0.652665
vt 0.026062 0.652665
vt 0.031796 0.690148
vt 0.018416 0.609815
vt 0.022195 0.609815
vt 0.024330 0.536316
vt 0.033750 0.530035
vt 0.026418 0.530035
vt 0.026418 0.530035
vt 0.033750 0.530035
vt 0.026418 0.530035
vt 0.031796 0.690148
vt 0.026062 0.652665
vt 0.031796 0.690148
vt 0.026062 0.652665
vt 0.036636 0.690148
vt 0.029762 0.652665
vt 0.026062 0.652665
vt 0.031796 0.690148
vt 0.031796 0.690148
vt 0.026062 0.652665
vt 0.024330 0.536316
vt 0.020231 0.536316
vt 0.020231 0.536316
vt 0.020231 0.536316
vt 0.023243 0.643083
vt 0.023243 0.643083
vt 0.026639 0.643083
vt 0.023243 0.643083
vt 0.018416 0.609815
vt 0.023243 0.643083
vt 0.026639 0.643083
vt 0.022195 0.609815
vt 0.018416 0.609815
vt 0.023243 0.643083
vt 0.018416 0.609815
vt 0.087478 0.643083
vt 0.090874 0.643083
vt 0.090874 0.643083
vt 0.087478 0.643083
vt 0.090874 0.643083
vt 0.095701 0.609815
vt 0.090874 0.643083
vt 0.087478 0.643083
vt 0.091922 0.609815
vt 0.095701 0.609815
vt 0.090874 0.643083
vt 0.095701 0.609815
vt 0.095701 0.609815
vt 0.095701 0.609815
vt 0.018416 0.609815
vt 0.018416 0.609815
vt 0.022195 0.609815
vt 0.080014 0.643067
vt 0.070477 0.643048
vt 0.080014 0.643067
vt 0.034103 0.643067
vt 0.030271 0.609832
vn 0.1032 0.1931 -0.9757
vn 0.0990 0.4616 -0.8815
vn 0.4496 0.4286 -0.7837
vn 0.4926 0.1710 -0.8533
vn -0.1032 0.1931 0.9757
vn -0.0990 0.4616 0.8815
vn -0.4496 0.4286 0.7837
vn -0.4926 0.1710 0.8533
vn 0.4581 -0.4236 0.7815
vn 0.2503 -0.9183 0.3069
vn 0.5971 -0.7175 0.3587
vn 0.7591 -0.2720 0.5914
vn -0.4581 -0.4236 0.7815
vn -0.7591 -0.2720 0.5914
vn -0.5971 -0.7175 0.3587
vn -0.2503 -0.9183 0.3069
vn 0.1895 0.9531 0.2358
vn 0.3464 0.7281 0.5915
vn 0.5687 0.5823 0.5810
vn 0.4992 0.8232 0.2705
vn 0.4496 0.4286 0.7837
vn 0.7436 0.3151 0.5897
vn 0.9402 0.1892 0.2833
vn 0.8174 0.4957 0.2936
vn -0.9221 -0.3320 0.1988
vn 0.4581 -0.4236 -0.7815
vn 0.7591 -0.2720 -0.5914
vn 0.5971 -0.7175 -0.3587
vn 0.2503 -0.9183 -0.3069
vn -0.9402 0.1892 0.2833
vn -0.7436 0.3151 0.5897
vn -0.5687 0.5823 0.5810
vn -0.8174 0.4957 0.2936
vn -0.3464 0.7281 0.5915
vn -0.1895 0.9531 0.2358
vn -0.4992 0.8232 0.2705
vn 0.1166 -0.4475 0.8866
vn 0.0730 -0.9044 0.4203
vn 0.9221 -0.3320 -0.1988
vn -0.5971 -0.7175 -0.3587
vn -0.9221 -0.3320 -0.1988
vn -0.7591 -0.2720 -0.5914
vn 0.1895 0.9531 -0.2358
vn 0.4992 0.8232 -0.2705
vn 0.8174 0.4957 -0.2936
vn 0.9402 0.1892 -0.2833
vn -0.2503 -0.9183 -0.3069
vn 0.7436 0.3151 -0.5897
vn 0.5687 0.5823 -0.5810
vn 0.3464 0.7281 -0.5915
vn 0.0730 -0.9044 -0.4203
vn 0.1166 -0.4475 -0.8866
vn -0.1895 0.9531 -0.2358
vn -0.4992 0.8232 -0.2705
vn -0.4581 -0.4236 -0.7815
vn -0.0730 -0.9044 0.4203
vn -0.1166 -0.4475 0.8866
vn -0.8174 0.4957 -0.2936
vn -0.9402 0.1892 -0.2833
vn -0.3464 0.7281 -0.5915
vn -0.5687 0.5823 -0.5810
vn -0.4496 0.4286 -0.7837
vn -0.7436 0.3151 -0.5897
vn -0.1351 -0.6867 0.7143
vn -0.1444 -0.4335 0.8895
vn 0.9679 0.0386 0.2484
vn 0.8119 0.1074 0.5739
vn 0.4926 0.1710 0.8533
vn -0.0335 0.9691 0.2445
vn -0.0790 0.7800 0.6207
vn -0.9693 -0.0001 0.2459
vn -0.8226 -0.0165 0.5684
vn -0.5036 -0.0291 0.8635
vn -0.5036 -0.0291 -0.8635
vn -0.8226 -0.0165 -0.5684
vn -0.9693 -0.0001 -0.2459
vn -0.9679 0.0386 0.2484
vn -0.9679 0.0386 -0.2484
vn 0.1351 -0.6867 -0.7143
vn -0.0730 -0.9044 -0.4203
vn -0.1166 -0.4475 -0.8866
vn 0.1444 -0.4335 -0.8895
vn 0.0335 0.9691 -0.2445
vn 0.0790 0.7800 -0.6207
vn 0.9693 -0.0001 -0.2459
vn 0.8226 -0.0165 -0.5684
vn 0.5036 -0.0291 -0.8635
vn 0.0335 0.9691 0.2445
vn -0.0790 0.7800 -0.6207
vn -0.0990 0.4616 -0.8815
vn 0.1192 0.7696 -0.6272
vn 0.1414 0.4516 -0.8809
vn -0.1192 0.7696 -0.6272
vn -0.1414 0.4516 -0.8809
vn 0.0000 0.4676 -0.8839
vn -0.0000 0.7873 -0.6165
vn -0.0000 0.9751 -0.2216
vn 0.0754 0.9660 -0.2474
vn -0.0335 0.9691 -0.2445
vn -0.0754 0.9660 -0.2474
vn -0.0000 -0.7186 -0.6954
vn -0.0000 -0.4953 -0.8687
vn -0.1444 -0.4335 -0.8895
vn -0.1351 -0.6867 -0.7143
vn 0.0754 0.9660 0.2474
vn 0.0000 0.9751 0.2216
vn -0.0754 0.9660 0.2474
vn 0.1521 -0.0215 -0.9881
vn -0.0000 -0.0257 -0.9997
vn 0.9693 -0.0001 0.2459
vn 0.9221 -0.3320 0.1988
vn 0.0000 0.7873 0.6165
vn 0.0000 0.4676 0.8839
vn -0.1414 0.4516 0.8809
vn -0.1192 0.7696 0.6272
vn -0.0000 -1.0000 -0.0000
vn -0.1521 -0.0215 0.9881
vn 0.0000 -0.0257 0.9997
vn 0.0000 -0.4953 0.8687
vn 0.0790 0.7800 0.6207
vn 0.0990 0.4616 0.8815
vn 0.1192 0.7696 0.6272
vn 0.1414 0.4516 0.8809
vn 0.0000 -0.7186 0.6954
vn 0.1444 -0.4335 0.8895
vn 0.1351 -0.6867 0.7143
vn 0.1032 0.1931 0.9757
vn -0.1471 0.1886 0.9710
vn 0.0000 0.1855 0.9827
vn 0.1471 0.1886 0.9710
vn 0.1521 -0.0215 0.9881
vn -0.4926 0.1710 -0.8533
vn -0.1032 0.1931 -0.9757
vn 0.1472 0.1886 -0.9710
vn 0.0000 0.1855 -0.9827
vn -0.1472 0.1886 -0.9710
vn -0.1521 -0.0215 -0.9881
vn 0.1099 -0.0238 -0.9937
vn -0.1099 -0.0238 -0.9937
vn -0.1099 -0.0238 0.9937
vn 0.1099 -0.0238 0.9937
vn 0.5036 -0.0291 0.8635
vn 0.8119 0.1074 -0.5739
vn 0.9679 0.0386 -0.2484
vn -0.8119 0.1074 -0.5739
vn -0.8119 0.1074 0.5739
vn 0.8226 -0.0165 0.5684
usemtl tiny_treats_1
s 1
f 159/1/1 107/2/2 32/3/3 136/4/4
f 147/5/5 77/6/6 19/7/7 124/8/8
f 1/9/9 2/10/10 3/11/11 5/12/12
f 14/13/13 17/14/14 16/15/15 15/16/16
f 9/17/17 12/18/18 13/19/19 10/20/20
f 6/21/21 11/22/22 13/19/19 12/18/18
f 11/22/22 7/23/23 8/24/24 13/19/19
f 8/24/24 10/20/20 13/19/19
f 16/15/15 17/14/14 18/25/25
f 27/26/26 30/27/27 29/28/28 28/29/29
f 2/10/10 28/29/29 29/28/28 3/11/11
f 22/30/30 25/31/31 26/32/32 23/33/33
f 19/7/7 24/34/34 26/32/32 25/31/31
f 24/34/34 20/35/35 21/36/36 26/32/32
f 21/36/36 23/33/33 26/32/32
f 1/9/9 59/37/37 53/38/38 2/10/10
f 29/28/28 30/27/27 31/39/39
f 42/40/40 43/41/41 44/42/42
f 33/43/43 9/17/17 10/20/20 34/44/44
f 34/44/44 10/20/20 8/24/24 36/45/45
f 36/45/45 8/24/24 7/23/23 35/46/46
f 41/47/47 15/16/16 16/15/15 42/40/40
f 35/46/46 38/48/48 39/49/49 36/45/45
f 32/3/3 37/50/50 39/49/49 38/48/48
f 37/50/50 33/43/43 34/44/44 39/49/49
f 34/44/44 36/45/45 39/49/49
f 28/29/29 88/51/51 94/52/52 27/26/26
f 20/35/35 46/53/53 47/54/54 21/36/36
f 40/55/55 41/47/47 42/40/40 44/42/42
f 15/16/16 58/56/56 64/57/57 14/13/13
f 23/33/33 52/58/58 51/59/59 22/30/30
f 46/53/53 49/60/60 50/61/61 47/54/54
f 45/62/62 48/63/63 50/61/61 49/60/60
f 48/63/63 51/59/59 52/58/58 50/61/61
f 21/36/36 47/54/54 52/58/58 23/33/33
f 47/54/54 50/61/61 52/58/58
f 54/64/64 53/38/38 59/37/37 60/65/65
f 113/66/66 7/23/23 11/22/22 115/67/67
f 115/67/67 11/22/22 6/21/21 117/68/68
f 65/69/69 20/35/35 24/34/34 71/70/70
f 71/70/70 24/34/34 19/7/7 77/6/6
f 119/71/71 18/25/25 17/14/14 121/72/72
f 121/72/72 17/14/14 14/13/13 123/73/73
f 126/74/74 40/55/55 44/42/42 127/75/75
f 127/75/75 44/42/42 43/41/41 129/76/76
f 120/77/77 130/78/78 129/76/76 119/71/71
f 84/79/79 83/80/80 89/81/81 90/82/82
f 95/83/83 33/43/43 37/50/50 101/84/84
f 101/84/84 37/50/50 32/3/3 107/2/2
f 15/16/16 41/47/47 83/80/80 58/56/56
f 131/85/85 31/39/39 30/27/27 133/86/86
f 133/86/86 30/27/27 27/26/26 135/87/87
f 33/43/43 95/83/83 70/88/88 9/17/17
f 49/60/60 106/89/89 112/90/90 45/62/62
f 106/89/89 105/91/91 111/92/92 112/90/90
f 104/93/93 110/94/94 170/95/95 169/96/96
f 183/97/96 184/98/95 109/99/92 103/100/91
f 104/93/93 103/100/91 109/99/92 110/94/94
f 102/101/93 108/102/94 184/98/95 183/97/96
f 168/103/97 169/96/96 105/91/91 99/104/98
f 102/101/93 101/84/84 107/2/2 108/102/94
f 46/53/53 100/105/99 106/89/89 49/60/60
f 100/105/99 99/104/98 105/91/91 106/89/89
f 98/106/100 104/93/93 169/96/96 168/103/97
f 182/107/97 183/97/96 103/100/91 97/108/98
f 98/106/100 97/108/98 103/100/91 104/93/93
f 96/109/100 102/101/93 183/97/96 182/107/97
f 180/110/101 181/111/102 93/112/103 87/113/104
f 96/109/100 95/83/83 101/84/84 102/101/93
f 100/105/99 65/69/69 66/114/105 99/104/98
f 163/115/106 67/116/107 98/106/100 168/103/97
f 68/117/105 177/118/106 182/107/97 97/108/98
f 98/106/100 67/116/107 68/117/105 97/108/98
f 177/118/106 69/119/107 96/109/100 182/107/97
f 152/120/108 171/121/109 167/122/102 90/82/82
f 96/109/100 69/119/107 70/88/88 95/83/83
f 131/85/85 114/123/110 4/124/111 31/39/39
f 3/11/11 29/28/28 31/39/39 4/124/111
f 88/51/51 87/113/104 93/112/103 94/52/52
f 86/125/79 92/126/82 181/111/102 180/110/101
f 166/127/101 167/122/102 91/128/103 85/129/104
f 86/125/79 85/129/104 91/128/103 92/126/82
f 84/79/79 90/82/82 167/122/102 166/127/101
f 178/130/112 179/131/113 81/132/114 75/133/115
f 88/51/51 53/38/38 54/64/116 87/113/116
f 140/134/117 187/135/118 176/136/119 60/65/65
f 54/64/116 175/137/116 180/110/116 87/113/116
f 86/125/116 55/138/116 56/139/116 85/129/116
f 175/137/116 55/138/116 86/125/116 180/110/116
f 56/139/116 161/140/116 166/127/116 85/129/116
f 84/79/116 57/141/116 58/56/56 83/80/80
f 46/53/53 20/35/35 65/69/69 100/105/99
f 12/18/18 76/142/120 82/143/121 6/21/21
f 76/142/120 75/133/115 81/132/114 82/143/121
f 74/144/122 80/145/123 179/131/113 178/130/112
f 164/146/112 165/147/113 79/148/114 73/149/115
f 74/144/122 73/149/115 79/148/114 80/145/123
f 72/150/122 78/151/123 165/147/113 164/146/112
f 177/118/106 178/130/112 75/133/115 69/119/107
f 72/150/122 71/70/70 77/6/6 78/151/123
f 9/17/17 70/88/88 76/142/120 12/18/18
f 70/88/88 69/119/107 75/133/115 76/142/120
f 68/117/105 74/144/122 178/130/112 177/118/106
f 163/115/106 164/146/112 73/149/115 67/116/107
f 68/117/105 67/116/107 73/149/115 74/144/122
f 66/114/105 72/150/122 164/146/112 163/115/106
f 161/140/124 162/152/119 63/153/125 57/141/126
f 66/114/105 65/69/69 71/70/70 72/150/122
f 88/51/51 28/29/29 2/10/10 53/38/38
f 18/25/25 43/41/41 42/40/40 16/15/15
f 40/55/55 89/81/81 83/80/80 41/47/47
f 58/56/56 57/141/126 63/153/125 64/57/57
f 56/139/64 62/154/65 162/152/119 161/140/124
f 175/137/124 176/136/119 61/155/125 55/138/126
f 56/139/64 55/138/126 61/155/125 62/154/65
f 54/64/64 60/65/65 176/136/119 175/137/124
f 161/140/116 57/141/116 84/79/116 166/127/116
f 117/68/68 6/21/21 82/143/121 137/156/127
f 137/156/127 82/143/121 81/132/114 139/157/128
f 139/157/128 188/158/129 187/135/118 140/134/117
f 188/158/129 141/159/130 142/160/131 187/135/118
f 141/159/130 80/145/123 79/148/114 143/161/128
f 143/161/128 174/162/129 173/163/118 144/164/117
f 174/162/129 145/165/130 146/166/131 173/163/118
f 145/165/130 78/151/123 77/6/6 147/5/5
f 125/167/132 45/62/62 112/90/90 149/168/133
f 149/168/133 112/90/90 111/92/92 151/169/134
f 151/169/134 172/170/135 171/121/109 152/120/108
f 172/170/135 153/171/136 154/172/137 171/121/109
f 153/171/136 110/94/94 109/99/92 155/173/134
f 155/173/134 186/174/135 185/175/109 156/176/108
f 186/174/135 157/177/136 158/178/137 185/175/109
f 157/177/136 108/102/94 107/2/2 159/1/1
f 93/112/103 158/178/137 160/179/138 94/52/52
f 157/177/136 159/1/1 160/179/138 158/178/137
f 179/131/113 188/158/129 139/157/128 81/132/114
f 181/111/102 185/175/109 158/178/137 93/112/103
f 108/102/94 157/177/136 186/174/135 184/98/95
f 91/128/103 154/172/137 156/176/108 92/126/82
f 153/171/136 155/173/134 156/176/108 154/172/137
f 156/176/108 185/175/109 181/111/102 92/126/82
f 184/98/95 186/174/135 155/173/134 109/99/92
f 167/122/102 171/121/109 154/172/137 91/128/103
f 110/94/94 153/171/136 172/170/135 170/95/95
f 89/81/81 150/180/139 152/120/108 90/82/82
f 149/168/133 151/169/134 152/120/108 150/180/139
f 40/55/55 126/74/74 150/180/139 89/81/81
f 125/167/132 149/168/133 150/180/139 126/74/74
f 63/153/125 146/166/131 148/181/140 64/57/57
f 145/165/130 147/5/5 148/181/140 146/166/131
f 66/114/105 163/115/106 168/103/97 99/104/98
f 170/95/95 172/170/135 151/169/134 111/92/92
f 162/152/119 173/163/118 146/166/131 63/153/125
f 78/151/123 145/165/130 174/162/129 165/147/113
f 61/155/125 142/160/131 144/164/117 62/154/65
f 141/159/130 143/161/128 144/164/117 142/160/131
f 144/164/117 173/163/118 162/152/119 62/154/65
f 165/147/113 174/162/129 143/161/128 79/148/114
f 176/136/119 187/135/118 142/160/131 61/155/125
f 80/145/123 141/159/130 188/158/129 179/131/113
f 59/37/37 138/182/141 140/134/117 60/65/65
f 137/156/127 139/157/128 140/134/117 138/182/141
f 1/9/9 118/183/142 138/182/141 59/37/37
f 117/68/68 137/156/127 138/182/141 118/183/142
f 38/48/48 134/184/143 136/4/4 32/3/3
f 133/86/86 135/87/87 136/4/4 134/184/143
f 35/46/46 132/185/144 134/184/143 38/48/48
f 131/85/85 133/86/86 134/184/143 132/185/144
f 132/185/144 113/66/66 114/123/110 131/85/85
f 7/23/23 113/66/66 132/185/144 35/46/46
f 48/63/63 128/186/145 130/78/78 51/59/59
f 127/75/75 129/76/76 130/78/78 128/186/145
f 45/62/62 125/167/132 128/186/145 48/63/63
f 125/167/132 126/74/74 127/75/75 128/186/145
f 25/31/31 122/187/146 124/8/8 19/7/7
f 121/72/72 123/73/73 124/8/8 122/187/146
f 22/30/30 120/77/77 122/187/146 25/31/31
f 119/71/71 121/72/72 122/187/146 120/77/77
f 119/71/71 129/76/76 43/41/41 18/25/25
f 5/12/12 116/188/147 118/183/142 1/9/9
f 115/67/67 117/68/68 118/183/142 116/188/147
f 4/124/111 114/123/110 116/188/147 5/12/12
f 113/66/66 115/67/67 116/188/147 114/123/110
f 51/59/59 130/78/78 120/77/77 22/30/30
f 64/57/57 148/181/140 123/73/73 14/13/13
f 147/5/5 124/8/8 123/73/73 148/181/140
f 94/52/52 160/179/138 135/87/87 27/26/26
f 159/1/1 136/4/4 135/87/87 160/179/138
f 3/11/11 4/124/111 5/12/12
f 169/96/96 170/95/95 111/92/92 105/91/91
