{
    "asset" : {
        "generator" : "Khronos glTF Blender I/O v3.4.50",
        "version" : "2.0"
    },
    "extensionsUsed" : [
        "KHR_materials_specular",
        "KHR_materials_ior"
    ],
    "scene" : 0,
    "scenes" : [
        {
            "name" : "Scene",
            "nodes" : [
                2
            ]
        }
    ],
    "nodes" : [
        {
            "mesh" : 0,
            "name" : "swing_B_large_seat_A",
            "translation" : [
                -0.9999923706054688,
                3.438776969909668,
                0
            ]
        },
        {
            "mesh" : 1,
            "name" : "swing_B_large_seat_B",
            "translation" : [
                1.0000076293945312,
                3.438776969909668,
                0
            ]
        },
        {
            "children" : [
                0,
                1
            ],
            "mesh" : 2,
            "name" : "swing_B_large"
        }
    ],
    "materials" : [
        {
            "extensions" : {
                "KHR_materials_specular" : {
                    "specularColorFactor" : [
                        0.711407312601205,
                        0.711407312601205,
                        0.711407312601205
                    ]
                },
                "KHR_materials_ior" : {
                    "ior" : 1.4500000476837158
                }
            },
            "name" : "tiny_treats_1",
            "pbrMetallicRoughness" : {
                "baseColorTexture" : {
                    "index" : 0
                },
                "metallicFactor" : 0,
                "roughnessFactor" : 0.5
            }
        }
    ],
    "meshes" : [
        {
            "name" : "swing_B_large_seat_A",
            "primitives" : [
                {
                    "attributes" : {
                        "POSITION" : 0,
                        "TEXCOORD_0" : 1,
                        "NORMAL" : 2
                    },
                    "indices" : 3,
                    "material" : 0
                }
            ]
        },
        {
            "name" : "swing_B_large_seat_B",
            "primitives" : [
                {
                    "attributes" : {
                        "POSITION" : 4,
                        "TEXCOORD_0" : 5,
                        "NORMAL" : 6
                    },
                    "indices" : 3,
                    "material" : 0
                }
            ]
        },
        {
            "name" : "swing_B_large",
            "primitives" : [
                {
                    "attributes" : {
                        "POSITION" : 7,
                        "TEXCOORD_0" : 8,
                        "NORMAL" : 9
                    },
                    "indices" : 10,
                    "material" : 0
                }
            ]
        }
    ],
    "textures" : [
        {
            "sampler" : 0,
            "source" : 0
        }
    ],
    "images" : [
        {
            "mimeType" : "image/png",
            "name" : "tiny_treats_texture_1",
            "uri" : "tiny_treats_texture_1.png"
        }
    ],
    "accessors" : [
        {
            "bufferView" : 0,
            "componentType" : 5126,
            "count" : 362,
            "max" : [
                0.7999926805496216,
                -0.16000103950500488,
                0.40000006556510925
            ],
            "min" : [
                -0.8000074625015259,
                -3.3200011253356934,
                -0.4000000059604645
            ],
            "type" : "VEC3"
        },
        {
            "bufferView" : 1,
            "componentType" : 5126,
            "count" : 362,
            "type" : "VEC2"
        },
        {
            "bufferView" : 2,
            "componentType" : 5126,
            "count" : 362,
            "type" : "VEC3"
        },
        {
            "bufferView" : 3,
            "componentType" : 5123,
            "count" : 1140,
            "type" : "SCALAR"
        },
        {
            "bufferView" : 4,
            "componentType" : 5126,
            "count" : 362,
            "max" : [
                0.7999926805496216,
                -0.16000103950500488,
                0.40000006556510925
            ],
            "min" : [
                -0.8000074625015259,
                -3.3200011253356934,
                -0.4000000059604645
            ],
            "type" : "VEC3"
        },
        {
            "bufferView" : 5,
            "componentType" : 5126,
            "count" : 362,
            "type" : "VEC2"
        },
        {
            "bufferView" : 6,
            "componentType" : 5126,
            "count" : 362,
            "type" : "VEC3"
        },
        {
            "bufferView" : 7,
            "componentType" : 5126,
            "count" : 250,
            "max" : [
                2.9999969005584717,
                3.876244306564331,
                1.5324766635894775
            ],
            "min" : [
                -3.000004291534424,
                -0.06542563438415527,
                -1.5324770212173462
            ],
            "type" : "VEC3"
        },
        {
            "bufferView" : 8,
            "componentType" : 5126,
            "count" : 250,
            "type" : "VEC2"
        },
        {
            "bufferView" : 9,
            "componentType" : 5126,
            "count" : 250,
            "type" : "VEC3"
        },
        {
            "bufferView" : 10,
            "componentType" : 5123,
            "count" : 1320,
            "type" : "SCALAR"
        }
    ],
    "bufferViews" : [
        {
            "buffer" : 0,
            "byteLength" : 4344,
            "byteOffset" : 0,
            "target" : 34962
        },
        {
            "buffer" : 0,
            "byteLength" : 2896,
            "byteOffset" : 4344,
            "target" : 34962
        },
        {
            "buffer" : 0,
            "byteLength" : 4344,
            "byteOffset" : 7240,
            "target" : 34962
        },
        {
            "buffer" : 0,
            "byteLength" : 2280,
            "byteOffset" : 11584,
            "target" : 34963
        },
        {
            "buffer" : 0,
            "byteLength" : 4344,
            "byteOffset" : 13864,
            "target" : 34962
        },
        {
            "buffer" : 0,
            "byteLength" : 2896,
            "byteOffset" : 18208,
            "target" : 34962
        },
        {
            "buffer" : 0,
            "byteLength" : 4344,
            "byteOffset" : 21104,
            "target" : 34962
        },
        {
            "buffer" : 0,
            "byteLength" : 3000,
            "byteOffset" : 25448,
            "target" : 34962
        },
        {
            "buffer" : 0,
            "byteLength" : 2000,
            "byteOffset" : 28448,
            "target" : 34962
        },
        {
            "buffer" : 0,
            "byteLength" : 3000,
            "byteOffset" : 30448,
            "target" : 34962
        },
        {
            "buffer" : 0,
            "byteLength" : 2640,
            "byteOffset" : 33448,
            "target" : 34963
        }
    ],
    "samplers" : [
        {
            "magFilter" : 9729,
            "minFilter" : 9987
        }
    ],
    "buffers" : [
        {
            "byteLength" : 36088,
            "uri" : "swing_B_large.bin"
        }
    ]
}
